<svg xmlns="http://www.w3.org/2000/svg" width="367" height="341" viewBox="0 0 367 341">
  <g id="Grupo_971948" data-name="Grupo 971948" transform="translate(784 9099)">
    <rect id="Rectángulo_341337" data-name="Rectángulo 341337" width="367" height="341" rx="12" transform="translate(-784 -9099)" fill="#fff"/>
    <g id="Grupo_971922" data-name="Grupo 971922" transform="translate(-1715.853 -11627.916)">
      <path id="Trazado_214064" data-name="Trazado 214064" d="M106.172,3.319A105.222,105.222,0,0,1,147.118,205.44,105.221,105.221,0,0,1,65.226,11.586a104.532,104.532,0,0,1,40.946-8.267m0-.978A106.172,106.172,0,1,0,212.344,108.514,106.172,106.172,0,0,0,106.172,2.341" transform="translate(943.755 2536.803)" fill="none" stroke="#feca2e" stroke-width="2"/>
      <path id="Trazado_214065" data-name="Trazado 214065" d="M417.586.978A105.222,105.222,0,0,1,458.532,203.1,105.221,105.221,0,0,1,376.64,9.245,104.532,104.532,0,0,1,417.586.978m0-.978A106.172,106.172,0,1,0,523.758,106.172,106.172,106.172,0,0,0,417.586,0" transform="translate(762.487 2538.166)" fill="#a7e446" stroke="#a7e446" stroke-width="2"/>
      <path id="Trazado_214066" data-name="Trazado 214066" d="M267.733,260.88a104.863,104.863,0,1,1-40.946,8.266,104.532,104.532,0,0,1,40.946-8.266m0-.978A106.172,106.172,0,1,0,373.905,366.074,106.172,106.172,0,0,0,267.733,259.9" transform="translate(849.713 2386.882)" fill="none" stroke="#fc4b52" stroke-width="2"/>
      <text id="Social" transform="translate(987.788 2629.441)" fill="#12263f" font-size="13" font-family="Roboto-Black, Roboto" font-weight="800"><tspan x="0" y="0">Social</tspan></text>
      <text id="Medio_ambiente" data-name="Medio ambiente" transform="translate(1169.378 2629.441)" fill="#12263f" font-size="13" font-family="Roboto-Black, Roboto" font-weight="800"><tspan x="0" y="0">Medio ambiente</tspan></text>
      <text id="Soportable_" data-name="Soportable " transform="translate(1083.089 2633.441)" fill="#12263f" font-size="13" font-family="Roboto-Black, Roboto" font-weight="800"><tspan x="0" y="0">Soportable </tspan></text>
      <text id="Sostenible_" data-name="Sostenible " transform="translate(1084.925 2672.404)" fill="#12263f" font-size="13" font-family="Roboto-Black, Roboto" font-weight="800"><tspan x="0" y="0">Sostenible </tspan></text>
      <text id="Equitativo" transform="translate(1030.598 2727.978)" fill="#12263f" font-size="13" font-family="Roboto-Black, Roboto" font-weight="800"><tspan x="0" y="0">Equitativo</tspan></text>
      <text id="Viable_" data-name="Viable " transform="translate(1156.232 2727.86)" fill="#12263f" font-size="13" font-family="Roboto-Black, Roboto" font-weight="800"><tspan x="0" y="0">Viable </tspan></text>
      <text id="Económico_" data-name="Económico " transform="translate(1081.089 2795.86)" fill="#12263f" font-size="13" font-family="Roboto-Black, Roboto" font-weight="800"><tspan x="0" y="0">Económico </tspan></text>
    </g>
  </g>
</svg>
