<svg xmlns="http://www.w3.org/2000/svg" xmlns:xlink="http://www.w3.org/1999/xlink" width="150.393" height="150" viewBox="0 0 150.393 150">
  <defs>
    <clipPath id="clip-path">
      <rect id="Rectángulo_341289" data-name="Rectángulo 341289" width="149.999" height="150" fill="none"/>
    </clipPath>
    <clipPath id="clip-path-3">
      <rect id="Rectángulo_341276" data-name="Rectángulo 341276" width="14.262" height="52.068" fill="none"/>
    </clipPath>
    <clipPath id="clip-path-4">
      <rect id="Rectángulo_341277" data-name="Rectángulo 341277" width="14.262" height="86.581" fill="none"/>
    </clipPath>
    <clipPath id="clip-path-5">
      <rect id="Rectángulo_341278" data-name="Rectángulo 341278" width="14.262" height="63.614" fill="none"/>
    </clipPath>
    <clipPath id="clip-path-6">
      <rect id="Rectángulo_341279" data-name="Rectángulo 341279" width="14.262" height="42.069" fill="none"/>
    </clipPath>
    <clipPath id="clip-path-7">
      <rect id="Rectángulo_341280" data-name="Rectángulo 341280" width="14.262" height="58.467" fill="none"/>
    </clipPath>
    <clipPath id="clip-path-8">
      <rect id="Rectángulo_341281" data-name="Rectángulo 341281" width="27.641" height="27.641" fill="none"/>
    </clipPath>
    <clipPath id="clip-path-9">
      <rect id="Rectángulo_341282" data-name="Rectángulo 341282" width="14.547" height="53.11" fill="none"/>
    </clipPath>
    <clipPath id="clip-path-10">
      <rect id="Rectángulo_341283" data-name="Rectángulo 341283" width="14.547" height="88.312" fill="none"/>
    </clipPath>
    <clipPath id="clip-path-11">
      <rect id="Rectángulo_341284" data-name="Rectángulo 341284" width="14.547" height="64.886" fill="none"/>
    </clipPath>
    <clipPath id="clip-path-12">
      <rect id="Rectángulo_341285" data-name="Rectángulo 341285" width="14.547" height="42.91" fill="none"/>
    </clipPath>
    <clipPath id="clip-path-13">
      <rect id="Rectángulo_341286" data-name="Rectángulo 341286" width="14.547" height="59.636" fill="none"/>
    </clipPath>
    <clipPath id="clip-path-14">
      <rect id="Rectángulo_341287" data-name="Rectángulo 341287" width="28.194" height="28.194" fill="none"/>
    </clipPath>
  </defs>
  <g id="Grupo_971808" data-name="Grupo 971808" transform="translate(189 10978)">
    <rect id="Rectángulo_341275" data-name="Rectángulo 341275" width="150" height="150" transform="translate(-189 -10978)" fill="none"/>
    <g id="Grupo_971807" data-name="Grupo 971807" transform="translate(-188.607 -10978)">
      <g id="Grupo_971806" data-name="Grupo 971806" clip-path="url(#clip-path)">
        <g id="Grupo_971805" data-name="Grupo 971805">
          <g id="Grupo_971804" data-name="Grupo 971804" clip-path="url(#clip-path)">
            <path id="Trazado_214715" data-name="Trazado 214715" d="M324.669,339.232V289.817a2.653,2.653,0,0,0-2.653-2.653H310.232a2.653,2.653,0,0,0-2.653,2.653v49.415Z" transform="translate(-215.193 -200.91)" fill="#0e9c4a"/>
            <g id="Grupo_971770" data-name="Grupo 971770" transform="translate(95.218 86.254)" opacity="0.1" style="isolation: isolate">
              <g id="Grupo_971769" data-name="Grupo 971769">
                <g id="Grupo_971768" data-name="Grupo 971768" clip-path="url(#clip-path-3)">
                  <path id="Trazado_214716" data-name="Trazado 214716" d="M331.271,339.232V289.817a2.655,2.655,0,0,0-2.653-2.653h-2.335v38.6a14.427,14.427,0,0,1-9.273,13.466Z" transform="translate(-317.009 -287.164)"/>
                </g>
              </g>
            </g>
            <path id="Trazado_214717" data-name="Trazado 214717" d="M414.344,258.844V174.917a2.653,2.653,0,0,0-2.653-2.653H399.907a2.653,2.653,0,0,0-2.653,2.653v83.927Z" transform="translate(-277.933 -120.522)" fill="#f14f4a"/>
            <g id="Grupo_971773" data-name="Grupo 971773" transform="translate(122.153 51.742)" opacity="0.1" style="isolation: isolate">
              <g id="Grupo_971772" data-name="Grupo 971772">
                <g id="Grupo_971771" data-name="Grupo 971771" clip-path="url(#clip-path-4)">
                  <path id="Trazado_214718" data-name="Trazado 214718" d="M420.946,258.844V174.917a2.655,2.655,0,0,0-2.653-2.653h-2.335v73.115a14.427,14.427,0,0,1-9.273,13.466h14.262Z" transform="translate(-406.684 -172.264)"/>
                </g>
              </g>
            </g>
            <path id="Trazado_214719" data-name="Trazado 214719" d="M234.994,312.341V251.38a2.653,2.653,0,0,0-2.653-2.653H220.557a2.653,2.653,0,0,0-2.653,2.653v60.96Z" transform="translate(-152.453 -174.018)" fill="#475da9"/>
            <g id="Grupo_971776" data-name="Grupo 971776" transform="translate(68.283 74.709)" opacity="0.1" style="isolation: isolate">
              <g id="Grupo_971775" data-name="Grupo 971775">
                <g id="Grupo_971774" data-name="Grupo 971774" clip-path="url(#clip-path-5)">
                  <path id="Trazado_214720" data-name="Trazado 214720" d="M241.595,312.341V251.38a2.655,2.655,0,0,0-2.653-2.653h-2.335v50.148a14.427,14.427,0,0,1-9.273,13.466Z" transform="translate(-227.333 -248.727)"/>
                </g>
              </g>
            </g>
            <path id="Trazado_214721" data-name="Trazado 214721" d="M145.319,362.525V323.109a2.653,2.653,0,0,0-2.653-2.653H130.882a2.653,2.653,0,0,0-2.653,2.653v39.415Z" transform="translate(-89.714 -224.203)" fill="#f14f4a"/>
            <g id="Grupo_971779" data-name="Grupo 971779" transform="translate(41.348 96.253)" opacity="0.1" style="isolation: isolate">
              <g id="Grupo_971778" data-name="Grupo 971778">
                <g id="Grupo_971777" data-name="Grupo 971777" clip-path="url(#clip-path-6)">
                  <path id="Trazado_214722" data-name="Trazado 214722" d="M151.92,362.525V323.109a2.655,2.655,0,0,0-2.653-2.653h-2.335v28.6a14.427,14.427,0,0,1-9.273,13.466Z" transform="translate(-137.658 -320.456)"/>
                </g>
              </g>
            </g>
            <path id="Trazado_214723" data-name="Trazado 214723" d="M55.644,324.328V268.514a2.653,2.653,0,0,0-2.653-2.653H41.207a2.653,2.653,0,0,0-2.653,2.653v55.813h17.09Z" transform="translate(-26.974 -186.006)" fill="#f78721"/>
            <g id="Grupo_971782" data-name="Grupo 971782" transform="translate(14.412 79.855)" opacity="0.1" style="isolation: isolate">
              <g id="Grupo_971781" data-name="Grupo 971781">
                <g id="Grupo_971780" data-name="Grupo 971780" clip-path="url(#clip-path-7)">
                  <path id="Trazado_214724" data-name="Trazado 214724" d="M62.245,324.328V268.514a2.655,2.655,0,0,0-2.653-2.653H57.256v45a14.427,14.427,0,0,1-9.273,13.466Z" transform="translate(-47.983 -265.861)"/>
                </g>
              </g>
            </g>
            <path id="Trazado_214725" data-name="Trazado 214725" d="M83.231,98.864a4.59,4.59,0,0,1-2.266-.6L54.029,82.981a4.6,4.6,0,1,1,4.536-7.994L82.39,88.506l24.46-25.53a4.6,4.6,0,0,1,5.444-.9l22.979,11.992,24.757-44.2a4.6,4.6,0,1,1,8.018,4.491L141.112,82.457a4.6,4.6,0,0,1-6.135,1.829L111.1,71.826,86.552,97.448A4.594,4.594,0,0,1,83.231,98.864Z" transform="translate(-36.172 -19.255)" fill="#474747"/>
            <path id="Trazado_214726" data-name="Trazado 214726" d="M111.791,30.947A20.952,20.952,0,1,1,90.842,10,20.949,20.949,0,0,1,111.791,30.947Z" transform="translate(-48.895 -6.995)" fill="#f78721"/>
            <path id="Trazado_214727" data-name="Trazado 214727" d="M120.167,45.625a14.651,14.651,0,1,1-14.648-14.648,14.648,14.648,0,0,1,14.648,14.648" transform="translate(-63.573 -21.673)" fill="#fdcf17"/>
            <g id="Grupo_971785" data-name="Grupo 971785" transform="translate(28.949 10.963)" opacity="0.1" style="isolation: isolate">
              <g id="Grupo_971784" data-name="Grupo 971784">
                <g id="Grupo_971783" data-name="Grupo 971783" clip-path="url(#clip-path-8)">
                  <path id="Trazado_214728" data-name="Trazado 214728" d="M124.022,49.485a14.647,14.647,0,0,1-27.641,6.767,14.47,14.47,0,0,0,6.757,1.658,14.654,14.654,0,0,0,14.654-14.654,14.469,14.469,0,0,0-1.658-6.757A14.606,14.606,0,0,1,124.022,49.485Z" transform="translate(-96.381 -36.498)"/>
                </g>
              </g>
            </g>
            <path id="Trazado_214729" data-name="Trazado 214729" d="M153.989,464.853a4.338,4.338,0,0,1-4.338,4.338H14.332a4.338,4.338,0,1,1,0-8.676H149.651a4.338,4.338,0,0,1,4.338,4.338" transform="translate(-6.992 -322.193)" fill="#e8f1f8"/>
            <path id="Trazado_214730" data-name="Trazado 214730" d="M391.463,33.476l-19.107-9.613a4.069,4.069,0,0,1,.289-7.4l15.07-6.159a4.069,4.069,0,0,1,5.481,2.757l4.037,15.772a4.069,4.069,0,0,1-5.77,4.643" transform="translate(-258.946 -6.996)" fill="#474747"/>
            <path id="Trazado_214731" data-name="Trazado 214731" d="M126.6,53.97h4.588a1.532,1.532,0,1,0,0-3.064h-2.144v-.764a1.532,1.532,0,1,0-3.064,0v.827A4.286,4.286,0,0,0,126.6,59.5h1.825a1.231,1.231,0,0,1,0,2.462h-4.588a1.532,1.532,0,1,0,0,3.064h2.144v.764a1.532,1.532,0,1,0,3.064,0V64.96a4.285,4.285,0,0,0-.619-8.527H126.6a1.231,1.231,0,0,1,0-2.463" transform="translate(-85.569 -34.009)"/>
            <path id="Trazado_214732" data-name="Trazado 214732" d="M26.31,77.717H31.6a1.532,1.532,0,0,0,0-3.064H26.31a1.532,1.532,0,1,0,0,3.064" transform="translate(-17.336 -52.23)"/>
            <path id="Trazado_214733" data-name="Trazado 214733" d="M37.934,53.945A1.532,1.532,0,0,0,40.1,51.779l-1.9-1.9a1.532,1.532,0,0,0-2.166,2.166Z" transform="translate(-24.894 -34.58)"/>
            <path id="Trazado_214734" data-name="Trazado 214734" d="M38.206,98.057l1.9-1.905a1.532,1.532,0,0,0-2.169-2.165l-1.9,1.905a1.532,1.532,0,0,0,2.169,2.165" transform="translate(-24.9 -65.442)"/>
            <path id="Trazado_214735" data-name="Trazado 214735" d="M235.042,76.185a1.532,1.532,0,0,0-1.532-1.532h-5.293a1.532,1.532,0,1,0,0,3.064h5.293a1.532,1.532,0,0,0,1.532-1.532" transform="translate(-158.598 -52.23)"/>
            <path id="Trazado_214736" data-name="Trazado 214736" d="M229.779,53.945l1.9-1.9a1.532,1.532,0,0,0-2.166-2.166l-1.9,1.9a1.532,1.532,0,0,0,2.166,2.166" transform="translate(-158.932 -34.58)"/>
            <path id="Trazado_214737" data-name="Trazado 214737" d="M227.608,93.986a1.533,1.533,0,0,0,0,2.166l1.9,1.905a1.532,1.532,0,1,0,2.169-2.165l-1.9-1.905a1.533,1.533,0,0,0-2.168,0" transform="translate(-158.929 -65.443)"/>
            <path id="Trazado_214738" data-name="Trazado 214738" d="M49.7,68.487,76.653,83.776a6.1,6.1,0,0,0,7.435-1.1l23.762-24.783,22.858,11.921a6.156,6.156,0,0,0,8.175-2.431l21.4-38.2,4.152,2.089a5.6,5.6,0,0,0,7.942-6.392L168.343,9.11a5.6,5.6,0,0,0-7.544-3.8l-15.07,6.16a5.6,5.6,0,0,0-.4,10.187l3.993,2.009L131.1,56.194,109.435,44.885a6.207,6.207,0,0,0-7.261,1.2L78.549,70.749l-22.8-12.922a6.128,6.128,0,1,0-6.05,10.66m97-49.563a2.534,2.534,0,0,1,.18-4.614l15.07-6.16a2.533,2.533,0,0,1,3.418,1.719l4.038,15.772a2.534,2.534,0,0,1-3.6,2.9h0ZM50.06,61.648a3.069,3.069,0,0,1,4.18-1.157L78.075,74a1.533,1.533,0,0,0,1.861-.273L104.38,48.215a3.115,3.115,0,0,1,3.643-.611L131,59.6a1.534,1.534,0,0,0,2.045-.61l19.016-33.941,5.485,2.759L136.21,65.885a3.077,3.077,0,0,1-4.084,1.213L108.245,54.645a1.538,1.538,0,0,0-1.813.3L81.872,80.56a3.117,3.117,0,0,1-3.71.551L51.218,65.824A3.081,3.081,0,0,1,50.06,61.648Z" transform="translate(-32.609 -3.425)"/>
            <path id="Trazado_214739" data-name="Trazado 214739" d="M101.949,25.879a16.182,16.182,0,1,0,16.18,16.18,16.2,16.2,0,0,0-16.18-16.18m0,29.3a13.118,13.118,0,1,1,13.117-13.12,13.136,13.136,0,0,1-13.117,13.12" transform="translate(-60.004 -18.106)"/>
            <path id="Trazado_214740" data-name="Trazado 214740" d="M87.274,4.9a22.484,22.484,0,1,0,22.481,22.48A22.509,22.509,0,0,0,87.274,4.9m0,41.9a19.42,19.42,0,1,1,19.417-19.423A19.446,19.446,0,0,1,87.274,46.8" transform="translate(-45.327 -3.427)"/>
            <path id="Trazado_214741" data-name="Trazado 214741" d="M10.765,265.482H146.084a5.87,5.87,0,1,0,0-11.739h-4.715V171.348a4.19,4.19,0,0,0-4.186-4.186H125.4a4.19,4.19,0,0,0-4.184,4.186v82.395h-6.781V205.86a4.19,4.19,0,0,0-4.186-4.186H98.465a4.19,4.19,0,0,0-4.186,4.186v47.883H87.5V194.314a4.19,4.19,0,0,0-4.186-4.185H71.529a4.189,4.189,0,0,0-4.184,4.185v59.428H60.564V215.859a4.19,4.19,0,0,0-4.186-4.185H44.595a4.19,4.19,0,0,0-4.186,4.185v37.883H33.628V199.461a4.19,4.19,0,0,0-4.184-4.186H17.659a4.19,4.19,0,0,0-4.186,4.186v54.281H10.765a5.87,5.87,0,0,0,0,11.739Zm113.514-94.134a1.122,1.122,0,0,1,1.12-1.122h11.784a1.123,1.123,0,0,1,1.122,1.122v82.395H124.279V171.348ZM97.343,205.86a1.123,1.123,0,0,1,1.122-1.122h11.784a1.123,1.123,0,0,1,1.122,1.122v47.883H97.343V205.86ZM70.408,194.314a1.122,1.122,0,0,1,1.12-1.121H83.312a1.122,1.122,0,0,1,1.122,1.121v59.428H70.408ZM43.472,215.859a1.122,1.122,0,0,1,1.122-1.121H56.377a1.122,1.122,0,0,1,1.122,1.121v37.883H43.472V215.859Zm-26.935-16.4a1.123,1.123,0,0,1,1.122-1.122H29.443a1.122,1.122,0,0,1,1.12,1.122v54.281H16.538Zm-5.773,57.345H146.084a2.806,2.806,0,1,1,0,5.612H10.765a2.806,2.806,0,0,1,0-5.612" transform="translate(-3.425 -116.953)"/>
            <path id="Trazado_214742" data-name="Trazado 214742" d="M326.17,341.023v-50.4a2.706,2.706,0,0,0-2.707-2.707H311.444a2.706,2.706,0,0,0-2.706,2.707v50.4Z" transform="translate(-216.004 -201.434)" fill="#0e9c4a"/>
            <g id="Grupo_971788" data-name="Grupo 971788" transform="translate(95.622 86.479)" opacity="0.1" style="isolation: isolate">
              <g id="Grupo_971787" data-name="Grupo 971787">
                <g id="Grupo_971786" data-name="Grupo 971786" clip-path="url(#clip-path-9)">
                  <path id="Trazado_214743" data-name="Trazado 214743" d="M332.9,341.023v-50.4a2.709,2.709,0,0,0-2.707-2.707h-2.382v39.375a14.716,14.716,0,0,1-9.459,13.735Z" transform="translate(-318.354 -287.913)"/>
                </g>
              </g>
            </g>
            <path id="Trazado_214744" data-name="Trazado 214744" d="M417.639,259.027V173.422a2.706,2.706,0,0,0-2.706-2.707H402.914a2.706,2.706,0,0,0-2.707,2.707v85.606h17.432Z" transform="translate(-279.999 -119.438)" fill="#f14f4a"/>
            <g id="Grupo_971791" data-name="Grupo 971791" transform="translate(123.096 51.277)" opacity="0.1" style="isolation: isolate">
              <g id="Grupo_971790" data-name="Grupo 971790">
                <g id="Grupo_971789" data-name="Grupo 971789" clip-path="url(#clip-path-10)">
                  <path id="Trazado_214745" data-name="Trazado 214745" d="M424.371,259.027V173.422a2.708,2.708,0,0,0-2.706-2.707h-2.382v74.577a14.716,14.716,0,0,1-9.459,13.735h14.547Z" transform="translate(-409.824 -170.715)"/>
                </g>
              </g>
            </g>
            <path id="Trazado_214746" data-name="Trazado 214746" d="M234.7,313.593v-62.18a2.706,2.706,0,0,0-2.706-2.706H219.975a2.706,2.706,0,0,0-2.706,2.706v62.18Z" transform="translate(-152.009 -174.004)" fill="#475da9"/>
            <g id="Grupo_971794" data-name="Grupo 971794" transform="translate(68.148 74.703)" opacity="0.1" style="isolation: isolate">
              <g id="Grupo_971793" data-name="Grupo 971793">
                <g id="Grupo_971792" data-name="Grupo 971792" clip-path="url(#clip-path-11)">
                  <path id="Trazado_214747" data-name="Trazado 214747" d="M241.433,313.593v-62.18a2.708,2.708,0,0,0-2.706-2.706h-2.382v51.151a14.716,14.716,0,0,1-9.459,13.735Z" transform="translate(-226.886 -248.707)"/>
                </g>
              </g>
            </g>
            <path id="Trazado_214748" data-name="Trazado 214748" d="M143.232,364.782v-40.2a2.706,2.706,0,0,0-2.706-2.706H128.506a2.706,2.706,0,0,0-2.706,2.706v40.2Z" transform="translate(-88.014 -225.193)" fill="#f14f4a"/>
            <g id="Grupo_971797" data-name="Grupo 971797" transform="translate(40.675 96.679)" opacity="0.1" style="isolation: isolate">
              <g id="Grupo_971796" data-name="Grupo 971796">
                <g id="Grupo_971795" data-name="Grupo 971795" clip-path="url(#clip-path-12)">
                  <path id="Trazado_214749" data-name="Trazado 214749" d="M149.965,364.782v-40.2a2.708,2.708,0,0,0-2.706-2.706h-2.382v29.175a14.716,14.716,0,0,1-9.459,13.735h14.547Z" transform="translate(-135.418 -321.872)"/>
                </g>
              </g>
            </g>
            <path id="Trazado_214750" data-name="Trazado 214750" d="M51.763,325.82v-56.93a2.706,2.706,0,0,0-2.706-2.707H37.038a2.706,2.706,0,0,0-2.707,2.707v56.93Z" transform="translate(-24.019 -186.232)" fill="#f78721"/>
            <g id="Grupo_971800" data-name="Grupo 971800" transform="translate(13.201 79.952)" opacity="0.1" style="isolation: isolate">
              <g id="Grupo_971799" data-name="Grupo 971799">
                <g id="Grupo_971798" data-name="Grupo 971798" clip-path="url(#clip-path-13)">
                  <path id="Trazado_214751" data-name="Trazado 214751" d="M58.5,325.82v-56.93a2.709,2.709,0,0,0-2.706-2.707H53.408v45.9a14.716,14.716,0,0,1-9.459,13.735Z" transform="translate(-43.949 -266.184)"/>
                </g>
              </g>
            </g>
            <path id="Trazado_214752" data-name="Trazado 214752" d="M79.9,95.846a4.682,4.682,0,0,1-2.312-.61L50.114,79.645a4.688,4.688,0,1,1,4.626-8.154l24.3,13.79L103.991,59.24a4.692,4.692,0,0,1,5.553-.913l23.439,12.232,25.252-45.086a4.687,4.687,0,1,1,8.179,4.581L138.938,79.11a4.689,4.689,0,0,1-6.257,1.865l-24.354-12.71L83.286,94.4A4.677,4.677,0,0,1,79.9,95.846Z" transform="translate(-33.4 -16.144)" fill="#474747"/>
            <path id="Trazado_214753" data-name="Trazado 214753" d="M109.033,26.573A21.371,21.371,0,1,1,87.665,5.2a21.368,21.368,0,0,1,21.368,21.368" transform="translate(-46.38 -3.642)" fill="#f78721"/>
            <path id="Trazado_214754" data-name="Trazado 214754" d="M117.577,41.544A14.944,14.944,0,1,1,102.636,26.6a14.941,14.941,0,0,1,14.941,14.941" transform="translate(-61.351 -18.612)" fill="#fdcf17"/>
            <g id="Grupo_971803" data-name="Grupo 971803" transform="translate(28.028 9.682)" opacity="0.1" style="isolation: isolate">
              <g id="Grupo_971802" data-name="Grupo 971802">
                <g id="Grupo_971801" data-name="Grupo 971801" clip-path="url(#clip-path-14)">
                  <path id="Trazado_214755" data-name="Trazado 214755" d="M121.508,45.48a14.94,14.94,0,0,1-28.194,6.9,14.758,14.758,0,0,0,6.892,1.691,14.947,14.947,0,0,0,14.947-14.948,14.759,14.759,0,0,0-1.691-6.892A14.9,14.9,0,0,1,121.508,45.48Z" transform="translate(-93.314 -32.233)"/>
                </g>
              </g>
            </g>
            <path id="Trazado_214756" data-name="Trazado 214756" d="M152.074,469.156a4.425,4.425,0,0,1-4.425,4.425H9.625a4.425,4.425,0,0,1,0-8.849H147.65a4.425,4.425,0,0,1,4.425,4.425" transform="translate(-3.638 -325.143)" fill="#e8f1f8"/>
            <path id="Trazado_214757" data-name="Trazado 214757" d="M394.3,29.152l-19.49-9.8A4.15,4.15,0,0,1,375.1,11.8l15.371-6.282a4.15,4.15,0,0,1,5.59,2.812l4.118,16.087a4.15,4.15,0,0,1-5.885,4.736" transform="translate(-260.631 -3.642)" fill="#474747"/>
            <path id="Trazado_214758" data-name="Trazado 214758" d="M124.139,50.055h4.68a1.562,1.562,0,1,0,0-3.125h-2.187v-.78a1.562,1.562,0,1,0-3.125,0v.844a4.371,4.371,0,0,0,.632,8.7H126a1.256,1.256,0,0,1,0,2.512h-4.68a1.562,1.562,0,1,0,0,3.125h2.187v.78a1.562,1.562,0,1,0,3.125,0v-.844a4.371,4.371,0,0,0-.632-8.7h-1.862a1.256,1.256,0,0,1,0-2.512Z" transform="translate(-83.787 -31.195)"/>
            <path id="Trazado_214759" data-name="Trazado 214759" d="M21.842,74.277h5.4a1.562,1.562,0,1,0,0-3.125h-5.4a1.562,1.562,0,1,0,0,3.125" transform="translate(-14.189 -49.78)"/>
            <path id="Trazado_214760" data-name="Trazado 214760" d="M33.7,50.031a1.562,1.562,0,0,0,2.209-2.209l-1.942-1.942a1.562,1.562,0,1,0-2.209,2.209Z" transform="translate(-21.897 -31.778)"/>
            <path id="Trazado_214761" data-name="Trazado 214761" d="M33.977,95.025l1.941-1.943a1.563,1.563,0,1,0-2.212-2.208l-1.941,1.943a1.563,1.563,0,0,0,2.212,2.208" transform="translate(-21.904 -63.258)"/>
            <path id="Trazado_214762" data-name="Trazado 214762" d="M234.749,72.714a1.562,1.562,0,0,0-1.562-1.562h-5.4a1.562,1.562,0,1,0,0,3.125h5.4a1.563,1.563,0,0,0,1.563-1.562" transform="translate(-158.276 -49.78)"/>
            <path id="Trazado_214763" data-name="Trazado 214763" d="M229.381,50.031l1.942-1.942a1.562,1.562,0,1,0-2.209-2.209l-1.942,1.942a1.562,1.562,0,0,0,2.209,2.209" transform="translate(-158.617 -31.778)"/>
            <path id="Trazado_214764" data-name="Trazado 214764" d="M227.166,90.872a1.563,1.563,0,0,0,0,2.209l1.941,1.943a1.563,1.563,0,0,0,2.212-2.208l-1.941-1.943A1.564,1.564,0,0,0,227.166,90.872Z" transform="translate(-158.613 -63.258)"/>
            <path id="Trazado_214765" data-name="Trazado 214765" d="M45.7,64.863,73.192,80.458a6.226,6.226,0,0,0,7.584-1.122l24.237-25.278,23.315,12.16a6.279,6.279,0,0,0,8.339-2.48L158.5,24.775l4.235,2.13a5.713,5.713,0,0,0,8.1-6.52L166.716,4.3a5.714,5.714,0,0,0-7.7-3.871L143.649,6.71a5.712,5.712,0,0,0-.406,10.391l4.073,2.049L128.729,52.324l-22.1-11.535a6.331,6.331,0,0,0-7.407,1.228l-24.1,25.153L51.875,53.99A6.251,6.251,0,1,0,45.7,64.863Zm98.942-50.555A2.585,2.585,0,0,1,144.83,9.6L160.2,3.32a2.584,2.584,0,0,1,3.487,1.753l4.118,16.087a2.585,2.585,0,0,1-3.67,2.953h0ZM46.068,57.888a3.131,3.131,0,0,1,4.263-1.18L74.643,70.489a1.565,1.565,0,0,0,1.9-.278l24.933-26.025a3.177,3.177,0,0,1,3.715-.623L128.627,55.8a1.565,1.565,0,0,0,2.086-.622l19.4-34.62L155.7,23.37,133.941,62.21a3.138,3.138,0,0,1-4.166,1.237l-24.359-12.7a1.569,1.569,0,0,0-1.849.3L78.515,77.178a3.179,3.179,0,0,1-3.784.561L47.248,62.146A3.142,3.142,0,0,1,46.068,57.888Z" transform="translate(-29.767 0)"/>
            <path id="Trazado_214766" data-name="Trazado 214766" d="M98.994,21.4a16.506,16.506,0,1,0,16.5,16.5,16.524,16.524,0,0,0-16.5-16.5m0,29.887a13.381,13.381,0,1,1,13.379-13.383A13.4,13.4,0,0,1,98.994,51.289" transform="translate(-57.71 -14.974)"/>
            <path id="Trazado_214767" data-name="Trazado 214767" d="M84.025,0a22.934,22.934,0,1,0,22.931,22.93A22.959,22.959,0,0,0,84.025,0m0,42.742a19.809,19.809,0,1,1,19.806-19.812A19.835,19.835,0,0,1,84.025,42.744Z" transform="translate(-42.739 -0.001)"/>
            <path id="Trazado_214768" data-name="Trazado 214768" d="M5.986,265.8H144.012a5.987,5.987,0,1,0,0-11.974H139.2V169.78a4.274,4.274,0,0,0-4.269-4.269H122.914a4.274,4.274,0,0,0-4.268,4.269v84.043h-6.917v-48.84a4.274,4.274,0,0,0-4.269-4.269H95.44a4.274,4.274,0,0,0-4.269,4.269v48.84H84.254V193.206a4.274,4.274,0,0,0-4.269-4.269H67.965a4.274,4.274,0,0,0-4.268,4.269v60.617H56.781V215.182a4.274,4.274,0,0,0-4.269-4.269H40.492a4.274,4.274,0,0,0-4.269,4.269v38.641H29.306V198.456a4.273,4.273,0,0,0-4.268-4.269H13.019a4.274,4.274,0,0,0-4.269,4.269v55.367H5.986a5.987,5.987,0,0,0,0,11.974ZM121.771,169.78a1.145,1.145,0,0,1,1.143-1.144h12.019a1.145,1.145,0,0,1,1.144,1.144v84.043H121.771ZM94.3,204.983a1.145,1.145,0,0,1,1.144-1.144H107.46a1.145,1.145,0,0,1,1.144,1.144v48.84H94.3ZM66.823,193.206a1.144,1.144,0,0,1,1.143-1.143H79.985a1.145,1.145,0,0,1,1.144,1.143v60.617H66.823ZM39.348,215.182a1.145,1.145,0,0,1,1.144-1.144H52.511a1.145,1.145,0,0,1,1.144,1.144v38.641H39.348ZM11.874,198.456a1.145,1.145,0,0,1,1.144-1.144H25.038a1.145,1.145,0,0,1,1.143,1.144v55.367H11.874ZM5.986,256.948H144.012a2.862,2.862,0,1,1,0,5.724H5.986a2.862,2.862,0,0,1,0-5.724Z" transform="translate(0 -115.797)"/>
          </g>
        </g>
      </g>
    </g>
  </g>
</svg>
