<svg xmlns="http://www.w3.org/2000/svg" xmlns:xlink="http://www.w3.org/1999/xlink" width="40" height="40" viewBox="0 0 40 40">
  <defs>
    <clipPath id="clip-path">
      <rect id="Rect치ngulo_341322" data-name="Rect치ngulo 341322" width="29.836" height="40" fill="none"/>
    </clipPath>
  </defs>
  <g id="Grupo_971898" data-name="Grupo 971898" transform="translate(-2027 11189)">
    <rect id="Rect치ngulo_341321" data-name="Rect치ngulo 341321" width="40" height="40" transform="translate(2027 -11189)" fill="none"/>
    <g id="Grupo_971897" data-name="Grupo 971897" transform="translate(2032.082 -11189)">
      <g id="Grupo_971896" data-name="Grupo 971896" clip-path="url(#clip-path)">
        <path id="Trazado_214889" data-name="Trazado 214889" d="M158.341,300.346h4.386v2.23a1.334,1.334,0,0,1-1.33,1.33h-1.726a1.334,1.334,0,0,1-1.33-1.33v-2.23Z" transform="translate(-145.572 -276.125)" fill="#b1b1b5" fill-rule="evenodd"/>
        <path id="Trazado_214890" data-name="Trazado 214890" d="M141.429,260.522h7.113V263.3a1.334,1.334,0,0,1-1.33,1.33h-4.454a1.334,1.334,0,0,1-1.33-1.33Z" transform="translate(-130.023 -239.512)" fill="#d1d1d6" fill-rule="evenodd"/>
        <path id="Trazado_214891" data-name="Trazado 214891" d="M195.267,278.522v1.33a1.318,1.318,0,0,1-.072.429,1.335,1.335,0,0,1-1.258.9h1.549a1.334,1.334,0,0,0,1.33-1.33v-1.331h-1.549Z" transform="translate(-178.297 -256.06)" fill="#b1b1b5" fill-rule="evenodd"/>
        <path id="Trazado_214892" data-name="Trazado 214892" d="M124.387,229.077h9.773v2.658a1.334,1.334,0,0,1-1.33,1.33h-7.114a1.334,1.334,0,0,1-1.33-1.33Z" transform="translate(-114.356 -210.603)" fill="#eceff1" fill-rule="evenodd"/>
        <path id="Trazado_214893" data-name="Trazado 214893" d="M211.206,245.547v1.33a1.334,1.334,0,0,1-1.33,1.33h1.593a1.334,1.334,0,0,0,1.285-1.329v-1.33Z" transform="translate(-192.951 -225.745)" fill="#d1d1d6" fill-rule="evenodd"/>
        <path id="Trazado_214894" data-name="Trazado 214894" d="M91.685,8a8.184,8.184,0,0,1,8.184,8.184c0,4.545-2.9,4.274-3.3,10.973H86.8c-.394-6.7-3.3-6.428-3.3-10.973A8.184,8.184,0,0,1,91.685,8" transform="translate(-76.767 -7.355)" fill="#ffe177" fill-rule="evenodd"/>
        <path id="Trazado_214895" data-name="Trazado 214895" d="M175.376,8.036a8.185,8.185,0,0,1,7.409,8.148c0,4.222-2.505,4.288-3.177,9.645-.051.41-.092.852-.12,1.328h1.549c.394-6.7,3.3-6.428,3.3-10.973A8.184,8.184,0,0,0,176.151,8Q175.759,8,175.376,8.036Z" transform="translate(-161.233 -7.355)" fill="#ffd064" fill-rule="evenodd"/>
        <path id="Trazado_214896" data-name="Trazado 214896" d="M175.891,242.049a15.435,15.435,0,0,0-11.2,17.64,15.441,15.441,0,0,0,13.695-18.094A15.528,15.528,0,0,0,175.891,242.049Z" transform="translate(-151.187 -222.111)" fill="#00e499" fill-rule="evenodd"/>
        <path id="Trazado_214897" data-name="Trazado 214897" d="M165.288,258.373c.041.437.1.875.179,1.314a15.441,15.441,0,0,0,13.695-18.094h0a15.442,15.442,0,0,1-13.873,16.78Z" transform="translate(-151.958 -222.11)" fill="#00cf8a" fill-rule="evenodd"/>
        <path id="Trazado_214898" data-name="Trazado 214898" d="M38.937,264.084a15.434,15.434,0,0,1,11.2,17.64,15.441,15.441,0,0,1-13.695-18.094A15.53,15.53,0,0,1,38.937,264.084Z" transform="translate(-33.272 -242.369)" fill="#6cf5c2" fill-rule="evenodd"/>
        <path id="Trazado_214899" data-name="Trazado 214899" d="M50.311,280.409c-.041.437-.1.875-.179,1.314a15.441,15.441,0,0,1-13.695-18.094h0a15.442,15.442,0,0,0,13.873,16.78Z" transform="translate(-33.272 -242.369)" fill="#00e499" fill-rule="evenodd"/>
        <path id="Trazado_214900" data-name="Trazado 214900" d="M26.666,20.2a14.981,14.981,0,0,0-1.8.364,14.754,14.754,0,0,0-9.437,7.751,16.106,16.106,0,0,1,1.594,3.546l2.817-3.717a.644.644,0,1,1,1.025.779l-3.431,4.536a15.881,15.881,0,0,1,.3,2.4A14.9,14.9,0,0,0,26.666,20.2M14.531,38.278A14.873,14.873,0,0,1,3.7,21.974a14.946,14.946,0,0,1,1.8.364A14.885,14.885,0,0,1,16.421,37.7L10.53,29.918A.645.645,0,0,0,9.5,30.7l5.887,7.783C15.1,38.421,14.815,38.353,14.531,38.278ZM10.678,21.132v-.685h8.484v.685a.686.686,0,0,1-.687.685H11.361A.685.685,0,0,1,10.678,21.132Zm7.558-10.986A1.256,1.256,0,1,0,16.979,8.89v1.256Zm-2.547,1.29H14.151v7.721h1.537ZM12.86,8.89A1.256,1.256,0,1,0,11.6,10.146H12.86ZM8.632,12.9A6.947,6.947,0,0,1,7.379,8.829a7.539,7.539,0,1,1,15.077,0A6.947,6.947,0,0,1,21.208,12.9a12.89,12.89,0,0,0-2,6.254H16.979V11.436h1.256A2.547,2.547,0,1,0,15.688,8.89v1.256H14.151V8.89A2.547,2.547,0,1,0,11.6,11.436H12.86v7.721H10.632A12.931,12.931,0,0,0,8.632,12.9Zm9.076,10.2a15.892,15.892,0,0,0-1.3,1.369H12.735a.685.685,0,0,1-.683-.685v-.685h5.656Zm-2.278,2.66h-1.9a15.8,15.8,0,0,1,1.086,1.322c.251-.455.52-.9.812-1.322m12.409-6.4a16.08,16.08,0,0,1-10.1,17.872,15.861,15.861,0,0,1-.247,2.23.647.647,0,0,1-.634.53c-.019,0-.042,0-.065,0A16.077,16.077,0,0,1,2.532,21.146a.646.646,0,0,1,.7-.527,16.285,16.285,0,0,1,2.6.473,16.108,16.108,0,0,1,4.927,2.265v-.343a1.977,1.977,0,0,1-1.374-1.882V19.824a12.1,12.1,0,0,0-1.871-6.269A8.2,8.2,0,0,1,6.089,8.829a8.829,8.829,0,1,1,17.658,0,8.172,8.172,0,0,1-1.427,4.726,12.114,12.114,0,0,0-1.868,6.27v1.217a16.1,16.1,0,0,1,4.084-1.727,16.358,16.358,0,0,1,2.6-.473A.646.646,0,0,1,27.839,19.369Zm-2.551-2.414,1.67.964a.63.63,0,0,0,.319.087.645.645,0,0,0,.326-1.2l-1.67-.964a.645.645,0,0,0-.645,1.117ZM25.611,4.7a.644.644,0,0,0,.323-.087l1.67-.964a.645.645,0,0,0-.645-1.117l-1.67.964a.645.645,0,0,0,.323,1.2m3.58,4.882H27.266a.645.645,0,1,0,0,1.29H29.19a.645.645,0,1,0,0-1.29M2.881,17.919l1.67-.964a.645.645,0,0,0-.645-1.118l-1.67.965a.645.645,0,1,0,.645,1.117m.338-7.7a.645.645,0,0,0-.645-.645H.645a.645.645,0,1,0,0,1.29H2.574a.645.645,0,0,0,.645-.645M2,2.765a.646.646,0,0,0,.235.881l1.67.964a.645.645,0,0,0,.645-1.117l-1.67-.964A.645.645,0,0,0,2,2.765" fill-rule="evenodd"/>
      </g>
    </g>
  </g>
</svg>
