<svg xmlns="http://www.w3.org/2000/svg" xmlns:xlink="http://www.w3.org/1999/xlink" width="150" height="150" viewBox="0 0 150 150">
  <defs>
    <clipPath id="clip-path">
      <rect id="Rect치ngulo_341320" data-name="Rect치ngulo 341320" width="111.883" height="150" fill="none"/>
    </clipPath>
  </defs>
  <g id="Grupo_971895" data-name="Grupo 971895" transform="translate(-1120 10978)">
    <rect id="Rect치ngulo_341269" data-name="Rect치ngulo 341269" width="150" height="150" transform="translate(1120 -10978)" fill="none"/>
    <g id="Grupo_971894" data-name="Grupo 971894" transform="translate(1139.058 -10978)">
      <g id="Grupo_971893" data-name="Grupo 971893" clip-path="url(#clip-path)">
        <path id="Trazado_214877" data-name="Trazado 214877" d="M158.341,300.346h16.446v8.364A5,5,0,0,1,169.8,313.7h-6.473a5,5,0,0,1-4.987-4.987v-8.364Z" transform="translate(-110.456 -209.516)" fill="#b1b1b5" fill-rule="evenodd"/>
        <path id="Trazado_214878" data-name="Trazado 214878" d="M141.429,260.522H168.1v10.433a5,5,0,0,1-4.987,4.987h-16.7a5,5,0,0,1-4.987-4.987Z" transform="translate(-98.658 -181.735)" fill="#d1d1d6" fill-rule="evenodd"/>
        <path id="Trazado_214879" data-name="Trazado 214879" d="M198.924,278.524v4.987a4.944,4.944,0,0,1-.268,1.61,5.006,5.006,0,0,1-4.718,3.376h5.809a5,5,0,0,0,4.987-4.987v-4.99l-.166,0Z" transform="translate(-135.287 -194.291)" fill="#b1b1b5" fill-rule="evenodd"/>
        <path id="Trazado_214880" data-name="Trazado 214880" d="M124.387,229.077h36.649v9.968a5,5,0,0,1-4.987,4.987H129.374a5,5,0,0,1-4.987-4.987Z" transform="translate(-86.77 -159.8)" fill="#eceff1" fill-rule="evenodd"/>
        <path id="Trazado_214881" data-name="Trazado 214881" d="M214.863,245.547v4.987a5,5,0,0,1-4.987,4.987h5.809l.166,0a5,5,0,0,0,4.821-4.984v-4.987Z" transform="translate(-146.406 -171.289)" fill="#d1d1d6" fill-rule="evenodd"/>
        <path id="Trazado_214882" data-name="Trazado 214882" d="M114.19,8A30.689,30.689,0,0,1,144.88,38.689c0,17.044-10.888,16.026-12.365,41.149H95.866C94.389,54.715,83.5,55.734,83.5,38.689A30.689,30.689,0,0,1,114.19,8" transform="translate(-58.249 -5.581)" fill="#ffe177" fill-rule="evenodd"/>
        <path id="Trazado_214883" data-name="Trazado 214883" d="M175.376,8.136a30.693,30.693,0,0,1,27.785,30.554c0,15.832-9.394,16.079-11.914,36.168-.193,1.539-.346,3.194-.451,4.981h5.809c1.476-25.123,12.365-24.1,12.365-41.149A30.689,30.689,0,0,0,178.281,8Q176.811,8,175.376,8.136Z" transform="translate(-122.339 -5.581)" fill="#ffd064" fill-rule="evenodd"/>
        <path id="Trazado_214884" data-name="Trazado 214884" d="M207.356,243.3a57.879,57.879,0,0,0-41.982,66.15,57.9,57.9,0,0,0,51.355-67.854A58.231,58.231,0,0,0,207.356,243.3Z" transform="translate(-114.716 -168.531)" fill="#00e499" fill-rule="evenodd"/>
        <path id="Trazado_214885" data-name="Trazado 214885" d="M165.288,304.519c.153,1.639.373,3.283.671,4.928a57.9,57.9,0,0,0,51.355-67.854h0a57.909,57.909,0,0,1-52.023,62.925Z" transform="translate(-115.302 -168.531)" fill="#00cf8a" fill-rule="evenodd"/>
        <path id="Trazado_214886" data-name="Trazado 214886" d="M46.489,265.333a57.879,57.879,0,0,1,41.982,66.15,57.9,57.9,0,0,1-51.355-67.854A58.243,58.243,0,0,1,46.489,265.333Z" transform="translate(-25.246 -183.903)" fill="#6cf5c2" fill-rule="evenodd"/>
        <path id="Trazado_214887" data-name="Trazado 214887" d="M89.142,326.555c-.153,1.639-.373,3.283-.671,4.928a57.9,57.9,0,0,1-51.355-67.854h0a57.909,57.909,0,0,0,52.023,62.925Z" transform="translate(-25.246 -183.903)" fill="#00e499" fill-rule="evenodd"/>
        <path id="Trazado_214888" data-name="Trazado 214888" d="M100,75.741A56.182,56.182,0,0,0,93.264,77.1,55.329,55.329,0,0,0,57.878,106.17a60.4,60.4,0,0,1,5.979,13.3l10.562-13.938a2.414,2.414,0,1,1,3.843,2.921L65.393,125.461a59.553,59.553,0,0,1,1.11,8.988A55.891,55.891,0,0,0,100,75.741m-45.508,67.8A55.775,55.775,0,0,1,13.893,82.4a56.047,56.047,0,0,1,6.733,1.364,55.818,55.818,0,0,1,40.953,57.62L39.487,112.194a2.418,2.418,0,0,0-3.857,2.918L57.707,144.3C56.625,144.079,55.557,143.825,54.49,143.541ZM40.042,79.246V76.678H71.856v2.568a2.573,2.573,0,0,1-2.577,2.567H42.6A2.57,2.57,0,0,1,40.042,79.246Zm28.341-41.2a4.712,4.712,0,1,0-4.712-4.711v4.711Zm-9.551,4.839H53.066V71.84h5.765Zm-10.6-9.551a4.712,4.712,0,1,0-4.712,4.711h4.712ZM32.369,48.387c-2.619-4.476-4.7-8.011-4.7-15.278a28.27,28.27,0,1,1,56.54,0c0,7.267-2.064,10.8-4.683,15.278C76.5,53.568,73.08,59.4,72.027,71.84H63.671V42.887h4.712a9.55,9.55,0,1,0-9.551-9.55v4.711H53.066V33.336a9.551,9.551,0,1,0-9.551,9.55h4.712V71.84H39.871C38.8,59.4,35.4,53.568,32.369,48.387ZM66.4,86.653a59.6,59.6,0,0,0-4.868,5.135H47.757a2.57,2.57,0,0,1-2.562-2.568V86.652H66.4Zm-8.541,9.973H50.746a59.238,59.238,0,0,1,4.071,4.956c.94-1.705,1.95-3.363,3.046-4.956M104.4,72.632a60.3,60.3,0,0,1-37.864,67.019,59.481,59.481,0,0,1-.925,8.362A2.425,2.425,0,0,1,63.23,150c-.071,0-.157,0-.242-.012A60.29,60.29,0,0,1,9.495,79.3a2.422,2.422,0,0,1,2.619-1.978A61.068,61.068,0,0,1,21.879,79.1,60.405,60.405,0,0,1,40.355,87.59V86.3A7.414,7.414,0,0,1,35.2,79.246V74.338c-.769-12.823-4.085-18.5-7.018-23.508-2.747-4.7-5.352-9.142-5.352-17.721a33.109,33.109,0,0,1,66.219,0c0,8.58-2.591,13.019-5.352,17.721-2.918,5.008-6.249,10.687-7,23.513v4.564A60.393,60.393,0,0,1,92.012,72.43a61.343,61.343,0,0,1,9.765-1.775A2.424,2.424,0,0,1,104.4,72.632ZM94.83,63.581l6.263,3.614a2.363,2.363,0,0,0,1.2.326,2.42,2.42,0,0,0,1.224-4.515L97.25,59.393a2.419,2.419,0,0,0-2.42,4.189Zm1.21-45.968a2.414,2.414,0,0,0,1.21-.326l6.263-3.614a2.418,2.418,0,0,0-2.42-4.188L94.83,13.1a2.42,2.42,0,0,0,1.21,4.515m13.423,18.306h-7.217a2.419,2.419,0,1,0,0,4.839h7.217a2.419,2.419,0,1,0,0-4.839M10.8,67.195l6.263-3.614a2.42,2.42,0,0,0-2.42-4.192L8.384,63.006a2.419,2.419,0,1,0,2.42,4.188m1.267-28.856a2.42,2.42,0,0,0-2.42-2.419H2.42a2.419,2.419,0,1,0,0,4.839H9.651a2.418,2.418,0,0,0,2.42-2.419M7.5,10.368a2.421,2.421,0,0,0,.882,3.3l6.263,3.614a2.419,2.419,0,0,0,2.42-4.189L10.8,9.484a2.418,2.418,0,0,0-3.3.883" fill-rule="evenodd"/>
      </g>
    </g>
  </g>
</svg>
