<svg id="Grupo_971006" data-name="Grupo 971006" xmlns="http://www.w3.org/2000/svg" xmlns:xlink="http://www.w3.org/1999/xlink" width="100" height="94.213" viewBox="0 0 100 94.213">
  <defs>
    <clipPath id="clip-path">
      <rect id="Rectángulo_340875" data-name="Rectángulo 340875" width="100" height="94.213" fill="none"/>
    </clipPath>
    <clipPath id="clip-path-3">
      <rect id="Rectángulo_340870" data-name="Rectángulo 340870" width="22.176" height="31.05" fill="none"/>
    </clipPath>
    <clipPath id="clip-path-4">
      <rect id="Rectángulo_340871" data-name="Rectángulo 340871" width="86.281" height="43.694" fill="none"/>
    </clipPath>
    <clipPath id="clip-path-5">
      <rect id="Rectángulo_340872" data-name="Rectángulo 340872" width="59.943" height="45.03" fill="none"/>
    </clipPath>
    <clipPath id="clip-path-6">
      <rect id="Rectángulo_340873" data-name="Rectángulo 340873" width="20.657" height="30.363" fill="none"/>
    </clipPath>
  </defs>
  <g id="Grupo_971005" data-name="Grupo 971005" clip-path="url(#clip-path)">
    <g id="Grupo_971004" data-name="Grupo 971004">
      <g id="Grupo_971003" data-name="Grupo 971003" clip-path="url(#clip-path)">
        <path id="Trazado_190918" data-name="Trazado 190918" d="M2.019,296.288h90.61V252.6H2.019a1,1,0,0,0-1,1v41.7A.994.994,0,0,0,2.019,296.288Z" transform="translate(-0.824 -203.265)" fill="#30c3e5"/>
        <g id="Grupo_970993" data-name="Grupo 970993" transform="translate(0.195 49.337)" opacity="0.09" style="isolation: isolate">
          <g id="Grupo_970992" data-name="Grupo 970992">
            <g id="Grupo_970991" data-name="Grupo 970991" clip-path="url(#clip-path-3)">
              <path id="Trazado_190919" data-name="Trazado 190919" d="M9.8,280.127c-.18,1.713-3.844,2.728-8.8,3.525v-9.9c2.589,2.231,9.042,4.044,8.8,6.373M3.648,252.6H1v17.506c4.561-3.664,21.789-3.266,22.167-7.448C23.566,258.158,9.544,255.052,3.648,252.6Z" transform="translate(-1 -252.602)"/>
            </g>
          </g>
        </g>
        <g id="Grupo_970996" data-name="Grupo 970996" transform="translate(1.309 49.332)" opacity="0.3" style="isolation: isolate">
          <g id="Grupo_970995" data-name="Grupo 970995">
            <g id="Grupo_970994" data-name="Grupo 970994" clip-path="url(#clip-path-4)">
              <path id="Trazado_190920" data-name="Trazado 190920" d="M92.981,252.578v42.7a1,1,0,0,1-1,1H10.831c-3.764-2.648-4.322-4.361-4.083-5.456,1.453-6.891,36.6-5.278,37.181-10.694.319-3.008-10.475-5.137-9.858-8.464,1-5.417,22.8-4.322,23.222-9,.4-4.52-13.622-7.628-19.517-10.077Z" transform="translate(-6.7 -252.578)" fill="#fff"/>
            </g>
          </g>
        </g>
        <path id="Trazado_190921" data-name="Trazado 190921" d="M73.144,269.488H154.3a1,1,0,0,0,1-1V220.436a1.012,1.012,0,0,0-.966-1c-25.094-1.125-36.652,5.18-54.256,6.369,5.9,2.45,19.914,5.564,19.519,10.067-.411,4.694-22.222,3.588-23.217,9.009-.616,3.319,10.178,5.453,9.863,8.456-.584,5.42-35.735,3.809-37.189,10.7C68.814,265.141,69.383,266.849,73.144,269.488Z" transform="translate(-55.527 -176.468)" fill="#ffe169"/>
        <g id="Grupo_970999" data-name="Grupo 970999" transform="translate(13.474 47.983)" opacity="0.09" style="isolation: isolate">
          <g id="Grupo_970998" data-name="Grupo 970998">
            <g id="Grupo_970997" data-name="Grupo 970997" clip-path="url(#clip-path-5)">
              <path id="Trazado_190922" data-name="Trazado 190922" d="M105.7,265.052c-.617,3.445,10.177,5.677,9.859,8.8-.578,5.656-35.73,3.983-37.185,11.153-.239,1.175.339,2.947,4.1,5.7H73.135c-3.764-2.63-4.342-4.342-4.1-5.458,1.453-6.872,36.606-5.278,37.185-10.7.319-3.008-10.477-5.139-9.859-8.444,1-5.417,22.8-4.322,23.222-9.022.4-4.5-13.623-7.608-19.519-10.058,3.167-.219,6.155-.6,9.042-1.075.537-.08,1.056-.18,1.594-.278,6.413,2.47,18.6,5.6,18.224,9.978C128.5,260.551,106.693,259.4,105.7,265.052Z" transform="translate(-68.985 -245.674)"/>
            </g>
          </g>
        </g>
        <path id="Trazado_190923" data-name="Trazado 190923" d="M389.747,412.956a1.128,1.128,0,0,1-.856-.359,1.165,1.165,0,0,1-.339-.836,1.144,1.144,0,0,1,.08-.458,1.011,1.011,0,0,1,.259-.38,1.214,1.214,0,0,1,1.692,0,1.243,1.243,0,0,1,.261.38,1.192,1.192,0,0,1,.08.458,1.2,1.2,0,0,1-1.177,1.2" transform="translate(-312.663 -330.388)" fill="#ce9538"/>
        <path id="Trazado_190924" data-name="Trazado 190924" d="M413.1,380.085a1.148,1.148,0,0,1-.458-.08,1.01,1.01,0,0,1-.38-.259,1.115,1.115,0,0,1-.358-.836,1.156,1.156,0,0,1,.358-.856,1.226,1.226,0,0,1,1.672,0,1.155,1.155,0,0,1,.359.856,1.114,1.114,0,0,1-.359.836,1.158,1.158,0,0,1-.834.339" transform="translate(-331.454 -303.949)" fill="#ce9538"/>
        <path id="Trazado_190925" data-name="Trazado 190925" d="M449.715,297.661a1.171,1.171,0,0,1-.837-.339,1.2,1.2,0,0,1-.358-.856,1.2,1.2,0,0,1,2.052-.836,1.324,1.324,0,0,1,.259.377,1.283,1.283,0,0,1,.08.459,1.2,1.2,0,0,1-.358.856,1.179,1.179,0,0,1-.838.339" transform="translate(-360.918 -237.618)" fill="#ce9538"/>
        <path id="Trazado_190926" data-name="Trazado 190926" d="M250.979,442.308a1.171,1.171,0,0,1-.836-.339,1.177,1.177,0,0,1,0-1.694,1.011,1.011,0,0,1,.377-.259,1.23,1.23,0,0,1,1.314.259,1.17,1.17,0,0,1,.339.836,1.16,1.16,0,0,1-1.194,1.2Z" transform="translate(-200.998 -354.004)" fill="#ce9538"/>
        <path id="Trazado_190927" data-name="Trazado 190927" d="M474.387,278.14a1.182,1.182,0,0,1-.836-.358,1.114,1.114,0,0,1-.359-.836,1.144,1.144,0,0,1,.08-.458,1.382,1.382,0,0,1,.259-.4,1.257,1.257,0,0,1,1.694,0,1.3,1.3,0,0,1,.259.4,1.158,1.158,0,0,1,.1.458,1.112,1.112,0,0,1-.358.836,1.024,1.024,0,0,1-.38.259,1.162,1.162,0,0,1-.458.1" transform="translate(-380.771 -221.902)" fill="#ce9538"/>
        <path id="Trazado_190928" data-name="Trazado 190928" d="M424.115,408.779a1.191,1.191,0,0,1-.856-.359,1.2,1.2,0,0,1,0-1.672,1.214,1.214,0,0,1,1.692,0,1.152,1.152,0,0,1,0,1.672,1.114,1.114,0,0,1-.836.359" transform="translate(-340.318 -327.028)" fill="#ce9538"/>
        <path id="Trazado_190929" data-name="Trazado 190929" d="M217.531,437.422a1.16,1.16,0,0,1-1.2-1.2,1.171,1.171,0,0,1,.339-.836,1.213,1.213,0,0,1,1.694,0,1.185,1.185,0,0,1-.838,2.031" transform="translate(-174.083 -350.076)" fill="#ce9538"/>
        <path id="Trazado_190930" data-name="Trazado 190930" d="M337.555,349.118a1.171,1.171,0,0,1-.838-.339,1.179,1.179,0,0,1,0-1.692,1.213,1.213,0,0,1,1.694,0,1.183,1.183,0,0,1,.339.836,1.2,1.2,0,0,1-.358.856,1.181,1.181,0,0,1-.838.339" transform="translate(-270.664 -279.019)" fill="#ce9538"/>
        <path id="Trazado_190931" data-name="Trazado 190931" d="M340.317,59.943a1.779,1.779,0,0,1-2.177-1.259L324.7,8.361a1.778,1.778,0,1,1,3.436-.917l13.436,50.322A1.777,1.777,0,0,1,340.317,59.943Z" transform="translate(-261.235 -4.928)" fill="#606060"/>
        <path id="Trazado_190932" data-name="Trazado 190932" d="M293.488,40.531l-.375-1.4C290.164,28.087,277.8,21.806,265.5,25.09S245.631,39.978,248.58,51.02l.375,1.4a3.267,3.267,0,0,0,4,2.314l2.592-.692a3.267,3.267,0,0,0,2.314-4l-.375-1.4,26.72-7.134.375,1.4a3.267,3.267,0,0,0,4,2.314l2.592-.692A3.27,3.27,0,0,0,293.488,40.531Z" transform="translate(-199.517 -19.488)" fill="#f43d76"/>
        <path id="Trazado_190933" data-name="Trazado 190933" d="M319.65,45.178l-.375-1.4c-2.948-11.042-11.32-18.388-18.7-16.417s-10.969,12.511-8.02,23.552l.375,1.4a3.267,3.267,0,0,0,4,2.314l2.592-.692a3.267,3.267,0,0,0,2.314-4l-.375-1.4,8.906-2.378.375,1.4a3.267,3.267,0,0,0,4,2.314l2.594-.692A3.267,3.267,0,0,0,319.65,45.178Z" transform="translate(-234.585 -21.757)" fill="#f4f4f4"/>
        <path id="Trazado_190934" data-name="Trazado 190934" d="M341.4,48.724l-.375-1.4c-2.948-11.041-7.331-19.452-9.791-18.8s-2.064,10.133.884,21.174l.375,1.4a3.268,3.268,0,0,0,4,2.314l2.592-.692A3.269,3.269,0,0,0,341.4,48.724Z" transform="translate(-265.24 -22.926)" fill="#f43d76"/>
        <g id="Grupo_971002" data-name="Grupo 971002" transform="translate(48.423 4.993)" opacity="0.09" style="isolation: isolate">
          <g id="Grupo_971001" data-name="Grupo 971001">
            <g id="Grupo_971000" data-name="Grupo 971000" clip-path="url(#clip-path-6)">
              <path id="Trazado_190935" data-name="Trazado 190935" d="M254.62,50.478l.375,1.4a3.266,3.266,0,0,0,2.128,2.256,3.261,3.261,0,0,1-1.592.981l-2.6.694a3.269,3.269,0,0,1-4-2.313l-.375-1.4c-2.95-11.044,4.633-22.633,16.928-25.916a23.09,23.09,0,0,1,3.092-.619c-10.5,4.2-16.663,14.8-13.961,24.916" transform="translate(-247.924 -25.562)"/>
            </g>
          </g>
        </g>
        <path id="Trazado_190936" data-name="Trazado 190936" d="M37.552,50.532H1.2a1.2,1.2,0,1,1,0-2.391H37.552a1.2,1.2,0,1,1,0,2.391M24.417,53.163a1.2,1.2,0,1,0,0,2.391h6.92a1.2,1.2,0,1,0,0-2.391Zm-5.542,8.8a1.194,1.194,0,1,0,0-2.388H14.848a1.194,1.194,0,1,0,0,2.388Zm-3.994,9.039h5.472a1.194,1.194,0,1,0,0-2.388H14.881a1.194,1.194,0,1,0,0,2.388M9.5,55.486a1.195,1.195,0,1,0,0,2.389h2.522a1.195,1.195,0,1,0,0-2.389Zm1.783,17.1H8.027a1.194,1.194,0,1,0,0,2.388h3.256a1.194,1.194,0,1,0,0-2.388M100,43.019A1.156,1.156,0,0,1,98.75,44.16a118.753,118.753,0,0,0-19.309.675L81.5,52.528a2.974,2.974,0,0,1-4.363,3.341,2.94,2.94,0,0,1-1.384-1.806L73.51,45.677c-3.5.581-6.823,1.25-10.02,1.909C58.983,48.516,54.658,49.408,50,50l.452.148c7.469,2.47,15.191,5.025,14.813,9.356-.278,3.188-5.38,4.08-11.838,5.211-4.656.816-11.031,1.931-11.394,3.911-.156.842,2.844,2.378,4.455,3.2,2.909,1.488,5.659,2.9,5.42,5.161-.359,3.338-6.666,4.283-17.777,5.667-7.5.936-18.839,2.347-19.431,5.153-.1.445.067,1.742,3.611,4.228A1.2,1.2,0,0,1,16.933,94c-3.563-2.5-5.016-4.623-4.575-6.683C13.3,82.846,23.272,81.6,33.83,80.288c5.423-.677,15.52-1.933,15.7-3.552.066-.633-2.877-2.138-4.133-2.78-3.047-1.559-6.2-3.172-5.716-5.764.663-3.614,6.817-4.691,13.331-5.831,3.647-.638,9.752-1.708,9.87-3.066.214-2.448-8.172-5.222-13.183-6.878-2.113-.7-4.108-1.358-5.6-1.981a1.2,1.2,0,0,1,.378-2.3,132.43,132.43,0,0,0,18.538-2.9c3.15-.65,6.43-1.3,9.884-1.886l-3.1-11.613a4.453,4.453,0,0,1-1.759-.655c-.028.053-.044.111-.075.163a4.423,4.423,0,0,1-2.713,2.077l-2.589.692a4.54,4.54,0,0,1-1.161.153,4.448,4.448,0,0,1-2.227-.6c-.053-.03-.1-.072-.145-.1A4.443,4.443,0,0,1,56.341,35.7l-2.592.692a4.431,4.431,0,0,1-1.15.152,4.476,4.476,0,0,1-4.316-3.311l-.375-1.4C45.041,21.086,51.6,9.82,62.764,5.424l-.45-1.686A2.974,2.974,0,0,1,68.061,2.2L68.5,3.864c11.944-1.855,23.364,4.658,26.25,15.463l.373,1.4a4.463,4.463,0,0,1-3.163,5.461l-2.589.692a4.423,4.423,0,0,1-3.388-.448c-.052-.03-.094-.072-.145-.1a4.443,4.443,0,0,1-2.781,2.239l-2.592.692a4.537,4.537,0,0,1-1.159.153,4.445,4.445,0,0,1-2.228-.6c-.052-.03-.094-.072-.144-.1a4.438,4.438,0,0,1-2.784,2.238l-1.956.523,5.866,21.97a.583.583,0,0,0,.714.414.587.587,0,0,0,.412-.716l-4.858-18.2a1.2,1.2,0,0,1,2.311-.617l2.18,8.166a120.644,120.644,0,0,1,20.042-.727A1.2,1.2,0,0,1,100,43.019ZM83.91,23.728l-.375-1.4C81.205,13.6,75.378,7.291,69.572,6.564a22.066,22.066,0,0,1,2.192,3.494,71.721,71.721,0,0,1,5.173,14.028l.375,1.4A2.072,2.072,0,0,0,79.85,26.96l2.591-.692a2.078,2.078,0,0,0,1.469-2.539M75.022,6.059c4.766,2.828,8.913,8.5,10.822,15.648l.375,1.4v0a2.072,2.072,0,0,0,2.538,1.469l2.589-.692a2.067,2.067,0,0,0,1.469-2.536l-.373-1.406C90.372,12.2,83.313,6.936,75.022,6.059ZM65.03,4.652c.219-.064.973-.272,1.125-.309l-.406-1.519a.583.583,0,1,0-1.127.3Zm1.064,23.834s0-.006,0-.009l-.373-1.4a71.927,71.927,0,0,1-2.509-14.738,20.574,20.574,0,0,1,.233-4.613C53.519,11.739,47.68,21.719,50.216,31.22l.375,1.4a2.076,2.076,0,0,0,2.538,1.469l2.591-.692a2.077,2.077,0,0,0,1.469-2.539l-.375-1.4c-1.583-5.933-1.391-12.078.53-16.859a1.195,1.195,0,0,1,2.217.892c-1.731,4.313-1.891,9.908-.436,15.352l.375,1.4a2.069,2.069,0,0,0,2.538,1.469l2.589-.692a2.067,2.067,0,0,0,1.469-2.538Zm4.848.852,2.591-.692A2.075,2.075,0,0,0,75,26.108l-.375-1.4c-3.106-11.638-7.081-17.856-8.35-17.942l-.011,0c-1,.7-1.339,8.069,1.767,19.7l.373,1.4a2.075,2.075,0,0,0,2.536,1.469" transform="translate(0 0)" fill="#0b0c0c"/>
      </g>
    </g>
  </g>
</svg>
