<svg xmlns="http://www.w3.org/2000/svg" xmlns:xlink="http://www.w3.org/1999/xlink" width="100" height="100" viewBox="0 0 100 100">
  <defs>
    <clipPath id="clip-path">
      <rect id="Rectángulo_340893" data-name="Rectángulo 340893" width="99.187" height="99.187" fill="none"/>
    </clipPath>
  </defs>
  <g id="Grupo_971592" data-name="Grupo 971592" transform="translate(-320.242 -4505)">
    <rect id="Rectángulo_341186" data-name="Rectángulo 341186" width="100" height="100" transform="translate(320.242 4505)" fill="none"/>
    <g id="Grupo_971014" data-name="Grupo 971014" transform="translate(321 4505.591)">
      <path id="Trazado_190973" data-name="Trazado 190973" d="M367.458,72v35.553h-7.729V79.729H352V72Z" transform="translate(-283.986 -57.922)" fill="#7296b1"/>
      <path id="Trazado_214339" data-name="Trazado 214339" d="M0,0H6.612V28.1H0Z" transform="translate(69.431 21.4)" fill="#ffd877"/>
      <g id="Grupo_971013" data-name="Grupo 971013" transform="translate(0 -0.091)">
        <g id="Grupo_971012" data-name="Grupo 971012" clip-path="url(#clip-path)">
          <path id="Trazado_190974" data-name="Trazado 190974" d="M316.189,293.794l.355-2.5L312,283.824l3.091-9.275h7.729l9.275-6.183v-7.729L338.278,256H349.1a47.936,47.936,0,0,1-34.084,45.894v-.015Z" transform="translate(-251.715 -206.277)" fill="#15b76d"/>
          <path id="Trazado_190975" data-name="Trazado 190975" d="M203.553,256H205.1l-4.637,9.275-7.729,4.637-6.183-3.092h-9.275L168,256h35.553Z" transform="translate(-135.539 -206.277)" fill="#15b76d"/>
          <path id="Trazado_190976" data-name="Trazado 190976" d="M167.377,256h3.092l-6.183,4.637v7.729l-9.275,6.183h-7.729l-3.092,9.275,4.545,7.466-.356,2.5-1.175,8.084v.015a48.26,48.26,0,0,1-25.273.649l-2.149-7.636,5.858-6.446-3.184-9.769-10.728-2.6L104,265.275,107.092,256h9.275l9.275,10.82h9.275l6.183,3.092,7.729-4.637L153.465,256Z" transform="translate(-83.905 -206.277)" fill="#65beef"/>
          <path id="Trazado_190977" data-name="Trazado 190977" d="M45.006,278.692l3.184,9.769-5.858,6.446,2.149,7.636A47.936,47.936,0,0,1,8,256H29.641l-3.092,9.275,7.729,10.82Z" transform="translate(-6.454 -206.277)" fill="#15b76d"/>
          <path id="Trazado_190978" data-name="Trazado 190978" d="M445.912,115.1H432V81.36A47.675,47.675,0,0,1,445.912,115.1" transform="translate(-348.528 -65.382)" fill="#e5d7b7"/>
          <path id="Trazado_190979" data-name="Trazado 190979" d="M365.556,35.985H352V27.36a47.267,47.267,0,0,1,13.556,8.625" transform="translate(-283.986 -21.816)" fill="#f4eedf"/>
          <path id="Trazado_190980" data-name="Trazado 190980" d="M103.4,27.28v8.641H89.84A47.645,47.645,0,0,1,103.4,27.28" transform="translate(-72.481 -21.751)" fill="#f4eedf"/>
          <rect id="Rectángulo_340888" data-name="Rectángulo 340888" width="8.266" height="6.612" transform="translate(51.246 21.49)" fill="#ffd877"/>
          <rect id="Rectángulo_340889" data-name="Rectángulo 340889" width="8.266" height="8.266" transform="translate(51.246 8.266)" fill="#ffd877"/>
          <path id="Trazado_190981" data-name="Trazado 190981" d="M231.458,183.729v7.729H216V176h15.458Z" transform="translate(-174.264 -141.735)" fill="#8c6239"/>
          <rect id="Rectángulo_340890" data-name="Rectángulo 340890" width="8.266" height="8.266" transform="translate(38.022 8.266)" fill="#ffd877"/>
          <rect id="Rectángulo_340891" data-name="Rectángulo 340891" width="8.266" height="6.612" transform="translate(38.022 21.49)" fill="#ffd877"/>
          <path id="Trazado_190982" data-name="Trazado 190982" d="M197.1,11.741V55.919h-10.82V40.461H170.82V55.919H160V8h37.1ZM189.37,28.1h-7.729v6.183h7.729Zm0-12.366h-7.729v6.183h7.729ZM175.458,28.1h-7.729v6.183h7.729Zm0-12.366h-7.729v6.183h7.729Z" transform="translate(-129.085 -6.196)" fill="#8eabc1"/>
          <path id="Trazado_190983" data-name="Trazado 190983" d="M80,72v35.553h7.729V79.729h7.729V72Z" transform="translate(-64.542 -57.83)" fill="#7296b1"/>
          <rect id="Rectángulo_340892" data-name="Rectángulo 340892" width="8.266" height="28.103" transform="translate(23.144 21.49)" fill="#ffd877"/>
          <path id="Trazado_190984" data-name="Trazado 190984" d="M21.912,81.36V115.1H8A47.675,47.675,0,0,1,21.912,81.36" transform="translate(-6.454 -65.382)" fill="#e5d7b7"/>
          <path id="Trazado_190985" data-name="Trazado 190985" d="M264.81,442.288c-.284.121-.56.258-.847.371-.918.38-1.92.734-3.152,1.11a38.491,38.491,0,0,1-11.266,1.663,1.546,1.546,0,1,0,0,3.092,41.51,41.51,0,0,0,12.168-1.8c.972-.3,1.815-.581,2.584-.873l.257-1.764Z" transform="translate(-200.081 -356.571)" fill="#47a3e2"/>
          <path id="Trazado_190986" data-name="Trazado 190986" d="M353.316,355.97a1.546,1.546,0,0,0-2.115.552c-.512.87-1.1,1.73-1.646,2.518a38.891,38.891,0,0,1-16.694,13.437l-.252,1.8-.257,1.764q.425-.155.824-.326a41.964,41.964,0,0,0,18.911-14.9c.59-.849,1.215-1.765,1.779-2.728a1.546,1.546,0,0,0-.55-2.116Z" transform="translate(-268.135 -286.76)" fill="#049c5c"/>
          <path id="Trazado_190987" data-name="Trazado 190987" d="M441.546,328A1.546,1.546,0,1,1,440,329.546,1.546,1.546,0,0,1,441.546,328" transform="translate(-354.983 -264.365)" fill="#049c5c"/>
          <path id="Trazado_190988" data-name="Trazado 190988" d="M60.278,336.348a38.755,38.755,0,0,1-4.266-7.715,1.546,1.546,0,0,0-2.86,1.178,42.047,42.047,0,0,0,4.6,8.326,42.532,42.532,0,0,0,9.12,9.446,1.549,1.549,0,0,0,1.864-2.473A39.449,39.449,0,0,1,60.278,336.348Z" transform="translate(-42.787 -264.103)"/>
          <path id="Trazado_190989" data-name="Trazado 190989" d="M193.546,49.275a1.546,1.546,0,0,0,1.546-1.546V43.092h4.637v3.092a1.546,1.546,0,1,0,3.092,0V41.546A1.546,1.546,0,0,0,201.275,40h-7.729A1.546,1.546,0,0,0,192,41.546v6.183a1.546,1.546,0,0,0,1.546,1.546" transform="translate(-154.902 -32.013)"/>
          <path id="Trazado_190990" data-name="Trazado 190990" d="M265.546,47.729a1.546,1.546,0,0,0,1.546-1.546V43.092h4.637v4.637a1.546,1.546,0,0,0,3.092,0V41.546A1.546,1.546,0,0,0,273.275,40h-7.729A1.546,1.546,0,0,0,264,41.546v4.637a1.546,1.546,0,0,0,1.546,1.546" transform="translate(-212.99 -32.013)"/>
          <path id="Trazado_190991" data-name="Trazado 190991" d="M193.546,113.275a1.546,1.546,0,0,0,1.546-1.546v-4.637h4.637v3.092a1.546,1.546,0,1,0,3.092,0v-4.637A1.546,1.546,0,0,0,201.275,104h-7.729A1.546,1.546,0,0,0,192,105.546v6.183a1.546,1.546,0,0,0,1.546,1.546" transform="translate(-154.902 -83.647)"/>
          <path id="Trazado_190992" data-name="Trazado 190992" d="M265.546,111.729a1.546,1.546,0,0,0,1.546-1.546v-3.092h4.637v4.637a1.546,1.546,0,0,0,3.092,0v-6.183A1.546,1.546,0,0,0,273.275,104h-7.729A1.546,1.546,0,0,0,264,105.546v4.637a1.546,1.546,0,0,0,1.546,1.546" transform="translate(-212.99 -83.647)"/>
          <path id="Trazado_190993" data-name="Trazado 190993" d="M97.383,47.919H85.017V13.912a1.546,1.546,0,0,0-1.546-1.546H69.56V1.546A1.546,1.546,0,0,0,68.014,0h-37.1A1.546,1.546,0,0,0,29.37,1.546v10.82H15.458a1.546,1.546,0,0,0-1.546,1.546V47.919H1.546A1.546,1.546,0,0,0,0,49.465a49.465,49.465,0,0,0,98.929,0,1.546,1.546,0,0,0-1.546-1.546M81.926,15.458V47.919H69.56V23.187H74.2V38.644a1.546,1.546,0,1,0,3.092,0v-17A1.546,1.546,0,0,0,75.743,20.1H69.56V15.458ZM55.648,40.19H52.556a1.546,1.546,0,1,0,0,3.092h3.092v4.637H43.282V35.553H55.648ZM67.059,51.01l-3.317,6.634-6.616,3.97L51.7,58.894a1.544,1.544,0,0,0-.691-.155H42.447L35.822,51.01ZM32.461,3.092H66.468V47.919H58.739V34.007a1.546,1.546,0,0,0-1.546-1.546H41.736a1.546,1.546,0,0,0-1.546,1.546V47.919H32.461ZM17,15.458H29.37V20.1H23.187a1.546,1.546,0,0,0-1.546,1.546v17a1.546,1.546,0,1,0,3.092,0V23.187H29.37V47.919H17ZM3.156,51.01H21.041l-2.413,7.24a1.546,1.546,0,0,0,.209,1.391l7.729,10.82a1.555,1.555,0,0,0,.9.6l9.893,2.394,2.639,8.1-5.259,5.78a1.546,1.546,0,0,0-.343,1.458l1.391,4.96A46.192,46.192,0,0,1,3.156,51.01ZM39.263,94.688,37.6,88.778l5.282-5.812a1.546,1.546,0,0,0,.326-1.519l-3.184-9.769a1.546,1.546,0,0,0-1.107-1.023L28.751,68.192l-6.941-9.711L24.3,51.01H31.75L40.561,61.29a1.546,1.546,0,0,0,1.175.541h8.91L56.5,64.768a1.794,1.794,0,0,0,1.487-.059l7.729-4.637a1.545,1.545,0,0,0,.587-.634l4.209-8.428H81.926l-2.473,1.855a1.546,1.546,0,0,0-.618,1.237V61l-8.193,5.464H63.377a1.546,1.546,0,0,0-1.467,1.057L58.818,76.8a1.546,1.546,0,0,0,.147,1.292l4.257,6.993-1.308,9.041A46.948,46.948,0,0,1,39.263,94.688Zm25.93-1.62,1.17-8.1a1.545,1.545,0,0,0-.21-1.02L61.979,77.1l2.512-7.537h6.614a1.556,1.556,0,0,0,.858-.26l9.275-6.183a1.546,1.546,0,0,0,.688-1.286V54.875l5.152-3.864h8.695A46.67,46.67,0,0,1,65.19,93.068Z" transform="translate(0 0.258)"/>
          <path id="Trazado_190994" data-name="Trazado 190994" d="M41.546,296A1.546,1.546,0,1,1,40,297.546,1.546,1.546,0,0,1,41.546,296" transform="translate(-32.271 -238.549)"/>
        </g>
      </g>
    </g>
  </g>
</svg>
