<svg id="Grupo_971602" data-name="Grupo 971602" xmlns="http://www.w3.org/2000/svg" xmlns:xlink="http://www.w3.org/1999/xlink" width="448.393" height="760.191" viewBox="0 0 448.393 760.191">
  <defs>
    <clipPath id="clip-path">
      <rect id="Rectángulo_341193" data-name="Rectángulo 341193" width="448.393" height="760.191" fill="none"/>
    </clipPath>
    <clipPath id="clip-path-3">
      <rect id="Rectángulo_341190" data-name="Rectángulo 341190" width="19.473" height="23.623" fill="none"/>
    </clipPath>
    <clipPath id="clip-path-4">
      <rect id="Rectángulo_341191" data-name="Rectángulo 341191" width="17.28" height="17.28" fill="none"/>
    </clipPath>
  </defs>
  <g id="Grupo_971601" data-name="Grupo 971601" clip-path="url(#clip-path)">
    <g id="Grupo_971600" data-name="Grupo 971600">
      <g id="Grupo_971599" data-name="Grupo 971599" clip-path="url(#clip-path)">
        <path id="Trazado_214340" data-name="Trazado 214340" d="M250.282,401.04H190.208l-8.86-38.342-6.3,38.342H165.9V336.5h42.91l.866,16.763c31.749,9.431,40.609,47.773,40.609,47.773" transform="translate(176.97 358.965)" fill="#fc4b52"/>
        <path id="Trazado_214341" data-name="Trazado 214341" d="M311.8,146.343c7.114,58.716,19.308,204.5-3.952,393.015H261.862l-16.732-218.6s-22.6,70.478-29.976,86.254c-7.362,15.759-105.328,118.141-105.328,118.141l-1.794-1.4L74.244,497.111l-1.186-.926,94.835-146.466S144.076,187.2,205.212,146.343c0,0,59.659,16.732,106.584,0" transform="translate(77.934 156.111)" fill="#7eb723"/>
        <path id="Trazado_214342" data-name="Trazado 214342" d="M127.6,342.706l-8.753,11.855c18.57,27.428,1.112,62.7,1.112,62.7l-46.444-38.1,17.441-35.269L61.785,369.548l-7.07-5.805,39.1-47.68Z" transform="translate(58.367 337.159)" fill="#fc4b52"/>
        <path id="Trazado_214343" data-name="Trazado 214343" d="M187.737,188.2q-12.317,34.024-24.631,68.046l-6.944,19.184c-.339.936,1.153,1.339,1.488.409q12.317-34.021,24.631-68.046,3.472-9.592,6.944-19.181c.339-.936-1.151-1.339-1.488-.411" transform="translate(166.532 200.204)" fill="#2e3456"/>
        <path id="Trazado_214344" data-name="Trazado 214344" d="M205.852,177.392,173.21,195.571c-.868.482-.091,1.817.777,1.331q16.322-9.086,32.644-18.177c.868-.484.091-1.817-.779-1.333" transform="translate(184.366 189.121)" fill="#2e3456"/>
        <path id="Trazado_214345" data-name="Trazado 214345" d="M201.183,184.617l-26.634,6.091c-.967.221-.558,1.711.411,1.488q13.315-3.044,26.634-6.091c.967-.221.558-1.709-.411-1.488" transform="translate(185.61 196.915)" fill="#2e3456"/>
        <path id="Trazado_214346" data-name="Trazado 214346" d="M155.328,147.729c-8.011,8.918-12.932,20.01-16.315,31.4-3.741,12.589-6.07,25.657-8.118,38.613q-3.268,20.672-4.65,41.587-1.386,21.072-.831,42.213.558,21.112,3.063,42.11.31,2.6.651,5.19c.126.971,1.672.984,1.544,0q-2.716-20.749-3.532-41.684-.8-20.811.283-41.639,1.094-20.889,4.09-41.62a361.2,361.2,0,0,1,7.556-39.208c2.984-11.456,7.163-22.864,14.42-32.351.928-1.213,1.91-2.383,2.931-3.52.661-.738-.426-1.831-1.091-1.091" transform="translate(133.615 157.327)" fill="#2e3456"/>
        <path id="Trazado_214347" data-name="Trazado 214347" d="M173.878,249.614q-18.65,26.677-37.3,53.355L99.494,356.006Q89.009,371,78.525,386c-.57.816.769,1.587,1.333.779q18.65-26.676,37.3-53.355l37.082-53.037q10.485-15,20.969-29.993c.57-.816-.767-1.587-1.333-.779" transform="translate(83.618 265.909)" fill="#2e3456"/>
        <path id="Trazado_214348" data-name="Trazado 214348" d="M124.309,208.412c1.343,4.429-7.61,10.418-9.416,14.678l-.262.248c-4.322-4.6-.415-9.848-5.586-13.475l.031-.169c-3.983-2.594-9.755-1.467-12.828,2.145A12.121,12.121,0,0,0,94.8,224.464l-.045,1.188a27.108,27.108,0,0,1-6.514-.74,9.55,9.55,0,0,1-5.572-3.768c-1.2-1.883-1.451-4.2-2.16-6.312a3.568,3.568,0,0,0-.217-.57,71.137,71.137,0,0,0-3.472-6.932,15.245,15.245,0,0,1-1.761-5.51c-.353-4.229,1.961-8.211,4.524-11.607A90.734,90.734,0,0,1,96.972,173.3q2.108-5.348,3.782-10.85c5.34,4.076,15.081,10.418,26.673,12.812q-3.171,5.416-6.376,10.836a77.136,77.136,0,0,1,1.513,18.274,20,20,0,0,1,1.744,4.045" transform="translate(80.026 173.288)" fill="#ffbc85"/>
        <path id="Trazado_214349" data-name="Trazado 214349" d="M240.434,135.133c.725,4.646,1.852,12.456,3.15,23.168-46.923,16.732-106.582,0-106.582,0l1.976-18.785c20.283,3.226,61.387,7.192,101.457-4.384" transform="translate(146.146 144.153)" fill="#ffbc85"/>
        <path id="Trazado_214350" data-name="Trazado 214350" d="M332.927,67.107a50.072,50.072,0,0,1,5,.587s24.894,71.8,18.32,91.547c-6.591,19.742-52.063,16.871-52.063,16.871l3.133,33.758c-3.906,1.451-7.841,2.747-11.776,3.873-40.07,11.576-81.176,7.61-101.457,4.384-8.151-1.3-12.934-2.47-12.934-2.47V179.03h-.019l-57.17,104.929a44.785,44.785,0,0,1-7.548-.957c-11.59-2.393-21.331-8.736-26.671-12.812a56.411,56.411,0,0,1-4.4-3.673s51.631-156.19,72.377-180.332c20.729-24.125,42.321-24.743,42.321-24.743S238.123,89.519,248.7,85.861c10.571-3.642,7.36-13.306,7.36-13.306l-2.513-7.424c32.026-2.685,57.788,50.057,57.788,50.057l-2.284-42.633c.339-.322.709-.616,1.079-.909,6.39-4.863,16.685-4.987,22.8-4.539" transform="translate(91.039 65.543)" fill="#feca2e"/>
        <path id="Trazado_214351" data-name="Trazado 214351" d="M156.544,99.691q-12.084,18.3-24.166,36.6c-.55.831.785,1.606,1.331.779l24.169-36.6c.55-.831-.787-1.606-1.333-.779" transform="translate(141.074 105.969)" fill="#2e3456"/>
        <path id="Trazado_214352" data-name="Trazado 214352" d="M154.324,107.6l-18.487,17.125c-.73.676.364,1.765,1.091,1.091l18.487-17.125c.732-.676-.364-1.765-1.091-1.091" transform="translate(144.647 114.554)" fill="#2e3456"/>
        <path id="Trazado_214353" data-name="Trazado 214353" d="M202.468,121.027a75.271,75.271,0,0,0-11.739-28.35,72.9,72.9,0,0,0-11.1-12.657c-.736-.663-1.831.424-1.091,1.091A71.578,71.578,0,0,1,195.712,104.6c4.456,9.819,6.326,20.533,7.141,31.22.467,6.115.614,12.25.754,18.38a.772.772,0,0,0,1.544,0c-.254-11.09-.529-22.259-2.683-33.177" transform="translate(190.189 85.141)" fill="#2e3456"/>
        <path id="Trazado_214354" data-name="Trazado 214354" d="M195.012,89.42q-.4,10.519-.792,21.035c-.037.994,1.507.992,1.544,0q.394-10.516.792-21.035c.037-.994-1.507-.992-1.544,0" transform="translate(207.183 94.594)" fill="#2e3456"/>
        <path id="Trazado_214355" data-name="Trazado 214355" d="M194.8,89.342q-1.556,6.746-3.115,13.492c-.223.965,1.265,1.379,1.49.409q1.556-6.746,3.113-13.49c.223-.967-1.265-1.381-1.488-.411" transform="translate(204.455 94.716)" fill="#2e3456"/>
        <path id="Trazado_214356" data-name="Trazado 214356" d="M209.124,54.463l-.539,13.969-.2,5.14A5.363,5.363,0,0,1,200,77.787L182.05,65.562,170.643,57.8a5.286,5.286,0,0,1-2.346-4.63l.725-19.095a5.35,5.35,0,0,1,8.366-4.214l7.192,4.894,22.18,15.079a5.411,5.411,0,0,1,2.362,4.632" transform="translate(179.526 30.846)" fill="#636363"/>
        <path id="Trazado_214357" data-name="Trazado 214357" d="M237.34,100.472c-6.111-.448-16.41-.324-22.8,4.539-.94-3.243-1.912-6.5-2.883-9.741a53.422,53.422,0,0,1-12.7-4.892,21.884,21.884,0,0,1-9.125-9.478,103.208,103.208,0,0,1-13.769-14.54,4.515,4.515,0,0,1-1.11-2.131L192.9,76.454a5.364,5.364,0,0,0,8.385-4.214l.2-5.14a124.942,124.942,0,0,1-6.76-11.175,38.212,38.212,0,0,1-11.915.942c-1.546-.124-3.443-.694-3.644-2.207a3.347,3.347,0,0,1,1.265-2.579,18.732,18.732,0,0,1,8.228-4.816,20.546,20.546,0,0,1-10.65-1.9,2.239,2.239,0,0,1-1.283-2.023,2.112,2.112,0,0,1,1.019-1.806,9.772,9.772,0,0,1,7.548-1.217,25.775,25.775,0,0,1-7.145-5.958,7.205,7.205,0,0,1-.665-.942,2.333,2.333,0,0,1-.244-2.269c.6-1.126,2.222-1.11,3.456-.818,4.367,1.019,8.242,3.52,11.809,6.237,10.511,7.994,19.126,18.26,26.332,29.311,7.13,10.974,12.934,22.753,18.508,34.591" transform="translate(186.626 32.178)" fill="#ffbc85"/>
        <path id="Trazado_214358" data-name="Trazado 214358" d="M196.294,45.288A33.852,33.852,0,0,0,182.62,37.8a.772.772,0,0,0-.411,1.488A32.152,32.152,0,0,1,195.2,46.379c.736.663,1.831-.426,1.091-1.091" transform="translate(193.79 40.288)" fill="#2e3456"/>
        <path id="Trazado_214359" data-name="Trazado 214359" d="M197.091,42.209a49.968,49.968,0,0,0-15.484-7.852c-.951-.289-1.358,1.2-.409,1.488a48.782,48.782,0,0,1,15.114,7.7c.794.6,1.565-.742.779-1.333" transform="translate(192.716 36.611)" fill="#2e3456"/>
        <path id="Trazado_214360" data-name="Trazado 214360" d="M100.134,191.094C88.1,221.779,73.277,259.257,61.87,288.353c-1.374,3.472-6.591.957-5.233-2.517,11.962-30.5,27.676-70.23,40.025-101.672a71.1,71.1,0,0,1,3.472,6.93" transform="translate(60.179 196.456)" fill="#12263f"/>
        <path id="Trazado_214361" data-name="Trazado 214361" d="M106.193,195.714a11.286,11.286,0,1,1-11.286-11.286,11.287,11.287,0,0,1,11.286,11.286" transform="translate(89.201 196.737)" fill="#fd6700"/>
        <path id="Trazado_214362" data-name="Trazado 214362" d="M107.02,192.6Q88.1,240.814,69.171,289.029c-1.358,3.462,3.867,5.983,5.233,2.5q18.923-48.213,37.848-96.428c1.358-3.462-3.869-5.983-5.233-2.5" transform="translate(73.55 203.679)" fill="#12263f"/>
        <path id="Trazado_214363" data-name="Trazado 214363" d="M52.823,373.97c-4.386,12.258-14.713,19.773-23.065,16.784s-11.566-15.348-7.18-27.606,14.713-19.775,23.065-16.786,11.566,15.35,7.18,27.608" transform="translate(21.993 368.782)" fill="#12263f"/>
        <rect id="Rectángulo_341189" data-name="Rectángulo 341189" width="7.262" height="37.867" transform="translate(41.518 731.936) rotate(-70.311)" fill="#dff7f9"/>
        <path id="Trazado_214364" data-name="Trazado 214364" d="M138.27,270.758,68.565,465.584a23.905,23.905,0,0,1-30.47,14.4l-4.971-1.775,90.745-237.922a23.905,23.905,0,0,1,14.4,30.47" transform="translate(35.335 256.326)" fill="#12263f"/>
        <path id="Trazado_214365" data-name="Trazado 214365" d="M159.2,247.715,68.459,485.635l-24.464-8.751a64.647,64.647,0,0,1-9.108-4.076,56.841,56.841,0,0,1-6.08-3.72A66.621,66.621,0,0,1,3.861,392.02L44.9,277.319a66.627,66.627,0,0,1,68.163-43.759,65.3,65.3,0,0,1,7.068.988,64.265,64.265,0,0,1,9.633,2.641Z" transform="translate(0 248.901)" fill="#feca2e"/>
        <path id="Trazado_214366" data-name="Trazado 214366" d="M105.269,234.428,20.019,472.689a56.869,56.869,0,0,1-6.082-3.72L98.2,233.44a64.83,64.83,0,0,1,7.07.988" transform="translate(14.867 249.021)" fill="#dff7f9"/>
        <path id="Trazado_214367" data-name="Trazado 214367" d="M195.135,62.567l11.5,1.715L159.7,252.869H143.13Z" transform="translate(152.683 66.743)" fill="#fc4b52"/>
        <path id="Trazado_214368" data-name="Trazado 214368" d="M205.156,152.878l-17.41,75.556a33.458,33.458,0,0,1-32.6,25.931H138.367a33.372,33.372,0,0,1-33.355-35.9c1.928-23.569,10.187-52.371,37.061-65.584Z" transform="translate(111.903 163.082)" fill="#fc4b52"/>
        <path id="Trazado_214369" data-name="Trazado 214369" d="M141.1,118.337l-18.214,71.388h12.956l5.258-34.759Z" transform="translate(131.089 126.235)" fill="#fc4b52"/>
        <path id="Trazado_214370" data-name="Trazado 214370" d="M156.21,154.166l-19.979,71.253q-2.812,10.023-5.619,20.041a.772.772,0,0,0,1.488.409l19.979-71.253q2.812-10.02,5.62-20.039a.772.772,0,0,0-1.488-.411" transform="translate(139.295 163.875)" fill="#2e3456"/>
        <path id="Trazado_214371" data-name="Trazado 214371" d="M165.4,163.061A87.066,87.066,0,0,1,143.04,183c-4.216,2.6-9.2,5.287-14.3,3.857-4.245-1.195-7.5-4.768-9.307-8.672-2.509-5.413-2.495-11.632-2.53-17.474a.772.772,0,0,0-1.544,0c.035,5.6.081,11.4,2.094,16.712a18.22,18.22,0,0,0,8.647,10.065c4.82,2.335,9.925,1.112,14.467-1.275a77.457,77.457,0,0,0,13.289-9.116,87.992,87.992,0,0,0,12.63-12.944c.612-.771-.473-1.87-1.091-1.091" transform="translate(123.062 170.642)" fill="#2e3456"/>
        <path id="Trazado_214372" data-name="Trazado 214372" d="M158.514,155.9q-6.808,28.583-13.618,57.166l-3.828,16.067c-.229.965,1.259,1.376,1.49.409l13.616-57.166q1.916-8.032,3.828-16.065c.229-.967-1.259-1.379-1.488-.411" transform="translate(150.459 165.722)" fill="#2e3456"/>
        <path id="Trazado_214373" data-name="Trazado 214373" d="M214.71,24.01V62.521a29.8,29.8,0,0,1-.94,7.455A30.154,30.154,0,0,1,193.842,91.03l4.847,14.277,2.515,7.426s3.212,9.662-7.362,13.3c-10.573,3.658-48.653-24.419-48.653-24.419L147.6,66.163l.525-7.672.079-.184a18.84,18.84,0,0,1-9.848-10.6,27.553,27.553,0,0,1-.973-15.127,15.757,15.757,0,0,1,1.868-5.264,6.7,6.7,0,0,1,10.449-1.79,14.069,14.069,0,0,1,3.613,4.6c.525-.384,1.05-.8,1.558-1.219a53.381,53.381,0,0,0,5.2-4.892Z" transform="translate(145.894 25.367)" fill="#ffbc85"/>
        <path id="Trazado_214374" data-name="Trazado 214374" d="M184.04,67.241l3.272,9.617c-9.538,2.916-24.078-.725-31.534-7.271a29.681,29.681,0,0,1-9.786-23.507,30.026,30.026,0,0,0,28.988,22.567H175a29.71,29.71,0,0,0,9.044-1.405" transform="translate(155.694 49.156)" fill="#2e3456"/>
        <path id="Trazado_214375" data-name="Trazado 214375" d="M234.471,49.377h-57.9a53.141,53.141,0,0,1-5.2,4.892c-.508.417-1.033.835-1.556,1.219a14.074,14.074,0,0,0-3.615-4.6,6.7,6.7,0,0,0-10.449,1.79,15.894,15.894,0,0,0-1.868,5.264,27.534,27.534,0,0,0,.975,15.127,18.833,18.833,0,0,0,9.848,10.6l-.079.184L164.1,91.53c-8.257-3.751-13.6-12.287-16.871-20.853a67.149,67.149,0,0,1-3.7-13.8,24.354,24.354,0,0,1-11.3-5.095A29.61,29.61,0,0,1,122.8,37.538a33.93,33.93,0,0,1,1.713-24.4,24.664,24.664,0,0,1,8.474-10.263A16.24,16.24,0,0,1,145.855.463c6.343,1.7,10.65,7.87,12.026,14.339A53.508,53.508,0,0,1,185.016,3.518c13.366-1.651,27.674,1.343,37.954,10.049a37,37,0,0,1,9.354,12.21c3.52,7.378,4.6,15.852,2.147,23.6" transform="translate(129.39 0)" fill="#12263f"/>
        <g id="Grupo_971595" data-name="Grupo 971595" transform="translate(336.179 60.258)" opacity="0.8" style="mix-blend-mode: overlay;isolation: isolate">
          <g id="Grupo_971594" data-name="Grupo 971594">
            <g id="Grupo_971593" data-name="Grupo 971593" clip-path="url(#clip-path-3)">
              <path id="Trazado_214376" data-name="Trazado 214376" d="M164.627,42.892c2.313,5.719,7.347,10.79,12.679,9.751,2.12-.409,4.623-2.009,4.818-4.776.215-3.2-3.02-4.33-4.857-5.884a14.88,14.88,0,0,1-3.02-3.538c-.283-.459-.541-.955-.785-1.443-1.337-3.1-2.856-6.521-5.9-7.612-2.464-.88-4.375.82-4.8,3.493a14.087,14.087,0,0,0,.337,4.824,28.835,28.835,0,0,0,1.534,5.185" transform="translate(-162.661 -29.156)" fill="#2e333f"/>
            </g>
          </g>
        </g>
        <g id="Grupo_971598" data-name="Grupo 971598" transform="translate(309.657 72.388)" opacity="0.8" style="mix-blend-mode: overlay;isolation: isolate">
          <g id="Grupo_971597" data-name="Grupo 971597">
            <g id="Grupo_971596" data-name="Grupo 971596" clip-path="url(#clip-path-4)">
              <path id="Trazado_214377" data-name="Trazado 214377" d="M150.372,46.676a8.637,8.637,0,1,0,5.084-11.107,8.638,8.638,0,0,0-5.084,11.107" transform="translate(-149.828 -35.025)" fill="#2e333f"/>
            </g>
          </g>
        </g>
        <path id="Trazado_214378" data-name="Trazado 214378" d="M169.518,25.956a2.727,2.727,0,0,1,3.216-1.961A41.532,41.532,0,0,1,180.12,26a2.941,2.941,0,0,1,1.629,1.174,2.729,2.729,0,0,1,.333,2.044,2.7,2.7,0,0,1-1.174,1.629,2.586,2.586,0,0,1-2.044.333,41.692,41.692,0,0,0-7.384-2.011A2.686,2.686,0,0,1,169.85,28a2.723,2.723,0,0,1-.333-2.042" transform="translate(180.75 25.543)" fill="#2e3456"/>
        <path id="Trazado_214379" data-name="Trazado 214379" d="M155.459,26.124a65.786,65.786,0,0,1,8.755-2.253,2.92,2.92,0,0,1,2.058.2,2.715,2.715,0,0,1,1.273,1.552,2.688,2.688,0,0,1-.2,2.061,2.567,2.567,0,0,1-1.552,1.273,65.837,65.837,0,0,0-8.753,2.253,2.665,2.665,0,1,1-1.577-5.09" transform="translate(163.857 25.367)" fill="#2e3456"/>
        <path id="Trazado_214380" data-name="Trazado 214380" d="M165.679,33.956a5.117,5.117,0,1,1-5.276-5.148,5.218,5.218,0,0,1,5.276,5.148" transform="translate(165.83 30.729)" fill="#2e3456"/>
        <path id="Trazado_214381" data-name="Trazado 214381" d="M179.491,34.057a5.117,5.117,0,1,1-5.276-5.148,5.217,5.217,0,0,1,5.276,5.148" transform="translate(180.564 30.836)" fill="#2e3456"/>
        <path id="Trazado_214382" data-name="Trazado 214382" d="M146.955,32.191c-.734-2.129-2.5-4.018-4.9-3.991a3.484,3.484,0,0,0-3.441,4.309c.3.98,1.889.7,1.585-.291a1.817,1.817,0,0,1,1.079-2.263,2.846,2.846,0,0,1,2.784.612,5.146,5.146,0,0,1,1.546,2.747,2.572,2.572,0,0,1-.94,2.8,6.331,6.331,0,0,0,.763,9.869.807.807,0,0,0,.916-1.327,4.686,4.686,0,0,1-1.331-6.5c.63-.934,1.684-1.49,2.094-2.588a5.042,5.042,0,0,0-.157-3.375" transform="translate(147.722 30.082)" fill="#2e3456"/>
        <path id="Trazado_214383" data-name="Trazado 214383" d="M174.946,46.4c-.868,3.859-4.1,7.746-8.3,7.8-4.111.052-7.475-3.487-9.724-6.56a6.733,6.733,0,0,1-1.494-5.469A4.568,4.568,0,0,1,159,38.884c3.976-.9,6.74,2.575,8.6,5.626,1.283-1.2,2.629-2.385,4.5-2.257,2.224.151,3.307,2.081,2.85,4.144" transform="translate(165.65 41.324)" fill="#2e3456"/>
        <path id="Trazado_214384" data-name="Trazado 214384" d="M216.009,19.276c-8.56,0-15.581,6.829-16.4,15.519H197.6c-.816-8.691-7.837-15.519-16.4-15.519-8.527,0-15.554,6.744-16.435,15.364q-9.855-1.1-19.711-2.205c-2.608-.293-5.956-1.244-8.232.535-1.879,1.472-2.193,4-2.29,6.227-.089,1.986,3,1.982,3.086,0,.1-2.147.331-4.282,2.966-4.158,2.654.126,5.324.579,7.965.874l16.181,1.81c.62,8.891,7.754,15.926,16.47,15.926,8.645,0,15.726-6.955,16.422-15.767h1.961c.7,8.813,7.775,15.767,16.422,15.767,9.106,0,16.515-7.7,16.515-17.179s-7.409-17.2-16.515-17.2M181.2,50.918c-7.61,0-13.785-6.483-13.785-14.447s6.175-14.449,13.785-14.449c7.593,0,13.783,6.483,13.783,14.449S188.8,50.918,181.2,50.918m34.806,0c-7.593,0-13.783-6.483-13.783-14.447s6.19-14.449,13.783-14.449c7.61,0,13.783,6.483,13.783,14.449s-6.173,14.447-13.783,14.447" transform="translate(143.514 20.563)" fill="#fd6700"/>
      </g>
    </g>
  </g>
</svg>
