<svg xmlns="http://www.w3.org/2000/svg" xmlns:xlink="http://www.w3.org/1999/xlink" width="100.076" height="100" viewBox="0 0 100.076 100">
  <defs>
    <clipPath id="clip-path">
      <rect id="Rectángulo_340886" data-name="Rectángulo 340886" width="100" height="99.997" fill="none"/>
    </clipPath>
  </defs>
  <g id="Grupo_971591" data-name="Grupo 971591" transform="translate(-320.166 -4309)">
    <rect id="Rectángulo_341185" data-name="Rectángulo 341185" width="100" height="100" transform="translate(320.242 4309)" fill="none"/>
    <g id="Grupo_971011" data-name="Grupo 971011" transform="translate(320.166 4309.002)">
      <rect id="Rectángulo_340878" data-name="Rectángulo 340878" width="98.481" height="3.04" transform="translate(0.76 17.769)" fill="#eaf2ff"/>
      <g id="Grupo_971010" data-name="Grupo 971010">
        <g id="Grupo_971009" data-name="Grupo 971009" clip-path="url(#clip-path)">
          <path id="Trazado_190952" data-name="Trazado 190952" d="M98.443,89.375H1.57A1.562,1.562,0,0,1,.008,87.812v-6.25A1.562,1.562,0,0,1,1.57,80H98.443a1.563,1.563,0,0,1,1.562,1.562v6.25a1.563,1.563,0,0,1-1.562,1.562M3.133,86.25H96.881V83.125H3.133Z" transform="translate(-0.006 -64.375)"/>
          <path id="Trazado_190953" data-name="Trazado 190953" d="M85.816,8H27.06A19.435,19.435,0,0,0,8,23.625c0,.02-1.59,0,96.873,0A19.435,19.435,0,0,0,85.816,8Z" transform="translate(-6.438 -6.438)" fill="#e38499"/>
          <path id="Trazado_190954" data-name="Trazado 190954" d="M9.587,64a19.431,19.431,0,0,0-1.58,4.687H104.88A19.431,19.431,0,0,0,103.3,64Z" transform="translate(-6.443 -51.5)" fill="#db4e6c"/>
          <path id="Trazado_190955" data-name="Trazado 190955" d="M1.787,18.75A1.592,1.592,0,0,1,.064,17.625a1.562,1.562,0,0,1-.02-.812A21.052,21.052,0,0,1,20.622,0H68.75a1.562,1.562,0,1,1,0,3.125H20.622a17.93,17.93,0,0,0-17.049,12.5c32.5.027-63.354,0,92.851,0a17.931,17.931,0,0,0-17.046-12.5H75A1.562,1.562,0,1,1,75,0h4.379a21.053,21.053,0,0,1,20.59,16.873,1.563,1.563,0,0,1-1.531,1.877C-23.664,18.75,6.691,18.775,1.787,18.75Z" transform="translate(0)"/>
          <rect id="Rectángulo_340879" data-name="Rectángulo 340879" width="96.721" height="4.918" transform="translate(1.639 83.604)" fill="#e38499"/>
          <path id="Trazado_190956" data-name="Trazado 190956" d="M98.443,425.375H1.57a1.562,1.562,0,0,1-1.562-1.562v-6.25A1.562,1.562,0,0,1,1.57,416H98.443a1.563,1.563,0,0,1,1.562,1.563v6.25a1.563,1.563,0,0,1-1.562,1.562M3.133,422.25H96.881v-3.125H3.133Z" transform="translate(-0.006 -334.752)"/>
          <rect id="Rectángulo_340880" data-name="Rectángulo 340880" width="96.721" height="9.836" transform="translate(1.639 88.522)" fill="#eaf2ff"/>
          <rect id="Rectángulo_340881" data-name="Rectángulo 340881" width="96.721" height="4.918" transform="translate(1.639 93.44)" fill="#c1d1f7"/>
          <path id="Trazado_190957" data-name="Trazado 190957" d="M98.443,460.5a1.562,1.562,0,0,1-1.562-1.562v-7.812H3.133v7.812a1.562,1.562,0,0,1-3.125,0v-9.375A1.563,1.563,0,0,1,1.57,448H98.443a1.563,1.563,0,0,1,1.562,1.562v9.375a1.562,1.562,0,0,1-1.562,1.562" transform="translate(-0.006 -360.502)"/>
          <rect id="Rectángulo_340882" data-name="Rectángulo 340882" width="13.115" height="60.656" transform="translate(3.279 22.948)" fill="#dcdcdc"/>
          <rect id="Rectángulo_340883" data-name="Rectángulo 340883" width="13.115" height="4.918" transform="translate(3.279 78.686)" fill="#bbb"/>
          <path id="Trazado_190958" data-name="Trazado 190958" d="M22.07,174.5H9.57a1.562,1.562,0,0,1-1.562-1.562V113.562A1.562,1.562,0,0,1,9.57,112h12.5a1.563,1.563,0,0,1,1.562,1.562v59.374A1.563,1.563,0,0,1,22.07,174.5m-10.937-3.125h9.375V115.125H11.133Z" transform="translate(-6.444 -90.126)"/>
          <path id="Trazado_190959" data-name="Trazado 190959" d="M21.781,177.558a1.562,1.562,0,0,1-1.029-.391L8.252,166.23a1.562,1.562,0,0,1-.138-2.205,1.541,1.541,0,0,1,.138-.138l11.156-9.765L8.252,144.355a1.562,1.562,0,0,1-.138-2.205,1.517,1.517,0,0,1,.138-.138l11.156-9.765L8.252,122.481a1.562,1.562,0,1,1,2.059-2.344l12.5,10.937a1.563,1.563,0,0,1,.138,2.205,1.593,1.593,0,0,1-.138.138l-11.156,9.765,11.156,9.765a1.563,1.563,0,0,1,.138,2.205,1.6,1.6,0,0,1-.138.138l-11.156,9.765,11.156,9.765a1.562,1.562,0,0,1-1.029,2.734" transform="translate(-6.155 -96.31)"/>
          <rect id="Rectángulo_340884" data-name="Rectángulo 340884" width="13.115" height="60.656" transform="translate(83.607 22.948)" fill="#dcdcdc"/>
          <rect id="Rectángulo_340885" data-name="Rectángulo 340885" width="13.115" height="4.918" transform="translate(83.607 78.686)" fill="#bbb"/>
          <path id="Trazado_190960" data-name="Trazado 190960" d="M438.07,174.5h-12.5a1.562,1.562,0,0,1-1.562-1.562V113.562A1.562,1.562,0,0,1,425.57,112h12.5a1.563,1.563,0,0,1,1.563,1.562v59.374a1.563,1.563,0,0,1-1.562,1.562m-10.937-3.125h9.375V115.125h-9.375Z" transform="translate(-341.196 -90.126)"/>
          <path id="Trazado_190961" data-name="Trazado 190961" d="M437.781,177.558a1.561,1.561,0,0,1-1.029-.391l-12.5-10.937a1.562,1.562,0,0,1-.138-2.205,1.539,1.539,0,0,1,.138-.138l11.156-9.765-11.156-9.765a1.563,1.563,0,0,1-.138-2.205,1.542,1.542,0,0,1,.138-.138l11.156-9.765-11.156-9.765a1.562,1.562,0,0,1,1.919-2.467,1.507,1.507,0,0,1,.14.123l12.5,10.937a1.562,1.562,0,0,1,0,2.344l-11.156,9.765,11.156,9.765a1.562,1.562,0,0,1,0,2.344l-11.156,9.765,11.156,9.765a1.562,1.562,0,0,1-1.029,2.734Z" transform="translate(-340.907 -96.31)"/>
          <path id="Trazado_190962" data-name="Trazado 190962" d="M129.57,121.375a1.562,1.562,0,0,1-1.562-1.562v-6.25a1.562,1.562,0,0,1,3.125,0v6.25a1.563,1.563,0,0,1-1.562,1.562" transform="translate(-103.007 -90.126)"/>
          <path id="Trazado_190963" data-name="Trazado 190963" d="M119.82,147.125h-6.25a1.562,1.562,0,0,1,0-3.125h6.25a1.562,1.562,0,1,1,0,3.125" transform="translate(-90.132 -115.876)"/>
          <path id="Trazado_190964" data-name="Trazado 190964" d="M209.57,121.375a1.562,1.562,0,0,1-1.562-1.562v-6.25a1.562,1.562,0,0,1,3.125,0v6.25a1.563,1.563,0,0,1-1.562,1.562" transform="translate(-167.382 -90.126)"/>
          <path id="Trazado_190965" data-name="Trazado 190965" d="M199.82,147.125h-6.25a1.562,1.562,0,1,1,0-3.125h6.25a1.562,1.562,0,0,1,0,3.125" transform="translate(-154.507 -115.876)"/>
          <path id="Trazado_190966" data-name="Trazado 190966" d="M289.57,121.375a1.562,1.562,0,0,1-1.562-1.562v-6.25a1.562,1.562,0,0,1,3.125,0v6.25a1.563,1.563,0,0,1-1.562,1.562" transform="translate(-231.758 -90.126)"/>
          <path id="Trazado_190967" data-name="Trazado 190967" d="M279.82,147.125h-6.25a1.562,1.562,0,1,1,0-3.125h6.25a1.562,1.562,0,1,1,0,3.125" transform="translate(-218.883 -115.876)"/>
          <path id="Trazado_190968" data-name="Trazado 190968" d="M369.57,121.375a1.562,1.562,0,0,1-1.562-1.562v-6.25a1.562,1.562,0,1,1,3.125,0v6.25a1.562,1.562,0,0,1-1.562,1.562" transform="translate(-296.133 -90.126)"/>
          <path id="Trazado_190969" data-name="Trazado 190969" d="M359.82,147.125h-6.25a1.562,1.562,0,1,1,0-3.125h6.25a1.562,1.562,0,1,1,0,3.125" transform="translate(-283.258 -115.876)"/>
          <path id="Trazado_190970" data-name="Trazado 190970" d="M249.57,354.75a1.562,1.562,0,0,1-1.562-1.562V337.563a1.562,1.562,0,1,1,3.125,0v15.625a1.563,1.563,0,0,1-1.562,1.562" transform="translate(-199.57 -270.377)"/>
          <path id="Trazado_190971" data-name="Trazado 190971" d="M234.943,334.248c-.361,0,.365.207-9.869-3.205a1.563,1.563,0,1,1,.988-2.965l9.375,3.125a1.562,1.562,0,0,1-.494,3.045" transform="translate(-180.255 -263.937)"/>
          <path id="Trazado_190972" data-name="Trazado 190972" d="M219.133,326.25a3.125,3.125,0,1,1,3.125-3.125,3.125,3.125,0,0,1-3.125,3.125" transform="translate(-173.82 -257.502)"/>
        </g>
      </g>
    </g>
  </g>
</svg>
