<svg xmlns="http://www.w3.org/2000/svg" xmlns:xlink="http://www.w3.org/1999/xlink" width="100" height="100" viewBox="0 0 100 100">
  <defs>
    <clipPath id="clip-path">
      <rect id="Rectángulo_340863" data-name="Rectángulo 340863" width="98.985" height="98.985" fill="none"/>
    </clipPath>
  </defs>
  <g id="Grupo_971586" data-name="Grupo 971586" transform="translate(-320.242 -3133)">
    <rect id="Rectángulo_341179" data-name="Rectángulo 341179" width="100" height="100" transform="translate(320.242 3133)" fill="none"/>
    <g id="Grupo_970983" data-name="Grupo 970983" transform="translate(321.665 3134.471)">
      <path id="Trazado_190838" data-name="Trazado 190838" d="M102.222,456v9.118H8V456h94.222Z" transform="translate(-5.959 -368.981)" fill="#b3b3b3"/>
      <path id="Trazado_190839" data-name="Trazado 190839" d="M210.638,360H200v18.237h21.276V360Z" transform="translate(-161.486 -291.218)" fill="#9fc3ce"/>
      <path id="Trazado_190840" data-name="Trazado 190840" d="M206.394,328v6.079H176V328Z" transform="translate(-142.046 -265.297)" fill="#f7a539"/>
      <rect id="Rectángulo_340854" data-name="Rectángulo 340854" width="14.941" height="5.603" transform="translate(51.629 49.971)" fill="#ffcc3e"/>
      <rect id="Rectángulo_340855" data-name="Rectángulo 340855" width="14.941" height="5.603" transform="translate(51.629 36.898)" fill="#f7a539"/>
      <rect id="Rectángulo_340856" data-name="Rectángulo 340856" width="13.073" height="5.603" transform="translate(31.085 36.898)" fill="#ffcc3e"/>
      <rect id="Rectángulo_340857" data-name="Rectángulo 340857" width="13.073" height="5.603" transform="translate(31.085 49.971)" fill="#f7a539"/>
      <rect id="Rectángulo_340858" data-name="Rectángulo 340858" width="9.338" height="57.897" transform="translate(10.541 29.427)" fill="#b3b3b3"/>
      <rect id="Rectángulo_340859" data-name="Rectángulo 340859" width="11.206" height="57.897" transform="translate(77.776 29.427)" fill="#b3b3b3"/>
      <path id="Trazado_190841" data-name="Trazado 190841" d="M161.749,152v57.749H143.512V191.512h4.559v-6.079H117.677v6.079h4.559v18.237H104V152Zm-10.638,19.756H137.434v7.6h13.677Zm0-13.677H137.434v7.6h13.677Zm-22.8,13.677H114.638v7.6h13.677Zm0-13.677H114.638v7.6h13.677Z" transform="translate(-83.723 -122.73)" fill="#ccc"/>
      <rect id="Rectángulo_340860" data-name="Rectángulo 340860" width="13.073" height="13.073" transform="translate(64.702 16.354)" fill="#b3b3b3"/>
      <rect id="Rectángulo_340861" data-name="Rectángulo 340861" width="7.471" height="7.471" transform="translate(44.158 21.957)" fill="#9fc3ce"/>
      <path id="Trazado_190842" data-name="Trazado 190842" d="M221.276,40V61.276H215.2v-7.6h-9.118v7.6H200V40h6.079v7.6H215.2V40Z" transform="translate(-161.486 -32.006)" fill="#f7a539"/>
      <g id="Grupo_970982" data-name="Grupo 970982" transform="translate(-0.665 -0.455)">
        <g id="Grupo_970981" data-name="Grupo 970981" clip-path="url(#clip-path)">
          <path id="Trazado_190843" data-name="Trazado 190843" d="M201.434,23.2V35.355h-6.079V14.079h-6.079v7.6h-9.118v-7.6h-6.079V35.355H168v-22.8A4.553,4.553,0,0,1,172.559,8h24.315a4.553,4.553,0,0,1,4.559,4.559Z" transform="translate(-134.9 -5.63)" fill="#9fc3ce"/>
          <rect id="Rectángulo_340862" data-name="Rectángulo 340862" width="13.073" height="13.073" transform="translate(20.544 16.809)" fill="#b3b3b3"/>
          <path id="Trazado_190844" data-name="Trazado 190844" d="M95.742,85.1H89.663V28.874a1.52,1.52,0,0,0-1.52-1.52H79.025V16.717a1.52,1.52,0,0,0-1.52-1.52H66.867V6.079A6.085,6.085,0,0,0,60.788,0H36.473a6.085,6.085,0,0,0-6.079,6.079V15.2H19.756a1.52,1.52,0,0,0-1.52,1.52V27.355H9.118a1.52,1.52,0,0,0-1.52,1.52V85.1H1.52A1.52,1.52,0,0,0,0,86.623v9.118a1.52,1.52,0,0,0,1.52,1.52H95.742a1.52,1.52,0,0,0,1.52-1.52V86.623a1.52,1.52,0,0,0-1.52-1.52M33.434,6.079a3.042,3.042,0,0,1,3.039-3.039H60.788a3.042,3.042,0,0,1,3.039,3.039V27.355H60.788V7.6a1.52,1.52,0,0,0-1.52-1.52H53.19A1.52,1.52,0,0,0,51.67,7.6v6.079H45.591V7.6a1.52,1.52,0,0,0-1.52-1.52H37.993a1.52,1.52,0,0,0-1.52,1.52V27.355H33.434ZM51.67,27.355H45.591V22.8H51.67Zm1.52-7.6H44.072a1.52,1.52,0,0,0-1.52,1.52v6.079H39.512V9.118h3.039V15.2a1.52,1.52,0,0,0,1.52,1.52H53.19a1.52,1.52,0,0,0,1.52-1.52V9.118h3.039V27.355H54.709V21.276a1.52,1.52,0,0,0-1.52-1.52m-31.914-1.52h9.118V28.874a1.52,1.52,0,0,0,1.52,1.52H65.347a1.52,1.52,0,0,0,1.52-1.52V18.237h9.118v9.118H72.946a1.52,1.52,0,1,0,0,3.039h3.039V65.347a1.52,1.52,0,1,0,3.039,0V30.394h7.6V85.1h-7.6v-7.6a1.52,1.52,0,0,0-3.039,0v7.6h-15.2v-15.2h3.039a1.52,1.52,0,0,0,1.52-1.52V62.308a1.52,1.52,0,0,0-1.52-1.52H33.434a1.52,1.52,0,0,0-1.52,1.52v6.079a1.52,1.52,0,0,0,1.52,1.52h3.039V85.1h-15.2V30.394h3.039a1.52,1.52,0,1,0,0-3.039H21.276ZM34.953,63.828H62.308v3.039H34.953ZM47.111,85.1h-7.6v-15.2h7.6Zm3.039-15.2h7.6V85.1h-7.6ZM10.638,30.394h7.6V85.1h-7.6ZM94.222,94.222H3.039V88.143H94.222Z" transform="translate(1.186 0.85)"/>
          <path id="Trazado_190845" data-name="Trazado 190845" d="M153.52,186.638H167.2a1.52,1.52,0,0,0,1.52-1.52v-7.6A1.52,1.52,0,0,0,167.2,176H153.52a1.52,1.52,0,0,0-1.52,1.52v7.6a1.52,1.52,0,0,0,1.52,1.52m1.52-7.6h10.638V183.6H155.039Z" transform="translate(-121.94 -141.716)"/>
          <path id="Trazado_190846" data-name="Trazado 190846" d="M153.52,258.638H167.2a1.52,1.52,0,0,0,1.52-1.52v-7.6A1.52,1.52,0,0,0,167.2,248H153.52a1.52,1.52,0,0,0-1.52,1.52v7.6a1.52,1.52,0,0,0,1.52,1.52m1.52-7.6h10.638V255.6H155.039Z" transform="translate(-121.94 -200.039)"/>
          <path id="Trazado_190847" data-name="Trazado 190847" d="M273.52,186.638H287.2a1.52,1.52,0,0,0,1.52-1.52v-7.6A1.52,1.52,0,0,0,287.2,176H273.52a1.52,1.52,0,0,0-1.52,1.52v7.6a1.52,1.52,0,0,0,1.52,1.52m1.52-7.6h10.638V183.6H275.039Z" transform="translate(-219.144 -141.716)"/>
          <path id="Trazado_190848" data-name="Trazado 190848" d="M273.52,258.638H287.2a1.52,1.52,0,0,0,1.52-1.52v-7.6A1.52,1.52,0,0,0,287.2,248H273.52a1.52,1.52,0,0,0-1.52,1.52v7.6a1.52,1.52,0,0,0,1.52,1.52m1.52-7.6h10.638V255.6H275.039Z" transform="translate(-219.144 -200.039)"/>
          <path id="Trazado_190849" data-name="Trazado 190849" d="M401.52,368a1.52,1.52,0,1,1-1.52,1.52,1.52,1.52,0,0,1,1.52-1.52" transform="translate(-322.829 -297.243)" fill="#252525"/>
        </g>
      </g>
    </g>
  </g>
</svg>
