<svg xmlns="http://www.w3.org/2000/svg" xmlns:xlink="http://www.w3.org/1999/xlink" width="100" height="100" viewBox="0 0 100 100">
  <defs>
    <clipPath id="clip-path">
      <rect id="Rectángulo_340877" data-name="Rectángulo 340877" width="99.924" height="96.575" fill="none"/>
    </clipPath>
  </defs>
  <g id="Grupo_971590" data-name="Grupo 971590" transform="translate(-320.166 -4113)">
    <rect id="Rectángulo_341184" data-name="Rectángulo 341184" width="99.924" height="100" transform="translate(320.242 4113)" fill="none"/>
    <g id="Grupo_971008" data-name="Grupo 971008" transform="translate(320.166 4115.072)">
      <g id="Grupo_971007" data-name="Grupo 971007" clip-path="url(#clip-path)">
        <path id="Trazado_190937" data-name="Trazado 190937" d="M32.9,295.428l19.957-5.38c3.745-1.01,7.4-1.458,10.653.653,3.628,2.353,9.374,6.858,15.671,9.825a4.968,4.968,0,0,1,1.779,6.638c-1.337,2.315-3.788,3.036-6.638,1.779l2.214.99a11.148,11.148,0,0,0,7.75.694l19.2-5.224c14.926-4.06,13.723,8.016,8.722,9.509L77.095,325.4a11.442,11.442,0,0,1-9.289-1.136L47.513,312.544l-9.349,2.5a3.385,3.385,0,0,1-4.138-2.389l-3.509-13.095A3.385,3.385,0,0,1,32.9,295.428Z" transform="translate(-24.276 -230.938)" fill="#f6dccd" fill-rule="evenodd"/>
        <path id="Trazado_190938" data-name="Trazado 190938" d="M211.189,349.77c-1.407,1.557-3.543,1.919-5.967.85-3.327-1.906-6.645-3.836-9.966-5.753a1.86,1.86,0,0,1,1.86-3.222Z" transform="translate(-155.175 -272.615)" fill="#f1cbbc" fill-rule="evenodd"/>
        <path id="Trazado_190939" data-name="Trazado 190939" d="M32.9,295.427l19.957-5.38c3.745-1.01,7.4-1.458,10.653.653,1.941,1.259,4.489,3.134,7.4,5.059L32.271,306.114l-1.755-6.55A3.385,3.385,0,0,1,32.9,295.427Z" transform="translate(-24.276 -230.937)" fill="#f1cbbc" fill-rule="evenodd"/>
        <path id="Trazado_190940" data-name="Trazado 190940" d="M18.366,290.537l7.214,27.88a2.54,2.54,0,0,1-1.817,3.085L18.4,322.891a2.539,2.539,0,0,1-3.085-1.817L8.1,293.194a2.539,2.539,0,0,1,1.817-3.085l5.367-1.389a2.539,2.539,0,0,1,3.085,1.817" transform="translate(-6.401 -230.488)" fill="#d1d1d6" fill-rule="evenodd"/>
        <path id="Trazado_190941" data-name="Trazado 190941" d="M52.049,309.1l1.277,4.935,1.263,4.879A2.539,2.539,0,0,1,52.78,322l1.917-.5a2.539,2.539,0,0,0,1.817-3.085l-1.267-4.9L52.7,303.69l-2.547-9.842-.856-3.31a2.542,2.542,0,0,0-2.545-1.9l1.483,5.73,2.544,9.831,1.267,4.9Z" transform="translate(-37.335 -230.489)" fill="#b1b1b5" fill-rule="evenodd"/>
        <path id="Trazado_190942" data-name="Trazado 190942" d="M271.816,62.188a10.679,10.679,0,0,0,1.3,3.128l-.9,2.033,2.4,2.4,2.032-.9a10.688,10.688,0,0,0,3.129,1.3l.8,2.074h3.388l.8-2.074a10.684,10.684,0,0,0,3.128-1.3l2.033.9,2.4-2.4-.9-2.032a10.682,10.682,0,0,0,1.3-3.129l2.074-.8V58l-2.074-.8a10.686,10.686,0,0,0-1.3-3.128l.9-2.033-2.4-2.4-2.032.9a10.682,10.682,0,0,0-3.129-1.3l-.8-2.074h-3.388l-.8,2.074a10.68,10.68,0,0,0-3.128,1.3l-2.032-.9-2.4,2.4.9,2.033a10.692,10.692,0,0,0-1.3,3.128l-2.074.8v3.388Z" transform="translate(-215.397 -37.673)" fill="#ffe177" fill-rule="evenodd"/>
        <path id="Trazado_190943" data-name="Trazado 190943" d="M307.126,69.411l.748.332,2.4-2.4-.9-2.032a10.683,10.683,0,0,0,1.3-3.129l2.074-.8V58l-2.074-.8a10.687,10.687,0,0,0-1.3-3.128l.9-2.033-2.4-2.4-.748.332,2.063,2.063-.9,2.033a10.68,10.68,0,0,1,1.3,3.128l2.074.8v3.388l-2.074.8a10.675,10.675,0,0,1-1.3,3.129l.9,2.032Zm-6.292,2.8h1.081l.8-2.074a10.682,10.682,0,0,0,3.128-1.3l-.613-.272a14.331,14.331,0,0,1-3.6,1.569Zm5.008-21.664a10.681,10.681,0,0,0-3.129-1.3l-.8-2.074h-1.081l.8,2.074a14.32,14.32,0,0,1,3.6,1.569Zm-11.242,0-2.032-.9-.332.332,1.9.842q.231-.142.468-.272m-2.365,18.863.332.332,2.032-.9q-.237-.13-.468-.272Z" transform="translate(-233.36 -37.672)" fill="#ffd064" fill-rule="evenodd"/>
        <path id="Trazado_190944" data-name="Trazado 190944" d="M302.668,85.223a5.907,5.907,0,1,1,5.028,6.671,5.907,5.907,0,0,1-5.028-6.671" transform="translate(-241.643 -63.992)" fill="#eceff1" fill-rule="evenodd"/>
        <path id="Trazado_190945" data-name="Trazado 190945" d="M302.545,85.889a5.908,5.908,0,0,1,5.909-5.909c.139,0,.277.005.414.015a5.908,5.908,0,0,0,0,11.788c-.137.009-.275.015-.414.015a5.908,5.908,0,0,1-5.909-5.909" transform="translate(-241.592 -63.867)" fill="#d1d1d6" fill-rule="evenodd"/>
        <rect id="Rectángulo_340876" data-name="Rectángulo 340876" width="8.276" height="16.553" rx="4.138" transform="translate(48.512 37.412)" fill="#fe646f"/>
        <path id="Trazado_190946" data-name="Trazado 190946" d="M267.8,185.7h1.626a1.212,1.212,0,0,1,1.209,1.209v14.136a1.212,1.212,0,0,1-1.209,1.209H267.8a1.212,1.212,0,0,0,1.209-1.209V186.907A1.212,1.212,0,0,0,267.8,185.7" transform="translate(-213.847 -148.286)" fill="#fd4755" fill-rule="evenodd"/>
        <path id="Trazado_190947" data-name="Trazado 190947" d="M318.939,195.7h-5.858a1.212,1.212,0,0,0-1.209,1.209v14.136a1.212,1.212,0,0,0,1.209,1.209h5.858a1.212,1.212,0,0,0,1.209-1.209V196.908A1.212,1.212,0,0,0,318.939,195.7Z" transform="translate(-249.04 -156.272)" fill="#6cf5c2" fill-rule="evenodd"/>
        <path id="Trazado_190948" data-name="Trazado 190948" d="M338.879,195.7h1.626a1.212,1.212,0,0,1,1.209,1.209v14.136a1.212,1.212,0,0,1-1.209,1.209h-1.626a1.212,1.212,0,0,0,1.209-1.209V196.908A1.212,1.212,0,0,0,338.879,195.7Z" transform="translate(-270.606 -156.272)" fill="#00e499" fill-rule="evenodd"/>
        <path id="Trazado_190949" data-name="Trazado 190949" d="M388.941,185.7h-5.858a1.212,1.212,0,0,0-1.209,1.209v14.136a1.212,1.212,0,0,0,1.209,1.209h5.858a1.212,1.212,0,0,0,1.209-1.209V186.907a1.212,1.212,0,0,0-1.209-1.209" transform="translate(-304.939 -148.286)" fill="#8ac9fe" fill-rule="evenodd"/>
        <path id="Trazado_190950" data-name="Trazado 190950" d="M408.881,185.7h1.626a1.212,1.212,0,0,1,1.209,1.209v14.136a1.212,1.212,0,0,1-1.209,1.209h-1.626a1.212,1.212,0,0,0,1.209-1.209V186.907a1.212,1.212,0,0,0-1.209-1.209" transform="translate(-326.505 -148.286)" fill="#60b7ff" fill-rule="evenodd"/>
        <path id="Trazado_190951" data-name="Trazado 190951" d="M83.6,39.024H78.542V52.355H83.6ZM85.206,35.8a1.613,1.613,0,0,1,1.612,1.612V53.967a1.612,1.612,0,0,1-1.612,1.612H76.929a1.613,1.613,0,0,1-1.611-1.612V37.413A1.614,1.614,0,0,1,76.929,35.8ZM69.492,41.039H64.44V54.37h5.052ZM71.1,57.594H62.828a1.612,1.612,0,0,1-1.612-1.612V39.427a1.613,1.613,0,0,1,1.612-1.612H71.1a1.613,1.613,0,0,1,1.612,1.612V55.982A1.612,1.612,0,0,1,71.1,57.594M50.119,52.355h5.053V39.024H50.119Zm-1.612,3.223A1.613,1.613,0,0,1,46.9,53.967V37.413A1.614,1.614,0,0,1,48.507,35.8h8.277A1.613,1.613,0,0,1,58.4,37.413V53.967a1.612,1.612,0,0,1-1.612,1.612ZM62.559,22.022a4.3,4.3,0,1,0,4.3-4.3,4.3,4.3,0,0,0-4.3,4.3m-3.223,0a7.521,7.521,0,1,1,7.521,7.521,7.529,7.529,0,0,1-7.521-7.521m-.607-7.295.833-.83,1.021.453a1.614,1.614,0,0,0,1.5-.1,9.049,9.049,0,0,1,2.655-1.1,1.615,1.615,0,0,0,1.132-.989l.4-1.041h1.175l.4,1.041a1.616,1.616,0,0,0,1.13.989,9.062,9.062,0,0,1,2.657,1.1,1.613,1.613,0,0,0,1.5.1l1.021-.453.83.83-.453,1.019a1.616,1.616,0,0,0,.1,1.5,9.059,9.059,0,0,1,1.1,2.655,1.611,1.611,0,0,0,.989,1.132l1.039.4v1.175l-1.041.4a1.608,1.608,0,0,0-.987,1.13,9.079,9.079,0,0,1-1.1,2.657,1.612,1.612,0,0,0-.1,1.5l.453,1.022-.83.83L73.133,29.7a1.614,1.614,0,0,0-1.5.1,9.071,9.071,0,0,1-2.657,1.1,1.614,1.614,0,0,0-1.13.989l-.4,1.042H66.27l-.4-1.042a1.61,1.61,0,0,0-1.132-.989,9.082,9.082,0,0,1-2.655-1.1,1.614,1.614,0,0,0-1.5-.1l-1.021.453-.833-.83.454-1.022a1.612,1.612,0,0,0-.1-1.5,9.076,9.076,0,0,1-1.1-2.657,1.613,1.613,0,0,0-.989-1.13l-1.041-.4V21.436l1.041-.4a1.614,1.614,0,0,0,.989-1.132,9.09,9.09,0,0,1,1.1-2.655,1.613,1.613,0,0,0,.1-1.5Zm-.665-3.893-2.4,2.4a1.612,1.612,0,0,0-.334,1.793l.574,1.292a12.19,12.19,0,0,0-.832,2l-1.316.508a1.613,1.613,0,0,0-1.033,1.5v3.387a1.613,1.613,0,0,0,1.033,1.505l1.316.506a12.2,12.2,0,0,0,.832,2l-.574,1.29a1.615,1.615,0,0,0,.334,1.8l2.4,2.4a1.609,1.609,0,0,0,1.793.333l1.292-.572a12.208,12.208,0,0,0,2,.83l.507,1.318a1.611,1.611,0,0,0,1.5,1.034h3.388a1.614,1.614,0,0,0,1.506-1.034l.505-1.316a12.253,12.253,0,0,0,2-.832l1.29.572a1.611,1.611,0,0,0,1.8-.333l2.4-2.4a1.611,1.611,0,0,0,.332-1.8l-.572-1.29a12.019,12.019,0,0,0,.83-2l1.317-.506a1.611,1.611,0,0,0,1.032-1.505V20.33a1.611,1.611,0,0,0-1.032-1.5l-1.315-.508a12.3,12.3,0,0,0-.832-2l.572-1.289a1.607,1.607,0,0,0-.332-1.793l-2.4-2.4a1.616,1.616,0,0,0-1.8-.335l-1.29.574a12.255,12.255,0,0,0-2-.832l-.505-1.315A1.614,1.614,0,0,0,68.55,7.893H65.162a1.611,1.611,0,0,0-1.5,1.034l-.507,1.315a12.277,12.277,0,0,0-2,.832L59.858,10.5A1.614,1.614,0,0,0,58.064,10.835ZM7.7,62.28a1.723,1.723,0,1,0,1.509,1.912A1.723,1.723,0,0,0,7.7,62.28M39.272,73.648a1.612,1.612,0,1,1,1.611-2.792c1.114.645,7.811,4.642,10.384,5.9a3.089,3.089,0,0,0,4.018-1.334A3.335,3.335,0,0,0,54.108,71a89.179,89.179,0,0,1-12.568-7.7c-1.215-.848-2.265-1.58-3.185-2.176-2.845-1.845-6.177-1.308-9.358-.449L14.778,64.5l4.285,16.555,3.753-1.007a1.61,1.61,0,0,1,1.223.161L44.331,91.928a9.861,9.861,0,0,0,8.022.987L87.469,82.431c1.559-.463,2.621-2.78,2.109-4.587-.749-2.629-4.47-3.31-9.948-1.821l-19.2,5.224a12.709,12.709,0,0,1-8.83-.778c-.542-.242-1.066-.487-1.578-.733ZM17.614,88.334a.932.932,0,0,1-.659,1.12l-5.367,1.39a.927.927,0,0,1-1.12-.661L3.254,62.3a.931.931,0,0,1,.658-1.12l5.368-1.39a.924.924,0,0,1,1.122.66ZM92.679,76.959c-.493-1.7-2.93-7.029-13.893-4.047l-19.2,5.224a9.5,9.5,0,0,1-2.609.346,6.939,6.939,0,0,0,1.1-1.448,6.6,6.6,0,0,0-2.3-8.8,1.569,1.569,0,0,0-.192-.107,86.229,86.229,0,0,1-12.2-7.482c-1.187-.828-2.309-1.61-3.276-2.237-3.912-2.538-8.236-1.857-11.948-.856l-14.19,3.824-.447-1.733a4.15,4.15,0,0,0-5.052-2.973l-5.364,1.39A4.147,4.147,0,0,0,.133,63.112L7.345,90.991A4.16,4.16,0,0,0,11.356,94.1a4.177,4.177,0,0,0,1.039-.133l5.367-1.39a4.147,4.147,0,0,0,2.972-5.049l-.867-3.348,3.137-.84L42.718,94.718A13.11,13.11,0,0,0,53.275,96L88.392,85.521C91.636,84.552,93.675,80.472,92.679,76.959Zm-49.9-30.768a1.613,1.613,0,0,1-2.222.516l-.378-.238A29.9,29.9,0,0,0,66.857,62.917a1.612,1.612,0,0,1,0,3.223A33.132,33.132,0,0,1,37.469,48.25l-.068.387a1.612,1.612,0,0,1-1.586,1.338,1.594,1.594,0,0,1-.276-.024,1.613,1.613,0,0,1-1.314-1.864L35.242,42.2a1.611,1.611,0,0,1,2.442-1.092l4.582,2.859A1.614,1.614,0,0,1,42.781,46.191ZM66.857,3.223a1.612,1.612,0,1,1,0-3.223A33.179,33.179,0,0,1,96.244,17.894l.066-.391a1.612,1.612,0,1,1,3.177.55l-1.015,5.883a1.612,1.612,0,0,1-1.584,1.338,1.581,1.581,0,0,1-.853-.246l-4.59-2.859a1.612,1.612,0,0,1,1.707-2.736l.379.238A29.948,29.948,0,0,0,66.857,3.223ZM35.4,34.681a1.613,1.613,0,0,0,1.612-1.612A29.94,29.94,0,0,1,53.46,6.393l-.238.379a1.612,1.612,0,1,0,2.736,1.707L58.817,3.9a1.611,1.611,0,0,0-1.092-2.442L51.841.437a1.611,1.611,0,1,0-.549,3.175l.391.068A33.177,33.177,0,0,0,33.789,33.069,1.611,1.611,0,0,0,35.4,34.681Zm64.524-1.612a33.053,33.053,0,0,1-17.89,29.39l.391.066a1.612,1.612,0,1,1-.55,3.177l-5.882-1.018A1.613,1.613,0,0,1,74.9,62.243l2.861-4.583a1.612,1.612,0,0,1,2.736,1.706l-.233.373A30.011,30.011,0,0,0,96.709,33.069a1.607,1.607,0,1,1,3.215,0Z" transform="translate(0)" fill-rule="evenodd"/>
      </g>
    </g>
  </g>
</svg>
