<svg xmlns="http://www.w3.org/2000/svg" xmlns:xlink="http://www.w3.org/1999/xlink" width="100" height="100" viewBox="0 0 100 100">
  <defs>
    <clipPath id="clip-path">
      <rect id="Rect치ngulo_341043" data-name="Rect치ngulo 341043" width="98.942" height="99.779" fill="none"/>
    </clipPath>
  </defs>
  <g id="Grupo_971587" data-name="Grupo 971587" transform="translate(-320.242 -3329)">
    <g id="Grupo_971312" data-name="Grupo 971312" transform="translate(100.242 159)">
      <rect id="Rect치ngulo_340865" data-name="Rect치ngulo 340865" width="100" height="100" transform="translate(220 3170)" fill="none"/>
      <g id="Grupo_971311" data-name="Grupo 971311" transform="translate(220 3170.221)">
        <g id="Grupo_971310" data-name="Grupo 971310" clip-path="url(#clip-path)">
          <path id="Trazado_191128" data-name="Trazado 191128" d="M89.931,47.468a42.486,42.486,0,1,1-.162-3.7Q89.929,45.6,89.931,47.468Z" transform="translate(-4.016 -4.018)" fill="#72c2e9"/>
          <path id="Trazado_191129" data-name="Trazado 191129" d="M320.061,73.8H299.392a7.59,7.59,0,0,1-7.59-7.59V49.994a7.59,7.59,0,0,1,7.59-7.59h2.282a42.44,42.44,0,0,1,18.387,31.4" transform="translate(-234.308 -34.049)" fill="#13bf6d"/>
          <path id="Trazado_191130" data-name="Trazado 191130" d="M48.4,71.135v10.77a5.757,5.757,0,0,1-5.757,5.757H22.564a5.757,5.757,0,0,0-5.757,5.757v0a5.757,5.757,0,0,0,5.757,5.757h7.515a5.757,5.757,0,0,1,5.757,5.757v11.522a5.764,5.764,0,0,1-5.761,5.765H27.73a5.766,5.766,0,0,1-5.765-5.765A5.763,5.763,0,0,0,16.2,110.7H8.322a42.477,42.477,0,0,1,10.12-47.445H40.517A7.879,7.879,0,0,1,48.4,71.135Z" transform="translate(-4.021 -50.791)" fill="#13bf6d"/>
          <path id="Trazado_191131" data-name="Trazado 191131" d="M268.6,226.562c-.177.962-.39,1.907-.635,2.845a21.536,21.536,0,0,0-5.674-2.585V223.48a2.392,2.392,0,0,0-2.388-2.388h-7.286a2.391,2.391,0,0,0-2.388,2.388v3.342a21.593,21.593,0,0,0-8.945,5.17l-2.9-1.671a2.389,2.389,0,0,0-3.263.871l-3.641,6.309a2.389,2.389,0,0,0,.875,3.263l2.888,1.667a21.645,21.645,0,0,0,0,10.34l-2.888,1.667a2.39,2.39,0,0,0-.875,3.263l1.758,3.046q-1.478.23-2.983.347l-1.162-2.014a5.144,5.144,0,0,1,1.884-7.03l1.178-.682a24.154,24.154,0,0,1,0-7.535l-1.178-.682a5.151,5.151,0,0,1-1.884-7.03l3.641-6.309a5.138,5.138,0,0,1,7.03-1.88l1.182.682a24.63,24.63,0,0,1,6.522-3.771v-1.359a5.154,5.154,0,0,1,5.146-5.15H259.9a5.154,5.154,0,0,1,5.146,5.15v1.359A24.774,24.774,0,0,1,268.6,226.562Z" transform="translate(-183.397 -175.315)" fill="#4ba5c8"/>
          <path id="Trazado_191132" data-name="Trazado 191132" d="M292.279,268.943l-3.641,6.309a2.389,2.389,0,0,1-3.263.875l-2.9-1.675a21.643,21.643,0,0,1-8.945,5.174v3.338a2.392,2.392,0,0,1-2.388,2.388h-7.286a2.392,2.392,0,0,1-2.388-2.388v-3.338a21.644,21.644,0,0,1-8.945-5.174l-2.9,1.675a2.39,2.39,0,0,1-3.263-.875l-1.884-3.263-1.758-3.046a2.39,2.39,0,0,1,.875-3.263l2.889-1.667a21.643,21.643,0,0,1,0-10.34l-2.889-1.667a2.389,2.389,0,0,1-.875-3.263l3.641-6.309a2.389,2.389,0,0,1,3.263-.871l2.9,1.671a21.594,21.594,0,0,1,8.945-5.17v-3.342a2.391,2.391,0,0,1,2.388-2.388h7.286a2.391,2.391,0,0,1,2.388,2.388v3.342a21.537,21.537,0,0,1,5.674,2.585,21.841,21.841,0,0,1,3.271,2.585l2.9-1.671a2.388,2.388,0,0,1,3.263.871l3.641,6.309a2.389,2.389,0,0,1-.875,3.263l-2.889,1.667a21.642,21.642,0,0,1,0,10.34l2.889,1.667a2.39,2.39,0,0,1,.875,3.263" transform="translate(-194.644 -186.557)" fill="#fc5d3d"/>
          <path id="Trazado_191133" data-name="Trazado 191133" d="M313.355,324.3A13.846,13.846,0,1,1,327.2,310.452,13.861,13.861,0,0,1,313.355,324.3" transform="translate(-240.497 -238.165)" fill="#efefef"/>
          <path id="Trazado_191134" data-name="Trazado 191134" d="M313.355,324.3A13.846,13.846,0,1,1,327.2,310.452,13.861,13.861,0,0,1,313.355,324.3" transform="translate(-240.497 -238.165)" fill="#efefef"/>
          <path id="Trazado_191135" data-name="Trazado 191135" d="M351.763,327.313a12.912,12.912,0,0,1-1.216,5.489,5.132,5.132,0,0,1-9.283,0,12.981,12.981,0,0,1,4.641-16.337A12.968,12.968,0,0,1,351.763,327.313Z" transform="translate(-273.048 -254.11)" fill="#13bf6d"/>
          <path id="Trazado_191136" data-name="Trazado 191136" d="M83.349,344.3q-.605-.054-1.205-.125a.985.985,0,0,1,.234-1.957q.57.068,1.146.119a.985.985,0,1,1-.175,1.962Zm-5.188-.811a39.45,39.45,0,0,1-23.924-16.283.985.985,0,1,1,1.626-1.113,37.486,37.486,0,0,0,22.732,15.475.985.985,0,0,1-.434,1.922Z" transform="translate(-43.411 -261.502)" fill="#c5e5fe"/>
          <path id="Trazado_191137" data-name="Trazado 191137" d="M81.483,100.625a.985.985,0,0,1-.985-.985v-.923a.985.985,0,0,1,1.97,0v.923a.985.985,0,0,1-.985.985" transform="translate(-64.637 -78.476)" fill="#139c6e"/>
          <path id="Trazado_191138" data-name="Trazado 191138" d="M37.467,242.375a.985.985,0,0,1-.985-.985v-.922a.985.985,0,1,1,1.97,0v.922a.985.985,0,0,1-.985.985" transform="translate(-29.294 -192.296)" fill="#139c6e"/>
          <path id="Trazado_191139" data-name="Trazado 191139" d="M123.453,292.156a.985.985,0,0,1-.985-.985v-.922a.985.985,0,0,1,1.97,0v.922a.985.985,0,0,1-.985.985" transform="translate(-98.338 -232.27)" fill="#139c6e"/>
          <path id="Trazado_191140" data-name="Trazado 191140" d="M336.035,112.778a.985.985,0,0,1-.985-.985v-.922a.985.985,0,1,1,1.97,0v.922a.985.985,0,0,1-.985.985" transform="translate(-269.034 -88.235)" fill="#139c6e"/>
          <path id="Trazado_191141" data-name="Trazado 191141" d="M387.625,169.056a.985.985,0,0,1-.985-.985v-.922a.985.985,0,1,1,1.97,0v.922a.985.985,0,0,1-.985.985" transform="translate(-310.459 -133.424)" fill="#139c6e"/>
          <path id="Trazado_191142" data-name="Trazado 191142" d="M287.787,118.244a.985.985,0,1,1-.985.985.985.985,0,0,1,.985-.985" transform="translate(-230.293 -94.946)"/>
          <path id="Trazado_191143" data-name="Trazado 191143" d="M109.448,117.956l2.721-2.721,2.721,2.721a.985.985,0,1,0,1.393-1.393l-.654-.654,2.392-2.392,3.75,3.75a.985.985,0,0,0,1.393-1.393l-4.446-4.446a.984.984,0,0,0-1.393,0l-3.089,3.089-1.371-1.371a.984.984,0,0,0-1.393,0l-3.418,3.418a.985.985,0,0,0,1.393,1.393Z" transform="translate(-86.533 -89.241)"/>
          <path id="Trazado_191144" data-name="Trazado 191144" d="M158.3,7.925h0a.984.984,0,1,0,1.21.686A.983.983,0,0,0,158.3,7.925Z" transform="translate(-126.528 -6.336)"/>
          <path id="Trazado_191145" data-name="Trazado 191145" d="M309.341,291.6a14.847,14.847,0,0,0-14.831,14.831c0,.01,0,.02,0,.03a14.657,14.657,0,0,0,1.032,5.41.984.984,0,1,0,1.828-.725,12.822,12.822,0,0,1-.894-4.7s0-.008,0-.012a12.861,12.861,0,1,1,13.846,12.819v-2.567a6.031,6.031,0,0,0,4.548-3.43,13.965,13.965,0,0,0-4.992-17.578.985.985,0,0,0-1.083,0,13.965,13.965,0,0,0-4.992,17.578,6.032,6.032,0,0,0,4.549,3.43v2.569a12.741,12.741,0,0,1-6.545-2.4,1.006,1.006,0,0,0-1.375.217.986.986,0,0,0,.217,1.375,14.7,14.7,0,0,0,8.68,2.818h.009a14.83,14.83,0,1,0,0-29.661Zm-3.75,20.818A11.994,11.994,0,0,1,309.34,297.7a12,12,0,0,1,3.749,14.719,4.018,4.018,0,0,1-2.764,2.254v-3.048l1.841-1.12a.985.985,0,0,0-1.024-1.684l-.818.5V303.09a.985.985,0,1,0-1.97,0v2.665l-.852-.487a.985.985,0,1,0-.978,1.71l1.83,1.047v6.651A4.015,4.015,0,0,1,305.591,312.422Z" transform="translate(-236.482 -234.148)"/>
          <path id="Trazado_191146" data-name="Trazado 191146" d="M311.057,405.366a1.007,1.007,0,0,0-1.383-.173.989.989,0,0,0-.173,1.384l0,0a.99.99,0,0,0,1.379.169.98.98,0,0,0,.173-1.379Z" transform="translate(-248.353 -325.196)"/>
          <path id="Trazado_191147" data-name="Trazado 191147" d="M97.254,78.271l-2.26-1.306a22.619,22.619,0,0,0,0-9.358L97.254,66.3a3.377,3.377,0,0,0,1.235-4.608l-3.642-6.308a3.371,3.371,0,0,0-4.608-1.235l-2.266,1.308a22.711,22.711,0,0,0-2.286-1.792A43.488,43.488,0,0,0,35.695.689a.985.985,0,0,0,.351,1.939,41.565,41.565,0,0,1,27.971,4.81,8.586,8.586,0,0,0-7.507,8.506c0,2.667.006,2.375,0,4.4a.985.985,0,1,0,1.97,0v-4.4a6.612,6.612,0,0,1,6.6-6.6h1.938A41.511,41.511,0,0,1,84.664,38.768H65.085a6.612,6.612,0,0,1-6.6-6.6h0V28.223a.985.985,0,0,0-1.97,0v3.941a8.585,8.585,0,0,0,8.575,8.575H84.839c.058.9.091,1.8.091,2.711a41.821,41.821,0,0,1-1,9.115,22.544,22.544,0,0,0-4.052-1.788V48.166A3.377,3.377,0,0,0,76.5,44.793H69.218a3.377,3.377,0,0,0-3.373,3.374v2.611a22.708,22.708,0,0,0-8.1,4.682L55.48,54.151a3.372,3.372,0,0,0-4.608,1.235L47.23,61.693A3.371,3.371,0,0,0,48.465,66.3l2.261,1.306a22.626,22.626,0,0,0,0,9.358l-2.26,1.306a3.371,3.371,0,0,0-1.235,4.608l1.025,1.774a42.085,42.085,0,0,1-4.8.276A41.533,41.533,0,0,1,5.824,60.893h6.36a4.782,4.782,0,0,1,4.776,4.776,6.758,6.758,0,0,0,6.75,6.75h2.345a6.756,6.756,0,0,0,6.746-6.75V54.147A6.749,6.749,0,0,0,26.059,47.4H18.544a4.774,4.774,0,0,1,0-9.548H38.622a6.75,6.75,0,0,0,6.742-6.742V20.344A8.877,8.877,0,0,0,36.5,11.478H17.07A41.083,41.083,0,0,1,28.645,4.69a.986.986,0,0,0,.567-1.273,1,1,0,0,0-1.273-.567A43.458,43.458,0,0,0,43.45,86.9a43.929,43.929,0,0,0,5.869-.4l1.551,2.687a3.377,3.377,0,0,0,4.608,1.235l2.266-1.308a22.711,22.711,0,0,0,8.1,4.682v2.611a3.377,3.377,0,0,0,3.373,3.373H76.5a3.377,3.377,0,0,0,3.373-3.373V93.8a22.7,22.7,0,0,0,8.1-4.682l2.266,1.308a3.376,3.376,0,0,0,4.607-1.235l3.642-6.308A3.371,3.371,0,0,0,97.254,78.271ZM14.863,13.448H36.5a6.9,6.9,0,0,1,6.9,6.9v10.77a4.777,4.777,0,0,1-4.772,4.772H18.542a6.744,6.744,0,0,0,0,13.489h7.515a4.778,4.778,0,0,1,4.772,4.772V65.669a4.784,4.784,0,0,1-4.776,4.78H23.709a4.785,4.785,0,0,1-4.78-4.78,6.754,6.754,0,0,0-6.746-6.746H4.966a41.255,41.255,0,0,1-3-15.473A41.7,41.7,0,0,1,14.863,13.448ZM96.782,81.894,93.14,88.2a1.405,1.405,0,0,1-1.916.513l-2.9-1.672a.986.986,0,0,0-1.175.142,20.7,20.7,0,0,1-8.539,4.936.985.985,0,0,0-.711.946v3.339a1.4,1.4,0,0,1-1.4,1.4H69.217a1.4,1.4,0,0,1-1.4-1.4V93.067a.985.985,0,0,0-.711-.946,20.7,20.7,0,0,1-8.539-4.936.985.985,0,0,0-1.175-.142l-2.9,1.672a1.405,1.405,0,0,1-1.917-.513l-3.642-6.308a1.4,1.4,0,0,1,.513-1.916l2.89-1.668a.985.985,0,0,0,.464-1.088,20.67,20.67,0,0,1,0-9.869.985.985,0,0,0-.464-1.088L49.449,64.6a1.4,1.4,0,0,1-.513-1.916l3.642-6.308a1.4,1.4,0,0,1,1.916-.513l2.9,1.672a.984.984,0,0,0,1.175-.142A20.709,20.709,0,0,1,67.1,52.452a.985.985,0,0,0,.711-.946V48.168a1.4,1.4,0,0,1,1.4-1.4H76.5a1.4,1.4,0,0,1,1.4,1.4v3.338a.985.985,0,0,0,.711.946,20.714,20.714,0,0,1,8.539,4.936.984.984,0,0,0,1.175.142l2.9-1.672a1.4,1.4,0,0,1,1.916.513l3.642,6.308a1.4,1.4,0,0,1-.513,1.916l-2.89,1.668a.985.985,0,0,0-.464,1.088,20.67,20.67,0,0,1,0,9.869.985.985,0,0,0,.464,1.088l2.89,1.668A1.4,1.4,0,0,1,96.782,81.894Z" transform="translate(0 0)"/>
        </g>
      </g>
    </g>
  </g>
</svg>
