<svg xmlns="http://www.w3.org/2000/svg" xmlns:xlink="http://www.w3.org/1999/xlink" width="100" height="100" viewBox="0 0 100 100">
  <defs>
    <clipPath id="clip-path">
      <rect id="Rect치ngulo_340869" data-name="Rect치ngulo 340869" width="100" height="56.252" fill="none"/>
    </clipPath>
  </defs>
  <g id="Grupo_971589" data-name="Grupo 971589" transform="translate(-320.242 -3721)">
    <rect id="Rect치ngulo_341182" data-name="Rect치ngulo 341182" width="100" height="100" transform="translate(320.242 3721)" fill="none"/>
    <g id="Grupo_970990" data-name="Grupo 970990" transform="translate(320.242 3742.605)">
      <g id="Grupo_970989" data-name="Grupo 970989" clip-path="url(#clip-path)">
        <path id="Trazado_190894" data-name="Trazado 190894" d="M21.823,27.559,29.4,14.3A12.5,12.5,0,0,1,40.255,8H66.37a12.5,12.5,0,0,1,10.848,6.3l7.43,13a6.25,6.25,0,0,0,4.4,3.064l5.378.9a12.5,12.5,0,0,1,10.45,12.33v5.036a6.25,6.25,0,0,1-6.25,6.25H14.25A6.25,6.25,0,0,1,8,48.625V37.88a6.25,6.25,0,0,1,4.734-6.062l5.178-1.3a6.25,6.25,0,0,0,3.911-2.962" transform="translate(-6.437 -6.437)" fill="#ff938d"/>
        <path id="Trazado_190895" data-name="Trazado 190895" d="M103.313,148.186H29.683a17,17,0,0,1-17-17,6.2,6.2,0,0,1,.181-1.406l-.133.033A6.25,6.25,0,0,0,8,135.878v10.745a6.25,6.25,0,0,0,6.25,6.25H98.625a6.25,6.25,0,0,0,6.081-4.856,6.207,6.207,0,0,1-1.394.169" transform="translate(-6.437 -104.436)" fill="#f27875"/>
        <path id="Trazado_190896" data-name="Trazado 190896" d="M8,153.75v4.5h4.688L14.25,152h-6A6.492,6.492,0,0,0,8,153.75" transform="translate(-6.437 -122.313)" fill="#a7d0e1"/>
        <path id="Trazado_190897" data-name="Trazado 190897" d="M13.611,154.556A16.754,16.754,0,0,1,12.958,152H8.27c-.044.148-.084.3-.117.453-.023.109-.053.219-.07.33a6.255,6.255,0,0,0-.083.972v4.5h4.688Z" transform="translate(-6.437 -122.313)" fill="#80bbce"/>
        <path id="Trazado_190898" data-name="Trazado 190898" d="M266.523,32H256V47.625h23.438l-7.555-12.591A6.25,6.25,0,0,0,266.523,32" transform="translate(-206 -25.75)" fill="#a7d0e1"/>
        <path id="Trazado_190899" data-name="Trazado 190899" d="M318.132,52.5a1.562,1.562,0,0,1-1.342-.758l-.964-1.609a1.563,1.563,0,1,1,2.68-1.608l.964,1.608a1.562,1.562,0,0,1-1.338,2.367" transform="translate(-253.962 -38.434)" fill="#fff"/>
        <path id="Trazado_190900" data-name="Trazado 190900" d="M260.688,36.688V32H256V47.625h23.438l-2.812-4.687h-9.688a6.25,6.25,0,0,1-6.25-6.25" transform="translate(-206 -25.75)" fill="#80bbce"/>
        <path id="Trazado_190901" data-name="Trazado 190901" d="M104,47.625h23.438V32H116.914a6.25,6.25,0,0,0-5.359,3.034Z" transform="translate(-83.688 -25.75)" fill="#a7d0e1"/>
        <path id="Trazado_190902" data-name="Trazado 190902" d="M117.492,33.472,118.375,32h-1.461a6.25,6.25,0,0,0-5.359,3.034L104,47.625h23.438V42.938h-4.586a6.25,6.25,0,0,1-5.359-9.466" transform="translate(-83.688 -25.75)" fill="#80bbce"/>
        <path id="Trazado_190903" data-name="Trazado 190903" d="M456,152a6.242,6.242,0,0,0,6.234,6.25h3.078a12.188,12.188,0,0,0-2.437-6.25Z" transform="translate(-366.938 -122.313)" fill="#a7d0e1"/>
        <path id="Trazado_190904" data-name="Trazado 190904" d="M346.751,201.151a9.375,9.375,0,1,0-18.609,1.563H346.61a9.385,9.385,0,0,0,.141-1.562" transform="translate(-263.938 -154.276)" fill="#f27875"/>
        <path id="Trazado_190905" data-name="Trazado 190905" d="M353.375,184A9.375,9.375,0,1,1,344,193.375,9.375,9.375,0,0,1,353.375,184" transform="translate(-276.813 -148.063)" fill="#7a838b"/>
        <path id="Trazado_190906" data-name="Trazado 190906" d="M379.125,216A3.125,3.125,0,1,1,376,219.125,3.125,3.125,0,0,1,379.125,216" transform="translate(-302.563 -173.813)" fill="#a7d0e1"/>
        <path id="Trazado_190907" data-name="Trazado 190907" d="M81.375,184A9.375,9.375,0,1,1,72,193.375,9.375,9.375,0,0,1,81.375,184" transform="translate(-57.938 -148.063)" fill="#7a838b"/>
        <path id="Trazado_190908" data-name="Trazado 190908" d="M86.008,201.5a9.364,9.364,0,0,1-8.541-13.228,9.375,9.375,0,1,0,12.394,12.394,9.335,9.335,0,0,1-3.853.834" transform="translate(-57.883 -151.5)" fill="#5d6972"/>
        <path id="Trazado_190909" data-name="Trazado 190909" d="M356.938,201.5a9.364,9.364,0,0,1-8.542-13.228,9.375,9.375,0,1,0,12.394,12.394,9.334,9.334,0,0,1-3.852.834" transform="translate(-275.896 -151.5)" fill="#5d6972"/>
        <path id="Trazado_190910" data-name="Trazado 190910" d="M107.125,216A3.125,3.125,0,1,1,104,219.125,3.125,3.125,0,0,1,107.125,216" transform="translate(-83.688 -173.813)" fill="#a7d0e1"/>
        <path id="Trazado_190911" data-name="Trazado 190911" d="M88.25,23.281l-5.38-.9a4.671,4.671,0,0,1-3.3-2.3l-7.43-13A14.092,14.092,0,0,0,59.933,0H33.817A14.092,14.092,0,0,0,21.608,7.086L14.03,20.347a4.713,4.713,0,0,1-2.936,2.222L5.916,23.863a7.789,7.789,0,0,0-5.533,5.2c-.017.041-.019.089-.033.131A7.783,7.783,0,0,0,0,31.442V42.188A7.822,7.822,0,0,0,7.813,50H13.57A10.914,10.914,0,0,0,33.3,50H66.7A10.914,10.914,0,0,0,86.43,50h5.758A7.822,7.822,0,0,0,100,42.188V37.152a14.02,14.02,0,0,0-11.75-13.87m6.9,7.969a10.9,10.9,0,0,1,1.37,3.125h-1.2A4.7,4.7,0,0,1,92,33.013a4.779,4.779,0,0,1-1.109-1.763Zm-92.006,0h2.67L5.03,34.375h-1.9V31.442c0-.066.014-.128.016-.192m20.3,21.875a7.813,7.813,0,1,1,7.813-7.812,7.813,7.813,0,0,1-7.812,7.813m53.125,0a7.813,7.813,0,1,1,7.813-7.812,7.813,7.813,0,0,1-7.812,7.813m15.625-6.25H87.375a10.937,10.937,0,1,0-21.625,0H34.25a10.937,10.937,0,1,0-21.625,0H7.813a4.687,4.687,0,0,1-4.688-4.687V37.5H6.25a1.563,1.563,0,0,0,1.516-1.183l1.563-6.25a1.563,1.563,0,0,0-1.516-1.942h-3.3A4.66,4.66,0,0,1,6.675,26.9l5.18-1.3a7.853,7.853,0,0,0,4.888-3.7L24.32,8.636a10.963,10.963,0,0,1,9.5-5.511H59.933a10.963,10.963,0,0,1,9.5,5.511l7.428,13a7.781,7.781,0,0,0,5.5,3.833l5.38.9a10.96,10.96,0,0,1,4.387,1.759H89.063A1.563,1.563,0,0,0,87.5,29.688,7.8,7.8,0,0,0,95.3,37.5h1.578v4.688a4.687,4.687,0,0,1-4.687,4.688"/>
        <path id="Trazado_190912" data-name="Trazado 190912" d="M270.591,34.133a1.563,1.563,0,1,0-2.68,1.609l2.33,3.883H251.125v-12.5h8.961a4.711,4.711,0,0,1,4.02,2.277l.991,1.653a1.563,1.563,0,0,0,2.68-1.609l-.992-1.653a7.848,7.848,0,0,0-6.7-3.792H249.563A1.563,1.563,0,0,0,248,25.563V41.188a1.563,1.563,0,0,0,1.563,1.563H273a1.563,1.563,0,0,0,1.339-2.367Z" transform="translate(-199.563 -19.313)"/>
        <path id="Trazado_190913" data-name="Trazado 190913" d="M121,24H110.477a7.848,7.848,0,0,0-6.7,3.792L96.224,40.383a1.562,1.562,0,0,0,1.339,2.367H121a1.563,1.563,0,0,0,1.563-1.562V25.563A1.563,1.563,0,0,0,121,24m-1.562,15.625H100.322L106.457,29.4a4.711,4.711,0,0,1,4.02-2.277h8.961Z" transform="translate(-77.25 -19.313)"/>
        <path id="Trazado_190914" data-name="Trazado 190914" d="M252.688,128h-3.125a1.563,1.563,0,1,0,0,3.125h3.125a1.563,1.563,0,0,0,0-3.125" transform="translate(-199.563 -103)"/>
        <path id="Trazado_190915" data-name="Trazado 190915" d="M100.688,128H97.563a1.563,1.563,0,0,0,0,3.125h3.125a1.563,1.563,0,1,0,0-3.125" transform="translate(-77.25 -103)"/>
        <path id="Trazado_190916" data-name="Trazado 190916" d="M372.688,208a4.688,4.688,0,1,0,4.688,4.688A4.687,4.687,0,0,0,372.688,208m0,6.25a1.563,1.563,0,1,1,1.563-1.562,1.563,1.563,0,0,1-1.562,1.563" transform="translate(-296.125 -167.375)"/>
        <path id="Trazado_190917" data-name="Trazado 190917" d="M100.688,208a4.688,4.688,0,1,0,4.688,4.688A4.687,4.687,0,0,0,100.688,208m0,6.25a1.563,1.563,0,1,1,1.563-1.562,1.563,1.563,0,0,1-1.563,1.563" transform="translate(-77.25 -167.375)"/>
      </g>
    </g>
  </g>
</svg>
