<svg xmlns="http://www.w3.org/2000/svg" xmlns:xlink="http://www.w3.org/1999/xlink" width="40" height="40" viewBox="0 0 40 40">
  <defs>
    <clipPath id="clip-path">
      <rect id="Rectángulo_341260" data-name="Rectángulo 341260" width="31.873" height="40" fill="none"/>
    </clipPath>
  </defs>
  <g id="Grupo_971750" data-name="Grupo 971750" transform="translate(-316 -511)">
    <rect id="Rectángulo_341244" data-name="Rectángulo 341244" width="40" height="40" transform="translate(316 511)" fill="none"/>
    <g id="Grupo_971749" data-name="Grupo 971749" transform="translate(320.063 511)">
      <path id="Trazado_214595" data-name="Trazado 214595" d="M20.644,9.975,17.55,12.519,16,10.525l3.125-2.5Z" transform="translate(-14.75 -7.398)" fill="#dce4e5"/>
      <path id="Trazado_214596" data-name="Trazado 214596" d="M38.934,32.985l1.937,2.494-3.2,2.4-1.831-2.35Z" transform="translate(-33.04 -30.408)" fill="#bac5c6"/>
      <path id="Trazado_214597" data-name="Trazado 214597" d="M53,56.025l8.125,3.75H48l.881-.656,3.2-2.4Z" transform="translate(-44.25 -51.648)" fill="#666"/>
      <path id="Trazado_214598" data-name="Trazado 214598" d="M61.124,160.025l-5.625,2.5h-5l-2.5-2.5Z" transform="translate(-44.25 -147.524)" fill="#666"/>
      <rect id="Rectángulo_341254" data-name="Rectángulo 341254" width="13.124" height="4.375" transform="translate(3.75 8.127)" fill="gray"/>
      <rect id="Rectángulo_341255" data-name="Rectángulo 341255" width="5" height="3.75" transform="translate(6.25 15.001)" fill="#dce4e5"/>
      <rect id="Rectángulo_341256" data-name="Rectángulo 341256" width="5" height="1.875" transform="translate(6.25 15.001)" fill="#bac5c6"/>
      <rect id="Rectángulo_341257" data-name="Rectángulo 341257" width="5" height="2.5" transform="translate(3.75 21.876)" fill="#dce4e5"/>
      <rect id="Rectángulo_341258" data-name="Rectángulo 341258" width="5.625" height="2.5" transform="translate(8.75 21.876)" fill="#bac5c6"/>
      <g id="Grupo_971748" data-name="Grupo 971748">
        <g id="Grupo_971747" data-name="Grupo 971747" clip-path="url(#clip-path)">
          <path id="Trazado_214599" data-name="Trazado 214599" d="M297.562,216.025A1.562,1.562,0,1,1,296,217.587a1.562,1.562,0,0,1,1.562-1.562" transform="translate(-272.876 -199.149)" fill="#d6a87b"/>
          <path id="Trazado_214600" data-name="Trazado 214600" d="M228.5,114.649v3.631a3.661,3.661,0,0,0-1.875-.506,3.738,3.738,0,0,0-3.531,2.5H219.75v-4.581a5.54,5.54,0,0,0-.925-3.056L216,108.4v-4.375l9.818,5.893a5.457,5.457,0,0,1,1.962,2.012,5.52,5.52,0,0,1,.719,2.719m-3.125-.312a1.562,1.562,0,1,0-1.562,1.562,1.563,1.563,0,0,0,1.562-1.562" transform="translate(-199.126 -95.898)" fill="#f9ebd4"/>
          <path id="Trazado_214601" data-name="Trazado 214601" d="M57,317.025H50.124l-6.875-1.875H32v-3.125H53.468a3.627,3.627,0,0,0-.219,1.25,3.753,3.753,0,0,0,3.75,3.75" transform="translate(-29.5 -287.649)" fill="#b3b3b3"/>
          <path id="Trazado_214602" data-name="Trazado 214602" d="M250.624,369.545V373.8H240l1.875-1.875v-1.875h6.875a3.66,3.66,0,0,0,1.875-.506" transform="translate(-221.251 -340.676)" fill="#d8bd9c"/>
          <path id="Trazado_214603" data-name="Trazado 214603" d="M36.749,424.025l1.875,3.125H8l18.124-3.125Z" transform="translate(-7.375 -390.9)" fill="#666"/>
          <rect id="Rectángulo_341259" data-name="Rectángulo 341259" width="30.624" height="3.125" transform="translate(0.625 36.25)" fill="#4d4d4d"/>
          <path id="Trazado_214604" data-name="Trazado 214604" d="M272.031,192.3a5.527,5.527,0,0,0-.815-1.1,12.554,12.554,0,0,1-1.74,2.845,1.554,1.554,0,0,1-2.079,2.066,13.389,13.389,0,0,1-3.4,2.029v2.5h3.344a3.738,3.738,0,0,1,3.531-2.5,3.661,3.661,0,0,1,1.875.506v-3.631A5.52,5.52,0,0,0,272.031,192.3Z" transform="translate(-243.376 -176.264)" fill="#e5d1b5"/>
          <path id="Trazado_214605" data-name="Trazado 214605" d="M272.75,369.545a3.66,3.66,0,0,1-1.875.506H264v1.875h8.75Z" transform="translate(-243.376 -340.676)" fill="#c1a084"/>
          <path id="Trazado_214606" data-name="Trazado 214606" d="M281.875,313.275a3.627,3.627,0,0,1,.219-1.25h-1.947a5.53,5.53,0,0,0-.147,1.25,5.594,5.594,0,0,0,1.444,3.75h4.18A3.753,3.753,0,0,1,281.875,313.275Z" transform="translate(-258.126 -287.649)" fill="#999"/>
          <path id="Trazado_214607" data-name="Trazado 214607" d="M309.625,280.531a3.661,3.661,0,0,0-1.875-.506,3.738,3.738,0,0,0-3.531,2.5,3.627,3.627,0,0,0-.219,1.25,3.753,3.753,0,0,0,3.75,3.75,3.661,3.661,0,0,0,1.875-.506,3.743,3.743,0,0,0,0-6.487m-1.875,4.494a1.25,1.25,0,1,1,1.25-1.25,1.25,1.25,0,0,1-1.25,1.25" transform="translate(-280.251 -258.149)" fill="#b3b3b3"/>
          <path id="Trazado_214608" data-name="Trazado 214608" d="M337.25,312.025a1.25,1.25,0,1,1-1.25,1.25,1.25,1.25,0,0,1,1.25-1.25" transform="translate(-309.751 -287.649)" fill="#999"/>
          <path id="Trazado_214609" data-name="Trazado 214609" d="M304.625,456.025a.625.625,0,1,1-.625.625.625.625,0,0,1,.625-.625" transform="translate(-280.251 -420.4)"/>
          <path id="Trazado_214610" data-name="Trazado 214610" d="M30,32.952V29.2a4.348,4.348,0,0,0,0-7.153v-3.3a6.167,6.167,0,0,0-.8-3.026,6.092,6.092,0,0,0-2.185-2.241L17.2,7.591l-.06-.032L9.011,3.809a.624.624,0,0,0-.638.069L7.945,4.2,6.381,2.188l0-.008,0,0L4.869.242a.626.626,0,0,0-.42-.237.613.613,0,0,0-.463.132L.861,2.638a.626.626,0,0,0-.1.872l1.556,2,0,.008s0,0,0,.005L3.745,7.35l-.368.276a.621.621,0,0,0-.252.5V12.5a.622.622,0,0,0,.183.442L5.625,15.26v3.491a.625.625,0,0,0,.625.625h5a.625.625,0,0,0,.625-.625V15.408l4.772-2.121,2.531,3.8A4.9,4.9,0,0,1,20,19.795v3.956H15V21.876a.625.625,0,0,0-.625-.625H3.75a.625.625,0,0,0-.625.625v1.875H2.5a.625.625,0,0,0-.625.625V27.5a.625.625,0,0,0,.625.625H13.666L20,29.853v1.139l-1.552,1.552L.519,35.635A.625.625,0,0,0,0,36.25v3.125A.625.625,0,0,0,.625,40H31.248a.625.625,0,0,0,.625-.625V36.25a.622.622,0,0,0-.089-.322Zm-8.933-1.26a.622.622,0,0,0,.183-.442V30H27.5a4.368,4.368,0,0,0,1.25-.188V32.5H20.258Zm9.558-6.067a3.128,3.128,0,0,1-1.567,2.705,3.023,3.023,0,0,1-1.557.419,3.128,3.128,0,0,1-3.125-3.125,3.032,3.032,0,0,1,.184-1.045A3.112,3.112,0,0,1,27.5,22.5a3.023,3.023,0,0,1,1.557.419l.006,0a3.124,3.124,0,0,1,1.562,2.7M8.828,5.1l5.2,2.4H11.874a.625.625,0,1,0,0,1.25h4.375v3.125H8.75a.625.625,0,1,0,0,1.25h5.18l-2.813,1.25H6.508l-1.25-1.25H6.25a.625.625,0,1,0,0-1.25H4.375V8.752h5a.625.625,0,0,0,0-1.25H5.627L8.2,5.571s.009,0,.013-.006,0-.006.008-.009ZM4.27,1.511l.755.971L2.9,4.23l-.778-1Zm-.6,3.705L5.793,3.469,6.945,4.949,4.745,6.6Zm3.207,10.41h3.75v2.5H6.875Zm13.344.766-2.72-4.08V9.231l8.874,5.327a4.84,4.84,0,0,1,1.737,1.784,4.908,4.908,0,0,1,.638,2.411v2.688a4.331,4.331,0,0,0-5.188,2.312H21.249V19.795A6.145,6.145,0,0,0,20.219,16.393ZM4.375,22.5h9.375v1.25H4.375Zm9.375,4.375H3.125V25H23.178a4.242,4.242,0,0,0,1.266,3.75H20.708L13.914,26.9a.635.635,0,0,0-.164-.022M1.25,38.75V36.875H21.874a.625.625,0,0,0,0-1.25H7.929L18.8,33.751H29.019l1.125,1.875h-3.27a.625.625,0,0,0,0,1.25h3.75V38.75Z" transform="translate(0 0)"/>
          <path id="Trazado_214611" data-name="Trazado 214611" d="M329.875,304.025a.625.625,0,1,0,0,1.25.625.625,0,1,1-.625.625.625.625,0,0,0-1.25,0,1.875,1.875,0,1,0,1.875-1.875" transform="translate(-302.376 -280.274)"/>
          <path id="Trazado_214612" data-name="Trazado 214612" d="M290.187,212.4A2.187,2.187,0,1,0,288,210.212a2.19,2.19,0,0,0,2.187,2.187m0-3.125a.937.937,0,1,1-.937.937.939.939,0,0,1,.937-.937" transform="translate(-265.501 -191.774)"/>
        </g>
      </g>
    </g>
  </g>
</svg>
