<svg xmlns="http://www.w3.org/2000/svg" xmlns:xlink="http://www.w3.org/1999/xlink" width="403.5" height="241" viewBox="0 0 403.5 241">
  <defs>
    <clipPath id="clip-path">
      <rect id="Rectángulo_340821" data-name="Rectángulo 340821" width="98.382" height="99.316" fill="none"/>
    </clipPath>
  </defs>
  <g id="Grupo_971955" data-name="Grupo 971955" transform="translate(-4484.258 11056)">
    <rect id="Image_Place_Holder" data-name="Image Place Holder" width="403.5" height="241" transform="translate(4887.758 -10815) rotate(180)" fill="#afafaf"/>
    <g id="Grupo_971954" data-name="Grupo 971954" transform="translate(4742.758 -10985.657)">
      <rect id="Rectángulo_340822" data-name="Rectángulo 340822" width="100" height="100" transform="translate(0 0.314)" fill="none"/>
      <g id="Grupo_970915" data-name="Grupo 970915" transform="translate(0.618)">
        <g id="Grupo_970914" data-name="Grupo 970914" clip-path="url(#clip-path)">
          <path id="Trazado_190727" data-name="Trazado 190727" d="M65.324,9.006A33.482,33.482,0,0,0,57.154,8H48.7A32.756,32.756,0,0,0,15.947,40.756a9.142,9.142,0,0,0,.965,4.088,5.892,5.892,0,0,1-.367,5.9L8.591,62.678a3.446,3.446,0,0,0,1.325,4.994l4.444,2.222v6.348l3.174,1.587-1.755.878a2.568,2.568,0,0,0,0,4.593,3.174,3.174,0,0,1,1.755,2.839V89.51a5.773,5.773,0,0,0,6.908,5.664l6.37-1.27a10.241,10.241,0,0,1,2.028-.2,10.348,10.348,0,0,1,8.419,4.333l4.84,6.777H85.777L78.659,83.457a15.94,15.94,0,0,1,.865-12.166l2.106-4.214" transform="translate(-6.423 -6.413)" fill="#d08d78"/>
          <path id="Trazado_190728" data-name="Trazado 190728" d="M214.166,8a30.154,30.154,0,1,1-30.154,30.154A30.154,30.154,0,0,1,214.166,8" transform="translate(-147.508 -6.413)" fill="#0059be"/>
          <path id="Trazado_190729" data-name="Trazado 190729" d="M214.168,8a30.133,30.133,0,0,0-23.556,48.949A30.133,30.133,0,0,0,232.963,14.6a30,30,0,0,0-18.8-6.6" transform="translate(-147.51 -6.413)" fill="#006bdb"/>
          <path id="Trazado_190730" data-name="Trazado 190730" d="M73.077,71.481A33.307,33.307,0,0,1,58.351,8.29,33.7,33.7,0,0,0,53.977,8H48.7A32.756,32.756,0,0,0,15.944,40.756a9.142,9.142,0,0,0,.965,4.088,5.893,5.893,0,0,1-.367,5.9L8.588,62.678a3.446,3.446,0,0,0,1.325,4.994l4.444,2.222v6.348l3.174,1.587-1.755.878a2.568,2.568,0,0,0,0,4.593,3.174,3.174,0,0,1,1.755,2.839V89.51a5.773,5.773,0,0,0,6.908,5.664l6.37-1.27a10.34,10.34,0,0,1,10.447,4.126l4.84,6.778H60.092A16.221,16.221,0,0,0,75.486,83.457a15.932,15.932,0,0,1,.854-12.141C75.263,71.421,74.177,71.481,73.077,71.481Z" transform="translate(-6.42 -6.413)" fill="#f2b9a1"/>
          <rect id="Rectángulo_340818" data-name="Rectángulo 340818" width="3.174" height="28.979" transform="translate(65.071 17.905)" fill="#785349"/>
          <rect id="Rectángulo_340819" data-name="Rectángulo 340819" width="19.752" height="3.174" transform="translate(67.537 14.283)" fill="#785349"/>
          <rect id="Rectángulo_340820" data-name="Rectángulo 340820" width="18.527" height="3.174" transform="translate(46.025 14.283)" fill="#785349"/>
          <path id="Trazado_190731" data-name="Trazado 190731" d="M316.773,56a4.761,4.761,0,1,1-4.761,4.761A4.761,4.761,0,0,1,316.773,56" transform="translate(-250.115 -44.891)" fill="#f9cb5d"/>
          <path id="Trazado_190732" data-name="Trazado 190732" d="M312.012,60.761a4.706,4.706,0,0,0,.708,2.466,4.706,4.706,0,0,0,2.466.708,4.761,4.761,0,0,0,4.761-4.761,4.705,4.705,0,0,0-.708-2.466A4.705,4.705,0,0,0,316.773,56a4.761,4.761,0,0,0-4.761,4.761" transform="translate(-250.115 -44.891)" fill="#ffe1ae"/>
          <path id="Trazado_190733" data-name="Trazado 190733" d="M294.36,224h6.348a6.348,6.348,0,0,1,6.348,6.348H288.012A6.348,6.348,0,0,1,294.36,224" transform="translate(-230.876 -179.563)" fill="#f9cb5d"/>
          <path id="Trazado_190734" data-name="Trazado 190734" d="M295.947,224H294.36a6.348,6.348,0,0,0-6.348,6.348H302.3A6.348,6.348,0,0,0,295.947,224" transform="translate(-230.876 -179.563)" fill="#ffe1ae"/>
          <path id="Trazado_190735" data-name="Trazado 190735" d="M216.012,160a7.935,7.935,0,0,0,15.87,0Z" transform="translate(-173.16 -128.259)" fill="#a37765"/>
          <path id="Trazado_190736" data-name="Trazado 190736" d="M376.012,160a7.935,7.935,0,0,0,15.87,0Z" transform="translate(-301.419 -128.259)" fill="#a37765"/>
          <path id="Trazado_190737" data-name="Trazado 190737" d="M228.55,160H216.012a7.886,7.886,0,0,0,2.938,6.118,7.856,7.856,0,0,0,9.515-5.735q.047-.19.085-.383" transform="translate(-173.16 -128.259)" fill="#bf9377"/>
          <path id="Trazado_190738" data-name="Trazado 190738" d="M388.549,160H376.012a6.257,6.257,0,1,0,12.453.383q.047-.19.085-.383" transform="translate(-301.419 -128.259)" fill="#bf9377"/>
          <path id="Trazado_190739" data-name="Trazado 190739" d="M66.658,0a31.636,31.636,0,0,0-7.7.982A35.2,35.2,0,0,0,50.732,0H42.281A34.381,34.381,0,0,0,7.938,34.343a10.784,10.784,0,0,0,1.133,4.8,4.3,4.3,0,0,1-.268,4.31L.848,55.387a5.036,5.036,0,0,0,1.936,7.3L6.35,64.462v5.367a1.587,1.587,0,0,0,.878,1.428l.5.249a4.158,4.158,0,0,0,.92,6.808,1.578,1.578,0,0,1,.878,1.411V83.1a7.366,7.366,0,0,0,8.808,7.221l6.367-1.27a8.867,8.867,0,0,1,8.848,3.491l4.84,6.777,2.581-1.844L36.13,90.694a12.061,12.061,0,0,0-12.05-4.761L17.707,87.2A4.19,4.19,0,0,1,12.7,83.1V79.726a4.736,4.736,0,0,0-2.631-4.258.981.981,0,0,1,0-1.755l1.746-.876a1.587,1.587,0,0,0,0-2.841L9.525,68.849V63.481a1.587,1.587,0,0,0-.878-1.428L4.2,59.831a1.861,1.861,0,0,1-.714-2.7L11.443,45.2a7.48,7.48,0,0,0,.467-7.491,7.584,7.584,0,0,1-.8-3.368A31.206,31.206,0,0,1,42.281,3.174h8.451c.682,0,1.363.024,2.043.067a31.688,31.688,0,0,0,19.52,59.71l-.608,1.217a17.522,17.522,0,0,0-.952,13.377L77.853,98.9l3.015-1L73.742,76.541A14.293,14.293,0,0,1,73.006,72a14.44,14.44,0,0,1,1.514-6.416l1.819-3.626A31.741,31.741,0,0,0,66.658,0Zm0,60.307A28.567,28.567,0,1,1,95.224,31.741,28.567,28.567,0,0,1,66.658,60.307" transform="translate(0)"/>
          <path id="Trazado_190740" data-name="Trazado 190740" d="M254.036,52.761H239.527a6.318,6.318,0,0,0-12.246,0H212.773v3.174h2.419l-5.078,12.7H209.6a1.587,1.587,0,0,0-1.587,1.587,9.522,9.522,0,0,0,19.044,0,1.587,1.587,0,0,0-1.587-1.587h-.513l-5.078-12.7h7.4a6.348,6.348,0,0,0,4.536,4.536V81.327H230.23a7.945,7.945,0,0,0-7.935,7.935,1.587,1.587,0,0,0,1.587,1.587h19.044a1.587,1.587,0,0,0,1.587-1.587,7.945,7.945,0,0,0-7.935-7.935h-1.587V60.471a6.348,6.348,0,0,0,4.536-4.536h7.4l-5.078,12.7h-.513a1.587,1.587,0,0,0-1.587,1.587,9.522,9.522,0,0,0,19.044,0,1.587,1.587,0,0,0-1.587-1.587H256.7l-5.078-12.7h2.417Zm-36.5,23.805a6.358,6.358,0,0,1-6.147-4.761h12.293a6.358,6.358,0,0,1-6.147,4.761m-4-7.935,4-10.011,4,10.011Zm27.538,19.044H225.741a4.77,4.77,0,0,1,4.49-3.174h6.348A4.77,4.77,0,0,1,241.068,87.675ZM233.4,57.522a3.174,3.174,0,1,1,3.174-3.174,3.174,3.174,0,0,1-3.174,3.174m15.87,19.044a6.358,6.358,0,0,1-6.147-4.761h12.293A6.358,6.358,0,0,1,249.275,76.566Zm-4-7.935,4-10.011,4,10.011Z" transform="translate(-166.747 -38.477)"/>
        </g>
      </g>
    </g>
  </g>
</svg>
