<svg xmlns="http://www.w3.org/2000/svg" xmlns:xlink="http://www.w3.org/1999/xlink" width="137" height="136" viewBox="0 0 137 136">
  <defs>
    <clipPath id="clip-path">
      <rect id="Rectángulo_340776" data-name="Rectángulo 340776" width="70.529" height="75.615" fill="none"/>
    </clipPath>
  </defs>
  <g id="Grupo_970868" data-name="Grupo 970868" transform="translate(-382 -1131)">
    <ellipse id="Elipse_5243" data-name="Elipse 5243" cx="68.5" cy="68" rx="68.5" ry="68" transform="translate(382 1131)" fill="#f6f6f6"/>
    <g id="Grupo_970855" data-name="Grupo 970855" transform="translate(415.335 1160.843)">
      <g id="Grupo_970854" data-name="Grupo 970854" clip-path="url(#clip-path)">
        <path id="Trazado_190569" data-name="Trazado 190569" d="M61.868,50.349a3.291,3.291,0,0,1,3.284,3.284v60.429a3.29,3.29,0,0,1-3.284,3.284H11.292a3.29,3.29,0,0,1-3.284-3.284V53.633a3.29,3.29,0,0,1,3.284-3.284H61.868Z" transform="translate(-6.825 -42.913)" fill="#837683" fill-rule="evenodd"/>
        <path id="Trazado_190570" data-name="Trazado 190570" d="M344.007,117.347h4.238a3.291,3.291,0,0,0,3.284-3.284V53.634a3.29,3.29,0,0,0-3.284-3.284h-4.238Z" transform="translate(-293.202 -42.914)" fill="#685e68" fill-rule="evenodd"/>
        <rect id="Rectángulo_340774" data-name="Rectángulo 340774" width="48.007" height="57.86" rx="10" transform="translate(5.751 12.004)" fill="#eceff1"/>
        <path id="Trazado_190571" data-name="Trazado 190571" d="M344.007,139.145h1.477c.047,0,.092,0,.138-.006a1.48,1.48,0,0,0,1.339-1.47V82.762a1.48,1.48,0,0,0-1.339-1.47q-.068-.006-.138-.006h-1.477Z" transform="translate(-293.202 -69.28)" fill="#d1d1d6" fill-rule="evenodd"/>
        <path id="Trazado_190572" data-name="Trazado 190572" d="M117.337,12.268h4.681a1.45,1.45,0,0,0,1.356-.893,5.585,5.585,0,0,1,10.259,0,1.45,1.45,0,0,0,1.356.893h4.681a1.48,1.48,0,0,1,1.477,1.477V19.33a1.48,1.48,0,0,1-1.477,1.477H117.337a1.48,1.48,0,0,1-1.477-1.477V13.745a1.48,1.48,0,0,1,1.477-1.477" transform="translate(-98.749 -6.818)" fill="#e3a76f" fill-rule="evenodd"/>
        <path id="Trazado_190573" data-name="Trazado 190573" d="M138.194,43.969H115.86a1.48,1.48,0,0,0,1.477,1.477h22.335a1.48,1.48,0,0,0,1.477-1.477V38.384a1.48,1.48,0,0,0-1.477-1.477v5.585a1.479,1.479,0,0,1-1.477,1.477" transform="translate(-98.749 -31.456)" fill="#c48958" fill-rule="evenodd"/>
        <path id="Trazado_190574" data-name="Trazado 190574" d="M90.44,144.481h5.731a1.9,1.9,0,0,1,1.891,1.891V152.1a1.9,1.9,0,0,1-1.891,1.891H90.44a1.9,1.9,0,0,1-1.891-1.891v-5.731a1.9,1.9,0,0,1,1.891-1.891" transform="translate(-75.472 -123.143)" fill="#fe646f" fill-rule="evenodd"/>
        <path id="Trazado_190575" data-name="Trazado 190575" d="M97.905,145.607a1.9,1.9,0,0,1,1.118,1.725v5.731a1.9,1.9,0,0,1-1.891,1.891H91.4a1.9,1.9,0,0,1-1.725-1.118,1.874,1.874,0,0,0,.773.166H96.18a1.9,1.9,0,0,0,1.891-1.891V146.38A1.876,1.876,0,0,0,97.905,145.607Z" transform="translate(-76.432 -124.103)" fill="#fd4755" fill-rule="evenodd"/>
        <rect id="Rectángulo_340775" data-name="Rectángulo 340775" width="9.513" height="9.513" rx="4.757" transform="translate(13.077 37.412)" fill="#6cf5c2"/>
        <path id="Trazado_190576" data-name="Trazado 190576" d="M97.905,254.449a1.9,1.9,0,0,1,1.118,1.725V261.9a1.9,1.9,0,0,1-1.891,1.891H91.4a1.9,1.9,0,0,1-1.725-1.118,1.874,1.874,0,0,0,.773.166H96.18a1.9,1.9,0,0,0,1.891-1.891v-5.731A1.876,1.876,0,0,0,97.905,254.449Z" transform="translate(-76.432 -216.871)" fill="#00e499" fill-rule="evenodd"/>
        <path id="Trazado_190577" data-name="Trazado 190577" d="M90.44,362.164h5.731a1.9,1.9,0,0,1,1.891,1.891v5.731a1.9,1.9,0,0,1-1.891,1.891H90.44a1.9,1.9,0,0,1-1.891-1.891v-5.731a1.9,1.9,0,0,1,1.891-1.891" transform="translate(-75.472 -308.678)" fill="#8ac9fe" fill-rule="evenodd"/>
        <path id="Trazado_190578" data-name="Trazado 190578" d="M97.905,363.29a1.9,1.9,0,0,1,1.118,1.725v5.731a1.9,1.9,0,0,1-1.891,1.891H91.4a1.9,1.9,0,0,1-1.725-1.118,1.874,1.874,0,0,0,.773.166H96.18a1.9,1.9,0,0,0,1.891-1.891v-5.731a1.876,1.876,0,0,0-.166-.773" transform="translate(-76.432 -309.638)" fill="#60b7ff" fill-rule="evenodd"/>
        <path id="Trazado_190579" data-name="Trazado 190579" d="M312.268,125.625,328.451,97.6A3.192,3.192,0,0,1,332.8,96.43l1.1.637a3.192,3.192,0,0,1,1.166,4.352l-16.183,28.029-5.48,3.164a.761.761,0,0,1-1.142-.659Z" transform="translate(-266.151 -81.826)" fill="#e3a76f" fill-rule="evenodd"/>
        <path id="Trazado_190580" data-name="Trazado 190580" d="M349.155,106.618a3.194,3.194,0,0,1,.508,3.847l-16.183,28.03-4.093,2.363Z" transform="translate(-280.742 -90.872)" fill="#c48958" fill-rule="evenodd"/>
        <path id="Trazado_190581" data-name="Trazado 190581" d="M312.268,302.9v-6.327l6.621,3.823-5.48,3.164a.761.761,0,0,1-1.142-.659" transform="translate(-266.151 -252.774)" fill="#685e68" fill-rule="evenodd"/>
        <path id="Trazado_190582" data-name="Trazado 190582" d="M29.295,55.668a1.181,1.181,0,0,1,1.182-1.181H43.989a1.181,1.181,0,1,1,0,2.363H30.476a1.181,1.181,0,0,1-1.182-1.181m0,5.15a1.181,1.181,0,0,1,1.182-1.181h6.756a1.181,1.181,0,0,1,0,2.363H30.476A1.181,1.181,0,0,1,29.295,60.818Zm0-22.859a1.181,1.181,0,0,1,1.182-1.181H43.989a1.181,1.181,0,1,1,0,2.363H30.476a1.181,1.181,0,0,1-1.182-1.181m0,5.151a1.181,1.181,0,0,1,1.182-1.181h6.756a1.181,1.181,0,0,1,0,2.363H30.476A1.182,1.182,0,0,1,29.295,43.11Zm0-19.592a1.181,1.181,0,0,1,1.182-1.181H43.989a1.181,1.181,0,1,1,0,2.363H30.476a1.181,1.181,0,0,1-1.182-1.181m0,5.151a1.181,1.181,0,0,1,1.182-1.181h6.756a1.181,1.181,0,0,1,0,2.363H30.476A1.182,1.182,0,0,1,29.295,28.67Zm38.6-9.945L52.305,45.732,51.042,45,67.6,16.325a2,2,0,0,1,.3,2.4M57.145,71.148V42.074l-2.207,3.821V69.863a1.181,1.181,0,0,1-1.181,1.181H5.751a1.181,1.181,0,0,1-1.182-1.181V12a1.181,1.181,0,0,1,1.182-1.181H15.929V8.617H4.466a2.106,2.106,0,0,0-2.1,2.1V71.148a2.106,2.106,0,0,0,2.1,2.1H55.042A2.106,2.106,0,0,0,57.145,71.148ZM42.4,15.171H17.111a1.182,1.182,0,0,1-1.182-1.181v-.8h-9v55.5H52.576V48.8l-5.869,3.389a1.181,1.181,0,0,1-1.772-1.023V43.522a1.167,1.167,0,0,1,.159-.591l7.482-12.961V13.186h-9v.8A1.183,1.183,0,0,1,42.4,15.171ZM18.292,6.632h6.035a1.182,1.182,0,0,0,1.15-.9,4.4,4.4,0,0,1,8.557,0,1.181,1.181,0,0,0,1.149.9h6.036v6.176H18.292ZM55.042,8.617H43.58v2.206H53.757A1.181,1.181,0,0,1,54.938,12V25.877l2.207-3.819V10.72a2.106,2.106,0,0,0-2.1-2.1M47.3,45.568l3.078,1.777L47.3,49.121ZM63.325,16.082,47.73,43.09l1.265.73L65.548,15.143a2,2,0,0,0-2.223.939m5.024-2.143L67.241,13.3a4.371,4.371,0,0,0-5.965,1.6l-1.768,3.063V10.72a4.471,4.471,0,0,0-4.465-4.466H43.58v-.8A1.182,1.182,0,0,0,42.4,4.269H36.044a6.769,6.769,0,0,0-12.58,0H17.111a1.181,1.181,0,0,0-1.182,1.182v.8H4.466A4.472,4.472,0,0,0,0,10.72V71.149a4.471,4.471,0,0,0,4.466,4.466H55.042a4.47,4.47,0,0,0,4.465-4.466V37.981L69.944,19.906A4.374,4.374,0,0,0,68.349,13.939ZM31.231,5.758a1.477,1.477,0,1,0-1.477,1.477,1.479,1.479,0,0,0,1.477-1.477M21.408,61.109a.719.719,0,0,1-.709.709H14.967a.718.718,0,0,1-.709-.709V55.377a.719.719,0,0,1,.709-.709H20.7a.719.719,0,0,1,.709.709v1.071l-1.759,1.6-1.986-1.987a1.182,1.182,0,0,0-1.672,1.67l2.784,2.782a1.178,1.178,0,0,0,1.629.04l1-.911v1.47Zm4.166-8.442a1.182,1.182,0,1,1,1.588,1.75l-3.391,3.076v3.615A3.075,3.075,0,0,1,20.7,64.18H14.967A3.075,3.075,0,0,1,11.9,61.109V55.377A3.076,3.076,0,0,1,14.967,52.3H20.7a3.077,3.077,0,0,1,2.924,2.133Zm-4.166-7.632a.719.719,0,0,1-.709.709H14.967a.718.718,0,0,1-.709-.709V39.3a.719.719,0,0,1,.709-.71H20.7a.719.719,0,0,1,.709.71v1.071l-1.759,1.6-1.986-1.988a1.182,1.182,0,0,0-1.672,1.672l2.784,2.782a1.182,1.182,0,0,0,1.629.04l1-.913v1.471Zm4.166-8.442a1.182,1.182,0,1,1,1.588,1.75l-3.391,3.076v3.615A3.075,3.075,0,0,1,20.7,48.106H14.967A3.075,3.075,0,0,1,11.9,45.035V39.3a3.077,3.077,0,0,1,3.072-3.073H20.7a3.078,3.078,0,0,1,2.924,2.134ZM21.408,23.229V24.3l-1.759,1.6-1.986-1.986a1.182,1.182,0,0,0-1.672,1.672l2.784,2.782A1.181,1.181,0,0,0,20.4,28.4l1-.912v1.47a.719.719,0,0,1-.709.71H14.967a.719.719,0,0,1-.709-.71v-5.73a.719.719,0,0,1,.709-.71H20.7A.719.719,0,0,1,21.408,23.229Zm-9.513,0a3.076,3.076,0,0,1,3.072-3.073H20.7a3.079,3.079,0,0,1,2.924,2.132l1.951-1.769a1.181,1.181,0,1,1,1.588,1.748l-3.391,3.078v3.614A3.076,3.076,0,0,1,20.7,32.033H14.967A3.077,3.077,0,0,1,11.9,28.959Z" fill-rule="evenodd"/>
      </g>
    </g>
  </g>
</svg>
