<svg xmlns="http://www.w3.org/2000/svg" xmlns:xlink="http://www.w3.org/1999/xlink" width="150" height="150" viewBox="0 0 150 150">
  <defs>
    <clipPath id="clip-path">
      <rect id="Rectángulo_341251" data-name="Rectángulo 341251" width="119.525" height="150" fill="none"/>
    </clipPath>
  </defs>
  <g id="Grupo_971746" data-name="Grupo 971746" transform="translate(-294 -722)">
    <rect id="Rectángulo_341242" data-name="Rectángulo 341242" width="150" height="150" transform="translate(294 722)" fill="none"/>
    <g id="Grupo_971745" data-name="Grupo 971745" transform="translate(309.237 722)">
      <path id="Trazado_214577" data-name="Trazado 214577" d="M33.413,15.337l-11.6,9.539L16,17.4,27.718,8.025Z" transform="translate(-11.313 -5.674)" fill="#dce4e5"/>
      <path id="Trazado_214578" data-name="Trazado 214578" d="M47.441,32.985l7.265,9.351-12,9L35.84,42.524Z" transform="translate(-25.341 -23.322)" fill="#bac5c6"/>
      <path id="Trazado_214579" data-name="Trazado 214579" d="M66.749,56.025,97.216,70.087H48l3.3-2.461,12-9Z" transform="translate(-33.938 -39.612)" fill="#666"/>
      <path id="Trazado_214580" data-name="Trazado 214580" d="M97.216,160.025,76.124,169.4H57.375L48,160.025Z" transform="translate(-33.938 -113.145)" fill="#666"/>
      <rect id="Rectángulo_341245" data-name="Rectángulo 341245" width="49.216" height="16.405" transform="translate(14.062 30.475)" fill="gray"/>
      <rect id="Rectángulo_341246" data-name="Rectángulo 341246" width="18.749" height="14.062" transform="translate(23.436 56.255)" fill="#dce4e5"/>
      <rect id="Rectángulo_341247" data-name="Rectángulo 341247" width="18.749" height="7.031" transform="translate(23.436 56.255)" fill="#bac5c6"/>
      <rect id="Rectángulo_341248" data-name="Rectángulo 341248" width="18.749" height="9.375" transform="translate(14.062 82.035)" fill="#dce4e5"/>
      <rect id="Rectángulo_341249" data-name="Rectángulo 341249" width="21.093" height="9.375" transform="translate(32.811 82.035)" fill="#bac5c6"/>
      <g id="Grupo_971744" data-name="Grupo 971744">
        <g id="Grupo_971743" data-name="Grupo 971743" clip-path="url(#clip-path)">
          <path id="Trazado_214581" data-name="Trazado 214581" d="M301.859,216.025A5.859,5.859,0,1,1,296,221.884a5.859,5.859,0,0,1,5.859-5.859" transform="translate(-209.285 -152.74)" fill="#d6a87b"/>
          <path id="Trazado_214582" data-name="Trazado 214582" d="M262.873,143.867v13.617a13.727,13.727,0,0,0-7.031-1.9A14.017,14.017,0,0,0,242.6,164.96H230.062V147.781a20.774,20.774,0,0,0-3.469-11.46L216,120.43V104.025l36.819,22.1a20.463,20.463,0,0,1,7.359,7.547,20.7,20.7,0,0,1,2.7,10.195m-11.718-1.172a5.859,5.859,0,1,0-5.859,5.859,5.861,5.861,0,0,0,5.859-5.859" transform="translate(-152.722 -73.55)" fill="#f9ebd4"/>
          <path id="Trazado_214583" data-name="Trazado 214583" d="M125.745,330.774H99.965l-25.78-7.031H32V312.025h80.5a13.6,13.6,0,0,0-.82,4.687,14.073,14.073,0,0,0,14.062,14.062" transform="translate(-22.625 -220.616)" fill="#b3b3b3"/>
          <path id="Trazado_214584" data-name="Trazado 214584" d="M279.842,369.545v15.96H240l7.031-7.031v-7.031h25.78a13.727,13.727,0,0,0,7.031-1.9" transform="translate(-169.691 -261.285)" fill="#d8bd9c"/>
          <path id="Trazado_214585" data-name="Trazado 214585" d="M115.807,424.025l7.031,11.718H8l67.965-11.718Z" transform="translate(-5.656 -299.805)" fill="#666"/>
          <rect id="Rectángulo_341250" data-name="Rectángulo 341250" width="114.838" height="11.718" transform="translate(2.344 135.938)" fill="#4d4d4d"/>
          <path id="Trazado_214586" data-name="Trazado 214586" d="M294.116,195.309a20.724,20.724,0,0,0-3.056-4.108,47.08,47.08,0,0,1-6.525,10.668,5.828,5.828,0,0,1-7.795,7.746A50.211,50.211,0,0,1,264,217.222V226.6h12.538a14.017,14.017,0,0,1,13.242-9.375,13.727,13.727,0,0,1,7.031,1.9V205.5A20.7,20.7,0,0,0,294.116,195.309Z" transform="translate(-186.66 -135.188)" fill="#e5d1b5"/>
          <path id="Trazado_214587" data-name="Trazado 214587" d="M296.811,369.545a13.727,13.727,0,0,1-7.031,1.9H264v7.031h32.811Z" transform="translate(-186.66 -261.285)" fill="#c1a084"/>
          <path id="Trazado_214588" data-name="Trazado 214588" d="M287.031,316.712a13.6,13.6,0,0,1,.82-4.687h-7.3a20.742,20.742,0,0,0-.551,4.687,20.977,20.977,0,0,0,5.416,14.062h15.677A14.073,14.073,0,0,1,287.031,316.712Z" transform="translate(-197.973 -220.616)" fill="#999"/>
          <path id="Trazado_214589" data-name="Trazado 214589" d="M325.093,281.923a13.727,13.727,0,0,0-7.031-1.9A14.017,14.017,0,0,0,304.82,289.4a13.6,13.6,0,0,0-.82,4.687,14.073,14.073,0,0,0,14.062,14.062,13.727,13.727,0,0,0,7.031-1.9,14.037,14.037,0,0,0,0-24.327m-7.031,16.851a4.687,4.687,0,1,1,4.687-4.687,4.686,4.686,0,0,1-4.687,4.687" transform="translate(-214.942 -197.99)" fill="#b3b3b3"/>
          <path id="Trazado_214590" data-name="Trazado 214590" d="M340.687,312.025A4.687,4.687,0,1,1,336,316.712a4.687,4.687,0,0,1,4.687-4.687" transform="translate(-237.567 -220.616)" fill="#999"/>
          <path id="Trazado_214591" data-name="Trazado 214591" d="M306.344,456.025A2.344,2.344,0,1,1,304,458.369a2.344,2.344,0,0,1,2.344-2.344" transform="translate(-214.942 -322.43)"/>
          <path id="Trazado_214592" data-name="Trazado 214592" d="M112.494,123.571V109.509a16.307,16.307,0,0,0,0-26.823V70.317a23.126,23.126,0,0,0-3-11.348,22.845,22.845,0,0,0-8.193-8.4l-36.819-22.1c-.028-.016-.176-.1-.225-.12L33.793,14.283a2.34,2.34,0,0,0-2.393.258l-1.605,1.2L23.929,8.2c-.007-.009-.009-.021-.016-.03s-.014-.009-.019-.016L18.257.907A2.349,2.349,0,0,0,16.682.019a2.3,2.3,0,0,0-1.737.5L3.227,9.891A2.346,2.346,0,0,0,2.84,13.16l5.836,7.5c.007.009.009.021.016.03s.009.012.016.019l5.336,6.855L12.665,28.6a2.329,2.329,0,0,0-.947,1.877V46.88a2.333,2.333,0,0,0,.687,1.657l8.688,8.688V70.317a2.343,2.343,0,0,0,2.344,2.344H42.185a2.343,2.343,0,0,0,2.344-2.344V57.778l17.9-7.954,9.492,14.24A18.372,18.372,0,0,1,75,74.23V89.066H56.247V82.035A2.343,2.343,0,0,0,53.9,79.691H14.062a2.343,2.343,0,0,0-2.344,2.344v7.031H9.375a2.343,2.343,0,0,0-2.344,2.344v11.718a2.343,2.343,0,0,0,2.344,2.344H51.246L75,111.949v4.27l-5.819,5.819L1.945,133.63A2.346,2.346,0,0,0,0,135.938v11.718A2.343,2.343,0,0,0,2.344,150H117.182a2.343,2.343,0,0,0,2.344-2.344V135.938a2.331,2.331,0,0,0-.335-1.207ZM79,118.846a2.333,2.333,0,0,0,.687-1.657V112.5H103.12a16.38,16.38,0,0,0,4.687-.705v10.08H75.967ZM114.838,96.1a11.731,11.731,0,0,1-5.878,10.146,11.337,11.337,0,0,1-5.84,1.573A11.731,11.731,0,0,1,91.4,96.1a11.37,11.37,0,0,1,.689-3.919,11.67,11.67,0,0,1,11.029-7.8,11.337,11.337,0,0,1,5.84,1.573l.021.014A11.716,11.716,0,0,1,114.838,96.1M33.1,19.129l19.5,9H44.529a2.344,2.344,0,1,0,0,4.687H60.935V44.537H32.811a2.344,2.344,0,0,0,0,4.687H52.235L41.686,53.911H24.4l-4.687-4.687h3.719a2.344,2.344,0,0,0,0-4.687H16.405V32.818H35.155a2.344,2.344,0,1,0,0-4.687H21.1l9.656-7.239c.014-.012.033-.012.049-.023s.016-.023.03-.035ZM16.014,5.665,18.845,9.3,10.874,15.86,7.957,12.112Zm-2.259,13.9,7.971-6.553,4.319,5.552L17.8,24.747ZM25.78,58.6H39.842v9.375H25.78Zm50.041,2.873-10.2-15.3V34.614L98.9,54.588a18.151,18.151,0,0,1,6.515,6.689,18.4,18.4,0,0,1,2.393,9.039V80.4a16.243,16.243,0,0,0-19.455,8.669H79.684V74.23A23.043,23.043,0,0,0,75.821,61.472ZM16.405,84.378H51.56v4.687H16.405ZM51.56,100.784H11.718V93.753h75.2a15.908,15.908,0,0,0,4.746,14.062H77.654l-25.478-6.949a2.382,2.382,0,0,0-.616-.082M4.687,145.313v-7.031h77.34a2.344,2.344,0,1,0,0-4.687H29.734l40.775-7.031h38.314l4.219,7.031H100.776a2.344,2.344,0,1,0,0,4.687h14.062v7.031Z" transform="translate(0 0)"/>
          <path id="Trazado_214593" data-name="Trazado 214593" d="M335.031,304.025a2.344,2.344,0,0,0,0,4.687,2.344,2.344,0,1,1-2.344,2.344,2.344,2.344,0,1,0-4.687,0,7.031,7.031,0,1,0,7.031-7.031" transform="translate(-231.911 -214.96)"/>
          <path id="Trazado_214594" data-name="Trazado 214594" d="M296.2,224.43a8.2,8.2,0,1,0-8.2-8.2,8.212,8.212,0,0,0,8.2,8.2m0-11.718a3.515,3.515,0,1,1-3.515,3.515,3.52,3.52,0,0,1,3.515-3.515" transform="translate(-203.629 -147.083)"/>
        </g>
      </g>
    </g>
  </g>
</svg>
