<svg xmlns="http://www.w3.org/2000/svg" xmlns:xlink="http://www.w3.org/1999/xlink" width="488.329" height="453.153" viewBox="0 0 488.329 453.153">
  <defs>
    <clipPath id="clip-path">
      <rect id="Rectángulo_341177" data-name="Rectángulo 341177" width="174.461" height="186.196" fill="none"/>
    </clipPath>
    <clipPath id="clip-path-2">
      <rect id="Rectángulo_340925" data-name="Rectángulo 340925" width="105.229" height="105.229" fill="none"/>
    </clipPath>
  </defs>
  <g id="Grupo_971952" data-name="Grupo 971952" transform="translate(-7252.078 11303)">
    <path id="Trazado_214943" data-name="Trazado 214943" d="M152.5,0A152.5,152.5,0,1,1,0,152.5,152.5,152.5,0,0,1,152.5,0Z" transform="translate(7344 -11218.871)" fill="#fc4b52" opacity="0.81"/>
    <g id="Grupo_971603" data-name="Grupo 971603" transform="translate(6647.342 -12428.542)">
      <path id="Trazado_191007" data-name="Trazado 191007" d="M107.235,254.992a167.93,167.93,0,0,1,80.136-138.975l-4.124-7.115a176.155,176.155,0,0,0-84.234,146.09Z" transform="translate(574.645 1102.672)" fill="#fc4b52"/>
      <path id="Trazado_191008" data-name="Trazado 191008" d="M339.508,202.743a167.932,167.932,0,0,1-80.141,138.978l4.122,7.115A176.155,176.155,0,0,0,347.73,202.743Z" transform="translate(677.977 1163.142)" fill="#a7e446"/>
      <path id="Trazado_191009" data-name="Trazado 191009" d="M107.235,202.743H99.013a176.152,176.152,0,0,0,84.062,145.981l4.131-7.11a167.927,167.927,0,0,1-79.97-138.871" transform="translate(574.645 1163.142)" fill="#a7e446"/>
      <path id="Trazado_191010" data-name="Trazado 191010" d="M263.6,108.965l-4.131,7.11a167.932,167.932,0,0,1,79.975,138.876h8.222A176.157,176.157,0,0,0,263.6,108.965" transform="translate(678.042 1102.713)" fill="#fc4b52"/>
      <path id="Trazado_191011" data-name="Trazado 191011" d="M158.683,122.022a167.573,167.573,0,0,1,161.284.092l4.131-7.109a175.776,175.776,0,0,0-169.537-.1Z" transform="translate(610.44 1092.531)" fill="#a7e446"/>
      <path id="Trazado_191012" data-name="Trazado 191012" d="M319.867,289.813a167.573,167.573,0,0,1-161.284-.1l-4.131,7.109a175.773,175.773,0,0,0,169.536.1Z" transform="translate(610.37 1219.187)" fill="#fc4b52"/>
    </g>
    <path id="Trazado_214944" data-name="Trazado 214944" d="M24.775,15.758H18.307v4.078h7.641V23H14.193V5.938H25.971V9.113H18.307v3.6h6.469Zm9.3,3.68a.912.912,0,0,0-.527-.809,8.021,8.021,0,0,0-2-.633,9.138,9.138,0,0,1-2.437-.861,4.083,4.083,0,0,1-1.465-1.295,3.092,3.092,0,0,1-.5-1.746,3.5,3.5,0,0,1,1.441-2.877,5.938,5.938,0,0,1,3.773-1.131,6.579,6.579,0,0,1,4.031,1.137,3.555,3.555,0,0,1,1.523,2.988H33.951q0-1.523-1.605-1.523a1.591,1.591,0,0,0-1.043.346,1.07,1.07,0,0,0-.422.861.982.982,0,0,0,.516.855,4.872,4.872,0,0,0,1.646.539,14.228,14.228,0,0,1,1.986.5q2.859.984,2.859,3.527a3.321,3.321,0,0,1-1.541,2.824,6.758,6.758,0,0,1-3.99,1.09,6.9,6.9,0,0,1-2.906-.586,4.86,4.86,0,0,1-1.992-1.594,3.609,3.609,0,0,1-.715-2.121h3.691a1.526,1.526,0,0,0,.586,1.283,2.41,2.41,0,0,0,1.441.4,1.9,1.9,0,0,0,1.213-.328A1.05,1.05,0,0,0,34.08,19.438ZM44.334,7.168V10.32H46.42v2.742H44.334v5.8a1.481,1.481,0,0,0,.258,1,1.383,1.383,0,0,0,1.02.281,5.793,5.793,0,0,0,.984-.07v2.824a7.288,7.288,0,0,1-2.227.34,4.137,4.137,0,0,1-3.012-.961,3.939,3.939,0,0,1-.973-2.918V13.063H38.767V10.32h1.617V7.168Zm11.309,6.727-1.3-.094a2.336,2.336,0,0,0-2.391,1.172V23H48V10.32h3.7l.129,1.629a3.058,3.058,0,0,1,2.777-1.863,3.851,3.851,0,0,1,1.1.141Zm8.977,7.734a4.072,4.072,0,0,1-3.387,1.605,3.993,3.993,0,0,1-3.158-1.213A5.1,5.1,0,0,1,57,18.535V10.32h3.949v8.238a1.419,1.419,0,0,0,1.582,1.629,2.064,2.064,0,0,0,1.934-.973V10.32h3.973V23h-3.7Zm11.344-1.441a1.756,1.756,0,0,0,1.289-.451,1.654,1.654,0,0,0,.445-1.26h3.7A4.384,4.384,0,0,1,79.906,21.9a5.558,5.558,0,0,1-3.85,1.336A5.627,5.627,0,0,1,71.7,21.5,6.834,6.834,0,0,1,70.1,16.7v-.164a7.723,7.723,0,0,1,.709-3.393,5.162,5.162,0,0,1,2.045-2.262,6.1,6.1,0,0,1,3.164-.791,5.488,5.488,0,0,1,3.926,1.371A4.863,4.863,0,0,1,81.4,15.172H77.7a2.168,2.168,0,0,0-.48-1.512,1.658,1.658,0,0,0-1.289-.527q-1.535,0-1.793,1.957a13.809,13.809,0,0,0-.082,1.711,5.424,5.424,0,0,0,.457,2.648A1.582,1.582,0,0,0,75.963,20.188ZM87.67,7.168V10.32h2.086v2.742H87.67v5.8a1.481,1.481,0,0,0,.258,1,1.383,1.383,0,0,0,1.02.281,5.793,5.793,0,0,0,.984-.07v2.824a7.288,7.288,0,0,1-2.227.34,4.137,4.137,0,0,1-3.012-.961,3.939,3.939,0,0,1-.973-2.918V13.063H82.1V10.32h1.617V7.168ZM98.861,21.629a4.072,4.072,0,0,1-3.387,1.605,3.993,3.993,0,0,1-3.158-1.213,5.1,5.1,0,0,1-1.072-3.486V10.32h3.949v8.238a1.419,1.419,0,0,0,1.582,1.629,2.064,2.064,0,0,0,1.934-.973V10.32h3.973V23h-3.7Zm13.652-7.734-1.3-.094a2.336,2.336,0,0,0-2.391,1.172V23h-3.949V10.32h3.7l.129,1.629a3.058,3.058,0,0,1,2.777-1.863,3.851,3.851,0,0,1,1.1.141ZM120.728,23a4.459,4.459,0,0,1-.375-1.137,3.672,3.672,0,0,1-3.047,1.371,4.5,4.5,0,0,1-3.047-1.084,3.45,3.45,0,0,1-1.254-2.725,3.546,3.546,0,0,1,1.523-3.117,7.761,7.761,0,0,1,4.43-1.055h1.219v-.671q0-1.755-1.512-1.755a1.236,1.236,0,0,0-1.406,1.39H113.31a3.54,3.54,0,0,1,1.564-2.985,6.575,6.575,0,0,1,3.99-1.147A5.764,5.764,0,0,1,122.7,11.27a4.115,4.115,0,0,1,1.441,3.246v5.613a5.748,5.748,0,0,0,.539,2.672V23Zm-2.473-2.578a2.2,2.2,0,0,0,1.225-.316,1.983,1.983,0,0,0,.7-.715V17.363h-1.148q-2.062,0-2.062,1.852a1.131,1.131,0,0,0,.363.873A1.315,1.315,0,0,0,118.256,20.422Z" transform="translate(7428 -10965.9)" fill="#12263f"/>
    <g id="Grupo_971584" data-name="Grupo 971584" transform="translate(7394.102 -11155.848)">
      <g id="Grupo_971583" data-name="Grupo 971583" clip-path="url(#clip-path)">
        <path id="Trazado_214077" data-name="Trazado 214077" d="M230.665,69.159c0-.209.008-.429.022-.661a3.477,3.477,0,0,1,3.4-3.262l21.594-.45a3.465,3.465,0,0,1,3.526,3.059c0,.039.008.077.012.116a3.449,3.449,0,0,1-3.317,3.72l-21.607.943a3.467,3.467,0,0,1-3.63-3.464" transform="translate(-111.914 -31.433)" fill="#8bc24a"/>
        <path id="Trazado_214078" data-name="Trazado 214078" d="M236,70.306s-6,6.791-6.333,24.336,8.161,22.036,8.161,22.036h24.34V70.938Z" transform="translate(-111.425 -34.111)" fill="#feca2e"/>
        <path id="Trazado_214079" data-name="Trazado 214079" d="M273.169,121.021c-2.736.763-10.914,1.356-14.908,1.356-3.072,0-10.829.333-13.572-.8-.824-.337-1.193-.808-.857-1.457,0,0-1.38-1.863.848-2.484l2.987-12.578-2.8-12.944a35.464,35.464,0,0,0-4.436.8c-.2-.552-.726-2.013-1.295-3.824-.994-3.146-2.123-7.342-1.928-9.627.341-3.97,11.738-9.157,11.738-9.157l-.341,1.331s8.012,9.368,12.635,8.353-.824-6.17-.824-6.17l.244-2.1.243.11s6.019,2.8,7.184,4.473l.17.2,5.171,6.08,1.388,2.5A7.662,7.662,0,0,0,273.4,86.3q-.822.846-1.615,1.729a3.845,3.845,0,0,1,.767,2.187,16.078,16.078,0,0,1-.759,3.828c-.1.337-.2.662-.292.958-.288.926-.528,1.591-.528,1.591l2.463,20.31s1.794.617.471,1.745c0,0,2,1.611-.735,2.37" transform="translate(-115.08 -34.111)" fill="#a7e446"/>
        <path id="Trazado_214080" data-name="Trazado 214080" d="M318.186,66.656h4.875a2.8,2.8,0,0,0-2.436,2.241,5.188,5.188,0,0,0,0,3.036,2.8,2.8,0,0,0,2.436,2.241h-4.875c-1.473,0-2.667-1.68-2.667-3.758s1.193-3.759,2.667-3.759" transform="translate(-153.083 -32.34)" fill="#101019"/>
        <path id="Trazado_214081" data-name="Trazado 214081" d="M318.412,74h-5.264a3.732,3.732,0,0,0-.2-2.131l.025-.012V66.142c.82-.41.925-1.311-.025-1.575l.025-.085v-.86h9.664v1.721l-.008.02a1.937,1.937,0,0,0-.815-.179h-4.875c-1.473,0-2.667,1.68-2.667,3.759s1.193,3.758,2.667,3.758h4.875a2,2,0,0,0,.986-.264v.442c-.081.057-.162.118-.239.179a1.936,1.936,0,0,0-.714.95L321.814,74Z" transform="translate(-151.836 -30.868)" fill="#30303d"/>
        <path id="Trazado_214082" data-name="Trazado 214082" d="M330.264,71.214a3.674,3.674,0,0,1-1.619,2.7,2.007,2.007,0,0,1-.986.264,2.8,2.8,0,0,1-2.436-2.24,5.189,5.189,0,0,1,0-3.036,2.806,2.806,0,0,1,2.436-2.241,1.945,1.945,0,0,1,.815.179,2.385,2.385,0,0,1,.727.516,4.351,4.351,0,0,1,1.124,3.064,5.1,5.1,0,0,1-.061.8m-1.039-.8c0-1.482-.7-2.683-1.567-2.683s-1.562,1.2-1.562,2.683.7,2.687,1.563,2.687,1.567-1.205,1.567-2.687" transform="translate(-157.681 -32.34)" fill="#c5c5d6"/>
        <rect id="Rectángulo_341175" data-name="Rectángulo 341175" width="2.034" height="0.909" transform="translate(168.415 31.844)" fill="#e71e62"/>
        <rect id="Rectángulo_341176" data-name="Rectángulo 341176" width="2.792" height="1.275" transform="translate(161.564 31.479)" fill="#e71e62"/>
        <path id="Trazado_214083" data-name="Trazado 214083" d="M321.435,80.247a1.034,1.034,0,0,1,.426.763c.17,1.4-1.636,4.156-1.636,4.156-.621,10.074-6.206,20.566-9.2,20.932s-7.2-6.385-7.2-6.385c.093-.3.195-.621.292-.958,1.766-1.522,3.9-2.59,5.691-4.1l1.1,1.4,4.611-10.285a11.132,11.132,0,0,1-1.538-3.819h3.4l.032.008a1.936,1.936,0,0,1,.714-.95c.077-.061.159-.122.24-.179,1.14-.808,2.411-1.051,3.06-.584" transform="translate(-147.411 -38.82)" fill="#ffaec3"/>
        <path id="Trazado_214084" data-name="Trazado 214084" d="M335.217,76.683a2.8,2.8,0,0,1-.073,1.38c-.649-.467-1.92-.223-3.06.584V78.2A3.673,3.673,0,0,0,333.7,75.51a3.816,3.816,0,0,1,.686.053,1.392,1.392,0,0,1,.422.325,1.834,1.834,0,0,1,.406.8" transform="translate(-161.12 -36.636)" fill="#ffaec3"/>
        <path id="Trazado_214085" data-name="Trazado 214085" d="M334.771,68.432a1.032,1.032,0,0,1,.1.086,3.073,3.073,0,0,1,.637,1.164,3.166,3.166,0,0,1-.11,2.48l-.061.061a1.4,1.4,0,0,0-.422-.325,3.8,3.8,0,0,0-.686-.053,5.152,5.152,0,0,0,.061-.8,4.351,4.351,0,0,0-1.124-3.065l.024-.024a3.415,3.415,0,0,1,1.583.475" transform="translate(-161.644 -32.971)" fill="#ffaec3"/>
        <path id="Trazado_214086" data-name="Trazado 214086" d="M331.76,64.366c0-.012.028-.037.049-.037a2.434,2.434,0,0,1,1.371.366,1.946,1.946,0,0,1,.836,1.128,3.3,3.3,0,0,1,.069.848A3.4,3.4,0,0,0,332.5,66.2l-.025.024a2.366,2.366,0,0,0-.726-.515l.008-.021Z" transform="translate(-160.959 -31.211)" fill="#ffaec3"/>
        <path id="Trazado_214087" data-name="Trazado 214087" d="M328.7,68.745c.864,0,1.567,1.2,1.567,2.683s-.7,2.687-1.567,2.687-1.563-1.205-1.563-2.687.7-2.683,1.563-2.683" transform="translate(-158.718 -33.354)" fill="#00bcd2"/>
        <path id="Trazado_214088" data-name="Trazado 214088" d="M307.42,98.616a3.22,3.22,0,0,1,.816-.373.651.651,0,0,1,.446-.012c.28.126.3.511.256.812a8.946,8.946,0,0,1-.71,2.452,2.213,2.213,0,0,1,1.822-.021,1.151,1.151,0,0,1,.718.788c.073.483-.317.905-.69,1.218-1.786,1.51-3.925,2.577-5.69,4.1a16.05,16.05,0,0,0,.759-3.828,3.845,3.845,0,0,0-.767-2.187q.791-.883,1.615-1.729a7.645,7.645,0,0,1,1.425-1.218" transform="translate(-147.679 -47.642)" fill="#5aa537"/>
        <path id="Trazado_214089" data-name="Trazado 214089" d="M310.373,68.517v5.715l-.024.012a.014.014,0,0,0,0-.012.868.868,0,0,0-.678-.345v-.012a3.957,3.957,0,0,0,.223-2.127c-.223-1.084-2.3-1.636-2.3-1.636a6.511,6.511,0,0,1,2.443-1.465,1.6,1.6,0,0,0,.341-.13" transform="translate(-149.236 -33.243)" fill="#181723"/>
        <path id="Trazado_214090" data-name="Trazado 214090" d="M310.694,63.621v.86l-.024.085a2.359,2.359,0,0,0-.682-.073,7.455,7.455,0,0,0-1.737.228v-1.1Z" transform="translate(-149.557 -30.868)" fill="#181723"/>
        <path id="Trazado_214091" data-name="Trazado 214091" d="M273.109,101.588l-2.029,2.172-1.035-2.277-1.465-9.668Z" transform="translate(-130.309 -44.546)" fill="#181723"/>
        <path id="Trazado_214092" data-name="Trazado 214092" d="M242.757,112.46c3.093-.913,14.38-1.867,14.38-1.867l1.035,2.277-1,1.072s-5.191,1.445-9.437,2.3c-2.9.58-5.358.885-5.418.259a2.387,2.387,0,0,1,1.2-2.256s-1.558-.341-1.542-1.356c0-.138.288-.284.779-.426" transform="translate(-117.403 -53.657)" fill="#5aa537"/>
        <path id="Trazado_214093" data-name="Trazado 214093" d="M246.655,80.818a.617.617,0,0,0-.833.218l-1.328,2.721a.609.609,0,1,0,1.051.615l1.328-2.721a.622.622,0,0,0-.218-.833" transform="translate(-118.588 -39.174)" fill="#5aa537"/>
        <path id="Trazado_214094" data-name="Trazado 214094" d="M257.309,80.976l-2.48-1.246a.609.609,0,0,0-.615,1.052l2.48,1.245a.609.609,0,1,0,.615-1.051" transform="translate(-123.197 -38.648)" fill="#5aa537"/>
        <path id="Trazado_214095" data-name="Trazado 214095" d="M253.882,88.448a.622.622,0,0,0-.609.609q-.044,1.128-.089,2.257a.613.613,0,0,0,.609.609.621.621,0,0,0,.609-.609q.045-1.129.089-2.257a.614.614,0,0,0-.609-.609" transform="translate(-122.84 -42.913)" fill="#5aa537"/>
        <path id="Trazado_214096" data-name="Trazado 214096" d="M247.348,101.717l-.629-3.169a.613.613,0,0,0-.749-.425.624.624,0,0,0-.425.749l.629,3.169a.613.613,0,0,0,.749.425.625.625,0,0,0,.425-.749" transform="translate(-119.126 -47.596)" fill="#5aa537"/>
        <path id="Trazado_214097" data-name="Trazado 214097" d="M260.571,102.144a.62.62,0,0,0-.833-.218l-2.492,1.45a.609.609,0,1,0,.614,1.051l2.492-1.45a.616.616,0,0,0,.218-.833" transform="translate(-124.664 -49.413)" fill="#5aa537"/>
        <path id="Trazado_214098" data-name="Trazado 214098" d="M263.449,84.956a.618.618,0,0,0-.749.425l-.6,2.814a.609.609,0,1,0,1.174.324q.3-1.407.6-2.814a.621.621,0,0,0-.425-.749" transform="translate(-127.16 -41.211)" fill="#5aa537"/>
        <path id="Trazado_214099" data-name="Trazado 214099" d="M277.877,91.785l-3.273-.442a.676.676,0,0,0-.469.062.609.609,0,0,0,.146,1.113l3.273.442a.676.676,0,0,0,.469-.062.609.609,0,0,0-.146-1.113" transform="translate(-132.861 -44.311)" fill="#5aa537"/>
        <path id="Trazado_214100" data-name="Trazado 214100" d="M279.013,98.62a.609.609,0,0,0-1.113.146l-.82,2.132a.61.61,0,0,0,.425.749.626.626,0,0,0,.749-.425l.82-2.132a.611.611,0,0,0-.061-.469" transform="translate(-134.422 -47.704)" fill="#5aa537"/>
        <path id="Trazado_214101" data-name="Trazado 214101" d="M289.154,90.063a.616.616,0,0,0-.833-.218L286.4,91.2a.653.653,0,0,0-.28.363.623.623,0,0,0,.061.47.616.616,0,0,0,.833.218l1.918-1.354a.656.656,0,0,0,.28-.364.622.622,0,0,0-.061-.469" transform="translate(-138.811 -43.548)" fill="#5aa537"/>
        <path id="Trazado_214102" data-name="Trazado 214102" d="M291.416,78.546a.66.66,0,0,0-.178-.43.609.609,0,0,0-1.039.43l.225,2.37a.655.655,0,0,0,.178.43.609.609,0,0,0,1.039-.43l-.226-2.37" transform="translate(-140.797 -37.813)" fill="#5aa537"/>
        <path id="Trazado_214103" data-name="Trazado 214103" d="M300.628,108.432l-1.356-1.917a.654.654,0,0,0-.364-.28.609.609,0,0,0-.687.894l1.356,1.917a.654.654,0,0,0,.364.28.609.609,0,0,0,.687-.894" transform="translate(-144.648 -51.533)" fill="#5aa537"/>
        <path id="Trazado_214104" data-name="Trazado 214104" d="M296.1,114.12a.621.621,0,0,0-.749.425q-.338,1.185-.677,2.369a.609.609,0,1,0,1.174.324l.677-2.369a.616.616,0,0,0-.425-.749" transform="translate(-142.958 -55.36)" fill="#5aa537"/>
        <path id="Trazado_214105" data-name="Trazado 214105" d="M291.18,124.051l-.506-2.471a.613.613,0,0,0-.749-.425.624.624,0,0,0-.425.749q.253,1.236.505,2.471a.613.613,0,0,0,.749.425.624.624,0,0,0,.425-.749" transform="translate(-140.452 -58.77)" fill="#5aa537"/>
        <path id="Trazado_214106" data-name="Trazado 214106" d="M297.495,127.754a.62.62,0,0,0-.833-.218L294.068,129a.609.609,0,0,0,.615,1.051l2.594-1.469a.616.616,0,0,0,.218-.833" transform="translate(-142.529 -61.839)" fill="#5aa537"/>
        <path id="Trazado_214107" data-name="Trazado 214107" d="M289.032,132.937a.621.621,0,0,0-.609.609q-.019,1.129-.039,2.257a.609.609,0,1,0,1.218,0q.019-1.129.039-2.257a.615.615,0,0,0-.609-.609" transform="translate(-139.918 -64.498)" fill="#5aa537"/>
        <path id="Trazado_214108" data-name="Trazado 214108" d="M282.553,138.443q-.339-1.523-.678-3.046a.613.613,0,0,0-.749-.425.622.622,0,0,0-.425.749l.678,3.046a.614.614,0,0,0,.749.425.623.623,0,0,0,.425-.749" transform="translate(-136.182 -65.474)" fill="#5aa537"/>
        <path id="Trazado_214109" data-name="Trazado 214109" d="M297.96,137.371l-2.483.108a.609.609,0,1,0,0,1.218l2.483-.108a.609.609,0,0,0,0-1.218" transform="translate(-143.063 -66.65)" fill="#5aa537"/>
        <path id="Trazado_214110" data-name="Trazado 214110" d="M293.453,145.95l-.677-2.482a.609.609,0,1,0-1.174.324q.339,1.241.677,2.482a.609.609,0,1,0,1.174-.324" transform="translate(-141.469 -69.389)" fill="#5aa537"/>
        <path id="Trazado_214111" data-name="Trazado 214111" d="M300.988,148.079l-1.557-1.825a.609.609,0,0,0-1.039.43.681.681,0,0,0,.178.43l1.557,1.825a.609.609,0,0,0,1.039-.43.68.68,0,0,0-.178-.43" transform="translate(-144.773 -70.873)" fill="#5aa537"/>
        <path id="Trazado_214112" data-name="Trazado 214112" d="M290.825,152.66a.621.621,0,0,0-.749.425l-.559,2.033a.609.609,0,0,0,1.174.323l.559-2.032a.616.616,0,0,0-.425-.749" transform="translate(-140.458 -74.059)" fill="#5aa537"/>
        <path id="Trazado_214113" data-name="Trazado 214113" d="M281.435,148.157a.618.618,0,0,0-.833.218l-1.518,2.907a.609.609,0,1,0,1.051.615l1.518-2.907a.62.62,0,0,0-.218-.833" transform="translate(-135.369 -71.846)" fill="#5aa537"/>
        <path id="Trazado_214114" data-name="Trazado 214114" d="M275.923,144.287a.7.7,0,0,0-.43-.178l-2.365-.269a.608.608,0,0,0-.43.178.608.608,0,0,0,0,.861.7.7,0,0,0,.43.179l2.365.269a.606.606,0,0,0,.43-.179.609.609,0,0,0,0-.861" transform="translate(-132.22 -69.787)" fill="#5aa537"/>
        <path id="Trazado_214115" data-name="Trazado 214115" d="M265.293,142.864a.618.618,0,0,0-.833.218l-.9,1.692a.609.609,0,1,0,1.051.614l.9-1.692a.619.619,0,0,0-.218-.833" transform="translate(-127.835 -69.278)" fill="#5aa537"/>
        <path id="Trazado_214116" data-name="Trazado 214116" d="M259.155,151.653l-1.016-2.708a.622.622,0,0,0-.749-.425.616.616,0,0,0-.425.749l1.015,2.708a.623.623,0,0,0,.749.425.616.616,0,0,0,.425-.749" transform="translate(-124.66 -72.046)" fill="#5aa537"/>
        <path id="Trazado_214117" data-name="Trazado 214117" d="M269.347,151.46a.619.619,0,0,0-.833-.218l-2.253,1.36a.609.609,0,0,0,.614,1.052l2.253-1.36a.618.618,0,0,0,.218-.833" transform="translate(-129.037 -73.339)" fill="#5aa537"/>
        <path id="Trazado_214118" data-name="Trazado 214118" d="M272.3,159.854l-.79-1.918a.672.672,0,0,0-.28-.364.609.609,0,0,0-.833.219.588.588,0,0,0-.061.469l.79,1.918a.672.672,0,0,0,.28.364.609.609,0,0,0,.833-.219.588.588,0,0,0,.061-.469" transform="translate(-131.149 -76.41)" fill="#5aa537"/>
        <path id="Trazado_214119" data-name="Trazado 214119" d="M262.561,160.4a.619.619,0,0,0-.749.425l-.6,2.587a.609.609,0,1,0,1.174.324q.3-1.294.6-2.587a.619.619,0,0,0-.425-.749" transform="translate(-126.728 -77.813)" fill="#5aa537"/>
        <path id="Trazado_214120" data-name="Trazado 214120" d="M255.528,164.1l-1.253-2.532a.613.613,0,0,0-.833-.218.624.624,0,0,0-.218.833l1.253,2.532a.613.613,0,0,0,.833.218.624.624,0,0,0,.218-.833" transform="translate(-122.822 -78.241)" fill="#5aa537"/>
        <path id="Trazado_214121" data-name="Trazado 214121" d="M274.754,166.408l-3.165.271a.621.621,0,0,0-.609.609.615.615,0,0,0,.609.609l3.165-.271a.609.609,0,1,0,0-1.218" transform="translate(-131.474 -80.737)" fill="#5aa537"/>
        <path id="Trazado_214122" data-name="Trazado 214122" d="M285.123,162.935l-.9-2.369a.656.656,0,0,0-.28-.364.622.622,0,0,0-.469-.062.615.615,0,0,0-.425.749l.9,2.37a.663.663,0,0,0,.28.364.609.609,0,0,0,.894-.688" transform="translate(-137.313 -77.686)" fill="#5aa537"/>
        <path id="Trazado_214123" data-name="Trazado 214123" d="M294.785,162.662a.619.619,0,0,0-.833-.218L291.7,163.8a.609.609,0,1,0,.614,1.052l2.253-1.36a.618.618,0,0,0,.218-.833" transform="translate(-141.379 -78.774)" fill="#5aa537"/>
        <path id="Trazado_214124" data-name="Trazado 214124" d="M303.773,161.219l-1.9-2.27a.611.611,0,0,0-.861,0,.625.625,0,0,0,0,.861l1.9,2.27a.61.61,0,0,0,.861,0,.625.625,0,0,0,0-.861" transform="translate(-145.961 -77.032)" fill="#5aa537"/>
        <path id="Trazado_214125" data-name="Trazado 214125" d="M334.492,80.025a4.829,4.829,0,0,0-2.723.854c-.213.148-.011.5.2.35a4.452,4.452,0,0,1,2.518-.8.2.2,0,0,0,0-.406" transform="translate(-160.923 -38.826)" fill="#181723"/>
        <path id="Trazado_214126" data-name="Trazado 214126" d="M331.575,84.339l-1.089.9a2.771,2.771,0,0,1-1.02.692.531.531,0,0,1-.422-.073.464.464,0,0,1-.114-.462,3.942,3.942,0,0,1,.384-1.23c.116-.234-.234-.44-.351-.2a4.087,4.087,0,0,0-.449,1.53.782.782,0,0,0,.764.857,1.835,1.835,0,0,0,1.222-.6l1.361-1.124c.2-.166-.086-.452-.287-.287" transform="translate(-159.388 -40.686)" fill="#181723"/>
        <path id="Trazado_214127" data-name="Trazado 214127" d="M336.265,76.027a.229.229,0,0,0-.144-.059l-.592-.058a.2.2,0,0,0-.144.059.2.2,0,0,0,0,.287.23.23,0,0,0,.144.059l.592.058a.205.205,0,0,0,.144-.06.2.2,0,0,0,0-.287" transform="translate(-162.693 -36.83)" fill="#181723"/>
        <path id="Trazado_214128" data-name="Trazado 214128" d="M335.3,68.725a.848.848,0,0,0-.789.169.2.2,0,0,0-.059.144.208.208,0,0,0,.059.144.2.2,0,0,0,.144.059.231.231,0,0,0,.141-.057l-.024.018a.66.66,0,0,1,.119-.069A.672.672,0,0,1,335,69.1a.646.646,0,0,1,.126,0,.579.579,0,0,1,.066.014.2.2,0,0,0,.25-.142.207.207,0,0,0-.142-.25" transform="translate(-162.269 -33.328)" fill="#181723"/>
        <path id="Trazado_214129" data-name="Trazado 214129" d="M249.327,71.914a5.676,5.676,0,0,1,5.042-2.69,33.875,33.875,0,0,1,10.838,19.863l-2.861,3.061S257.978,78.7,249.327,71.914" transform="translate(-120.968 -33.586)" fill="#cfa421"/>
        <path id="Trazado_214130" data-name="Trazado 214130" d="M257.748,137s-3.3,5.128-6.072,5.875l-.389,2.055a15.749,15.749,0,0,0,9.288-6.146s-1.133-.022-2.828-1.783" transform="translate(-121.92 -66.471)" fill="#181723"/>
        <path id="Trazado_214131" data-name="Trazado 214131" d="M283.969,72.652a7.122,7.122,0,0,1,5.739-.89,44.846,44.846,0,0,1,5.58,23.474l-2.007.456s-2.357-14.529-9.313-23.041" transform="translate(-137.776 -34.706)" fill="#cfa421"/>
        <path id="Trazado_214132" data-name="Trazado 214132" d="M263.6,90.9l2.029-2.172,8.941-9.566s.617-2.565,1.409-5.276a39.629,39.629,0,0,1,1.725-4.989,5.644,5.644,0,0,1,3.819-3.357,7.48,7.48,0,0,1,1.738-.227,2.355,2.355,0,0,1,.682.073c.95.264.844,1.165.024,1.575a1.61,1.61,0,0,1-.341.13,6.515,6.515,0,0,0-2.443,1.465s2.078.552,2.3,1.636a3.955,3.955,0,0,1-.223,2.127v.012a.867.867,0,0,1,.677.345.015.015,0,0,1,0,.012,3.728,3.728,0,0,1,.2,2.131c-.1.646-.324,1.177-.657,1.213a1.3,1.3,0,0,1,.142.621c-.012,1.327-2,1.863-2,1.863a4.555,4.555,0,0,1-.466,1.632,8.269,8.269,0,0,1-3.625,3.32s-11.661,19.409-15.237,20.46c-2.76.816-6.705-5.39-8.357-8.259-.487-.844-.775-1.4-.775-1.4,4.245-.853,9.437-2.3,9.437-2.3Z" transform="translate(-122.831 -31.69)" fill="#ffaec3"/>
        <path id="Trazado_214133" data-name="Trazado 214133" d="M308.427,87.69a.2.2,0,0,0-.25-.142.208.208,0,0,0-.142.25,3.06,3.06,0,0,1-.133,1.476.2.2,0,1,0,.391.108,3.5,3.5,0,0,0,.133-1.692" transform="translate(-149.384 -42.473)" fill="#181723"/>
        <path id="Trazado_214134" data-name="Trazado 214134" d="M310.655,85.662l-1.044,0a.2.2,0,1,0,0,.406l1.044,0a.2.2,0,1,0,0-.406" transform="translate(-150.118 -41.561)" fill="#181723"/>
        <path id="Trazado_214135" data-name="Trazado 214135" d="M310.387,78.455a2.255,2.255,0,0,0-1.293.567.2.2,0,0,0,0,.287.208.208,0,0,0,.287,0l.058-.05.039-.032q.058-.044.119-.083a2.322,2.322,0,0,1,.268-.145l.014-.006.025-.01.072-.026c.048-.017.1-.032.146-.045s.1-.025.149-.034l.062-.01.054-.006a.207.207,0,0,0,.2-.2.2.2,0,0,0-.2-.2" transform="translate(-149.938 -38.065)" fill="#181723"/>
        <path id="Trazado_214136" data-name="Trazado 214136" d="M303.349,125.484s1.32-2.428.9-7.907l-1.057.24-.753.171Z" transform="translate(-146.738 -57.046)" fill="#181723"/>
        <path id="Trazado_214137" data-name="Trazado 214137" d="M245.076,123.665l-.514,13.707q-.073,1.938-.146,3.875c-.011.3.452.3.463,0l.514-13.706q.073-1.938.146-3.875c.011-.3-.452-.3-.463,0" transform="translate(-118.585 -59.892)" fill="#cfa421"/>
        <path id="Trazado_214138" data-name="Trazado 214138" d="M237.791,128.649a.223.223,0,0,0-.056-.138.2.2,0,0,0-.193-.114l-5.6.08a.224.224,0,0,0-.218.269l0,.008a19.5,19.5,0,0,0,.417,4.332,17.184,17.184,0,0,0,.584,2.132,4.752,4.752,0,0,0,.905,1.648,2.129,2.129,0,0,0,2.965.4,2.793,2.793,0,0,0,.741-1.448,16.748,16.748,0,0,0,.343-2.065,33.379,33.379,0,0,0,.115-5.1m-.48,4c-.044.662-.113,1.322-.218,1.976a7.075,7.075,0,0,1-.408,1.7,1.406,1.406,0,0,1-1.2.925,1.9,1.9,0,0,1-1.468-.646,4.248,4.248,0,0,1-.879-1.607,17.56,17.56,0,0,1-.5-1.821,18.9,18.9,0,0,1-.444-4.239l5.149-.073a36.827,36.827,0,0,1-.024,3.784" transform="translate(-112.425 -62.296)" fill="#cfa421"/>
        <path id="Trazado_214139" data-name="Trazado 214139" d="M296.551,326.655c9.449.028,8.122,6.66,8.122,6.66h-25.1V325.3h13.26Z" transform="translate(-135.641 -157.831)" fill="#181723"/>
        <path id="Trazado_214140" data-name="Trazado 214140" d="M263.571,168.816s-.016.5-.049,1.413l-6.835,1.522-10.1,29.171-15.176,43.831s2.2,2.821,0,3.048c0,0,.856,2.236-.755,2.118a2.9,2.9,0,0,1-.487-.089l-12.521-3.272s-1.019-2.029,1.128-1.806c0,0-1.749-2.427.788-2.594l15.525-72.786c2.743,1.133,10.5.8,13.572.8,3.994,0,12.172-.593,14.908-1.356" transform="translate(-105.482 -81.906)" fill="#feca2e"/>
        <path id="Trazado_214141" data-name="Trazado 214141" d="M284.188,173.082l6.835-1.522c-.3,8.036-1.814,48.6-3.336,74.523,2.2.142,1.157,2.4,1.157,2.4a1.619,1.619,0,0,1,1.327,2.228h-13.26c-1.522-1.128,0-2.707,0-2.707-1.295-.905,0-1.92,0-1.92l-2.821-43.831Z" transform="translate(-132.983 -83.237)" fill="#cfa421"/>
        <path id="Trazado_214142" data-name="Trazado 214142" d="M231.46,328.023c8.008-.15,7.306,6.433,7.306,6.433H227.32l-13.463-7.224,2.07-7.407,12.521,3.271a2.793,2.793,0,0,0,.487.089Z" transform="translate(-103.759 -155.172)" fill="#181723"/>
        <path id="Trazado_214143" data-name="Trazado 214143" d="M240.684,172.831l-7.138,28.957q-3.569,14.479-7.138,28.957l-4.031,16.35c-.187.761.986,1.085,1.174.324l7.138-28.957,7.138-28.957,4.031-16.35c.187-.761-.986-1.085-1.174-.324" transform="translate(-107.883 -83.643)" fill="#cfa421"/>
        <path id="Trazado_214144" data-name="Trazado 214144" d="M281.455,26.755a12.982,12.982,0,0,0-3.06.828,42.57,42.57,0,0,0-4.631,2.318,3.7,3.7,0,0,1-1.94.613,3.442,3.442,0,0,1-1.563-.63c-.048-.028-.1-.061-.15-.093a3.755,3.755,0,0,1-1.328-1.189l.264-.2a24.832,24.832,0,0,1,7-3.617,14.636,14.636,0,0,1,4.749-.507,16.025,16.025,0,0,1,3.1.459,2.463,2.463,0,0,1,1.644.958,1.734,1.734,0,0,1,.049,1.462,4.529,4.529,0,0,1-.816,1.258,9.4,9.4,0,0,1-2.374,2.143c-.024-.175-.053-.341-.081-.5a6.07,6.07,0,0,0,2.131-2.1,1,1,0,0,0,.134-.556c-.065-.475-.649-.666-1.128-.706a8.9,8.9,0,0,0-2,.061" transform="translate(-130.408 -11.767)" fill="#a7e446"/>
        <path id="Trazado_214145" data-name="Trazado 214145" d="M296.527,29.673a1,1,0,0,1-.134.556,6.07,6.07,0,0,1-2.131,2.1,17.187,17.187,0,0,0-.864-3.3,8.931,8.931,0,0,1,2-.061c.479.041,1.064.232,1.129.706" transform="translate(-142.351 -14.039)" fill="#181723"/>
        <path id="Trazado_214146" data-name="Trazado 214146" d="M276.857,38.241a36.049,36.049,0,0,1-.564,5.362c-.7,3.917-3.141,4.728-5.715,4.379a19.711,19.711,0,0,1-7.148-3.06,15.029,15.029,0,0,0,6.713,6.811l-.243,2.1s5.451,5.151.824,6.169-12.635-8.353-12.635-8.353l.341-1.331,1.778-6.916.613-2.378-.073-.02a8.911,8.911,0,0,1-2.874-1.579,3.416,3.416,0,0,1-1.133-2.7,2.248,2.248,0,0,1,.069-.365,2.522,2.522,0,0,1,1.9-1.863,2.813,2.813,0,0,1,1.275-.024,3.21,3.21,0,0,1,1.968,1.376l.049-.032a8.04,8.04,0,0,0,2.411-3.58,3.445,3.445,0,0,0,1.563.629,3.7,3.7,0,0,0,1.94-.613,42.515,42.515,0,0,1,4.631-2.318,13.017,13.017,0,0,1,3.061-.828,17.129,17.129,0,0,1,.864,3.3c.028.158.057.324.081.5a29.173,29.173,0,0,1,.3,5.329" transform="translate(-124.559 -14.125)" fill="#ffaec3"/>
        <path id="Trazado_214147" data-name="Trazado 214147" d="M289.423,43.052a.934.934,0,0,1-.548,1,2.048,2.048,0,0,1-2.285-.369,3.174,3.174,0,0,1-.929-2.216,4.352,4.352,0,0,1,.386-1.976,3.606,3.606,0,0,0,1.047,1.689,10.153,10.153,0,0,0,1.713,1.25,1.249,1.249,0,0,1,.617.625" transform="translate(-138.595 -19.159)" fill="#ef89a9"/>
        <path id="Trazado_214148" data-name="Trazado 214148" d="M268.115,22.915c-.126.085-.256.17-.381.256A5.794,5.794,0,0,1,266.865,20a8.48,8.48,0,0,1,.893-4.229,5.489,5.489,0,0,1,2.87-2.585c.166-.037.333-.065.5-.093a6.461,6.461,0,0,1,3.519.2A7.065,7.065,0,0,1,277,15.2c1.006,1.116,1.969,2.277,2.87,3.482l0,.11a14.635,14.635,0,0,0-4.749.507,24.831,24.831,0,0,0-7,3.617" transform="translate(-129.475 -6.283)" fill="#5aa537"/>
        <path id="Trazado_214149" data-name="Trazado 214149" d="M279.131,51.488l5.455.868s0,2.585-3.085,2.294a2.59,2.59,0,0,1-2.37-3.162" transform="translate(-135.41 -24.981)" fill="#fff"/>
        <path id="Trazado_214150" data-name="Trazado 214150" d="M276.893,62.881l-.435,3.75a15.029,15.029,0,0,1-6.713-6.811,19.711,19.711,0,0,0,7.148,3.06" transform="translate(-130.875 -29.024)" fill="#181723"/>
        <path id="Trazado_214151" data-name="Trazado 214151" d="M271.3,43.509a1.96,1.96,0,1,1-1.96,1.96,1.959,1.959,0,0,1,1.96-1.96" transform="translate(-130.68 -21.11)" fill="#ef89a9"/>
        <path id="Trazado_214152" data-name="Trazado 214152" d="M259.847,23.4a.137.137,0,0,0,.02.028c-1.347,1.055-2.95,2.391-4.131,3.438l0,.024a2.521,2.521,0,0,0-1.9,1.863l-.024,0c-.548.446-1.076.913-1.591,1.4-.085.077-.17.159-.256.239-.873-2.792-1.725-5.715-1.2-8.584a6.079,6.079,0,0,1,.673-1.944A7.4,7.4,0,0,1,253.106,18a20.743,20.743,0,0,1,9.635-4.582A5.493,5.493,0,0,0,259.871,16a8.478,8.478,0,0,0-.893,4.229,5.792,5.792,0,0,0,.868,3.166" transform="translate(-121.59 -6.509)" fill="#a7e446"/>
        <path id="Trazado_214153" data-name="Trazado 214153" d="M264.7,32.781c.032-.028.065-.053.1-.081a3.752,3.752,0,0,0,1.327,1.189c.049.032.1.065.15.094a8.041,8.041,0,0,1-2.411,3.58l-.049.032a3.21,3.21,0,0,0-1.968-1.376,2.813,2.813,0,0,0-1.275.024l0-.024c1.181-1.047,2.785-2.383,4.132-3.438" transform="translate(-126.423 -15.865)" fill="#181723"/>
        <path id="Trazado_214154" data-name="Trazado 214154" d="M256.854,49.043a9.957,9.957,0,0,1-3.1-4.453c.515-.483,1.043-.949,1.591-1.4l.025,0a2.207,2.207,0,0,0-.069.366,3.415,3.415,0,0,0,1.132,2.7,8.1,8.1,0,0,0,2.4,1.432,4.093,4.093,0,0,0,.473.147l.073.021-.613,2.378-.15-.037a9.546,9.546,0,0,1-1.758-1.157" transform="translate(-123.114 -20.957)" fill="#181723"/>
        <path id="Trazado_214155" data-name="Trazado 214155" d="M244.4,55.747l-1.778,6.916s-11.4,5.187-11.738,9.157c-.2,2.285.933,6.482,1.928,9.628a5.815,5.815,0,0,1-3.844.333,4.12,4.12,0,0,1-2.825-2.67c-.268-.909-.158-1.9-.483-2.8-.357-.974-1.2-1.738-1.445-2.748a3.523,3.523,0,0,1,.958-3.036,15.89,15.89,0,0,1,2.565-2.082A6.245,6.245,0,0,0,229.907,66c.67-1.607.134-3.507.743-5.135a4.629,4.629,0,0,1,2.2-2.386,7.349,7.349,0,0,1,3.206-.767c1.632-.053,3.4.251,4.8-.577a3.423,3.423,0,0,0,1.628-2.585,9.525,9.525,0,0,0,1.757,1.157Z" transform="translate(-108.749 -26.468)" fill="#181723"/>
        <path id="Trazado_214156" data-name="Trazado 214156" d="M279.5,40.1a1.281,1.281,0,0,1-.7,1.62c-.559.125-1.152-.4-1.324-1.168a1.281,1.281,0,0,1,.7-1.62c.56-.125,1.152.4,1.324,1.168" transform="translate(-134.605 -18.878)" fill="#181723"/>
        <path id="Trazado_214157" data-name="Trazado 214157" d="M292.134,38.934a1.281,1.281,0,0,1-.7,1.62c-.559.125-1.152-.4-1.324-1.168a1.281,1.281,0,0,1,.7-1.62c.56-.125,1.152.4,1.324,1.168" transform="translate(-140.732 -18.315)" fill="#181723"/>
        <path id="Trazado_214158" data-name="Trazado 214158" d="M291.87,34.168a5.772,5.772,0,0,0-2.271-.391.615.615,0,0,0-.572.644.621.621,0,0,0,.645.571c.144,0,.287,0,.431.007a5.071,5.071,0,0,1,1.17.239l.061.022a.653.653,0,0,0,.465.03.61.61,0,0,0,.379-.773.6.6,0,0,0-.308-.35" transform="translate(-140.229 -16.386)" fill="#181723"/>
        <path id="Trazado_214159" data-name="Trazado 214159" d="M277.47,35.279a4.42,4.42,0,0,0-1.954.7.609.609,0,1,0,.686,1.006c.1-.068.212-.127.321-.185a3.818,3.818,0,0,1,.794-.269c.075-.012.15-.026.227-.034a.609.609,0,0,0-.073-1.216" transform="translate(-133.546 -17.115)" fill="#181723"/>
        <path id="Trazado_214160" data-name="Trazado 214160" d="M238.228,65.84a4.967,4.967,0,0,0-1.036,3.3c-.06,1.192-.083,2.558-.99,3.455a.2.2,0,0,0,.287.287,4.781,4.781,0,0,0,1.087-3.278c.063-1.192.063-2.555.939-3.478.18-.189-.107-.477-.287-.287" transform="translate(-114.571 -31.914)" fill="#fff"/>
        <path id="Trazado_214161" data-name="Trazado 214161" d="M233.587,80.386a.208.208,0,0,0-.287,0l-1.564,1.328a.205.205,0,0,0,0,.287.208.208,0,0,0,.287,0l1.564-1.328a.2.2,0,0,0,0-.287" transform="translate(-112.405 -38.973)" fill="#fff"/>
        <path id="Trazado_214162" data-name="Trazado 214162" d="M236.932,79.9a.208.208,0,0,0-.287,0l-1.387,1.171a.2.2,0,0,0,.287.287l1.387-1.171a.2.2,0,0,0,0-.287" transform="translate(-114.114 -38.74)" fill="#fff"/>
        <path id="Trazado_214163" data-name="Trazado 214163" d="M231.934,102.677a2.16,2.16,0,0,1-1.851-2.05c-.009-.261-.414-.262-.406,0a2.562,2.562,0,0,0,2.148,2.441.209.209,0,0,0,.25-.142.2.2,0,0,0-.141-.25" transform="translate(-111.434 -48.727)" fill="#fff"/>
        <path id="Trazado_214164" data-name="Trazado 214164" d="M233.168,101.386a1.364,1.364,0,0,1-.2-.049l-.054-.02-.024-.009-.077-.037a1.451,1.451,0,0,1-.167-.1l-.027-.019-.023-.019c-.028-.023-.054-.046-.08-.071a1.521,1.521,0,0,1-.134-.147l-.012-.015-.028-.041c-.019-.027-.035-.055-.052-.083s-.032-.057-.046-.086l-.021-.045,0-.005,0-.007a1.651,1.651,0,0,1-.06-.2.2.2,0,0,0-.25-.142.207.207,0,0,0-.142.249,1.646,1.646,0,0,0,1.291,1.241.208.208,0,0,0,.25-.142.205.205,0,0,0-.141-.25" transform="translate(-112.447 -48.653)" fill="#fff"/>
        <path id="Trazado_214165" data-name="Trazado 214165" d="M262.119,44.535a4.092,4.092,0,0,0-.746-1.88c-.357-.491-.965-1.195-1.641-1.124a.91.91,0,0,0-.725.6,2.008,2.008,0,0,0,.047,1.269.2.2,0,0,0,.391-.108,1.562,1.562,0,0,1-.045-1.053.487.487,0,0,1,.7-.229,3.122,3.122,0,0,1,1.259,1.411,3.717,3.717,0,0,1,.3.876c.061.284.157.7-.056.946-.235.268-.6-.044-.739-.263a1.023,1.023,0,0,1-.117-.826.2.2,0,0,0-.392-.108,1.4,1.4,0,0,0,.658,1.607.729.729,0,0,0,.9-.143,1.205,1.205,0,0,0,.2-.975" transform="translate(-125.623 -20.148)" fill="#ef89a9"/>
        <path id="Trazado_214166" data-name="Trazado 214166" d="M171.962,336.372s1.709,4.513-5.735,4.513-6.6-3.1-6.6-3.1l1.355-8.747h8.8Z" transform="translate(-77.432 -159.642)" fill="#181723"/>
        <path id="Trazado_214167" data-name="Trazado 214167" d="M145.826,249.2s2.394,3.215.677,3.442c0,0,1.8,2.65-.564,3.271h-10.89a1.278,1.278,0,0,1,.844-2.029s-1.663-1.015-.336-2.034c0,0-3.925-29.158-8.471-48.458-1.4-5.942-2.857-10.947-4.278-13.881l-13.69-4.2c-.394-4.306-.641-6.985-.641-6.985,2.074,1.254,6.884,3.405,15.517,3.405,12.185,0,18.447-.873,19.576-2.37Z" transform="translate(-52.631 -86.518)" fill="#feca2e"/>
        <path id="Trazado_214168" data-name="Trazado 214168" d="M127.691,209.976c.609,7.618-3.34,48.064-3.34,48.064.564,1.842-.715,2.334-.715,2.334.528,1.522-.373,1.693-.373,1.693l-10.155-2.634a1.631,1.631,0,0,1,.524-2.37c-1.222-1.972,1.319-2.857,1.319-2.857.045-3.994-3.7-45.528-5.227-62.315l13.69,4.205c1.421,2.934,2.878,7.939,4.278,13.881" transform="translate(-53.235 -93.101)" fill="#cfa421"/>
        <path id="Trazado_214169" data-name="Trazado 214169" d="M113.024,325.72v7.907l-15.788,2H88.626c-.256-5.67,6.437-5.752,6.437-5.752l7.8-6.79Z" transform="translate(-42.996 -156.755)" fill="#181723"/>
        <path id="Trazado_214170" data-name="Trazado 214170" d="M173.824,226.154q-.753-13.7-1.505-27.407l-.845-15.372c-.043-.779-1.26-.785-1.218,0l1.506,27.407q.752,13.7,1.505,27.407.422,7.686.844,15.372c.043.779,1.261.784,1.218,0q-.752-13.7-1.505-27.407" transform="translate(-82.604 -88.685)" fill="#cfa421" opacity="0.9"/>
        <path id="Trazado_214171" data-name="Trazado 214171" d="M146.084,54.325a9.087,9.087,0,0,1,7.425-1.258c4.528,1.054,15.777,7.447,17.193,12.451s-5.2,39.184-10.116,40.492S138.676,99.873,134.5,95.322s11.582-41,11.582-41" transform="translate(-64.916 -25.614)" fill="#feca2e"/>
        <path id="Trazado_214172" data-name="Trazado 214172" d="M176.243,56.272a8.329,8.329,0,0,1-3.9,6.56,7.509,7.509,0,0,1-4.148,1.052,15.7,15.7,0,0,1-4.6-1.06q-4.718-1.662-9.291-3.6-2.291-.968-4.548-1.991-1.078-.494-2.153-1a14.982,14.982,0,0,1-1.929-1.018,4.086,4.086,0,0,1-1.913-3.069,5.512,5.512,0,0,1,1.019-3.538,12.916,12.916,0,0,1,2.838-2.933,5.388,5.388,0,0,1,4.019-1.386,6.652,6.652,0,0,1,1.152.27c.369.069.742.134,1.117.21q4.871.961,9.6,2.339,2.375.693,4.7,1.482c1.468.5,2.971.994,4.368,1.627a5.481,5.481,0,0,1,3.66,6.054" transform="translate(-69.743 -21.472)" fill="#afd37f"/>
        <path id="Trazado_214173" data-name="Trazado 214173" d="M147.4,85.283c-.187.012-.369.024-.556.041q-5.7.493-11.369,1.193l-.028.065-2.707-1.189L132.371,99.4l.958,13.256c1.214.564.564,2.256.564,2.256a1.177,1.177,0,0,1,.228,1.973c-1.128,1.5-7.391,2.37-19.576,2.37-8.633,0-13.443-2.151-15.517-3.406a8.129,8.129,0,0,1-1.242-.88c-1.8-1.149-.215-2.785-.215-2.785-1.891-.32-.349-2.37-.349-2.37-.491-7.845,1.084-35.064,1.5-42.053L89,61.117c1.831-4.083,3.032-7.5,4.72-11.547q5.942,1.272,11.9,2.541c-.1-.556-.154-1.242.3-1.575a1.2,1.2,0,0,1,.706-.191,4.681,4.681,0,0,1,2.906,1.413,2.338,2.338,0,0,1,1.262-1.323l.012-.024a6.465,6.465,0,0,0,1.124.45,8.154,8.154,0,0,0,2.139.341l-.466,3.665-.17,1.36a7.783,7.783,0,0,0,.175,2.715l.016.081a4.425,4.425,0,0,0,2.659,2.919l.032-.012a4.642,4.642,0,0,0,.767.162c4.4.585,9.749-7.139,9.749-7.139-.138-.568-.272-1.133-.406-1.7q5.735,2.934,11.344,6.125a33.835,33.835,0,0,1,6.628,4.546,1.148,1.148,0,0,1,.487.929c-.085.548-.812.67-1.364.658a6.651,6.651,0,0,1,1.774,1.778c.191.284.353.69.122.942a.856.856,0,0,1-.406.2l-.528.146a63.064,63.064,0,0,1,1.356,6.9q.785,4.907,1.558,9.81" transform="translate(-43.182 -24.05)" fill="#a7e446"/>
        <path id="Trazado_214174" data-name="Trazado 214174" d="M191.164,118.9a8.879,8.879,0,0,1,1.831.008.455.455,0,0,1,.317.126.464.464,0,0,1,0,.475,4.259,4.259,0,0,1-.877,1.38,1.964,1.964,0,0,1,1.4.6.916.916,0,0,1,.255.471.839.839,0,0,1-.662.791c-.357.114-.743.1-1.1.207a6.13,6.13,0,0,1,1.1,1.368.729.729,0,0,1,.134.588c-.121.333-.593.325-.937.252q-1.467-.31-2.91-.706-1.327-.365-2.63-.8l-7.87-3.458.028-.065q5.668-.7,11.369-1.193c.187-.016.369-.028.556-.041" transform="translate(-86.949 -57.666)" fill="#5aa537"/>
        <path id="Trazado_214175" data-name="Trazado 214175" d="M153.377,110.545l3.089,1.356v0l2.707,1.189,7.87,3.458q1.3.432,2.63.8c-.1,1.717-.735,10.354-3.982,10.987-1.863.366-5.821-2.971-9.226-6.291-3.2-3.121-5.905-6.23-5.905-6.23s-4.587-.455-5.715-3.7a8.749,8.749,0,0,0-2.768-.706,3.749,3.749,0,0,1-1.437-.252c-.613-.227-1.116-.588-1.1-.986.012-.345.4-.528.933-.609l0-.024c-.893.093-2.959-.309-2.492-.95a2.222,2.222,0,0,1,1.059-.6l0-.1s-1.165,0-1.043-.848c.032-.231.467-.572,1.189-.881a9.088,9.088,0,0,1,2.309-.613l-.146-1.153a23.719,23.719,0,0,1,4.278-.138,9.919,9.919,0,0,1,1.7.248c2.792.69,5.334,5.723,5.334,5.723Z" transform="translate(-66.911 -50.562)" fill="#ffaec3"/>
        <path id="Trazado_214176" data-name="Trazado 214176" d="M171.042,103.291v8.162l-3.089-1.356Z" transform="translate(-81.487 -50.115)" fill="#181723"/>
        <path id="Trazado_214177" data-name="Trazado 214177" d="M142.253,104.568l.146,1.153a9.088,9.088,0,0,0-2.309.613.868.868,0,0,1,.053-1.347,7.777,7.777,0,0,1,2.111-.418" transform="translate(-67.822 -50.734)" fill="#ffaec3"/>
        <path id="Trazado_214178" data-name="Trazado 214178" d="M91.02,46.322c-1.689,4.046-2.89,7.464-4.72,11.547l-.317-.012-2.553-.889c.085-.7.175-1.376.264-2.037.511-3.742,1.1-6.957,1.749-10.821q.054-.317.109-.645c.041-.236.118-.516.349-.577s.439.13.585.317a6.726,6.726,0,0,1,1.088,1.977c.255-.45.511-.9.767-1.348a.381.381,0,0,1,.195-.2c.162-.053.3.114.386.264a3.951,3.951,0,0,1,.43,2.273,5.653,5.653,0,0,1,1.522-1.213.5.5,0,0,1,.325-.081c.28.065.235.475.121.739-.1.239-.2.475-.3.71" transform="translate(-40.479 -20.802)" fill="#5aa537"/>
        <path id="Trazado_214179" data-name="Trazado 214179" d="M5.042,12.506C-.36,10.659-.3,9.34.236,9,.849,8.626,7.7,10.33,9.3,10.951s7.428,5.934,7.428,5.934L44.964,27.649c-.653,3.864-1.238,7.078-1.749,10.821l-2.939-1.616L15.2,21.557c-5.825-.012-7.558-3.693-7.558-3.693s-4.7.28-3.836-.962a1.682,1.682,0,0,1,.6-.487,8.3,8.3,0,0,1,2.167-.69,24.329,24.329,0,0,1,2.764-.373A15.31,15.31,0,0,1,7.425,13.29l-.041-.053c-.877-.252-1.652-.5-2.342-.731" transform="translate(0 -4.342)" fill="#ffaec3"/>
        <path id="Trazado_214180" data-name="Trazado 214180" d="M13.484,17.38a15.277,15.277,0,0,0,1.907,2.062,24.313,24.313,0,0,0-2.764.373,1.569,1.569,0,0,1-.118-.856,1.744,1.744,0,0,1,.207-.483,7.363,7.363,0,0,1,.767-1.1" transform="translate(-6.059 -8.432)" fill="#ffaec3"/>
        <path id="Trazado_214181" data-name="Trazado 214181" d="M10.922,16.589l.041.053a7.352,7.352,0,0,0-.767,1.1,1.751,1.751,0,0,0-.207.483,1.571,1.571,0,0,0,.117.857,8.28,8.28,0,0,0-2.167.69,4.554,4.554,0,0,1-.556-1.144,1.941,1.941,0,0,1,.041-1.295,3.054,3.054,0,0,1,.532-.759l.625-.71c.69.235,1.465.479,2.342.73" transform="translate(-3.538 -7.694)" fill="#ffaec3"/>
        <path id="Trazado_214182" data-name="Trazado 214182" d="M99.827,65.807l-.656-2.263A.609.609,0,0,0,98,63.868l.656,2.263a.609.609,0,1,0,1.174-.324" transform="translate(-47.535 -30.612)" fill="#5aa537"/>
        <path id="Trazado_214183" data-name="Trazado 214183" d="M105.745,57.038a.619.619,0,0,0-.749-.425l-3.039.926a.609.609,0,1,0,.324,1.174l3.039-.926a.618.618,0,0,0,.425-.749" transform="translate(-49.249 -27.456)" fill="#5aa537"/>
        <path id="Trazado_214184" data-name="Trazado 214184" d="M116.217,59.982,115.091,57.5a.611.611,0,0,0-.833-.218.627.627,0,0,0-.218.833l1.126,2.483a.611.611,0,0,0,.833.218.627.627,0,0,0,.218-.833" transform="translate(-55.294 -27.752)" fill="#5aa537"/>
        <path id="Trazado_214185" data-name="Trazado 214185" d="M109.923,67.232l-.451-2.37a.613.613,0,0,0-.749-.425.625.625,0,0,0-.425.749l.451,2.37a.613.613,0,0,0,.749.425.626.626,0,0,0,.425-.75" transform="translate(-52.537 -31.253)" fill="#5aa537"/>
        <path id="Trazado_214186" data-name="Trazado 214186" d="M125.282,63.458a.626.626,0,0,0-.833-.218l-2.713,1.23a.611.611,0,0,0-.218.833.626.626,0,0,0,.833.218l2.713-1.23a.611.611,0,0,0,.218-.833" transform="translate(-58.918 -30.647)" fill="#5aa537"/>
        <path id="Trazado_214187" data-name="Trazado 214187" d="M131,58.049l-1.838-2.1a.612.612,0,0,0-.861,0,.623.623,0,0,0,0,.861l1.839,2.1a.612.612,0,0,0,.861,0,.623.623,0,0,0,0-.861" transform="translate(-62.164 -27.059)" fill="#5aa537"/>
        <path id="Trazado_214188" data-name="Trazado 214188" d="M151.894,76.708a.624.624,0,0,0-.749.425l-.785,2.258a.613.613,0,0,0,.425.749.624.624,0,0,0,.749-.425l.785-2.258a.613.613,0,0,0-.425-.749" transform="translate(-72.939 -37.209)" fill="#5aa537"/>
        <path id="Trazado_214189" data-name="Trazado 214189" d="M161.671,71.17l-2.822.089a.609.609,0,0,0,0,1.218l2.822-.089a.609.609,0,1,0,0-1.218" transform="translate(-76.775 -34.53)" fill="#5aa537"/>
        <path id="Trazado_214190" data-name="Trazado 214190" d="M175.246,68.269l-2.718-1.334a.609.609,0,0,0-.615,1.052l2.718,1.334a.609.609,0,1,0,.615-1.051" transform="translate(-83.266 -32.44)" fill="#5aa537"/>
        <path id="Trazado_214191" data-name="Trazado 214191" d="M171.5,75.546a.609.609,0,1,0-1.218,0l.114,2.821a.609.609,0,1,0,1.218,0l-.114-2.821" transform="translate(-82.617 -36.357)" fill="#5aa537"/>
        <path id="Trazado_214192" data-name="Trazado 214192" d="M162.824,82.987a.671.671,0,0,0-.178-.43.62.62,0,0,0-.431-.179c-.295.013-.652.271-.609.609l.346,2.707a.666.666,0,0,0,.178.43.62.62,0,0,0,.43.179c.3-.013.652-.271.609-.609l-.346-2.707" transform="translate(-78.406 -39.968)" fill="#5aa537"/>
        <path id="Trazado_214193" data-name="Trazado 214193" d="M158.319,94.017a.623.623,0,0,0-.749-.425l-3.047.677a.614.614,0,0,0-.425.749.623.623,0,0,0,.749.425l3.046-.677a.614.614,0,0,0,.426-.749" transform="translate(-74.754 -45.401)" fill="#5aa537"/>
        <path id="Trazado_214194" data-name="Trazado 214194" d="M169.476,89.8a.62.62,0,0,0-.431-.178.613.613,0,0,0-.43.178.716.716,0,0,0-.179.431q-.169,1.3-.338,2.6a.6.6,0,0,0,.179.43.607.607,0,0,0,.86,0,.716.716,0,0,0,.179-.43q.169-1.3.338-2.6a.6.6,0,0,0-.178-.431" transform="translate(-81.556 -43.482)" fill="#5aa537"/>
        <path id="Trazado_214195" data-name="Trazado 214195" d="M164.3,101.7a.617.617,0,0,0-.749.425L163.1,104.5a.609.609,0,1,0,1.174.324l.451-2.369a.622.622,0,0,0-.425-.749" transform="translate(-79.124 -49.336)" fill="#5aa537"/>
        <path id="Trazado_214196" data-name="Trazado 214196" d="M182.212,88.208a.626.626,0,0,0-.749-.425l-2.6.441a.612.612,0,0,0-.425.749.626.626,0,0,0,.749.425l2.6-.441a.612.612,0,0,0,.425-.749" transform="translate(-86.565 -42.584)" fill="#5aa537"/>
        <path id="Trazado_214197" data-name="Trazado 214197" d="M188.12,80.835l-2.6-1.111a.666.666,0,0,0-.469-.062.624.624,0,0,0-.364.28.615.615,0,0,0,.219.833l2.6,1.111a.669.669,0,0,0,.469.061.609.609,0,0,0,.145-1.113" transform="translate(-89.569 -38.64)" fill="#5aa537"/>
        <path id="Trazado_214198" data-name="Trazado 214198" d="M192.566,90.886a.609.609,0,1,0-1.218,0q.158,1.863.317,3.725a.609.609,0,1,0,1.218,0q-.158-1.863-.317-3.725" transform="translate(-92.837 -43.8)" fill="#5aa537"/>
        <path id="Trazado_214199" data-name="Trazado 214199" d="M182.657,99.747a.618.618,0,0,0-.749.425l-.584,2.7a.609.609,0,0,0,1.174.323l.584-2.7a.62.62,0,0,0-.425-.749" transform="translate(-87.967 -48.387)" fill="#5aa537"/>
        <path id="Trazado_214200" data-name="Trazado 214200" d="M183.157,111l-3.037-.405a.61.61,0,0,0-.609.609.628.628,0,0,0,.609.609l3.037.405a.609.609,0,0,0,.609-.609.628.628,0,0,0-.609-.609" transform="translate(-87.095 -53.655)" fill="#5aa537"/>
        <path id="Trazado_214201" data-name="Trazado 214201" d="M194.736,106a.609.609,0,1,0-1.218,0q.047,1.751.095,3.5a.609.609,0,0,0,1.218,0q-.048-1.751-.1-3.5" transform="translate(-93.891 -51.135)" fill="#5aa537"/>
        <path id="Trazado_214202" data-name="Trazado 214202" d="M153.014,85.68a.621.621,0,0,0-.861,0l-2.042,1.906a.614.614,0,0,0,0,.861.622.622,0,0,0,.861,0l2.042-1.906a.614.614,0,0,0,0-.861" transform="translate(-72.745 -41.486)" fill="#5aa537"/>
        <path id="Trazado_214203" data-name="Trazado 214203" d="M180.953,73.668a.618.618,0,0,0-.833.218l-1.444,2.833a.609.609,0,0,0,1.051.615l1.444-2.833a.62.62,0,0,0-.218-.833" transform="translate(-86.654 -35.706)" fill="#5aa537"/>
        <path id="Trazado_214204" data-name="Trazado 214204" d="M113.776,128.076l-2.009-2.836a.623.623,0,0,0-.833-.218.617.617,0,0,0-.218.833l2.01,2.836a.623.623,0,0,0,.833.218.616.616,0,0,0,.218-.833" transform="translate(-53.674 -60.617)" fill="#5aa537"/>
        <path id="Trazado_214205" data-name="Trazado 214205" d="M127.077,125.269a.618.618,0,0,0-.749-.425l-3.843,1.22a.609.609,0,1,0,.324,1.174l3.843-1.219a.619.619,0,0,0,.425-.749" transform="translate(-59.208 -60.559)" fill="#5aa537"/>
        <path id="Trazado_214206" data-name="Trazado 214206" d="M139.005,125.117l-2.251-2.262a.609.609,0,0,0-.861.861l2.251,2.262a.609.609,0,1,0,.861-.861" transform="translate(-65.848 -59.521)" fill="#5aa537"/>
        <path id="Trazado_214207" data-name="Trazado 214207" d="M133.175,131.729a.616.616,0,0,0-.749.425l-.451,2.6a.624.624,0,0,0,.425.749.617.617,0,0,0,.749-.425q.226-1.3.452-2.6a.623.623,0,0,0-.425-.749" transform="translate(-64.026 -63.905)" fill="#5aa537"/>
        <path id="Trazado_214208" data-name="Trazado 214208" d="M124.88,138.461l-.7-2.815a.615.615,0,0,0-.749-.425.621.621,0,0,0-.425.749l.7,2.815a.609.609,0,0,0,1.174-.324" transform="translate(-59.67 -65.594)" fill="#5aa537"/>
        <path id="Trazado_214209" data-name="Trazado 214209" d="M115.138,140.392l-2.722-1.21a.624.624,0,0,0-.833.218.616.616,0,0,0,.218.833l2.722,1.21a.623.623,0,0,0,.832-.218.615.615,0,0,0-.218-.833" transform="translate(-54.101 -67.494)" fill="#5aa537"/>
        <path id="Trazado_214210" data-name="Trazado 214210" d="M110.218,146.036a.618.618,0,0,0-.833.218l-1.241,2.37a.609.609,0,1,0,1.051.614l1.241-2.369a.62.62,0,0,0-.218-.833" transform="translate(-52.432 -70.817)" fill="#5aa537"/>
        <path id="Trazado_214211" data-name="Trazado 214211" d="M108.118,131.5a.615.615,0,0,0-.749.425q-.239,1.634-.478,3.268a.626.626,0,0,0,.425.749.616.616,0,0,0,.749-.425q.239-1.634.478-3.268a.626.626,0,0,0-.425-.749" transform="translate(-51.857 -63.795)" fill="#5aa537"/>
        <path id="Trazado_214212" data-name="Trazado 214212" d="M118.687,150.873l-.568-2.481a.614.614,0,0,0-.749-.425.623.623,0,0,0-.425.749l.568,2.481a.615.615,0,0,0,.749.425.622.622,0,0,0,.425-.749" transform="translate(-56.73 -71.778)" fill="#5aa537"/>
        <path id="Trazado_214213" data-name="Trazado 214213" d="M128.945,147.232a.625.625,0,0,0-.749-.425l-3.044.576a.613.613,0,0,0-.425.749.625.625,0,0,0,.749.425l3.044-.576a.613.613,0,0,0,.425-.749" transform="translate(-60.504 -71.221)" fill="#5aa537"/>
        <path id="Trazado_214214" data-name="Trazado 214214" d="M137.414,149.793l-1.58-1.918a.61.61,0,0,0-.43-.179.61.61,0,0,0-.609.609.692.692,0,0,0,.179.43l1.58,1.918a.61.61,0,0,0,.43.179.619.619,0,0,0,.43-.179.609.609,0,0,0,.178-.43.689.689,0,0,0-.178-.43" transform="translate(-65.399 -71.66)" fill="#5aa537"/>
        <path id="Trazado_214215" data-name="Trazado 214215" d="M128.439,154.934a.621.621,0,0,0-.609.609l-.042,2.594a.609.609,0,1,0,1.218,0q.021-1.3.042-2.594a.615.615,0,0,0-.609-.609" transform="translate(-62 -75.17)" fill="#5aa537"/>
        <path id="Trazado_214216" data-name="Trazado 214216" d="M122.976,161.15l-.789-2.708a.609.609,0,1,0-1.174.324l.788,2.708a.609.609,0,0,0,1.174-.324" transform="translate(-58.702 -76.654)" fill="#5aa537"/>
        <path id="Trazado_214217" data-name="Trazado 214217" d="M114.319,159.412l-2.48-1.133a.657.657,0,0,0-.469-.061.609.609,0,0,0-.145,1.113l2.48,1.133a.659.659,0,0,0,.47.061.609.609,0,0,0,.145-1.113" transform="translate(-53.821 -76.754)" fill="#5aa537"/>
        <path id="Trazado_214218" data-name="Trazado 214218" d="M110.793,164.528a.609.609,0,0,0-1.113-.145l-1.765,2.4a.614.614,0,0,0-.061.469.609.609,0,0,0,1.113.145l1.764-2.4a.614.614,0,0,0,.061-.469" transform="translate(-52.319 -79.611)" fill="#5aa537"/>
        <path id="Trazado_214219" data-name="Trazado 214219" d="M118.811,169.164q-.233-1.183-.467-2.367a.613.613,0,0,0-.749-.425.625.625,0,0,0-.425.749q.234,1.183.467,2.367a.613.613,0,0,0,.749.425.624.624,0,0,0,.425-.749" transform="translate(-56.841 -80.709)" fill="#5aa537"/>
        <path id="Trazado_214220" data-name="Trazado 214220" d="M115.134,176.267l-2.117-2.281a.614.614,0,0,0-.861,0,.622.622,0,0,0,0,.861l2.117,2.281a.613.613,0,0,0,.861,0,.621.621,0,0,0,0-.861" transform="translate(-54.332 -84.329)" fill="#5aa537"/>
        <path id="Trazado_214221" data-name="Trazado 214221" d="M127.7,172.582a.622.622,0,0,0-.833-.218l-2.7,1.474a.614.614,0,0,0-.218.833.622.622,0,0,0,.833.218l2.7-1.474a.615.615,0,0,0,.218-.833" transform="translate(-60.093 -83.589)" fill="#5aa537"/>
        <path id="Trazado_214222" data-name="Trazado 214222" d="M134.611,166.971l-1.94-1.667a.646.646,0,0,0-.43-.179.609.609,0,0,0-.43,1.039l1.94,1.667a.646.646,0,0,0,.43.179.609.609,0,0,0,.43-1.039" transform="translate(-63.866 -80.115)" fill="#5aa537"/>
        <path id="Trazado_214223" data-name="Trazado 214223" d="M135.423,176.93a.623.623,0,0,0-.749-.425l-2.706.572a.613.613,0,0,0-.425.749.623.623,0,0,0,.749.425l2.706-.572a.613.613,0,0,0,.425-.749" transform="translate(-63.81 -85.629)" fill="#5aa537"/>
        <path id="Trazado_214224" data-name="Trazado 214224" d="M144.561,173.758l-.676-2.821a.614.614,0,0,0-.749-.425.621.621,0,0,0-.425.749l.676,2.821a.615.615,0,0,0,.749.425.622.622,0,0,0,.425-.749" transform="translate(-69.231 -82.717)" fill="#5aa537"/>
        <path id="Trazado_214225" data-name="Trazado 214225" d="M149.641,178.951l-2.812.307a.623.623,0,0,0-.609.61.614.614,0,0,0,.609.608l2.812-.307a.624.624,0,0,0,.609-.608.616.616,0,0,0-.609-.61" transform="translate(-70.943 -86.822)" fill="#5aa537"/>
        <path id="Trazado_214226" data-name="Trazado 214226" d="M152.934,167.863a.62.62,0,0,0-.609.609v1.918a.609.609,0,0,0,1.218,0v-1.918a.616.616,0,0,0-.609-.609" transform="translate(-73.905 -81.443)" fill="#5aa537"/>
        <path id="Trazado_214227" data-name="Trazado 214227" d="M147.294,163.224l-.79-2.37a.609.609,0,1,0-1.174.324q.4,1.185.79,2.37a.609.609,0,0,0,1.174-.324" transform="translate(-70.498 -77.824)" fill="#5aa537"/>
        <path id="Trazado_214228" data-name="Trazado 214228" d="M139.528,159.469a.627.627,0,0,0-.833-.218l-2.954,1.308a.611.611,0,0,0-.218.833.627.627,0,0,0,.833.219l2.954-1.309a.611.611,0,0,0,.218-.833" transform="translate(-65.713 -77.23)" fill="#5aa537"/>
        <path id="Trazado_214229" data-name="Trazado 214229" d="M147.612,151.373a.609.609,0,1,0-1.218,0l.042,2.258a.609.609,0,0,0,1.218,0q-.021-1.129-.042-2.258" transform="translate(-71.028 -73.147)" fill="#5aa537"/>
        <path id="Trazado_214230" data-name="Trazado 214230" d="M146.022,144.157a.625.625,0,0,0-.833-.218l-2.824,1.347a.612.612,0,0,0-.218.833.625.625,0,0,0,.833.218l2.824-1.347a.612.612,0,0,0,.218-.833" transform="translate(-68.927 -69.8)" fill="#5aa537"/>
        <path id="Trazado_214231" data-name="Trazado 214231" d="M139.769,136.525a.623.623,0,0,0-.749.425q-.4,1.238-.81,2.476a.614.614,0,0,0,.425.749.623.623,0,0,0,.749-.425l.81-2.475a.614.614,0,0,0-.425-.749" transform="translate(-67.045 -66.231)" fill="#5aa537"/>
        <path id="Trazado_214232" data-name="Trazado 214232" d="M148.862,134.744a.623.623,0,0,0-.749-.425l-2.142.458a.613.613,0,0,0-.425.749.623.623,0,0,0,.749.425l2.142-.458a.613.613,0,0,0,.425-.749" transform="translate(-70.604 -65.161)" fill="#5aa537"/>
        <path id="Trazado_214233" data-name="Trazado 214233" d="M146.247,124.7a.621.621,0,0,0-.749.425l-.717,2.357a.615.615,0,0,0,.425.749.622.622,0,0,0,.749-.425l.717-2.357a.615.615,0,0,0-.425-.749" transform="translate(-70.234 -60.495)" fill="#5aa537"/>
        <path id="Trazado_214234" data-name="Trazado 214234" d="M155.407,126.777l-2.6-1.129a.669.669,0,0,0-.469-.061.623.623,0,0,0-.364.28.616.616,0,0,0,.218.833l2.6,1.128a.664.664,0,0,0,.47.061.609.609,0,0,0,.145-1.113" transform="translate(-73.701 -60.922)" fill="#5aa537"/>
        <path id="Trazado_214235" data-name="Trazado 214235" d="M163.751,135.19l-.433-2.373a.611.611,0,0,0-.749-.425.625.625,0,0,0-.425.749l.432,2.373a.612.612,0,0,0,.749.425.625.625,0,0,0,.425-.749" transform="translate(-78.663 -64.223)" fill="#5aa537"/>
        <path id="Trazado_214236" data-name="Trazado 214236" d="M157.7,139.571l-.443-2.822a.611.611,0,0,0-.749-.425.627.627,0,0,0-.425.749q.222,1.411.443,2.822a.611.611,0,0,0,.749.425.627.627,0,0,0,.425-.749" transform="translate(-75.723 -66.13)" fill="#5aa537"/>
        <path id="Trazado_214237" data-name="Trazado 214237" d="M155.149,149.432l-1.161-2.012a.609.609,0,1,0-1.051.614l1.161,2.012a.609.609,0,0,0,1.051-.615" transform="translate(-74.162 -71.379)" fill="#5aa537"/>
        <path id="Trazado_214238" data-name="Trazado 214238" d="M165.639,144.627a.626.626,0,0,0-.833-.218l-2.38,1.106a.612.612,0,0,0-.219.833.626.626,0,0,0,.833.219l2.38-1.106a.612.612,0,0,0,.218-.833" transform="translate(-78.66 -70.028)" fill="#5aa537"/>
        <path id="Trazado_214239" data-name="Trazado 214239" d="M169.969,154.949l-.954-2.121a.61.61,0,0,0-.364-.28.622.622,0,0,0-.469.061.615.615,0,0,0-.28.364.7.7,0,0,0,.061.469q.476,1.061.954,2.121a.61.61,0,0,0,.363.28.623.623,0,0,0,.47-.061.614.614,0,0,0,.28-.364.7.7,0,0,0-.061-.469" transform="translate(-81.455 -74.004)" fill="#5aa537"/>
        <path id="Trazado_214240" data-name="Trazado 214240" d="M163.265,155.444a.609.609,0,0,0-1.113.146l-.443,2.483a.654.654,0,0,0,.061.469.623.623,0,0,0,.364.28.617.617,0,0,0,.749-.425q.222-1.242.443-2.484a.657.657,0,0,0-.061-.469" transform="translate(-78.45 -75.275)" fill="#5aa537"/>
        <path id="Trazado_214241" data-name="Trazado 214241" d="M154.9,160.591l-2.057-2.333a.612.612,0,0,0-.861,0,.623.623,0,0,0,0,.861l2.058,2.333a.612.612,0,0,0,.861,0,.623.623,0,0,0,0-.861" transform="translate(-73.655 -76.698)" fill="#5aa537"/>
        <path id="Trazado_214242" data-name="Trazado 214242" d="M163.731,167.015a.618.618,0,0,0-.749-.425l-2.586.819a.609.609,0,1,0,.324,1.174l2.586-.818a.619.619,0,0,0,.425-.749" transform="translate(-77.602 -80.814)" fill="#5aa537"/>
        <path id="Trazado_214243" data-name="Trazado 214243" d="M171.813,164.3l-1.085-1.72a.636.636,0,0,0-.364-.28.609.609,0,0,0-.687.894l1.085,1.72a.637.637,0,0,0,.363.28.609.609,0,0,0,.688-.894" transform="translate(-82.283 -78.734)" fill="#5aa537"/>
        <path id="Trazado_214244" data-name="Trazado 214244" d="M169.049,169.412a.616.616,0,0,0-.749.425q-.225,1.241-.45,2.482a.609.609,0,0,0,1.174.324q.225-1.242.45-2.482a.623.623,0,0,0-.425-.749" transform="translate(-81.431 -82.188)" fill="#5aa537"/>
        <path id="Trazado_214245" data-name="Trazado 214245" d="M161.506,175.113a.619.619,0,0,0-.749.425l-.577,2.253a.609.609,0,0,0,1.174.324l.577-2.253a.618.618,0,0,0-.425-.749" transform="translate(-77.707 -84.953)" fill="#5aa537"/>
        <path id="Trazado_214246" data-name="Trazado 214246" d="M173,177.294a.619.619,0,0,0-.749-.425l-3.046.9a.609.609,0,1,0,.324,1.174l3.046-.9a.618.618,0,0,0,.425-.749" transform="translate(-81.877 -85.802)" fill="#5aa537"/>
        <path id="Trazado_214247" data-name="Trazado 214247" d="M12.725,18.068l-2.443-2.314c-.19-.18-.477.107-.287.287l2.254,2.135L8.6,19.164a.2.2,0,0,0,.108.391l3.91-1.058a.182.182,0,0,0,.141-.2.177.177,0,0,0-.031-.233" transform="translate(-4.102 -7.616)" fill="#181723"/>
        <path id="Trazado_214248" data-name="Trazado 214248" d="M146.743,106.55a24,24,0,0,0-6.456.3c-.256.047-.148.438.108.391a23.614,23.614,0,0,1,6.348-.289c.26.023.258-.382,0-.406" transform="translate(-67.993 -51.65)" fill="#181723"/>
        <path id="Trazado_214249" data-name="Trazado 214249" d="M146.006,109.588a27.991,27.991,0,0,0-5.837.567c-.256.052-.147.444.108.392a27.448,27.448,0,0,1,5.729-.553.2.2,0,0,0,0-.406" transform="translate(-67.936 -53.169)" fill="#181723"/>
        <path id="Trazado_214250" data-name="Trazado 214250" d="M146.98,113.676l-4.345.179c-.261.011-.262.417,0,.406l4.345-.179c.261-.01.262-.416,0-.406" transform="translate(-69.109 -55.153)" fill="#181723"/>
        <path id="Trazado_214251" data-name="Trazado 214251" d="M166.558,89.885s1.343-16.538,5.1-26.331a1.983,1.983,0,0,1,2.914-.961l3.224,2.042a1.984,1.984,0,0,1,.82,2.306l-8.246,24.616Z" transform="translate(-80.81 -30.219)" fill="#cfa421"/>
        <path id="Trazado_214252" data-name="Trazado 214252" d="M165.3,129.9s.142,8.841,4.992,10.5l-.144-2a4.954,4.954,0,0,1-1.85-5.4Z" transform="translate(-80.202 -63.023)" fill="#181723"/>
        <path id="Trazado_214253" data-name="Trazado 214253" d="M178.749,148.088a6.006,6.006,0,0,1-2.288-5.485c.039-.291-.407-.418-.447-.123a6.494,6.494,0,0,0,2.5,6.008c.238.181.469-.222.234-.4" transform="translate(-85.371 -69.047)" fill="#cfa421"/>
        <path id="Trazado_214254" data-name="Trazado 214254" d="M123.323,54.187s-10.772,6.644-11.91,25.751h-2.6S106.356,61.924,120.339,51.2l3.263.791Z" transform="translate(-52.714 -24.842)" fill="#cfa421"/>
        <path id="Trazado_214255" data-name="Trazado 214255" d="M99.559,72.374l8.515,25.753h-12.8L88.389,71.976l.316.012Z" transform="translate(-42.885 -34.921)" fill="#fff6ee"/>
        <path id="Trazado_214256" data-name="Trazado 214256" d="M126.511,70.589l5.613,15.76,0,.045a23.718,23.718,0,0,0-4.278.138,7.771,7.771,0,0,0-2.111.418.868.868,0,0,0-.053,1.347c-.723.309-1.157.65-1.189.881-.122.848,1.043.848,1.043.848l0,.1a2.224,2.224,0,0,0-1.06.6c-.466.641,1.6,1.043,2.492.95l0,.024c-.532.081-.922.264-.934.609-.016.4.488.759,1.1.986v0l-8.54,2.6-8.515-25.753,13.767-2.48,1.522-.276Z" transform="translate(-53.411 -32.699)" fill="#ffe4c0"/>
        <path id="Trazado_214257" data-name="Trazado 214257" d="M78.145,68.4l6.884,26.151-5.041-3.012L67.276,64.612l8.316,2.9Z" transform="translate(-32.641 -31.348)" fill="#ffe4c0"/>
        <path id="Trazado_214258" data-name="Trazado 214258" d="M200.19,63.367a1.578,1.578,0,0,0-1.473-1.291,2.674,2.674,0,0,0-2,1.015A9.057,9.057,0,0,0,194.389,68c-.04.292.406.418.446.123a8.778,8.778,0,0,1,1.414-3.709,5.917,5.917,0,0,1,1.347-1.5,1.4,1.4,0,0,1,1.85-.043,2.148,2.148,0,0,1,.165,2.02,10.032,10.032,0,0,1-.725,1.882,10.215,10.215,0,0,1-1.113,1.741c-.242.3-1.022,1.345-1.368.62a2.459,2.459,0,0,1,.284-1.911,3.933,3.933,0,0,1,1.429-1.592c.251-.159.019-.56-.234-.4a4.4,4.4,0,0,0-1.514,1.6,3.569,3.569,0,0,0-.5,2.065c.082.632.6,1.159,1.259.858a2.589,2.589,0,0,0,.851-.766,10.841,10.841,0,0,0,.7-.94,10.677,10.677,0,0,0,1.115-2.208,4.593,4.593,0,0,0,.4-2.477" transform="translate(-94.312 -30.117)" fill="#5aa537"/>
        <path id="Trazado_214259" data-name="Trazado 214259" d="M173.225,49.168,165.1,47.022a.232.232,0,0,0-.123.446l8.125,2.147a.232.232,0,0,0,.123-.447" transform="translate(-79.964 -22.81)" fill="#5aa537"/>
        <path id="Trazado_214260" data-name="Trazado 214260" d="M184.38,52.168l-2.041-.6a.232.232,0,0,0-.123.447l2.041.6a.232.232,0,0,0,.123-.447" transform="translate(-88.329 -25.017)" fill="#5aa537"/>
        <path id="Trazado_214261" data-name="Trazado 214261" d="M180.551,53.149l-2.581-.734a.232.232,0,0,0-.124.447l2.581.734a.232.232,0,0,0,.123-.447" transform="translate(-86.208 -25.426)" fill="#5aa537"/>
        <path id="Trazado_214262" data-name="Trazado 214262" d="M148.433,5.972a3,3,0,0,1,1.944.235,2.439,2.439,0,0,1,1.1,2.005,5.88,5.88,0,0,1-.471,2.318,44.357,44.357,0,0,1-3.673,6.977l-1.108-.4a5.79,5.79,0,0,0,.264-.577,3.577,3.577,0,0,0,.085-2.48,2.465,2.465,0,0,0-1.814-1.607,2.7,2.7,0,0,0-2.415,1.006,5.224,5.224,0,0,0-1,2.127l-.11-.028a53.621,53.621,0,0,1-.788-5.625,30.263,30.263,0,0,1-8.138-2.2,14.127,14.127,0,0,1-3.275-1.838c-.012-.012-.028-.021-.041-.033a6.815,6.815,0,0,1-2.252-3.028,1.43,1.43,0,0,1-.1-.7c.085-.524.629-.828,1.124-1.015a19.563,19.563,0,0,1,5.719-.958,31.049,31.049,0,0,1,7.886.2,10.839,10.839,0,0,1,3.544,1.291,8.29,8.29,0,0,1,3.495,4.245Z" transform="translate(-61.436 0)" fill="#181723"/>
        <path id="Trazado_214263" data-name="Trazado 214263" d="M162.546,33.629a26.8,26.8,0,0,0-3.519,7.866c-.366-1.7-.719-3.409-1.047-5.118a5.547,5.547,0,0,0,2.33-1.623,7.666,7.666,0,0,0,1.128-1.526Z" transform="translate(-76.649 -16.121)" fill="#181723"/>
        <path id="Trazado_214264" data-name="Trazado 214264" d="M145.894,22.074a5.78,5.78,0,0,1-.264.577,7.662,7.662,0,0,1-1.128,1.526,5.548,5.548,0,0,1-2.33,1.623c.329,1.709.682,3.414,1.047,5.118q.42,1.917.865,3.828c.134.568.268,1.132.406,1.7,0,0-5.349,7.724-9.749,7.14a4.642,4.642,0,0,1-.767-.163l-.032.012L132.8,40.241l-1.522.276-.016-.081a7.8,7.8,0,0,1-.175-2.716l.171-1.36a19.332,19.332,0,0,0,8.008-6.725,12.066,12.066,0,0,1-4.136,2.524,9.63,9.63,0,0,1-3.406.536,8.14,8.14,0,0,1-2.139-.341,6.477,6.477,0,0,1-1.124-.45,4.707,4.707,0,0,1-.727-.467,7.045,7.045,0,0,1-2.183-4.793c-.646-5.187.783-10.419,2.881-15.216a14.13,14.13,0,0,0,3.276,1.838,30.263,30.263,0,0,0,8.138,2.2,53.619,53.619,0,0,0,.787,5.625l.11.028a5.225,5.225,0,0,1,1-2.127,2.7,2.7,0,0,1,2.415-1.006,2.465,2.465,0,0,1,1.815,1.607,3.58,3.58,0,0,1-.085,2.48" transform="translate(-60.841 -5.545)" fill="#ffaec3"/>
        <path id="Trazado_214265" data-name="Trazado 214265" d="M145.283,31.051a2.068,2.068,0,1,1-2.07,2.066,2.07,2.07,0,0,1,2.07-2.066" transform="translate(-69.484 -15.065)" fill="#ef89a9"/>
        <path id="Trazado_214266" data-name="Trazado 214266" d="M140.66,49.32A12.074,12.074,0,0,0,144.8,46.8a19.339,19.339,0,0,1-8.008,6.726l.466-3.665a9.641,9.641,0,0,0,3.406-.536" transform="translate(-66.367 -22.704)" fill="#181723"/>
        <path id="Trazado_214267" data-name="Trazado 214267" d="M133.791,37.839a2.514,2.514,0,0,1-1.863,3.462,2.335,2.335,0,0,1-3.141-2.127Z" transform="translate(-62.484 -18.359)" fill="#fff"/>
        <path id="Trazado_214268" data-name="Trazado 214268" d="M130.473,27.069a7.617,7.617,0,0,1-1.384,3.888,5.191,5.191,0,0,1-.763.869,2.087,2.087,0,0,1-1.912.588.86.86,0,0,1-.507-.365.767.767,0,0,1-.094-.382,1.852,1.852,0,0,1,.889-1.3,16.128,16.128,0,0,0,3.771-3.3" transform="translate(-61.042 -13.133)" fill="#ef89a9"/>
        <path id="Trazado_214269" data-name="Trazado 214269" d="M129.514,23.084c-.086.784-.617,1.369-1.187,1.307s-.962-.749-.876-1.533.617-1.369,1.187-1.307.962.749.876,1.533" transform="translate(-61.831 -10.454)" fill="#181723"/>
        <path id="Trazado_214270" data-name="Trazado 214270" d="M141.655,25.984c-.086.784-.617,1.369-1.187,1.307s-.962-.749-.876-1.533.617-1.369,1.187-1.307.962.749.876,1.533" transform="translate(-67.722 -11.861)" fill="#181723"/>
        <path id="Trazado_214271" data-name="Trazado 214271" d="M143.777,20.135a5.772,5.772,0,0,0-2.023-1.1.615.615,0,0,0-.749.425.622.622,0,0,0,.425.749c.138.042.272.093.406.146a5.049,5.049,0,0,1,1.03.6l.051.041a.651.651,0,0,0,.43.179.619.619,0,0,0,.43-.179.609.609,0,0,0,.178-.43.6.6,0,0,0-.178-.43" transform="translate(-68.404 -9.222)" fill="#181723"/>
        <path id="Trazado_214272" data-name="Trazado 214272" d="M129.584,16.953a4.424,4.424,0,0,0-2.075.029.609.609,0,0,0,.324,1.174c.12-.031.241-.052.364-.072a3.771,3.771,0,0,1,.838,0c.075.012.15.024.225.041a.609.609,0,1,0,.324-1.174" transform="translate(-61.647 -8.172)" fill="#181723"/>
        <path id="Trazado_214273" data-name="Trazado 214273" d="M159.631,26.837a2.009,2.009,0,0,0-.846.727,4.8,4.8,0,0,0-.936,2.261,2.3,2.3,0,0,0,.046,1.115.826.826,0,0,0,.761.545,1.364,1.364,0,0,0,.986-.476c.277-.282.632-.664.523-1.1a.51.51,0,0,0-.837-.275c-.195.175.093.461.287.287.149-.134.163.21.137.284a1.348,1.348,0,0,1-.3.411,1.077,1.077,0,0,1-.794.459c-.681-.04-.427-1.2-.332-1.61a4.367,4.367,0,0,1,.866-1.767c.181-.219.454-.544.773-.514a.41.41,0,0,1,.322.54c-.1.237.248.444.351.2a.807.807,0,0,0-1-1.1" transform="translate(-76.563 -12.996)" fill="#ef89a9"/>
        <path id="Trazado_214274" data-name="Trazado 214274" d="M135.95,9.753a18.932,18.932,0,0,1-4.512-2.581c-.207-.16-.409.193-.2.35a19.275,19.275,0,0,0,4.609,2.622c.242.1.348-.295.108-.391" transform="translate(-63.63 -3.46)" fill="#fff"/>
        <path id="Trazado_214275" data-name="Trazado 214275" d="M143.6,13.063a6.12,6.12,0,0,1-1.975-.322c-.248-.083-.354.308-.108.391a6.462,6.462,0,0,0,2.082.336.2.2,0,0,0,0-.406" transform="translate(-68.592 -6.176)" fill="#fff"/>
        <path id="Trazado_214276" data-name="Trazado 214276" d="M141.926,10.5l-2.226-.458c-.255-.053-.364.339-.108.392l2.225.458c.255.053.364-.339.108-.391" transform="translate(-67.657 -4.87)" fill="#fff"/>
        <path id="Trazado_214277" data-name="Trazado 214277" d="M171.806,15.433a.21.21,0,0,0-.2-.2.2.2,0,0,0-.2.2,5.76,5.76,0,0,1-.169,2.2.2.2,0,0,0,.391.108,6.052,6.052,0,0,0,.183-2.312" transform="translate(-83.074 -7.389)" fill="#fff"/>
        <path id="Trazado_214278" data-name="Trazado 214278" d="M170.118,21.976a.209.209,0,0,0-.25.142l-.63,1.509a.2.2,0,0,0,.142.249.208.208,0,0,0,.25-.142l.629-1.508a.2.2,0,0,0-.142-.25" transform="translate(-82.106 -10.658)" fill="#fff"/>
        <path id="Trazado_214279" data-name="Trazado 214279" d="M169.335,19.289a.207.207,0,0,0-.25.142l-.505,1.386a.2.2,0,0,0,.142.25.207.207,0,0,0,.249-.142l.505-1.386a.2.2,0,0,0-.142-.25" transform="translate(-81.787 -9.355)" fill="#fff"/>
        <path id="Trazado_214280" data-name="Trazado 214280" d="M208.445,219.876c-.024,0-.045-.012-.069-.016a3.592,3.592,0,0,0-1.08-.065c-.028,0-.057,0-.085.008,0-.093.008-.19.008-.284a4.559,4.559,0,0,0-.39-1.855,2.848,2.848,0,0,1,.926-.162,6.179,6.179,0,0,1,.864.057,4.705,4.705,0,0,0-.248,1.5,4.467,4.467,0,0,0,.073.816" transform="translate(-100.349 -105.527)" fill="#181723"/>
        <path id="Trazado_214281" data-name="Trazado 214281" d="M220.929,218.109a4.025,4.025,0,0,0,.5-2.216,3.54,3.54,0,0,1-2.614,5.926h-.021a1.788,1.788,0,0,1,.439-1.266,21.417,21.417,0,0,0,1.7-2.443" transform="translate(-106.145 -104.747)" fill="#2196f3"/>
        <path id="Trazado_214282" data-name="Trazado 214282" d="M216.215,213.728a3.16,3.16,0,0,1-.881,2.123,8.847,8.847,0,0,1-1.542,1.453,5.243,5.243,0,0,0-1.514,1.339,3.542,3.542,0,0,1,3.23-4.988,3.348,3.348,0,0,1,.706.073" transform="translate(-102.843 -103.661)" fill="#2196f3"/>
        <path id="Trazado_214283" data-name="Trazado 214283" d="M200.648,219a3.993,3.993,0,0,0,.5-2.216,3.54,3.54,0,0,1-2.618,5.926h-.016a1.77,1.77,0,0,1,.439-1.262,22.35,22.35,0,0,0,1.7-2.447" transform="translate(-96.307 -105.179)" fill="#2196f3"/>
        <path id="Trazado_214284" data-name="Trazado 214284" d="M195.929,214.618a3.168,3.168,0,0,1-.877,2.123,8.727,8.727,0,0,1-1.547,1.453A5.227,5.227,0,0,0,192,219.533a3.458,3.458,0,0,1-.313-1.449,3.54,3.54,0,0,1,3.539-3.539,3.346,3.346,0,0,1,.706.073" transform="translate(-93.001 -104.093)" fill="#2196f3"/>
        <path id="Trazado_214285" data-name="Trazado 214285" d="M235.246,239.654a4.313,4.313,0,0,1-.836,1.794,2.8,2.8,0,0,1-.333.324,3.785,3.785,0,0,1-1.222.666,4.959,4.959,0,0,1-4.745-.937,9.541,9.541,0,0,1-2.439-4.732q-.3-1.06-.588-2.119-.585-2.155-1.1-4.318-1.273-5.285-2.163-10.655l-.057.025a2.976,2.976,0,0,1-1.811.422q-.317.006-.633,0a6.194,6.194,0,0,1-1.2-.114,3.212,3.212,0,0,1-1.189-.5,4.642,4.642,0,0,0-.15-9.282,4.584,4.584,0,0,0-2.118.511l-.045-.085a1.027,1.027,0,0,1,0-.458,1.575,1.575,0,0,1,.848-1.023,4.148,4.148,0,0,1,1.8-.3,8.759,8.759,0,0,1,3.008.312,3.542,3.542,0,0,1,.9.45,6.518,6.518,0,0,1,1.762,2.253l8.17,14.4c.889,1.563,1.774,3.129,2.6,4.725a17.429,17.429,0,0,1,1.558,3.831,9.938,9.938,0,0,1-.028,4.8" transform="translate(-104.117 -101.342)" fill="#ffaec3"/>
        <path id="Trazado_214286" data-name="Trazado 214286" d="M204.3,199.285a2.622,2.622,0,0,1,1.177-.057,2.222,2.222,0,0,1,1.1.787,5.289,5.289,0,0,1,1.234,3.377l-.036.109a8.761,8.761,0,0,0-3.008-.312,4.148,4.148,0,0,0-1.8.3,1.578,1.578,0,0,0-.848,1.023,9.449,9.449,0,0,1-2.865,1.189,1.338,1.338,0,0,1-.836,0,.287.287,0,0,1-.183-.19.328.328,0,0,1,.029-.162,2.608,2.608,0,0,1,.6-.95,7.465,7.465,0,0,1-3.2.974,4.468,4.468,0,0,0-.982-.3c-.093-.321-.653-1.713-3.6-1.254a12.96,12.96,0,0,0-1.356.284l-.012-.045a2.366,2.366,0,0,1-.735-.767,1.122,1.122,0,0,1-.061-1.027,1.483,1.483,0,0,1,.455-.487c.864-.641,1.936-.942,2.837-1.531.657-.426,1.209-.99,1.83-1.465a7.967,7.967,0,0,1,10.253.479Z" transform="translate(-91.612 -95.651)" fill="#181723"/>
        <path id="Trazado_214287" data-name="Trazado 214287" d="M217.082,213.766a3.53,3.53,0,0,0-1.907-1.08,3.379,3.379,0,0,0-.706-.073,3.539,3.539,0,0,0-.02,7.079h.02a3.54,3.54,0,0,0,2.614-5.926m-7.009.885a4.655,4.655,0,0,1,2.277-2.63,4.591,4.591,0,0,1,2.119-.511,4.642,4.642,0,0,1,.15,9.282c-.049,0-.1,0-.15,0a4.632,4.632,0,0,1-3.917-2.151,4.537,4.537,0,0,1-.653-1.676,4.47,4.47,0,0,1-.073-.816,4.706,4.706,0,0,1,.248-1.5" transform="translate(-101.803 -102.62)" fill="#181723"/>
        <path id="Trazado_214288" data-name="Trazado 214288" d="M218.413,214.877a4.024,4.024,0,0,1-.5,2.216,21.46,21.46,0,0,1-1.7,2.443,1.787,1.787,0,0,0-.439,1.266,3.539,3.539,0,0,1-3.21-2.09,5.245,5.245,0,0,1,1.514-1.339,8.85,8.85,0,0,0,1.542-1.453,3.163,3.163,0,0,0,.881-2.123,3.531,3.531,0,0,1,1.907,1.08" transform="translate(-103.134 -103.73)" fill="#00bcd2"/>
        <path id="Trazado_214289" data-name="Trazado 214289" d="M210.046,228.126a7.986,7.986,0,0,1-2.772,5.37c-.166.142-.337.272-.515.4a7.377,7.377,0,0,1-6.632.9,5.883,5.883,0,0,1-1.242-.617,5.258,5.258,0,0,1-.519-.39c-.15-.122-.3-.256-.438-.394a7.976,7.976,0,0,1-2.444-4.842,4.1,4.1,0,0,0,1.884-.572v-.008a4.6,4.6,0,0,0,2.808-1.189,2.114,2.114,0,0,0,3.369-1.384l.048-.028a4.633,4.633,0,0,0,3.917,2.151c.048,0,.1,0,.15,0a3.2,3.2,0,0,0,1.189.5,6.194,6.194,0,0,0,1.2.114" transform="translate(-94.844 -109.345)" fill="#ffaec3"/>
        <path id="Trazado_214290" data-name="Trazado 214290" d="M210.845,242.281l.678,2.529s-.844,4.12-4.907,4.091a5.315,5.315,0,0,1-4.091-1.949c.2.012,6.291.3,8.321-4.671" transform="translate(-98.26 -117.55)" fill="#ffaec3"/>
        <path id="Trazado_214291" data-name="Trazado 214291" d="M209.44,241.154l.154.58c-2.029,4.976-8.122,4.684-8.321,4.672a7.353,7.353,0,0,1-1.327-2.257l.584-2.7a5.164,5.164,0,0,0,.519.389,5.918,5.918,0,0,0,1.242.617,7.38,7.38,0,0,0,6.632-.9c.179-.126.349-.256.515-.4" transform="translate(-97.01 -117.003)" fill="#181723"/>
        <path id="Trazado_214292" data-name="Trazado 214292" d="M209.479,233.569a2.578,2.578,0,0,1-2.9,2.638,2.627,2.627,0,0,1-2.894-2.638Z" transform="translate(-98.823 -113.323)" fill="#fff"/>
        <path id="Trazado_214293" data-name="Trazado 214293" d="M208.56,211.8l.045.085a4.652,4.652,0,0,0-2.277,2.63,6.184,6.184,0,0,0-.864-.057,2.848,2.848,0,0,0-.926.162,4.651,4.651,0,0,0-2.431-2.415,7.456,7.456,0,0,0,3.2-.974,2.626,2.626,0,0,0-.6.95.33.33,0,0,0-.028.162.286.286,0,0,0,.183.191,1.338,1.338,0,0,0,.836,0,9.441,9.441,0,0,0,2.865-1.189,1.029,1.029,0,0,0,0,.459" transform="translate(-98.058 -102.486)" fill="#ffaec3"/>
        <path id="Trazado_214294" data-name="Trazado 214294" d="M208.015,223.7l-.049.028a2.113,2.113,0,0,1-3.368,1.384,4.612,4.612,0,0,0,1.53-3.162c.028,0,.057,0,.085-.008a3.592,3.592,0,0,1,1.08.065c.024,0,.044.012.069.016a4.533,4.533,0,0,0,.653,1.676" transform="translate(-99.267 -107.675)" fill="#ef89a9"/>
        <path id="Trazado_214295" data-name="Trazado 214295" d="M196.8,214.657a3.52,3.52,0,0,0-1.912-1.08,3.351,3.351,0,0,0-.706-.073,3.54,3.54,0,0,0-3.539,3.539,3.465,3.465,0,0,0,.312,1.449,3.534,3.534,0,0,0,3.21,2.091h.016a3.54,3.54,0,0,0,2.618-5.926m1.64.532a4.559,4.559,0,0,1,.39,1.855c0,.093,0,.19-.008.284a4.662,4.662,0,0,1-4.339,4.351c-.1,0-.2.008-.3.008a4.643,4.643,0,0,1,0-9.286,4.658,4.658,0,0,1,1.827.373,4.653,4.653,0,0,1,2.431,2.415" transform="translate(-91.961 -103.053)" fill="#181723"/>
        <path id="Trazado_214296" data-name="Trazado 214296" d="M198.136,215.768a3.993,3.993,0,0,1-.5,2.216,22.4,22.4,0,0,1-1.7,2.447,1.771,1.771,0,0,0-.439,1.262,3.533,3.533,0,0,1-3.21-2.09,5.229,5.229,0,0,1,1.51-1.339,8.728,8.728,0,0,0,1.547-1.453,3.17,3.17,0,0,0,.877-2.123,3.52,3.52,0,0,1,1.912,1.08" transform="translate(-93.296 -104.162)" fill="#00bcd2"/>
        <path id="Trazado_214297" data-name="Trazado 214297" d="M182.131,220.491c.1,0,.2,0,.3-.008v.008a4.092,4.092,0,0,1-1.883.572c-.073.008-.142.012-.211.02a27.622,27.622,0,0,1-2.955.126q-.834,4.694-1.676,9.388-.39,2.168-.771,4.335c-.138.763-.276,1.522-.41,2.285a18.841,18.841,0,0,1-.978,3.864,5.013,5.013,0,0,1-2.988,3.089,4.7,4.7,0,0,1-3.965-.974c-.106-.073-.207-.15-.3-.232a4.571,4.571,0,0,1-1.213-1.416,5.533,5.533,0,0,1,.11-4.209,46.445,46.445,0,0,1,2.135-5.037q3.829-8.109,7.659-16.215l1.238-4.781s.162-.544,1.806-.995a13,13,0,0,1,1.356-.284c2.943-.459,3.5.934,3.6,1.254a4.462,4.462,0,0,0-.844-.077,4.643,4.643,0,1,0,0,9.286" transform="translate(-79.909 -101.856)" fill="#ffaec3"/>
        <path id="Trazado_214298" data-name="Trazado 214298" d="M191.077,347.281c-.333-.577-.662-1.149-.986-1.729,1.867.71,3.9,1.457,5.89,2.171a.724.724,0,0,1-.333.337,1.567,1.567,0,0,1-.917.037,10.5,10.5,0,0,1-1.4-.345.505.505,0,0,0-.187-.029c-.223.041-.2.361-.292.568a.63.63,0,0,1-.869.211,1.822,1.822,0,0,1-.637-.755c-.089-.154-.178-.312-.264-.467" transform="translate(-92.228 -167.655)" fill="#cfa421"/>
        <path id="Trazado_214299" data-name="Trazado 214299" d="M261.857,338.863c1.579.9,2.256,7.022,1.3,10.1a1.839,1.839,0,0,1-1,1.1,11.246,11.246,0,0,1-1.778-1.843,3.867,3.867,0,0,1-.8-2.407,6.289,6.289,0,0,1,.657-2.114,10.726,10.726,0,0,0,1.137-5,1.963,1.963,0,0,1,.479.17" transform="translate(-125.942 -164.327)" fill="#fff"/>
        <path id="Trazado_214300" data-name="Trazado 214300" d="M170.522,337.18a4.884,4.884,0,0,1,.593,3.454,7.107,7.107,0,0,1-1.344,2.443c-.349.471-.706.942-1.063,1.413a2.58,2.58,0,0,1-.3-.106,3.164,3.164,0,0,1-1.627-1.855,7.813,7.813,0,0,1-.377-2.5,29.2,29.2,0,0,1,.54-6.433c.719.6,1.461,1.165,2.192,1.669a10.815,10.815,0,0,1,1.384,1.911" transform="translate(-80.732 -161.856)" fill="#fff"/>
        <path id="Trazado_214301" data-name="Trazado 214301" d="M239.465,337.572a35.028,35.028,0,0,1,5.5.507,10.722,10.722,0,0,1-1.137,5,6.292,6.292,0,0,0-.657,2.115,3.866,3.866,0,0,0,.8,2.407,11.225,11.225,0,0,0,1.778,1.843c-2.614,1.311-9.27-.418-12.542-1.887a35.046,35.046,0,0,0-7.452-2.37,67.716,67.716,0,0,0,4.729-7.756s4.8-.028,8.986.142" transform="translate(-109.529 -163.713)" fill="#181723"/>
        <path id="Trazado_214302" data-name="Trazado 214302" d="M234.96,314.863a8.472,8.472,0,0,1-4.205,8.572c-4.189-.17-8.986-.142-8.986-.142a1.743,1.743,0,0,0,.239-.986c-.422-1.128-2.427.228-2.427.228a1.34,1.34,0,0,0-.731-1.469c-.962-.479-1.413.678-1.413.678s-3.848-2.143-9.64-5.589q3.483-1.942,7.1-3.62c2.22-1.035,4.481-2,6.766-2.886a21.956,21.956,0,0,1,3.657-1.153,9.393,9.393,0,0,1,2.59-.179,8.068,8.068,0,0,1,7.05,6.547" transform="translate(-100.82 -149.576)" fill="#d8ab26"/>
        <path id="Trazado_214303" data-name="Trazado 214303" d="M180.669,328.3c-1.989-.715-4.022-1.461-5.89-2.172a69.588,69.588,0,0,1-6.8-2.853c-.8-.434-1.713-.986-2.659-1.632-.731-.5-1.473-1.063-2.192-1.668-3.251-2.74-5.918-6.437-3.9-10.07,2.188-3.929,4.623-5.414,9.526-3.645a34.954,34.954,0,0,1,5.719,2.829.043.043,0,0,1,.02.012c.426.256.869.524,1.324.8,2.934,1.818,5.67,3.475,8.073,4.9,5.792,3.446,9.64,5.589,9.64,5.589s.45-1.157,1.413-.678a1.34,1.34,0,0,1,.731,1.469s2-1.355,2.427-.227a1.748,1.748,0,0,1-.239.986,67.756,67.756,0,0,1-4.729,7.756c-.937,1.388-1.631,2.37-1.631,2.37s-5.227-1.762-10.837-3.775" transform="translate(-76.917 -148.235)" fill="#feca2e"/>
        <path id="Trazado_214304" data-name="Trazado 214304" d="M189.547,312.479a31.665,31.665,0,0,0,16.495,2.086q-3.616,1.68-7.1,3.621c-2.4-1.429-5.138-3.085-8.073-4.9-.455-.28-.9-.548-1.323-.8" transform="translate(-91.964 -151.608)" fill="#cfa421"/>
        <path id="Trazado_214305" data-name="Trazado 214305" d="M180.773,341.325c.325.58.653,1.153.986,1.729a45.812,45.812,0,0,1-8.284,2.865,5.127,5.127,0,0,1-2.59.142c.357-.471.714-.942,1.063-1.413a7.12,7.12,0,0,0,1.344-2.443,4.884,4.884,0,0,0-.593-3.454,10.8,10.8,0,0,0-1.384-1.912c.945.646,1.863,1.2,2.658,1.632a69.694,69.694,0,0,0,6.8,2.853" transform="translate(-82.91 -163.428)" fill="#181723"/>
        <path id="Trazado_214306" data-name="Trazado 214306" d="M243.565,266.063l.325.126a3.817,3.817,0,0,1-2.119,1.973,6.9,6.9,0,0,1-2.918.41,5.449,5.449,0,0,1-3.544-1.254,2.847,2.847,0,0,1-.41-.471,5.49,5.49,0,0,1-.747-3.158,24.237,24.237,0,0,1,.418-4.749c.191.706.386,1.412.588,2.118a9.537,9.537,0,0,0,2.44,4.733,4.959,4.959,0,0,0,4.745.938,3.806,3.806,0,0,0,1.222-.666" transform="translate(-113.605 -125.632)" fill="#5aa537"/>
        <path id="Trazado_214307" data-name="Trazado 214307" d="M190.7,248.541a5.313,5.313,0,0,0,4.091,1.948c4.063.028,4.907-4.091,4.907-4.091s1.36-.86,1.952-.706.731,1.3.731,1.3l3.921,1.137c.345,1.445.71,2.881,1.1,4.318a24.242,24.242,0,0,0-.418,4.749,5.488,5.488,0,0,0,.747,3.158,2.853,2.853,0,0,0,.41.471l-.065.073,1.019,13.99s2.281,1.413.787,1.863c0,0,1.3-.024,1.015,1.1l.041.2a21.97,21.97,0,0,0-3.657,1.153q-3.428,1.333-6.766,2.886a31.664,31.664,0,0,1-16.495-2.086A.058.058,0,0,0,184,280a35,35,0,0,0-5.719-2.829c-.544-.881.857-1.319.857-1.319-.252-1.758,1.3-1.636,1.3-1.636l1.745-12.639-.9.394a3.759,3.759,0,0,0,.954-.958,5.573,5.573,0,0,0,.637-3.673,15.741,15.741,0,0,0-1.409-5.122q.384-2.168.771-4.335l5.118-1.4s-1.072-1.948,2.021-.2a7.353,7.353,0,0,0,1.327,2.256" transform="translate(-86.437 -119.139)" fill="#a7e446"/>
        <path id="Trazado_214308" data-name="Trazado 214308" d="M178.128,263.613a5.573,5.573,0,0,1-.637,3.673,3.757,3.757,0,0,1-.953.958,8.206,8.206,0,0,1-2.59,1.12,6.766,6.766,0,0,1-1.924.317,3.959,3.959,0,0,1-3.645-2.926,4.7,4.7,0,0,0,3.965.974,5.011,5.011,0,0,0,2.988-3.088,18.806,18.806,0,0,0,.978-3.864c.134-.763.272-1.522.41-2.285a15.74,15.74,0,0,1,1.409,5.122" transform="translate(-81.694 -125.414)" fill="#5aa537"/>
        <path id="Trazado_214309" data-name="Trazado 214309" d="M198.668,252.745a.706.706,0,0,0-.28-.364l-2.03-1.5a.613.613,0,0,0-.469-.061.609.609,0,0,0-.425.749.707.707,0,0,0,.28.363l2.031,1.5a.612.612,0,0,0,.469.061.623.623,0,0,0,.364-.28.615.615,0,0,0,.061-.469" transform="translate(-94.823 -121.681)" fill="#5aa537"/>
        <path id="Trazado_214310" data-name="Trazado 214310" d="M190.691,255.12a.619.619,0,0,0-.833.218l-1.369,2.4a.609.609,0,1,0,1.051.614l1.369-2.4a.617.617,0,0,0-.218-.833" transform="translate(-91.413 -123.742)" fill="#5aa537"/>
        <path id="Trazado_214311" data-name="Trazado 214311" d="M200.179,262.917l-2.984-2.42a.623.623,0,0,0-.861,0,.615.615,0,0,0,0,.861l2.984,2.419a.623.623,0,0,0,.861,0,.616.616,0,0,0,0-.861" transform="translate(-95.171 -126.304)" fill="#5aa537"/>
        <path id="Trazado_214312" data-name="Trazado 214312" d="M193.025,269.377a.622.622,0,0,0-.749.425l-.751,2.482a.615.615,0,0,0,.425.749.621.621,0,0,0,.749-.425l.752-2.483a.615.615,0,0,0-.425-.749" transform="translate(-92.913 -130.688)" fill="#5aa537"/>
        <path id="Trazado_214313" data-name="Trazado 214313" d="M189.273,280.745a.621.621,0,0,0-.609.609q-.037,1.241-.075,2.482a.614.614,0,0,0,.609.609.622.622,0,0,0,.609-.609q.037-1.241.075-2.482a.615.615,0,0,0-.609-.609" transform="translate(-91.5 -136.212)" fill="#5aa537"/>
        <path id="Trazado_214314" data-name="Trazado 214314" d="M203.673,277.639a.624.624,0,0,0-.749-.425l-2.631.535a.612.612,0,0,0-.425.749.624.624,0,0,0,.749.425l2.631-.535a.613.613,0,0,0,.425-.749" transform="translate(-96.96 -134.491)" fill="#5aa537"/>
        <path id="Trazado_214315" data-name="Trazado 214315" d="M211.938,269.207q-.192-1.24-.384-2.481a.607.607,0,0,0-.28-.364.62.62,0,0,0-.469-.061.614.614,0,0,0-.364.28.7.7,0,0,0-.061.469l.383,2.481a.612.612,0,0,0,.28.364.609.609,0,0,0,.833-.219.706.706,0,0,0,.061-.469" transform="translate(-102.066 -129.193)" fill="#5aa537"/>
        <path id="Trazado_214316" data-name="Trazado 214316" d="M214.692,258.9a.62.62,0,0,0-.749-.425l-2.409.673a.609.609,0,1,0,.324,1.174l2.409-.672a.618.618,0,0,0,.425-.749" transform="translate(-102.413 -125.395)" fill="#5aa537"/>
        <path id="Trazado_214317" data-name="Trazado 214317" d="M225.043,254.777l-1.521-2.221a.609.609,0,0,0-1.052.614l1.521,2.222a.609.609,0,0,0,1.051-.615" transform="translate(-107.896 -122.387)" fill="#5aa537"/>
        <path id="Trazado_214318" data-name="Trazado 214318" d="M228.992,264.27l-1.5-.978a.614.614,0,0,0-.833.218.623.623,0,0,0,.218.833l1.5.978a.614.614,0,0,0,.833-.218.622.622,0,0,0-.218-.833" transform="translate(-109.93 -127.703)" fill="#5aa537"/>
        <path id="Trazado_214319" data-name="Trazado 214319" d="M219.6,268.342a.626.626,0,0,0-.749.425l-1.039,2.76a.611.611,0,0,0,.425.749.625.625,0,0,0,.749-.425l1.039-2.76a.612.612,0,0,0-.425-.749" transform="translate(-105.665 -130.185)" fill="#5aa537"/>
        <path id="Trazado_214320" data-name="Trazado 214320" d="M228.811,276.3l-2.027-1.21a.609.609,0,1,0-.614,1.051l2.027,1.21a.609.609,0,1,0,.615-1.051" transform="translate(-109.589 -133.427)" fill="#5aa537"/>
        <path id="Trazado_214321" data-name="Trazado 214321" d="M222.335,281.483a.621.621,0,0,0-.749.425l-.58,2.112a.609.609,0,1,0,1.174.324q.29-1.056.58-2.112a.616.616,0,0,0-.425-.749" transform="translate(-107.218 -136.562)" fill="#5aa537"/>
        <path id="Trazado_214322" data-name="Trazado 214322" d="M213.373,285.788l-.856-2.095a.664.664,0,0,0-.28-.363.608.608,0,0,0-.833.218.59.59,0,0,0-.061.469l.856,2.095a.672.672,0,0,0,.28.364.609.609,0,0,0,.833-.219.588.588,0,0,0,.061-.469" transform="translate(-102.526 -137.425)" fill="#5aa537"/>
        <path id="Trazado_214323" data-name="Trazado 214323" d="M201.721,287.92l-2.039-.575a.609.609,0,1,0-.324,1.174l2.039.575a.609.609,0,0,0,.324-1.174" transform="translate(-96.51 -139.404)" fill="#5aa537"/>
        <path id="Trazado_214324" data-name="Trazado 214324" d="M193.986,292.612a.62.62,0,0,0-.749.425l-.68,2.557a.609.609,0,0,0,1.174.324l.68-2.557a.617.617,0,0,0-.425-.749" transform="translate(-93.416 -141.961)" fill="#5aa537"/>
        <path id="Trazado_214325" data-name="Trazado 214325" d="M187.345,304.161l-1.159-2.354a.613.613,0,0,0-.833-.218.624.624,0,0,0-.218.833l1.159,2.354a.613.613,0,0,0,.833.218.624.624,0,0,0,.218-.833" transform="translate(-89.787 -146.285)" fill="#5aa537"/>
        <path id="Trazado_214326" data-name="Trazado 214326" d="M205.478,296.388a.618.618,0,0,0-.833-.218l-2.181,1.354a.609.609,0,0,0,.615,1.051l2.181-1.354a.618.618,0,0,0,.218-.833" transform="translate(-98.084 -143.655)" fill="#5aa537"/>
        <path id="Trazado_214327" data-name="Trazado 214327" d="M202.247,308.609l-.711-1.821a.66.66,0,0,0-.28-.364.623.623,0,0,0-.47-.061.615.615,0,0,0-.363.28.592.592,0,0,0-.061.469l.71,1.821a.665.665,0,0,0,.28.364.609.609,0,0,0,.833-.219.592.592,0,0,0,.061-.469" transform="translate(-97.199 -148.63)" fill="#5aa537"/>
        <path id="Trazado_214328" data-name="Trazado 214328" d="M216.662,294.9a.615.615,0,0,0-.833-.218l-2.4,1.744a.662.662,0,0,0-.28.364.609.609,0,0,0,.894.688l2.4-1.744a.66.66,0,0,0,.28-.364.622.622,0,0,0-.061-.469" transform="translate(-103.407 -142.932)" fill="#5aa537"/>
        <path id="Trazado_214329" data-name="Trazado 214329" d="M217.706,306.68l-1.28-1.8a.655.655,0,0,0-.364-.28.609.609,0,0,0-.687.895l1.28,1.8a.657.657,0,0,0,.363.28.623.623,0,0,0,.47-.061.616.616,0,0,0,.218-.833" transform="translate(-104.452 -147.774)" fill="#5aa537"/>
        <path id="Trazado_214330" data-name="Trazado 214330" d="M227.253,291.984a.622.622,0,0,0-.861,0l-2.5,2.24a.613.613,0,0,0,0,.861.622.622,0,0,0,.861,0l2.5-2.241a.613.613,0,0,0,0-.861" transform="translate(-108.544 -141.581)" fill="#5aa537"/>
        <path id="Trazado_214331" data-name="Trazado 214331" d="M232.721,298.255a.7.7,0,0,0-.364-.28l-2.105-.83a.612.612,0,0,0-.469.062.609.609,0,0,0-.218.833.7.7,0,0,0,.364.28l2.105.829a.612.612,0,0,0,.47-.061.609.609,0,0,0,.218-.833" transform="translate(-111.341 -144.157)" fill="#5aa537"/>
        <path id="Trazado_214332" data-name="Trazado 214332" d="M227.542,304.616a.624.624,0,0,0-.28-.364.616.616,0,0,0-.833.218l-1.1,2.462a.664.664,0,0,0-.062.47.609.609,0,0,0,1.113.145l1.1-2.462a.66.66,0,0,0,.061-.469" transform="translate(-109.286 -147.581)" fill="#5aa537"/>
        <path id="Trazado_214333" data-name="Trazado 214333" d="M233.48,286.172l-1.228-2.358a.613.613,0,0,0-.833-.218.623.623,0,0,0-.218.833l1.228,2.358a.614.614,0,0,0,.833.218.623.623,0,0,0,.218-.833" transform="translate(-112.136 -137.554)" fill="#5aa537"/>
        <path id="Trazado_214334" data-name="Trazado 214334" d="M210.653,308.081a.617.617,0,0,0-.861,0l-2.15,2.36a.609.609,0,0,0,.861.861l2.15-2.361a.618.618,0,0,0,0-.861" transform="translate(-100.659 -149.39)" fill="#5aa537"/>
        <path id="Trazado_214335" data-name="Trazado 214335" d="M194.233,304.835a.619.619,0,0,0-.861,0l-2.02,2.042a.609.609,0,0,0,.861.861l2.02-2.042a.617.617,0,0,0,0-.861" transform="translate(-92.755 -147.815)" fill="#5aa537"/>
        <path id="Trazado_214336" data-name="Trazado 214336" d="M187.572,293l-1.493-2.039a.66.66,0,0,0-.364-.28.622.622,0,0,0-.469.061.615.615,0,0,0-.218.833l1.493,2.039a.659.659,0,0,0,.363.28.622.622,0,0,0,.47-.061.615.615,0,0,0,.218-.833" transform="translate(-89.728 -141.024)" fill="#5aa537"/>
        <path id="Trazado_214337" data-name="Trazado 214337" d="M202.03,269.445a.625.625,0,0,0-.833-.218l-2.553,1.213a.612.612,0,0,0-.218.833.625.625,0,0,0,.833.218l2.553-1.213a.612.612,0,0,0,.218-.833" transform="translate(-96.232 -130.587)" fill="#5aa537"/>
        <path id="Trazado_214338" data-name="Trazado 214338" d="M206.3,259.824l-.892-2.036a.61.61,0,0,0-.364-.28.622.622,0,0,0-.469.062.613.613,0,0,0-.28.363.711.711,0,0,0,.061.47l.892,2.036a.61.61,0,0,0,.363.28.623.623,0,0,0,.469-.061.616.616,0,0,0,.28-.364.706.706,0,0,0-.061-.469" transform="translate(-99.114 -124.928)" fill="#5aa537"/>
      </g>
    </g>
    <g id="Trazado_214942" data-name="Trazado 214942" transform="translate(7283 -11281.871)" fill="none">
      <path d="M214.5,0C332.965,0,429,96.035,429,214.5S332.965,429,214.5,429,0,332.965,0,214.5,96.035,0,214.5,0Z" stroke="none"/>
      <path d="M 214.5 4 C 200.2152252197266 4 185.9406127929688 5.43890380859375 172.0726623535156 8.27667236328125 C 158.5592346191406 11.04193115234375 145.2669372558594 15.16806030273438 132.5651245117188 20.54049682617188 C 120.0929870605469 25.81576538085938 108.0633239746094 32.34527587890625 96.81021118164062 39.94772338867188 C 85.66305541992188 47.47860717773438 75.1805419921875 56.12750244140625 65.654052734375 65.654052734375 C 56.12750244140625 75.1805419921875 47.47860717773438 85.66305541992188 39.94772338867188 96.81021118164062 C 32.34527587890625 108.0633239746094 25.81576538085938 120.0929870605469 20.54049682617188 132.5651245117188 C 15.16806030273438 145.2669372558594 11.04193115234375 158.5592346191406 8.27667236328125 172.0726623535156 C 5.43890380859375 185.9406127929688 4 200.2152252197266 4 214.5 C 4 228.7847747802734 5.43890380859375 243.0593872070312 8.27667236328125 256.9273376464844 C 11.04193115234375 270.4407958984375 15.16806030273438 283.7330627441406 20.54049682617188 296.4348754882812 C 25.81576538085938 308.906982421875 32.34527587890625 320.9366760253906 39.94772338867188 332.1897888183594 C 47.47860717773438 343.3369445800781 56.12750244140625 353.8194580078125 65.654052734375 363.345947265625 C 75.1805419921875 372.8724975585938 85.66305541992188 381.5213928222656 96.81021118164062 389.0522766113281 C 108.0633239746094 396.6547241210938 120.0929870605469 403.1842346191406 132.5651245117188 408.4595031738281 C 145.2669372558594 413.8319396972656 158.5592346191406 417.9580688476562 172.0726623535156 420.7233276367188 C 185.9406127929688 423.5610961914062 200.2152252197266 425 214.5 425 C 228.7847747802734 425 243.0593872070312 423.5610961914062 256.9273376464844 420.7233276367188 C 270.4407958984375 417.9580688476562 283.7330627441406 413.8319396972656 296.4348754882812 408.4595031738281 C 308.906982421875 403.1842346191406 320.9366760253906 396.6547241210938 332.1897888183594 389.0522766113281 C 343.3369445800781 381.5213928222656 353.8194580078125 372.8724975585938 363.345947265625 363.345947265625 C 372.8724975585938 353.8194580078125 381.5213928222656 343.3369445800781 389.0522766113281 332.1897888183594 C 396.6547241210938 320.9366760253906 403.1842346191406 308.906982421875 408.4595031738281 296.4348754882812 C 413.8319396972656 283.7330627441406 417.9580688476562 270.4407958984375 420.7233276367188 256.9273376464844 C 423.5610961914062 243.0593872070312 425 228.7847747802734 425 214.5 C 425 200.2152252197266 423.5610961914062 185.9406127929688 420.7233276367188 172.0726623535156 C 417.9580688476562 158.5592346191406 413.8319396972656 145.2669372558594 408.4595031738281 132.5651245117188 C 403.1842346191406 120.0929870605469 396.6547241210938 108.0633239746094 389.0522766113281 96.81021118164062 C 381.5213928222656 85.66305541992188 372.8724975585938 75.1805419921875 363.345947265625 65.654052734375 C 353.8194580078125 56.12750244140625 343.3369445800781 47.47860717773438 332.1897888183594 39.94772338867188 C 320.9366760253906 32.34527587890625 308.906982421875 25.81576538085938 296.4348754882812 20.54049682617188 C 283.7330627441406 15.16806030273438 270.4407958984375 11.04193115234375 256.9273376464844 8.27667236328125 C 243.0593872070312 5.43890380859375 228.7847747802734 4 214.5 4 M 214.5 0 C 332.9650573730469 0 429 96.03494262695312 429 214.5 C 429 332.9650573730469 332.9650573730469 429 214.5 429 C 96.03494262695312 429 0 332.9650573730469 0 214.5 C 0 96.03494262695312 96.03494262695312 0 214.5 0 Z" stroke="none" fill="#feca2e"/>
    </g>
    <path id="Trazado_191018" data-name="Trazado 191018" d="M375.059,235.526a31.512,31.512,0,1,0-31.513-31.513,31.513,31.513,0,0,0,31.513,31.513" transform="translate(7333.834 -11270.559)" fill="#feca2e"/>
    <path id="Trazado_191026" data-name="Trazado 191026" d="M116.113,15.744a31.512,31.512,0,1,0,31.513,31.513,31.513,31.513,0,0,0-31.513-31.513" transform="translate(7273.646 -11298.86)" fill="#feca2e"/>
    <g id="Grupo_971928" data-name="Grupo 971928" transform="translate(6696.959 -12382.871)">
      <path id="Trazado_191016" data-name="Trazado 191016" d="M303.538,402.715A31.512,31.512,0,1,0,272.025,371.2a31.513,31.513,0,0,0,31.513,31.513" transform="translate(607.156 1130.074)" fill="#feca2e"/>
    </g>
    <g id="Grupo_971929" data-name="Grupo 971929" transform="translate(6696.959 -12382.871)">
      <path id="Trazado_191022" data-name="Trazado 191022" d="M116.113,339.69A31.512,31.512,0,1,0,147.626,371.2a31.513,31.513,0,0,0-31.513-31.513" transform="translate(576.928 1130.31)" fill="#feca2e"/>
    </g>
    <g id="Grupo_971930" data-name="Grupo 971930" transform="translate(6696.959 -12382.871)">
      <path id="Trazado_191024" data-name="Trazado 191024" d="M47.3,177.471A31.513,31.513,0,1,0,78.81,208.984,31.513,31.513,0,0,0,47.3,177.471" transform="translate(539.335 1106.988)" fill="#feca2e"/>
    </g>
    <g id="Grupo_971927" data-name="Grupo 971927" transform="translate(6696.959 -12382.871)">
      <path id="Trazado_191020" data-name="Trazado 191020" d="M303.538,78.769a31.512,31.512,0,1,0-31.513-31.513,31.513,31.513,0,0,0,31.513,31.513" transform="translate(603.156 1084.011)" fill="#feca2e"/>
    </g>
  </g>
</svg>
