<svg xmlns="http://www.w3.org/2000/svg" xmlns:xlink="http://www.w3.org/1999/xlink" width="40" height="40" viewBox="0 0 40 40">
  <defs>
    <clipPath id="clip-path">
      <rect id="Rect치ngulo_341272" data-name="Rect치ngulo 341272" width="34.734" height="40" fill="none"/>
    </clipPath>
  </defs>
  <g id="Grupo_971762" data-name="Grupo 971762" transform="translate(1185 11189)">
    <rect id="Rect치ngulo_341253" data-name="Rect치ngulo 341253" width="40" height="40" transform="translate(-1185 -11189)" fill="none"/>
    <g id="Grupo_971761" data-name="Grupo 971761" transform="translate(-1182.337 -11189)">
      <g id="Grupo_971760" data-name="Grupo 971760" clip-path="url(#clip-path)">
        <path id="Trazado_214659" data-name="Trazado 214659" d="M157.11,410.143a3.161,3.161,0,0,1-1.965.693,3.11,3.11,0,0,1-1.965-.693,5.2,5.2,0,0,0-3.225,4.806v1.417h10.387v-1.417a5.191,5.191,0,0,0-3.231-4.806" transform="translate(-137.778 -376.839)" fill="#ee6a51"/>
        <path id="Trazado_214660" data-name="Trazado 214660" d="M158.149,417.357a1.259,1.259,0,0,1,.095.164,2.98,2.98,0,0,1-2.753,4.214h-5.537v1.26h10.387v-1.417A5.175,5.175,0,0,0,158.149,417.357Z" transform="translate(-137.778 -383.467)" fill="#e1533b"/>
        <path id="Trazado_214661" data-name="Trazado 214661" d="M301.246,353.668a3.161,3.161,0,0,1-1.965.693,3.111,3.111,0,0,1-1.965-.693,5.2,5.2,0,0,0-3.225,4.806v1.417h10.387v-1.417a5.2,5.2,0,0,0-3.231-4.806" transform="translate(-270.21 -324.95)" fill="#f8ce01"/>
        <path id="Trazado_214662" data-name="Trazado 214662" d="M302.214,360.96a1.255,1.255,0,0,1,.095.164,2.98,2.98,0,0,1-2.759,4.208h-5.537v1.26H304.4v-1.417a5.166,5.166,0,0,0-2.186-4.214" transform="translate(-270.138 -331.65)" fill="#f4b601"/>
        <path id="Trazado_214663" data-name="Trazado 214663" d="M42.1,5.818A15.181,15.181,0,1,1,26.918,21,15.181,15.181,0,0,1,42.1,5.818" transform="translate(-24.732 -5.346)" fill="#8c9ffa"/>
        <path id="Trazado_214664" data-name="Trazado 214664" d="M82.845,40.572A15.179,15.179,0,0,1,61.673,61.744,15.18,15.18,0,1,0,82.845,40.572Z" transform="translate(-56.665 -37.278)" fill="#6e7fed"/>
        <path id="Trazado_214665" data-name="Trazado 214665" d="M178.167,340.945a3.156,3.156,0,1,1-3.156,3.156,3.156,3.156,0,0,1,3.156-3.156" transform="translate(-160.8 -313.26)" fill="#d7e6ef"/>
        <path id="Trazado_214666" data-name="Trazado 214666" d="M322.3,284.47a3.156,3.156,0,1,1-3.156,3.156,3.156,3.156,0,0,1,3.156-3.156" transform="translate(-293.232 -261.371)" fill="#d7e6ef"/>
        <path id="Trazado_214667" data-name="Trazado 214667" d="M34.032,284.47a3.156,3.156,0,1,1-3.156,3.156,3.156,3.156,0,0,1,3.156-3.156" transform="translate(-28.369 -261.371)" fill="#d7e6ef"/>
        <path id="Trazado_214668" data-name="Trazado 214668" d="M9.043,353.668a5.2,5.2,0,0,0-3.225,4.806v1.417H16.205v-1.417a5.2,5.2,0,0,0-3.225-4.806" transform="translate(-5.346 -324.95)" fill="#f8ce01"/>
        <path id="Trazado_214669" data-name="Trazado 214669" d="M14.013,360.96a1.258,1.258,0,0,1,.095.164,2.98,2.98,0,0,1-2.759,4.208H5.818v1.26H16.205v-1.417a5.155,5.155,0,0,0-2.192-4.214" transform="translate(-5.346 -331.65)" fill="#f4b601"/>
        <path id="Trazado_214670" data-name="Trazado 214670" d="M183.085,344.824a3.14,3.14,0,0,1-4.2,4.2,3.15,3.15,0,1,0,4.2-4.2Z" transform="translate(-164.364 -316.824)" fill="#bed3e3"/>
        <path id="Trazado_214671" data-name="Trazado 214671" d="M327.221,288.349a3.14,3.14,0,0,1-4.2,4.2,3.15,3.15,0,1,0,4.2-4.2Z" transform="translate(-296.796 -264.935)" fill="#bed3e3"/>
        <path id="Trazado_214672" data-name="Trazado 214672" d="M38.949,288.349a3.14,3.14,0,0,1-4.2,4.2,3.15,3.15,0,1,0,4.2-4.2" transform="translate(-31.932 -264.935)" fill="#bed3e3"/>
        <path id="Trazado_214673" data-name="Trazado 214673" d="M172.82,342.385a3.628,3.628,0,1,1,3.628-3.628,3.629,3.629,0,0,1-3.628,3.628m0-6.312a2.683,2.683,0,1,0,2.683,2.683A2.686,2.686,0,0,0,172.82,336.073Z" transform="translate(-155.453 -307.915)"/>
        <path id="Trazado_214674" data-name="Trazado 214674" d="M154.924,411.444H144.53a.476.476,0,0,1-.472-.472v-1.417a5.652,5.652,0,0,1,3.521-5.247.481.481,0,0,1,.617.258.475.475,0,0,1-.258.617A4.707,4.707,0,0,0,145,409.554v.945h9.449v-.945a4.714,4.714,0,0,0-2.935-4.372.473.473,0,1,1,.359-.876,5.645,5.645,0,0,1,3.521,5.247v1.417a.476.476,0,0,1-.472.472" transform="translate(-132.36 -371.444)"/>
        <path id="Trazado_214675" data-name="Trazado 214675" d="M316.956,285.909a3.628,3.628,0,1,1,3.628-3.628A3.629,3.629,0,0,1,316.956,285.909Zm0-6.312a2.683,2.683,0,1,0,2.683,2.683,2.686,2.686,0,0,0-2.683-2.683" transform="translate(-287.886 -256.025)"/>
        <path id="Trazado_214676" data-name="Trazado 214676" d="M299.054,354.969H288.667a.476.476,0,0,1-.473-.472v-1.417a5.652,5.652,0,0,1,3.521-5.247.473.473,0,1,1,.359.876,4.707,4.707,0,0,0-2.935,4.372v.945h9.442v-.945a4.714,4.714,0,0,0-2.935-4.372.473.473,0,1,1,.359-.876,5.645,5.645,0,0,1,3.521,5.247V354.5a.468.468,0,0,1-.472.472" transform="translate(-264.792 -319.555)"/>
        <path id="Trazado_214677" data-name="Trazado 214677" d="M28.685,285.909a3.628,3.628,0,1,1,3.628-3.628A3.629,3.629,0,0,1,28.685,285.909Zm0-6.312a2.683,2.683,0,1,0,2.683,2.683,2.686,2.686,0,0,0-2.683-2.683" transform="translate(-23.022 -256.025)"/>
        <path id="Trazado_214678" data-name="Trazado 214678" d="M10.86,354.989H.472A.476.476,0,0,1,0,354.516V353.1a5.652,5.652,0,0,1,3.521-5.247.475.475,0,0,1,.473.069,2.714,2.714,0,0,0,3.345,0,.475.475,0,0,1,.473-.069,5.655,5.655,0,0,1,3.521,5.247v1.417a.472.472,0,0,1-.472.472m-9.915-.945h9.443V353.1a4.706,4.706,0,0,0-2.7-4.265,3.68,3.68,0,0,1-4.057,0,4.706,4.706,0,0,0-2.7,4.265v.945Z" transform="translate(0 -319.575)"/>
        <path id="Trazado_214679" data-name="Trazado 214679" d="M97.632,48.774a15.642,15.642,0,0,1-10.1-3.71.471.471,0,0,1-.057-.668.477.477,0,0,1,.668-.057,14.677,14.677,0,0,0,18.986,0,.474.474,0,0,1,.611.724,15.642,15.642,0,0,1-10.1,3.71" transform="translate(-80.265 -40.635)"/>
        <path id="Trazado_214680" data-name="Trazado 214680" d="M208.53,28.158a.476.476,0,0,1-.472-.472V.473a.472.472,0,1,1,.945,0V27.685a.476.476,0,0,1-.472.472" transform="translate(-191.164)"/>
        <path id="Trazado_214681" data-name="Trazado 214681" d="M51.936,187.9H21.573a.472.472,0,0,1,0-.945H51.936a.472.472,0,0,1,0,.945" transform="translate(-19.388 -171.777)"/>
        <path id="Trazado_214682" data-name="Trazado 214682" d="M120.356,288.927a.452.452,0,0,1-.265-.082,14.634,14.634,0,0,0-16.567,0,.463.463,0,0,1-.655-.126.469.469,0,0,1,.126-.655,15.561,15.561,0,0,1,17.638,0,.474.474,0,0,1,.126.655A.5.5,0,0,1,120.356,288.927Z" transform="translate(-94.441 -262.155)"/>
        <path id="Trazado_214683" data-name="Trazado 214683" d="M121.249,30.23a.466.466,0,0,1-.378-.189.472.472,0,0,1,.088-.661c2.891-2.2,4.831-7.717,4.831-13.726,0-8.113-3.364-14.709-7.5-14.709s-7.5,6.6-7.5,14.709c0,6.009,1.94,11.528,4.832,13.726a.472.472,0,0,1-.573.75c-3.162-2.406-5.2-8.088-5.2-14.476,0-8.63,3.786-15.654,8.447-15.654s8.447,7.024,8.447,15.654c0,6.394-2.041,12.076-5.2,14.476A.464.464,0,0,1,121.249,30.23Z" transform="translate(-100.927)"/>
        <path id="Trazado_214684" data-name="Trazado 214684" d="M49.806,23.887a.422.422,0,0,1-.239-.069.472.472,0,0,1-.164-.649,14.712,14.712,0,1,0-25.291,0,.473.473,0,1,1-.813.485,15.654,15.654,0,1,1,26.91,0A.467.467,0,0,1,49.806,23.887Z" transform="translate(-19.387)"/>
        <path id="Trazado_214685" data-name="Trazado 214685" d="M247.048,340.991a.465.465,0,0,1-.46-.378.479.479,0,0,1,.365-.561,14.538,14.538,0,0,0,5.7-2.557.473.473,0,0,1,.561.762,15.5,15.5,0,0,1-6.066,2.721.3.3,0,0,1-.1.013" transform="translate(-226.556 -310.005)"/>
        <path id="Trazado_214686" data-name="Trazado 214686" d="M103.535,341.022a.245.245,0,0,1-.095-.013,15.5,15.5,0,0,1-6.066-2.721.473.473,0,0,1,.561-.762,14.63,14.63,0,0,0,5.7,2.557.466.466,0,0,1,.365.561.477.477,0,0,1-.466.378" transform="translate(-89.293 -310.036)"/>
      </g>
    </g>
  </g>
</svg>
