<svg xmlns="http://www.w3.org/2000/svg" xmlns:xlink="http://www.w3.org/1999/xlink" width="137" height="136" viewBox="0 0 137 136">
  <defs>
    <clipPath id="clip-path">
      <rect id="Rectángulo_340777" data-name="Rectángulo 340777" width="56.398" height="75.614" fill="none"/>
    </clipPath>
  </defs>
  <g id="Grupo_970869" data-name="Grupo 970869" transform="translate(-732 -1131)">
    <ellipse id="Elipse_5244" data-name="Elipse 5244" cx="68.5" cy="68" rx="68.5" ry="68" transform="translate(732 1131)" fill="#f6f6f6"/>
    <g id="Grupo_970857" data-name="Grupo 970857" transform="translate(772.273 1160.843)">
      <g id="Grupo_970856" data-name="Grupo 970856" clip-path="url(#clip-path)">
        <path id="Trazado_190583" data-name="Trazado 190583" d="M19.368,93.593H8v10.6H20.837l4.132,21.168H35.281l-4.132-21.168h11.59a35.115,35.115,0,0,1-4.378-10.6H29.676L25.765,70.885H15.457Z" transform="translate(-6.78 -60.079)" fill="#eee" fill-rule="evenodd"/>
        <path id="Trazado_190584" data-name="Trazado 190584" d="M8,70.885V93.593H19.368l-3.91-22.708Z" transform="translate(-6.78 -60.079)" fill="#25de57" fill-rule="evenodd"/>
        <path id="Trazado_190585" data-name="Trazado 190585" d="M124.54,70.885l3.91,22.708h8.685a22.34,22.34,0,0,1-.5-4.654,12.311,12.311,0,0,1,12.049-12.554,11.686,11.686,0,0,1,7.337,2.6v-8.1Z" transform="translate(-105.554 -60.079)" fill="#25de57" fill-rule="evenodd"/>
        <path id="Trazado_190586" data-name="Trazado 190586" d="M171.445,287.8h-11.59l4.132,21.168h21.965V287.518a72.933,72.933,0,0,1-7.337,10.188A73.3,73.3,0,0,1,171.445,287.8Z" transform="translate(-135.485 -243.686)" fill="#25de57" fill-rule="evenodd"/>
        <path id="Trazado_190587" data-name="Trazado 190587" d="M20.836,289.38H8v21.168H24.968Z" transform="translate(-6.779 -245.265)" fill="#25de57" fill-rule="evenodd"/>
        <path id="Trazado_190588" data-name="Trazado 190588" d="M52.947,8H12.3A4.309,4.309,0,0,0,8,12.3v5.288H57.246V12.3a4.309,4.309,0,0,0-4.3-4.3" transform="translate(-6.78 -6.78)" fill="#757575" fill-rule="evenodd"/>
        <path id="Trazado_190589" data-name="Trazado 190589" d="M215.925,106.968a12.311,12.311,0,0,0-12.049,12.554,22.341,22.341,0,0,0,.5,4.654,35.109,35.109,0,0,0,4.378,10.6,73.265,73.265,0,0,0,7.17,9.9,72.944,72.944,0,0,0,7.337-10.188c3.714-6.369,4.712-11.21,4.712-14.971a12.715,12.715,0,0,0-4.712-9.958,11.685,11.685,0,0,0-7.337-2.6M221.05,118.9a5.125,5.125,0,1,1-5.125-5.125,5.126,5.126,0,0,1,5.125,5.125" transform="translate(-172.796 -90.661)" fill="#ff335c" fill-rule="evenodd"/>
        <path id="Trazado_190590" data-name="Trazado 190590" d="M57.246,428.236H8v4.812a4.311,4.311,0,0,0,4.3,4.3H52.947a4.311,4.311,0,0,0,4.3-4.3Z" transform="translate(-6.78 -362.952)" fill="#757575" fill-rule="evenodd"/>
        <path id="Trazado_190591" data-name="Trazado 190591" d="M274.772,118.419c0,3.76-1,8.6-4.712,14.971a67.555,67.555,0,0,1-5.409,7.83q1.277,1.672,2.784,3.46a72.942,72.942,0,0,0,7.337-10.188c3.714-6.369,4.712-11.21,4.712-14.971a12.714,12.714,0,0,0-4.712-9.958,11.687,11.687,0,0,0-7.095-2.6,12.144,12.144,0,0,1,2.383,1.49A12.718,12.718,0,0,1,274.772,118.419Z" transform="translate(-224.305 -90.66)" fill="#eb1741" fill-rule="evenodd"/>
        <path id="Trazado_190592" data-name="Trazado 190592" d="M271.6,12.3v5.288h5.417V12.3a4.309,4.309,0,0,0-4.3-4.3h-5.417a4.309,4.309,0,0,1,4.3,4.3" transform="translate(-226.556 -6.78)" fill="#616161" fill-rule="evenodd"/>
        <path id="Trazado_190593" data-name="Trazado 190593" d="M300.921,70.885H295.5v5.659a11.708,11.708,0,0,1,5.417,2.437Z" transform="translate(-250.455 -60.079)" fill="#00c835" fill-rule="evenodd"/>
        <path id="Trazado_190594" data-name="Trazado 190594" d="M300.921,287.518a67.4,67.4,0,0,1-5.417,7.838V308.97h5.417Z" transform="translate(-250.455 -243.686)" fill="#00c835" fill-rule="evenodd"/>
        <path id="Trazado_190595" data-name="Trazado 190595" d="M277.022,428.236H271.6v4.812a4.311,4.311,0,0,1-4.3,4.3h5.417a4.311,4.311,0,0,0,4.3-4.3Z" transform="translate(-226.556 -362.952)" fill="#616161" fill-rule="evenodd"/>
        <path id="Trazado_190596" data-name="Trazado 190596" d="M162.244,449.938h-.217a1.22,1.22,0,1,0,0,2.439h.217a1.22,1.22,0,1,0,0-2.439" transform="translate(-136.293 -381.346)"/>
        <path id="Trazado_190597" data-name="Trazado 190597" d="M51.686,18.352V5.518A5.525,5.525,0,0,0,46.167,0H5.518A5.524,5.524,0,0,0,0,5.518V70.1a5.524,5.524,0,0,0,5.518,5.518h40.65A5.524,5.524,0,0,0,51.686,70.1V44.15C54.843,38.645,56.4,33.586,56.4,28.861a13.958,13.958,0,0,0-4.712-10.509M2.439,5.518A3.082,3.082,0,0,1,5.518,2.439h40.65a3.083,3.083,0,0,1,3.079,3.079V9.587H2.439ZM30.136,32.3H23.924l-3.49-20.269H49.247v4.625a12.791,12.791,0,0,0-6.118-1.564A13.543,13.543,0,0,0,29.861,28.861a22.9,22.9,0,0,0,.275,3.434M2.439,12.026H7.65L11.14,32.3h-8.7Zm0,22.708H12.588a1.219,1.219,0,0,0,1.2-1.427L10.125,12.026h7.833l3.736,21.7a1.219,1.219,0,0,0,1.2,1.012h7.722A35.917,35.917,0,0,0,33.88,42.9H24.37a1.22,1.22,0,0,0-1.2,1.453l3.848,19.715H19.194l-3.94-20.182a1.22,1.22,0,0,0-1.2-.986H2.439ZM49.247,64.064H29.506L25.85,45.335h9.429a76.146,76.146,0,0,0,6.918,9.47,1.218,1.218,0,0,0,1.864,0,83.424,83.424,0,0,0,5.186-6.781v16.04ZM13.052,45.335l3.656,18.728H2.439V45.335Zm33.115,27.84H5.518A3.082,3.082,0,0,1,2.439,70.1V66.5H49.247V70.1A3.083,3.083,0,0,1,46.167,73.175ZM43.129,52.111C35.845,43.217,32.3,35.6,32.3,28.861A11.1,11.1,0,0,1,43.129,17.527,11.1,11.1,0,0,1,53.958,28.861c0,6.74-3.545,14.356-10.829,23.25" transform="translate(0 0)"/>
        <path id="Trazado_190598" data-name="Trazado 190598" d="M247.637,143.621a6.344,6.344,0,1,0,6.344,6.344,6.351,6.351,0,0,0-6.344-6.344m0,10.25a3.905,3.905,0,1,1,3.905-3.905,3.91,3.91,0,0,1-3.905,3.905" transform="translate(-204.508 -121.726)"/>
        <path id="Trazado_190599" data-name="Trazado 190599" d="M146.478,35.263h4.958a1.22,1.22,0,0,0,0-2.439h-4.958a1.22,1.22,0,0,0,0,2.439Z" transform="translate(-123.114 -27.82)"/>
      </g>
    </g>
  </g>
</svg>
