<svg xmlns="http://www.w3.org/2000/svg" xmlns:xlink="http://www.w3.org/1999/xlink" width="80" height="80" viewBox="0 0 80 80">
  <defs>
    <clipPath id="clip-path">
      <rect id="Rect치ngulo_341034" data-name="Rect치ngulo 341034" width="80" height="76" transform="translate(0 0.001)" fill="none"/>
    </clipPath>
  </defs>
  <g id="Grupo_971300" data-name="Grupo 971300" transform="translate(-200 -2671)">
    <rect id="Rect치ngulo_341035" data-name="Rect치ngulo 341035" width="80" height="80" transform="translate(200 2671)" fill="none"/>
    <g id="Grupo_971299" data-name="Grupo 971299" transform="translate(200 2672.619)">
      <g id="Grupo_971298" data-name="Grupo 971298" transform="translate(0 0.38)" clip-path="url(#clip-path)">
        <path id="Trazado_191104" data-name="Trazado 191104" d="M172.345,8h37.372a3.685,3.685,0,0,1,3.678,3.678v1.471a3.685,3.685,0,0,1-3.678,3.678H172.345l-6.327-3.653a.879.879,0,0,1,0-1.522Z" transform="translate(-139.559 -6.895)" fill="#e3a76f" fill-rule="evenodd"/>
        <path id="Trazado_191105" data-name="Trazado 191105" d="M224.216,46.812a3.688,3.688,0,0,1-3.553,2.729H183.29l-4.726-2.729Z" transform="translate(-150.505 -39.611)" fill="#c48958" fill-rule="evenodd"/>
        <path id="Trazado_191106" data-name="Trazado 191106" d="M166.018,11.65,172.346,8v8.828l-6.327-3.653a.879.879,0,0,1,0-1.522" transform="translate(-139.56 -6.895)" fill="#685e68" fill-rule="evenodd"/>
        <path id="Trazado_191107" data-name="Trazado 191107" d="M21.117,173.6A13.118,13.118,0,0,1,8,160.479v-43.82H83.383a2.563,2.563,0,0,1,2.558,2.558V171.04a2.563,2.563,0,0,1-2.558,2.558Z" transform="translate(-6.742 -98.482)" fill="#41a8fc" fill-rule="evenodd"/>
        <path id="Trazado_191108" data-name="Trazado 191108" d="M18.149,173.26A13.123,13.123,0,0,1,8,160.479v-43.82h10.15Z" transform="translate(-6.742 -98.482)" fill="#60b7ff" fill-rule="evenodd"/>
        <path id="Trazado_191109" data-name="Trazado 191109" d="M8,101.952V58.132C8,52.105,14.9,47.22,18.911,47.22c2.647,0,3.479.232,4.2.658a2.5,2.5,0,0,1,1.259,2.2V88.8a2.558,2.558,0,0,1-3.107,2.5A10.921,10.921,0,0,0,8,101.952" transform="translate(-6.742 -39.955)" fill="#8ac9fe" fill-rule="evenodd"/>
        <path id="Trazado_191110" data-name="Trazado 191110" d="M457.721,116.659h4.714a2.563,2.563,0,0,1,2.558,2.558V171.04a2.563,2.563,0,0,1-2.558,2.558h-4.714a2.563,2.563,0,0,0,2.558-2.558V119.217A2.563,2.563,0,0,0,457.721,116.659Z" transform="translate(-385.795 -98.482)" fill="#60b7ff" fill-rule="evenodd"/>
        <path id="Trazado_191111" data-name="Trazado 191111" d="M149.263,179.172a10.478,10.478,0,1,1,0,14.818,10.478,10.478,0,0,1,0-14.818" transform="translate(-123.221 -148.585)" fill="#00e499" fill-rule="evenodd"/>
        <path id="Trazado_191112" data-name="Trazado 191112" d="M154.666,192.8a9.182,9.182,0,1,1,8.508,9.811,9.182,9.182,0,0,1-8.508-9.811" transform="translate(-130.342 -155.468)" fill="#6cf5c2" fill-rule="evenodd"/>
        <path id="Trazado_191113" data-name="Trazado 191113" d="M212.924,242.788H223.4a10.475,10.475,0,0,1-5.239,9.077Z" transform="translate(-179.465 -204.791)" fill="#fd4755" fill-rule="evenodd"/>
        <path id="Trazado_191114" data-name="Trazado 191114" d="M212.924,242.788H222.1a9.174,9.174,0,0,1-4.588,7.949Z" transform="translate(-179.465 -204.791)" fill="#fe646f" fill-rule="evenodd"/>
        <path id="Trazado_191115" data-name="Trazado 191115" d="M223.4,186.578h-10.48V176.1a10.48,10.48,0,0,1,10.48,10.48" transform="translate(-179.465 -148.581)" fill="#ffd064" fill-rule="evenodd"/>
        <path id="Trazado_191116" data-name="Trazado 191116" d="M222.1,193.562h-9.178v-9.178A9.178,9.178,0,0,1,222.1,193.562Z" transform="translate(-179.464 -155.565)" fill="#ffe177" fill-rule="evenodd"/>
        <path id="Trazado_191117" data-name="Trazado 191117" d="M321.333,344.356h2.721a.787.787,0,0,1,.786.786v10.235a.787.787,0,0,1-.786.786h-2.721a.787.787,0,0,1-.786-.786V345.142a.787.787,0,0,1,.786-.786" transform="translate(-270.176 -290.399)" fill="#fe646f" fill-rule="evenodd"/>
        <path id="Trazado_191118" data-name="Trazado 191118" d="M332.864,344.356h1.571a.787.787,0,0,1,.786.786v10.235a.787.787,0,0,1-.786.786h-1.571a.787.787,0,0,0,.786-.786V345.142a.787.787,0,0,0-.786-.786" transform="translate(-280.558 -290.399)" fill="#fd4755" fill-rule="evenodd"/>
        <path id="Trazado_191119" data-name="Trazado 191119" d="M380.1,315.481h2.721a.787.787,0,0,1,.786.786v14.773a.787.787,0,0,1-.786.786H380.1a.787.787,0,0,1-.786-.786V316.267a.787.787,0,0,1,.786-.786" transform="translate(-319.706 -266.061)" fill="#ffe177" fill-rule="evenodd"/>
        <path id="Trazado_191120" data-name="Trazado 191120" d="M391.628,315.481H393.2a.787.787,0,0,1,.786.786v14.773a.787.787,0,0,1-.786.786h-1.571a.787.787,0,0,0,.786-.786V316.267a.787.787,0,0,0-.786-.786" transform="translate(-330.088 -266.061)" fill="#ffd064" fill-rule="evenodd"/>
        <path id="Trazado_191121" data-name="Trazado 191121" d="M438.861,282.864h2.721a.787.787,0,0,1,.786.786v19.9a.787.787,0,0,1-.786.786h-2.721a.787.787,0,0,1-.786-.786v-19.9a.787.787,0,0,1,.786-.786" transform="translate(-369.236 -238.57)" fill="#6cf5c2" fill-rule="evenodd"/>
        <path id="Trazado_191122" data-name="Trazado 191122" d="M450.391,282.864h1.571a.787.787,0,0,1,.786.786v19.9a.787.787,0,0,1-.786.786h-1.571a.787.787,0,0,0,.786-.786v-19.9a.787.787,0,0,0-.786-.786" transform="translate(-379.617 -238.57)" fill="#00e499" fill-rule="evenodd"/>
        <path id="Trazado_191123" data-name="Trazado 191123" d="M51.093,35.708h11.02a1.257,1.257,0,1,0,0-2.514H51.093a1.257,1.257,0,0,0,0,2.514m0-5.207H73.131a1.257,1.257,0,1,0,0-2.514H51.093a1.257,1.257,0,0,0,0,2.514M24.236,38.152A9.219,9.219,0,0,0,37,46.664l-4.629-7.876a1.257,1.257,0,0,1-.173-.636V29.017A9.234,9.234,0,0,0,24.236,38.152Zm10.48-9.134a9.239,9.239,0,0,1,7.878,7.88l-7.878,0Zm7.877,10.395a9.217,9.217,0,0,1-3.423,5.973L35.657,39.41Zm-20.871-1.26A11.737,11.737,0,1,1,33.459,49.889,11.749,11.749,0,0,1,21.722,38.152M27.656,5.671,31.53,7.907V3.434Zm42.5-3.157H34.044v1.9H72.521a2.422,2.422,0,0,0-2.363-1.9m2.363,4.414H34.044v1.9H70.158a2.424,2.424,0,0,0,2.363-1.9M23.885,5.671a1.257,1.257,0,0,1,.629-1.089L32.159.168A1.253,1.253,0,0,1,32.787,0H70.158a4.941,4.941,0,0,1,4.936,4.936V6.407a4.941,4.941,0,0,1-4.936,4.936H32.787a1.243,1.243,0,0,1-.629-.17L24.514,6.758a1.252,1.252,0,0,1-.629-1.087M77.941,19.589V74.013H14.375A11.874,11.874,0,0,1,2.514,62.152,9.657,9.657,0,0,1,17,53.79,1.257,1.257,0,0,0,18.886,52.7V19.589ZM2.514,54.752a12.163,12.163,0,0,1,13.858-4.021V9.639A9.657,9.657,0,0,0,2.514,18.332Zm77.941-36.42V75.27A1.257,1.257,0,0,1,79.2,76.527H14.375A14.392,14.392,0,0,1,0,62.152V18.332A12.17,12.17,0,0,1,18.259,7.8a1.258,1.258,0,0,1,.627,1.088v8.192H79.2a1.255,1.255,0,0,1,1.257,1.257ZM71.874,45.707H70.1V64.661h1.778Zm2.514-1.257a1.257,1.257,0,0,0-1.257-1.257H68.839a1.257,1.257,0,0,0-1.257,1.257V65.918a1.257,1.257,0,0,0,1.257,1.257h4.292a1.257,1.257,0,0,0,1.257-1.257ZM62.64,50.831H60.861v13.83H62.64Zm2.514-1.257A1.257,1.257,0,0,0,63.9,48.317H59.6a1.257,1.257,0,0,0-1.258,1.257V65.918A1.257,1.257,0,0,0,59.6,67.176H63.9a1.257,1.257,0,0,0,1.257-1.257ZM51.628,64.661h1.777V55.37H51.628Zm-2.514,1.257a1.257,1.257,0,0,0,1.257,1.257h4.291a1.257,1.257,0,0,0,1.257-1.257V54.112a1.257,1.257,0,0,0-1.257-1.257H50.371a1.257,1.257,0,0,0-1.257,1.257Zm-5.093-2.73H29.811a1.257,1.257,0,0,0,0,2.514h14.21a1.257,1.257,0,0,0,0-2.514M21.575,65.7H25.36a1.257,1.257,0,0,0,0-2.514H21.575a1.257,1.257,0,0,0,0,2.514m22.446-7.9H29.811a1.257,1.257,0,0,0,0,2.515h14.21a1.257,1.257,0,0,0,0-2.515m-23.7,1.257a1.257,1.257,0,0,0,1.257,1.257H25.36a1.257,1.257,0,0,0,0-2.515H21.575a1.258,1.258,0,0,0-1.257,1.257" transform="translate(0 -0.155)" fill-rule="evenodd"/>
      </g>
    </g>
  </g>
</svg>
