<svg xmlns="http://www.w3.org/2000/svg" xmlns:xlink="http://www.w3.org/1999/xlink" width="137" height="136" viewBox="0 0 137 136">
  <defs>
    <clipPath id="clip-path">
      <rect id="Rectángulo_340782" data-name="Rectángulo 340782" width="75.562" height="75.614" fill="none"/>
    </clipPath>
  </defs>
  <g id="Grupo_970870" data-name="Grupo 970870" transform="translate(-1081 -1131)">
    <ellipse id="Elipse_5245" data-name="Elipse 5245" cx="68.5" cy="68" rx="68.5" ry="68" transform="translate(1081 1131)" fill="#f6f6f6"/>
    <g id="Grupo_970860" data-name="Grupo 970860" transform="translate(1110.994 1160.843)">
      <rect id="Rectángulo_340778" data-name="Rectángulo 340778" width="72.957" height="12.937" transform="translate(1.303 7.217)" fill="#da4a54"/>
      <rect id="Rectángulo_340779" data-name="Rectángulo 340779" width="72.957" height="54.157" transform="translate(1.303 20.154)" fill="#c6c1c8"/>
      <rect id="Rectángulo_340780" data-name="Rectángulo 340780" width="14.709" height="54.157" transform="translate(59.551 20.154)" fill="#afaab4"/>
      <path id="Trazado_190600" data-name="Trazado 190600" d="M90.474,171.1H44.16V123.76h61.231v32.466Z" transform="translate(-36.969 -103.606)" fill="#f1f1f4"/>
      <path id="Trazado_190601" data-name="Trazado 190601" d="M328.56,338l14.865-14.878H328.56Z" transform="translate(-275.054 -270.5)" fill="#dfdde2"/>
      <rect id="Rectángulo_340781" data-name="Rectángulo 340781" width="14.709" height="12.937" transform="translate(59.551 7.217)" fill="#d82e3d"/>
      <path id="Trazado_190602" data-name="Trazado 190602" d="M365.68,123.76v41.286l8.82-8.82V123.76Z" transform="translate(-306.129 -103.606)" fill="#dfdde2"/>
      <path id="Trazado_190603" data-name="Trazado 190603" d="M365.68,323.12v8.82l8.82-8.82Z" transform="translate(-306.129 -270.5)" fill="#c6c1c8"/>
      <g id="Grupo_970859" data-name="Grupo 970859">
        <g id="Grupo_970858" data-name="Grupo 970858" clip-path="url(#clip-path)">
          <path id="Trazado_190604" data-name="Trazado 190604" d="M42.606,8.32a2.605,2.605,0,0,1,2.606,2.606V17.44a2.606,2.606,0,0,1-5.211,0V10.926A2.605,2.605,0,0,1,42.606,8.32" transform="translate(-33.486 -6.965)" fill="#f1f1f4"/>
          <path id="Trazado_190605" data-name="Trazado 190605" d="M130.606,8.32a2.606,2.606,0,0,1,2.606,2.606V17.44a2.606,2.606,0,0,1-5.211,0V10.926a2.605,2.605,0,0,1,2.606-2.606" transform="translate(-107.155 -6.965)" fill="#f1f1f4"/>
          <path id="Trazado_190606" data-name="Trazado 190606" d="M218.606,8.32a2.606,2.606,0,0,1,2.606,2.606V17.44a2.606,2.606,0,0,1-5.211,0V10.926a2.605,2.605,0,0,1,2.606-2.606" transform="translate(-180.825 -6.965)" fill="#f1f1f4"/>
          <path id="Trazado_190607" data-name="Trazado 190607" d="M306.606,8.32a2.605,2.605,0,0,1,2.606,2.606V17.44a2.606,2.606,0,1,1-5.211,0V10.926a2.605,2.605,0,0,1,2.606-2.606" transform="translate(-254.494 -6.965)" fill="#f1f1f4"/>
          <path id="Trazado_190608" data-name="Trazado 190608" d="M394.606,8.32a2.606,2.606,0,0,1,2.606,2.606V17.44a2.606,2.606,0,0,1-5.211,0V10.926a2.606,2.606,0,0,1,2.606-2.606" transform="translate(-328.163 -6.965)" fill="#f1f1f4"/>
          <path id="Trazado_190609" data-name="Trazado 190609" d="M117,185.917a15.633,15.633,0,1,0-11.882-15.152,15.841,15.841,0,0,0,.9,5.211Z" transform="translate(-88.001 -129.845)" fill="#93d8e4"/>
          <path id="Trazado_190610" data-name="Trazado 190610" d="M103.077,284.539a7.739,7.739,0,1,1-7.739-7.739h.013a7.726,7.726,0,0,1,7.726,7.726v.013" transform="translate(-73.334 -231.723)" fill="#dfdde2"/>
          <path id="Trazado_190611" data-name="Trazado 190611" d="M186.95,155.672a15.524,15.524,0,0,0-2.71.248,15.634,15.634,0,0,1,0,30.694,15.175,15.175,0,0,0,2.606.261,15.634,15.634,0,1,0,0-31.2Z" transform="translate(-154.237 -130.294)" fill="#7ad0df"/>
          <path id="Trazado_190612" data-name="Trazado 190612" d="M107.406,199.167a15.5,15.5,0,0,0-2.606,8.351h6.514a4.182,4.182,0,1,0,0-8.351Zm21.17,8a4.182,4.182,0,0,0,0,8.351h5.368a15.634,15.634,0,0,0,2.111-7.817v-.534Z" transform="translate(-87.733 -166.727)" fill="#5ea570"/>
          <path id="Trazado_190613" data-name="Trazado 190613" d="M252.351,248.32v.534a15.5,15.5,0,0,1-2.111,7.817h5.433a15.634,15.634,0,0,0,2.111-7.817v-.534Z" transform="translate(-209.489 -207.881)" fill="#457a52"/>
          <path id="Trazado_190614" data-name="Trazado 190614" d="M74.259,5.915H70.442V3.96a3.954,3.954,0,1,0-7.908,0V5.915H56.1V3.96a3.947,3.947,0,0,0-7.895,0V5.915H41.689V3.96a3.908,3.908,0,1,0-7.817,0V5.915H27.359V3.96a3.96,3.96,0,0,0-7.921,0V5.915h-6.41V3.96a3.96,3.96,0,0,0-7.921,0V5.915H1.3A1.3,1.3,0,0,0,0,7.217V74.311a1.3,1.3,0,0,0,1.3,1.3H74.259a1.3,1.3,0,0,0,1.3-1.3V7.217a1.3,1.3,0,0,0-1.3-1.3M66.443,2.658a1.3,1.3,0,0,1,1.3,1.3v6.514a1.3,1.3,0,0,1-2.606,0V3.96a1.3,1.3,0,0,1,1.3-1.3M50.809,3.96a1.355,1.355,0,0,1,2.71,0v6.514a1.355,1.355,0,0,1-2.71,0Zm-14.331,0a1.3,1.3,0,1,1,2.606,0v6.514a1.3,1.3,0,1,1-2.606,0Zm-14.331,0a1.3,1.3,0,0,1,2.606,0v6.514a1.355,1.355,0,1,1-2.71,0ZM9.12,2.658a1.3,1.3,0,0,1,1.3,1.3v6.514a1.355,1.355,0,0,1-2.71,0V3.96a1.3,1.3,0,0,1,1.3-1.307c.036,0,.072,0,.108,0M2.606,8.52h2.5v1.954a3.96,3.96,0,1,0,7.921,0V8.52h6.436v1.954a3.947,3.947,0,0,0,7.895,0V8.52h6.514v1.954a3.908,3.908,0,1,0,7.817,0V8.52H48.2v1.954a3.96,3.96,0,0,0,7.921,0V8.52h6.41v1.954a3.954,3.954,0,1,0,7.908,0V8.52h2.514V18.851H2.606Zm64.462,42.8H53.506a1.3,1.3,0,0,0-1.3,1.3V66.182H8.494V21.457H67.12Zm-1.85,2.606L54.8,64.345V53.923Zm7.739,19.086H2.606V21.457H5.889V67.485a1.3,1.3,0,0,0,1.3,1.3H53.506a1.3,1.3,0,0,0,.912-.378L69.3,53.545a1.3,1.3,0,0,0,.378-.925V21.457h3.283Z"/>
          <path id="Trazado_190615" data-name="Trazado 190615" d="M88.537,185.586A9.015,9.015,0,0,0,96.2,181.3,16.907,16.907,0,1,0,83.013,169.38a9.028,9.028,0,0,0,5.524,16.207Zm23.45-14.331h-4.625a2.879,2.879,0,0,1,0-5.745H113.5a14.068,14.068,0,0,1-1.55,5.706ZM86.935,157.472h3.218a2.879,2.879,0,1,1,0,5.745H85.02A14.224,14.224,0,0,1,86.935,157.472Zm-1.941,8.351H90.2a5.485,5.485,0,0,0,.534-10.957c-.178-.009-.356-.009-.534,0H88.9a14.274,14.274,0,0,1,24.519,8h-6.058a5.485,5.485,0,0,0,0,10.957h2.879a14.018,14.018,0,0,1-13.028,5.029,9.028,9.028,0,0,0-8.729-11.334,8.885,8.885,0,0,0-3.179.586A13.617,13.617,0,0,1,84.994,165.823Zm3.544,4.3a6.436,6.436,0,1,1-6.384,6.488c0-.022,0-.043,0-.065a6.423,6.423,0,0,1,6.384-6.423" transform="translate(-66.52 -123.73)"/>
          <path id="Trazado_190616" data-name="Trazado 190616" d="M110.663,296.557h2.905a1.3,1.3,0,0,0,1.3-1.3V290.9a1.3,1.3,0,1,0-2.606,0v3.049h-1.6a1.3,1.3,0,0,0,0,2.606" transform="translate(-91.551 -242.439)"/>
          <path id="Trazado_190617" data-name="Trazado 190617" d="M184.263,270.126h1.55a1.3,1.3,0,0,0,0-2.606h-1.55a1.3,1.3,0,0,0,0,2.606" transform="translate(-153.165 -223.955)"/>
          <path id="Trazado_190618" data-name="Trazado 190618" d="M208,215.223a1.3,1.3,0,0,0,1.3,1.3h3.57a1.3,1.3,0,1,0,0-2.606H209.3A1.3,1.3,0,0,0,208,215.223Z" transform="translate(-174.127 -179.083)"/>
          <path id="Trazado_190619" data-name="Trazado 190619" d="M189.063,182.926h1.55a1.3,1.3,0,0,0,0-2.606h-1.55a1.3,1.3,0,0,0,0,2.606" transform="translate(-157.183 -150.955)"/>
          <path id="Trazado_190620" data-name="Trazado 190620" d="M331.063,162.926h6.631a1.3,1.3,0,0,0,0-2.606h-6.631a1.3,1.3,0,0,0,0,2.606" transform="translate(-276.059 -134.212)"/>
          <path id="Trazado_190621" data-name="Trazado 190621" d="M331.063,191.886h3.8a1.3,1.3,0,0,0,0-2.606h-3.8a1.3,1.3,0,0,0,0,2.606" transform="translate(-276.059 -158.456)"/>
          <path id="Trazado_190622" data-name="Trazado 190622" d="M331.063,221.246h6.631a1.3,1.3,0,1,0,0-2.606h-6.631a1.3,1.3,0,0,0,0,2.606" transform="translate(-276.059 -183.035)"/>
          <path id="Trazado_190623" data-name="Trazado 190623" d="M331.063,250.926h3.8a1.3,1.3,0,1,0,0-2.606h-3.8a1.3,1.3,0,0,0,0,2.606" transform="translate(-276.059 -207.881)"/>
          <path id="Trazado_190624" data-name="Trazado 190624" d="M331.063,279.886h6.631a1.3,1.3,0,0,0,0-2.606h-6.631a1.3,1.3,0,0,0,0,2.606" transform="translate(-276.059 -232.125)"/>
        </g>
      </g>
    </g>
  </g>
</svg>
