<svg xmlns="http://www.w3.org/2000/svg" xmlns:xlink="http://www.w3.org/1999/xlink" width="150" height="150" viewBox="0 0 150 150">
  <defs>
    <clipPath id="clip-path">
      <rect id="Rect치ngulo_341271" data-name="Rect치ngulo 341271" width="130.252" height="150" fill="none"/>
    </clipPath>
  </defs>
  <g id="Grupo_971759" data-name="Grupo 971759" transform="translate(1471 10978)">
    <rect id="Rect치ngulo_341252" data-name="Rect치ngulo 341252" width="150" height="150" transform="translate(-1471 -10978)" fill="none"/>
    <g id="Grupo_971758" data-name="Grupo 971758" transform="translate(-1461.126 -10978)">
      <g id="Grupo_971757" data-name="Grupo 971757" clip-path="url(#clip-path)">
        <path id="Trazado_214631" data-name="Trazado 214631" d="M176.789,410.143a11.854,11.854,0,0,1-7.37,2.6,11.664,11.664,0,0,1-7.37-2.6,19.481,19.481,0,0,0-12.095,18.023v5.315h38.953v-5.315a19.466,19.466,0,0,0-12.118-18.023" transform="translate(-104.293 -285.253)" fill="#ee6a51"/>
        <path id="Trazado_214632" data-name="Trazado 214632" d="M180.686,417.357a4.715,4.715,0,0,1,.354.614c3.638,7.3-2.2,15.8-10.323,15.8H149.954V438.5h38.953v-5.315A19.407,19.407,0,0,0,180.686,417.357Z" transform="translate(-104.293 -290.271)" fill="#e1533b"/>
        <path id="Trazado_214633" data-name="Trazado 214633" d="M320.925,353.668a11.854,11.854,0,0,1-7.37,2.6,11.664,11.664,0,0,1-7.37-2.6,19.481,19.481,0,0,0-12.095,18.024v5.315h38.953v-5.315a19.5,19.5,0,0,0-12.118-18.024" transform="translate(-204.539 -245.975)" fill="#f8ce01"/>
        <path id="Trazado_214634" data-name="Trazado 214634" d="M324.768,360.96a4.711,4.711,0,0,1,.354.614c3.614,7.275-2.2,15.78-10.347,15.78H294.012v4.724h38.953v-5.315a19.372,19.372,0,0,0-8.2-15.8" transform="translate(-204.484 -251.047)" fill="#f4b601"/>
        <path id="Trazado_214635" data-name="Trazado 214635" d="M83.847,5.818A56.929,56.929,0,1,1,26.918,62.747,56.929,56.929,0,0,1,83.847,5.818" transform="translate(-18.721 -4.046)" fill="#8c9ffa"/>
        <path id="Trazado_214636" data-name="Trazado 214636" d="M141.067,40.572a56.92,56.92,0,0,1-79.394,79.394,56.923,56.923,0,1,0,79.394-79.394Z" transform="translate(-42.893 -28.218)" fill="#6e7fed"/>
        <path id="Trazado_214637" data-name="Trazado 214637" d="M186.846,340.945a11.835,11.835,0,1,1-11.835,11.835,11.835,11.835,0,0,1,11.835-11.835" transform="translate(-121.72 -237.126)" fill="#d7e6ef"/>
        <path id="Trazado_214638" data-name="Trazado 214638" d="M330.982,284.47A11.835,11.835,0,1,1,319.147,296.3a11.835,11.835,0,0,1,11.835-11.835" transform="translate(-221.966 -197.848)" fill="#d7e6ef"/>
        <path id="Trazado_214639" data-name="Trazado 214639" d="M42.711,284.47A11.835,11.835,0,1,1,30.876,296.3,11.835,11.835,0,0,1,42.711,284.47" transform="translate(-21.474 -197.848)" fill="#d7e6ef"/>
        <path id="Trazado_214640" data-name="Trazado 214640" d="M17.913,353.668A19.481,19.481,0,0,0,5.818,371.692v5.315H44.771v-5.315a19.481,19.481,0,0,0-12.095-18.024" transform="translate(-4.046 -245.975)" fill="#f8ce01"/>
        <path id="Trazado_214641" data-name="Trazado 214641" d="M36.55,360.96a4.711,4.711,0,0,1,.354.614c3.614,7.275-2.2,15.78-10.347,15.78H5.818v4.724H44.771v-5.315a19.331,19.331,0,0,0-8.22-15.8" transform="translate(-4.046 -251.047)" fill="#f4b601"/>
        <path id="Trazado_214642" data-name="Trazado 214642" d="M194.622,344.824a11.773,11.773,0,0,1-15.732,15.732,11.813,11.813,0,1,0,15.732-15.732Z" transform="translate(-124.417 -239.824)" fill="#bed3e3"/>
        <path id="Trazado_214643" data-name="Trazado 214643" d="M338.758,288.349a11.773,11.773,0,0,1-15.732,15.732,11.813,11.813,0,1,0,15.732-15.732Z" transform="translate(-224.664 -200.546)" fill="#bed3e3"/>
        <path id="Trazado_214644" data-name="Trazado 214644" d="M50.486,288.349a11.773,11.773,0,0,1-15.732,15.732,11.813,11.813,0,1,0,15.732-15.732" transform="translate(-24.171 -200.546)" fill="#bed3e3"/>
        <path id="Trazado_214645" data-name="Trazado 214645" d="M182.8,362.341A13.606,13.606,0,1,1,196.4,348.734,13.61,13.61,0,0,1,182.8,362.341m0-23.669a10.063,10.063,0,1,0,10.063,10.063A10.071,10.071,0,0,0,182.8,338.671Z" transform="translate(-117.673 -233.081)"/>
        <path id="Trazado_214646" data-name="Trazado 214646" d="M184.806,431.169H145.83a1.784,1.784,0,0,1-1.772-1.772v-5.315a21.194,21.194,0,0,1,13.2-19.677,1.8,1.8,0,0,1,2.315.968,1.783,1.783,0,0,1-.969,2.315A17.652,17.652,0,0,0,147.6,424.082v3.544h35.433v-3.544a17.676,17.676,0,0,0-11.008-16.394,1.774,1.774,0,1,1,1.346-3.283,21.17,21.17,0,0,1,13.2,19.677V429.4a1.785,1.785,0,0,1-1.772,1.772" transform="translate(-100.192 -281.169)"/>
        <path id="Trazado_214647" data-name="Trazado 214647" d="M326.934,305.865a13.606,13.606,0,1,1,13.606-13.606A13.61,13.61,0,0,1,326.934,305.865Zm0-23.669A10.063,10.063,0,1,0,337,292.258,10.071,10.071,0,0,0,326.934,282.2" transform="translate(-217.919 -193.802)"/>
        <path id="Trazado_214648" data-name="Trazado 214648" d="M328.919,374.694H289.966a1.785,1.785,0,0,1-1.772-1.772v-5.315a21.194,21.194,0,0,1,13.2-19.677,1.774,1.774,0,1,1,1.346,3.283,17.651,17.651,0,0,0-11.007,16.393v3.544h35.409v-3.544a17.676,17.676,0,0,0-11.008-16.393,1.774,1.774,0,1,1,1.346-3.283,21.17,21.17,0,0,1,13.205,19.677v5.315a1.754,1.754,0,0,1-1.772,1.772" transform="translate(-200.438 -241.891)"/>
        <path id="Trazado_214649" data-name="Trazado 214649" d="M38.663,305.865A13.606,13.606,0,1,1,52.27,292.258,13.61,13.61,0,0,1,38.663,305.865Zm0-23.669a10.063,10.063,0,1,0,10.063,10.063A10.071,10.071,0,0,0,38.663,282.2" transform="translate(-17.427 -193.802)"/>
        <path id="Trazado_214650" data-name="Trazado 214650" d="M40.724,374.709H1.772A1.784,1.784,0,0,1,0,372.938v-5.315a21.194,21.194,0,0,1,13.2-19.677,1.779,1.779,0,0,1,1.772.26,10.179,10.179,0,0,0,12.543,0,1.779,1.779,0,0,1,1.772-.26,21.206,21.206,0,0,1,13.2,19.677v5.315a1.769,1.769,0,0,1-1.772,1.772M3.543,371.166H38.953v-3.543a17.649,17.649,0,0,0-10.11-15.992,13.8,13.8,0,0,1-15.213,0,17.649,17.649,0,0,0-10.11,15.992v3.543Z" transform="translate(0 -241.906)"/>
        <path id="Trazado_214651" data-name="Trazado 214651" d="M125.883,61.279a58.658,58.658,0,0,1-37.89-13.913,1.767,1.767,0,0,1-.213-2.5,1.788,1.788,0,0,1,2.5-.213,55.136,55.136,0,0,0,35.6,13.063,55.089,55.089,0,0,0,35.6-13.063,1.777,1.777,0,1,1,2.291,2.716,58.658,58.658,0,0,1-37.89,13.913" transform="translate(-60.757 -30.759)"/>
        <path id="Trazado_214652" data-name="Trazado 214652" d="M209.83,105.591a1.785,1.785,0,0,1-1.772-1.772V1.772a1.772,1.772,0,1,1,3.543,0V103.819a1.785,1.785,0,0,1-1.772,1.772" transform="translate(-144.704)"/>
        <path id="Trazado_214653" data-name="Trazado 214653" d="M136.731,190.5H22.873a1.772,1.772,0,1,1,0-3.543H136.731a1.772,1.772,0,1,1,0,3.543" transform="translate(-14.676 -130.029)"/>
        <path id="Trazado_214654" data-name="Trazado 214654" d="M168.669,298.836a1.7,1.7,0,0,1-.992-.307,54.877,54.877,0,0,0-62.126,0,1.738,1.738,0,0,1-2.457-.473,1.757,1.757,0,0,1,.472-2.457,58.356,58.356,0,0,1,66.142,0,1.778,1.778,0,0,1,.473,2.457A1.859,1.859,0,0,1,168.669,298.836Z" transform="translate(-71.488 -198.442)"/>
        <path id="Trazado_214655" data-name="Trazado 214655" d="M152.6,113.362a1.746,1.746,0,0,1-1.417-.709,1.769,1.769,0,0,1,.331-2.48c10.842-8.244,18.118-28.937,18.118-51.472,0-30.425-12.614-55.158-28.134-55.158S113.39,28.3,113.39,58.7c0,22.535,7.276,43.228,18.118,51.472a1.769,1.769,0,1,1-2.15,2.811C117.5,103.961,109.847,82.654,109.847,58.7c0-32.362,14.2-58.7,31.677-58.7S173.2,26.339,173.2,58.7c0,23.976-7.653,45.283-19.512,54.283A1.74,1.74,0,0,1,152.6,113.362Z" transform="translate(-76.398)"/>
        <path id="Trazado_214656" data-name="Trazado 214656" d="M128.746,89.575a1.584,1.584,0,0,1-.9-.26,1.769,1.769,0,0,1-.614-2.433,55.169,55.169,0,1,0-94.843,0A1.774,1.774,0,1,1,29.344,88.7a58.7,58.7,0,1,1,100.914,0A1.753,1.753,0,0,1,128.746,89.575Z" transform="translate(-14.675)"/>
        <path id="Trazado_214657" data-name="Trazado 214657" d="M248.337,350.859a1.744,1.744,0,0,1-1.724-1.417,1.8,1.8,0,0,1,1.37-2.1,54.516,54.516,0,0,0,21.378-9.591,1.774,1.774,0,0,1,2.1,2.858,58.118,58.118,0,0,1-22.748,10.2,1.1,1.1,0,0,1-.378.047" transform="translate(-171.495 -234.662)"/>
        <path id="Trazado_214658" data-name="Trazado 214658" d="M121,350.883a.92.92,0,0,1-.354-.047A58.117,58.117,0,0,1,97.9,340.63a1.774,1.774,0,0,1,2.1-2.858,54.861,54.861,0,0,0,21.378,9.591,1.749,1.749,0,0,1,1.37,2.1A1.788,1.788,0,0,1,121,350.883" transform="translate(-67.591 -234.686)"/>
      </g>
    </g>
  </g>
</svg>
