<svg id="Grupo_971128" data-name="Grupo 971128" xmlns="http://www.w3.org/2000/svg" xmlns:xlink="http://www.w3.org/1999/xlink" width="80" height="80" viewBox="0 0 80 80">
  <defs>
    <clipPath id="clip-path">
      <rect id="Rectángulo_340964" data-name="Rectángulo 340964" width="80" height="80" fill="none"/>
    </clipPath>
  </defs>
  <rect id="Rectángulo_340957" data-name="Rectángulo 340957" width="15.999" height="8" transform="translate(1.333 70.667)" fill="#f95f5f"/>
  <rect id="Rectángulo_340958" data-name="Rectángulo 340958" width="15.999" height="8" transform="translate(31.999 70.667)" fill="#efbd50"/>
  <rect id="Rectángulo_340959" data-name="Rectángulo 340959" width="15.999" height="8" transform="translate(62.665 70.667)" fill="#7fc675"/>
  <path id="Trazado_191027" data-name="Trazado 191027" d="M210.666,22.536v-6.68h2.667l-6.666-8-6.666,8h2.667v6.68" transform="translate(-166.668 -6.547)" fill="#72769b"/>
  <path id="Trazado_191028" data-name="Trazado 191028" d="M114.666,69.2V55.869h2.667l-6.666-8.013L104,55.869h2.667V69.2" transform="translate(-86.667 -39.88)" fill="#cfd2d3"/>
  <path id="Trazado_191029" data-name="Trazado 191029" d="M306.666,69.2V55.869h2.667l-6.666-8.013L296,55.869h2.667V69.2" transform="translate(-246.668 -39.88)" fill="#cfd2d3"/>
  <path id="Trazado_191030" data-name="Trazado 191030" d="M368,226.6h9.333v2.667l8-6.666-8-6.666V218.6H368" transform="translate(-306.669 -179.948)" fill="#7fc675"/>
  <path id="Trazado_191031" data-name="Trazado 191031" d="M25.333,218.6H16v-2.667L8,222.6l8,6.666V226.6h9.333" transform="translate(-6.667 -179.948)" fill="#f95f5f"/>
  <g id="Grupo_971127" data-name="Grupo 971127">
    <g id="Grupo_971126" data-name="Grupo 971126" clip-path="url(#clip-path)">
      <path id="Trazado_191032" data-name="Trazado 191032" d="M170.666,173.349v-8h-3.227a15.2,15.2,0,0,0-1.333-3.147l2.28-2.28-5.653-5.666-2.28,2.293a14.5,14.5,0,0,0-3.147-1.333v-3.2h-7.973v3.227a14.5,14.5,0,0,0-3.147,1.333l-2.28-2.293-5.653,5.666,2.28,2.28a15.206,15.206,0,0,0-1.333,3.147H136v8h3.227a15.206,15.206,0,0,0,1.333,3.147l-2.28,2.28,5.653,5.666,2.28-2.28a15.161,15.161,0,0,0,3.147,1.333v3.16h8v-3.24a15.162,15.162,0,0,0,3.147-1.333l2.28,2.28,5.653-5.666-2.307-2.24a15.2,15.2,0,0,0,1.333-3.147Z" transform="translate(-113.334 -126.681)" fill="#99aece"/>
      <path id="Trazado_191033" data-name="Trazado 191033" d="M200,207.936a8,8,0,1,1-8,8,8,8,0,0,1,8-8" transform="translate(-160.001 -173.281)" fill="#f2f2f2"/>
      <path id="Trazado_191034" data-name="Trazado 191034" d="M205.322,10.669h1.333a1.333,1.333,0,0,0,1.027-2.187l-6.666-8a1.333,1.333,0,0,0-2.053,0l-6.666,8a1.333,1.333,0,0,0,1.027,2.187h1.333V16h2.667V9.336A1.333,1.333,0,0,0,196.162,8l3.827-4.613L203.815,8a1.333,1.333,0,0,0-1.16,1.333V16h2.667Z" transform="translate(-159.99 0)"/>
      <rect id="Rectángulo_340960" data-name="Rectángulo 340960" width="2.667" height="2.667" transform="translate(34.666 18.655)"/>
      <rect id="Rectángulo_340961" data-name="Rectángulo 340961" width="2.667" height="2.667" transform="translate(42.665 18.655)"/>
      <path id="Trazado_191035" data-name="Trazado 191035" d="M378.186,208.231a1.333,1.333,0,0,0-2.187,1.04V210.6h-8v2.667h9.333a1.333,1.333,0,0,0,1.333-1.16l4.587,3.827-4.587,3.813a1.333,1.333,0,0,0-1.333-1.147H368v2.667h8V222.6a1.335,1.335,0,0,0,2.187,1.027l8-6.666a1.333,1.333,0,0,0,0-2.053Z" transform="translate(-306.669 -173.27)"/>
      <path id="Trazado_191036" data-name="Trazado 191036" d="M0,216a1.334,1.334,0,0,0,.48,1.027l8,6.666a1.333,1.333,0,0,0,2.187-1.027v-1.333h8v-2.667H9.333A1.333,1.333,0,0,0,8,219.831L3.413,216,8,212.165a1.333,1.333,0,0,0,1.333,1.173h9.333v-2.667h-8v-1.333a1.333,1.333,0,0,0-2.187-1.027l-8,6.666A1.334,1.334,0,0,0,0,216Z" transform="translate(0 -173.337)"/>
      <rect id="Rectángulo_340962" data-name="Rectángulo 340962" width="2.667" height="2.667" transform="translate(18.666 31.988)"/>
      <rect id="Rectángulo_340963" data-name="Rectángulo 340963" width="2.667" height="2.667" transform="translate(58.665 31.988)"/>
      <path id="Trazado_191037" data-name="Trazado 191037" d="M202.666,209.349a9.333,9.333,0,1,0-9.333,9.333,9.333,9.333,0,0,0,9.333-9.333m-16,0a6.666,6.666,0,1,1,6.666,6.666,6.667,6.667,0,0,1-6.666-6.666" transform="translate(-153.334 -166.681)"/>
      <path id="Trazado_191038" data-name="Trazado 191038" d="M78.664,102.667H72v-4a1.333,1.333,0,0,0-1.333-1.333H41.332V94.667H44a1.333,1.333,0,0,0,1.333-1.333V91.068a16,16,0,0,0,1.56-.64L48.478,92a1.333,1.333,0,0,0,1.886.008L50.372,92,56,86.361a1.333,1.333,0,0,0,0-1.88l-1.587-1.6c.227-.507.453-1.027.64-1.56h2.28a1.333,1.333,0,0,0,1.333-1.333V72a1.333,1.333,0,0,0-1.333-1.333H55.078c-.187-.533-.413-1.053-.64-1.56l1.56-1.6a1.333,1.333,0,0,0,.008-1.886L56,65.615l-2.667-2.667V49.336A1.333,1.333,0,0,0,52.172,48L56,43.4,59.825,48a1.333,1.333,0,0,0-1.16,1.333V62.669h2.667v-12h1.333a1.333,1.333,0,0,0,1.027-2.187l-6.666-8a1.333,1.333,0,0,0-2.053,0l-6.666,8a1.333,1.333,0,0,0,1.027,2.187h1.333v9.6L50.372,60a1.333,1.333,0,0,0-1.886-.008L48.478,60l-1.587,1.587a16,16,0,0,0-1.56-.68v-2.24A1.333,1.333,0,0,0,44,57.335H36a1.333,1.333,0,0,0-1.333,1.333v2.253a16,16,0,0,0-1.56.64L31.519,60a1.333,1.333,0,0,0-1.886-.008L29.626,60l-.293.293V50.669h1.333a1.333,1.333,0,0,0,1.027-2.187l-6.666-8a1.333,1.333,0,0,0-2.053,0l-6.666,8a1.333,1.333,0,0,0,1.027,2.187h1.333v12h2.667V49.336A1.333,1.333,0,0,0,20.173,48L24,43.4,27.826,48a1.333,1.333,0,0,0-1.16,1.333v13.6L24,65.6a1.333,1.333,0,0,0-.008,1.886L24,67.5l1.587,1.587c-.227.507-.453,1.027-.64,1.56h-2.28a1.333,1.333,0,0,0-1.333,1.333v8a1.333,1.333,0,0,0,1.333,1.333h2.253c.187.533.413,1.053.64,1.56L24,84.481a1.333,1.333,0,0,0,0,1.88L29.626,92a1.333,1.333,0,0,0,1.886.008L31.519,92l1.587-1.6a15.994,15.994,0,0,0,1.56.667v2.267A1.333,1.333,0,0,0,36,94.667h2.667v2.667H9.333A1.333,1.333,0,0,0,8,98.667v4H1.333A1.333,1.333,0,0,0,0,104v8a1.333,1.333,0,0,0,1.333,1.333h16A1.333,1.333,0,0,0,18.666,112v-8a1.333,1.333,0,0,0-1.333-1.333H10.666V100h28v2.667H32A1.333,1.333,0,0,0,30.666,104v8A1.333,1.333,0,0,0,32,113.334H48A1.333,1.333,0,0,0,49.332,112v-8A1.333,1.333,0,0,0,48,102.667H41.332V100h28v2.667H62.665A1.333,1.333,0,0,0,61.331,104v8a1.333,1.333,0,0,0,1.333,1.333h16A1.333,1.333,0,0,0,80,112v-8a1.333,1.333,0,0,0-1.333-1.333M36.359,88.814a12.863,12.863,0,0,1-2.853-1.187,1.333,1.333,0,0,0-1.6.227l-1.333,1.333L26.8,85.428l1.333-1.333a1.333,1.333,0,0,0,.213-1.6,12.841,12.841,0,0,1-1.173-2.853,1.333,1.333,0,0,0-1.333-.973H24V73.335h1.893a1.333,1.333,0,0,0,1.333-.973A13.115,13.115,0,0,1,28.4,69.508a1.333,1.333,0,0,0-.213-1.6l-1.333-1.333L30.626,62.8l1.333,1.333a1.333,1.333,0,0,0,1.6.227,12.841,12.841,0,0,1,2.853-1.173,1.333,1.333,0,0,0,.973-1.333V60h5.333V61.9a1.333,1.333,0,0,0,.973,1.333A12.84,12.84,0,0,1,46.545,64.4a1.333,1.333,0,0,0,1.6-.227l1.333-1.333,3.773,3.773-1.333,1.333a1.333,1.333,0,0,0-.213,1.6A13.1,13.1,0,0,1,52.878,72.4a1.333,1.333,0,0,0,1.333.973H56v5.333H54.1a1.333,1.333,0,0,0-1.333.973A12.841,12.841,0,0,1,51.6,82.535a1.333,1.333,0,0,0,.213,1.6l1.333,1.333-3.773,3.76-1.333-1.333a1.333,1.333,0,0,0-1.6-.227,12.863,12.863,0,0,1-2.853,1.187,1.333,1.333,0,0,0-.973,1.333V92h-5.28V90.094A1.333,1.333,0,0,0,36.359,88.814ZM16,110.667H2.667v-5.333H16Zm30.666,0H33.332v-5.333H46.665Zm30.666,0H64v-5.333H77.331Z" transform="translate(0 -33.334)"/>
    </g>
  </g>
</svg>
