<svg xmlns="http://www.w3.org/2000/svg" xmlns:xlink="http://www.w3.org/1999/xlink" width="40" height="40" viewBox="0 0 40 40">
  <defs>
    <clipPath id="clip-path">
      <rect id="Rectángulo_341304" data-name="Rectángulo 341304" width="40" height="40" fill="none"/>
    </clipPath>
    <clipPath id="clip-path-3">
      <rect id="Rectángulo_341291" data-name="Rectángulo 341291" width="3.803" height="13.885" fill="none"/>
    </clipPath>
    <clipPath id="clip-path-4">
      <rect id="Rectángulo_341292" data-name="Rectángulo 341292" width="3.803" height="23.088" fill="none"/>
    </clipPath>
    <clipPath id="clip-path-5">
      <rect id="Rectángulo_341293" data-name="Rectángulo 341293" width="3.803" height="16.964" fill="none"/>
    </clipPath>
    <clipPath id="clip-path-6">
      <rect id="Rectángulo_341294" data-name="Rectángulo 341294" width="3.803" height="11.218" fill="none"/>
    </clipPath>
    <clipPath id="clip-path-7">
      <rect id="Rectángulo_341295" data-name="Rectángulo 341295" width="3.803" height="15.591" fill="none"/>
    </clipPath>
    <clipPath id="clip-path-8">
      <rect id="Rectángulo_341296" data-name="Rectángulo 341296" width="7.371" height="7.371" fill="none"/>
    </clipPath>
    <clipPath id="clip-path-9">
      <rect id="Rectángulo_341297" data-name="Rectángulo 341297" width="3.879" height="14.163" fill="none"/>
    </clipPath>
    <clipPath id="clip-path-10">
      <rect id="Rectángulo_341298" data-name="Rectángulo 341298" width="3.879" height="23.55" fill="none"/>
    </clipPath>
    <clipPath id="clip-path-11">
      <rect id="Rectángulo_341299" data-name="Rectángulo 341299" width="3.879" height="17.303" fill="none"/>
    </clipPath>
    <clipPath id="clip-path-12">
      <rect id="Rectángulo_341300" data-name="Rectángulo 341300" width="3.879" height="11.443" fill="none"/>
    </clipPath>
    <clipPath id="clip-path-13">
      <rect id="Rectángulo_341301" data-name="Rectángulo 341301" width="3.879" height="15.903" fill="none"/>
    </clipPath>
    <clipPath id="clip-path-14">
      <rect id="Rectángulo_341302" data-name="Rectángulo 341302" width="7.518" height="7.519" fill="none"/>
    </clipPath>
  </defs>
  <g id="Grupo_971849" data-name="Grupo 971849" transform="translate(-407 11189)">
    <rect id="Rectángulo_341290" data-name="Rectángulo 341290" width="40" height="40" transform="translate(407 -11189)" fill="none"/>
    <g id="Grupo_971848" data-name="Grupo 971848" transform="translate(407 -11189)">
      <g id="Grupo_971847" data-name="Grupo 971847" clip-path="url(#clip-path)">
        <g id="Grupo_971846" data-name="Grupo 971846">
          <g id="Grupo_971845" data-name="Grupo 971845" clip-path="url(#clip-path)">
            <path id="Trazado_214769" data-name="Trazado 214769" d="M312.137,301.047V287.871a.707.707,0,0,0-.707-.707h-3.143a.709.709,0,0,0-.709.707v13.176Z" transform="translate(-282.942 -264.164)" fill="#0e9c4a"/>
            <g id="Grupo_971811" data-name="Grupo 971811" transform="translate(25.392 23.001)" opacity="0.1" style="isolation: isolate">
              <g id="Grupo_971810" data-name="Grupo 971810">
                <g id="Grupo_971809" data-name="Grupo 971809" clip-path="url(#clip-path-3)">
                  <path id="Trazado_214770" data-name="Trazado 214770" d="M320.814,301.047V287.871a.707.707,0,0,0-.709-.707h-.623v10.293a3.841,3.841,0,0,1-2.473,3.59Z" transform="translate(-317.01 -287.164)"/>
                </g>
              </g>
            </g>
            <path id="Trazado_214771" data-name="Trazado 214771" d="M401.813,195.353V172.972a.709.709,0,0,0-.709-.707h-3.141a.709.709,0,0,0-.709.707v22.381Z" transform="translate(-365.435 -158.467)" fill="#f14f4a"/>
            <g id="Grupo_971814" data-name="Grupo 971814" transform="translate(32.574 13.798)" opacity="0.1" style="isolation: isolate">
              <g id="Grupo_971813" data-name="Grupo 971813">
                <g id="Grupo_971812" data-name="Grupo 971812" clip-path="url(#clip-path-4)">
                  <path id="Trazado_214772" data-name="Trazado 214772" d="M410.486,195.353V172.972a.708.708,0,0,0-.709-.707h-.623v19.5a3.848,3.848,0,0,1-2.469,3.59Z" transform="translate(-406.686 -172.265)"/>
                </g>
              </g>
            </g>
            <path id="Trazado_214773" data-name="Trazado 214773" d="M222.461,265.691V249.436a.709.709,0,0,0-.707-.709h-3.143a.709.709,0,0,0-.707.709v16.256Z" transform="translate(-200.451 -228.805)" fill="#475da9"/>
            <g id="Grupo_971817" data-name="Grupo 971817" transform="translate(18.209 19.922)" opacity="0.1" style="isolation: isolate">
              <g id="Grupo_971816" data-name="Grupo 971816">
                <g id="Grupo_971815" data-name="Grupo 971815" clip-path="url(#clip-path-5)">
                  <path id="Trazado_214774" data-name="Trazado 214774" d="M231.135,265.691V249.436a.709.709,0,0,0-.707-.709H229.8V262.1a3.85,3.85,0,0,1-2.473,3.592Z" transform="translate(-227.332 -248.727)"/>
                </g>
              </g>
            </g>
            <path id="Trazado_214775" data-name="Trazado 214775" d="M132.787,331.674v-10.51a.709.709,0,0,0-.709-.707h-3.142a.708.708,0,0,0-.708.707v10.51Z" transform="translate(-117.958 -294.791)" fill="#f14f4a"/>
            <g id="Grupo_971820" data-name="Grupo 971820" transform="translate(11.026 25.668)" opacity="0.1" style="isolation: isolate">
              <g id="Grupo_971819" data-name="Grupo 971819">
                <g id="Grupo_971818" data-name="Grupo 971818" clip-path="url(#clip-path-6)">
                  <path id="Trazado_214776" data-name="Trazado 214776" d="M141.462,331.674v-10.51a.708.708,0,0,0-.708-.707h-.623v7.625a3.847,3.847,0,0,1-2.473,3.592Z" transform="translate(-137.658 -320.457)"/>
                </g>
              </g>
            </g>
            <path id="Trazado_214777" data-name="Trazado 214777" d="M43.111,281.453V266.57a.709.709,0,0,0-.708-.709H39.262a.709.709,0,0,0-.708.709v14.883Z" transform="translate(-35.466 -244.567)" fill="#f78721"/>
            <g id="Grupo_971823" data-name="Grupo 971823" transform="translate(3.843 21.295)" opacity="0.1" style="isolation: isolate">
              <g id="Grupo_971822" data-name="Grupo 971822">
                <g id="Grupo_971821" data-name="Grupo 971821" clip-path="url(#clip-path-7)">
                  <path id="Trazado_214778" data-name="Trazado 214778" d="M51.786,281.453V266.57a.71.71,0,0,0-.708-.709h-.623v12a3.846,3.846,0,0,1-2.473,3.592Z" transform="translate(-47.983 -265.861)"/>
                </g>
              </g>
            </g>
            <path id="Trazado_214779" data-name="Trazado 214779" d="M60.109,46.545a1.222,1.222,0,0,1-.6-.159L52.322,42.31a1.226,1.226,0,0,1,1.21-2.132l6.353,3.605,6.523-6.808a1.227,1.227,0,0,1,1.452-.239l6.127,3.2,6.6-11.787a1.225,1.225,0,1,1,2.138,1.2L75.544,42.17a1.226,1.226,0,0,1-1.636.488l-6.367-3.323-6.546,6.832A1.224,1.224,0,0,1,60.109,46.545Z" transform="translate(-47.56 -25.316)" fill="#474747"/>
            <path id="Trazado_214780" data-name="Trazado 214780" d="M81.061,15.584A5.587,5.587,0,1,1,75.475,10,5.586,5.586,0,0,1,81.061,15.584Z" transform="translate(-64.289 -9.197)" fill="#f78721"/>
            <path id="Trazado_214781" data-name="Trazado 214781" d="M98.68,34.883a3.907,3.907,0,1,1-3.906-3.906,3.906,3.906,0,0,1,3.906,3.906" transform="translate(-83.588 -28.496)" fill="#fdcf17"/>
            <g id="Grupo_971826" data-name="Grupo 971826" transform="translate(7.72 2.923)" opacity="0.1" style="isolation: isolate">
              <g id="Grupo_971825" data-name="Grupo 971825">
                <g id="Grupo_971824" data-name="Grupo 971824" clip-path="url(#clip-path-8)">
                  <path id="Trazado_214782" data-name="Trazado 214782" d="M103.752,39.961a3.906,3.906,0,0,1-7.371,1.8,3.86,3.86,0,0,0,1.8.442,3.908,3.908,0,0,0,3.908-3.908,3.859,3.859,0,0,0-.442-1.8A3.9,3.9,0,0,1,103.752,39.961Z" transform="translate(-96.381 -36.498)"/>
                </g>
              </g>
            </g>
            <path id="Trazado_214783" data-name="Trazado 214783" d="M48.393,461.672a1.155,1.155,0,0,1-1.157,1.156H11.151a1.156,1.156,0,1,1,0-2.312H47.236a1.155,1.155,0,0,1,1.157,1.156" transform="translate(-9.193 -423.628)" fill="#e8f1f8"/>
            <path id="Trazado_214784" data-name="Trazado 214784" d="M375.807,16.26l-5.1-2.563a1.086,1.086,0,0,1,.078-1.974l4.02-1.642a1.083,1.083,0,0,1,1.459.735l1.08,4.206a1.087,1.087,0,0,1-1.541,1.238" transform="translate(-340.469 -9.198)" fill="#474747"/>
            <path id="Trazado_214785" data-name="Trazado 214785" d="M123.45,50.04h1.224a.409.409,0,0,0,0-.817H124.1v-.2a.409.409,0,0,0-.817,0v.22a1.143,1.143,0,0,0,.165,2.274h.487a.328.328,0,0,1,0,.657h-1.224a.408.408,0,0,0,0,.817h.571v.2a.409.409,0,0,0,.817,0V52.97a1.143,1.143,0,0,0-.165-2.274h-.486a.328.328,0,1,1,0-.657" transform="translate(-112.51 -44.717)"/>
            <path id="Trazado_214786" data-name="Trazado 214786" d="M25.186,75.47H26.6a.408.408,0,1,0,0-.816H25.186a.408.408,0,1,0,0,.817" transform="translate(-22.793 -68.674)"/>
            <path id="Trazado_214787" data-name="Trazado 214787" d="M36.208,50.631a.409.409,0,0,0,.578-.578l-.508-.508a.409.409,0,0,0-.578.578Z" transform="translate(-32.731 -45.467)"/>
            <path id="Trazado_214788" data-name="Trazado 214788" d="M36.287,94.742l.508-.508a.409.409,0,0,0-.579-.577l-.508.508a.409.409,0,1,0,.579.577" transform="translate(-32.739 -86.045)"/>
            <path id="Trazado_214789" data-name="Trazado 214789" d="M228.912,75.062a.407.407,0,0,0-.408-.408h-1.41a.408.408,0,0,0,0,.816h1.41a.408.408,0,0,0,.408-.409" transform="translate(-208.529 -68.674)"/>
            <path id="Trazado_214790" data-name="Trazado 214790" d="M227.859,50.631l.508-.508a.408.408,0,0,0-.576-.578l-.508.508a.408.408,0,0,0,.576.578" transform="translate(-208.967 -45.467)"/>
            <path id="Trazado_214791" data-name="Trazado 214791" d="M227.277,93.658a.411.411,0,0,0,0,.578l.508.508a.408.408,0,1,0,.578-.577l-.506-.508a.411.411,0,0,0-.58,0" transform="translate(-208.964 -86.046)"/>
            <path id="Trazado_214792" data-name="Trazado 214792" d="M47.433,21.854l7.187,4.077a1.628,1.628,0,0,0,1.983-.293l6.336-6.609,6.1,3.179a1.642,1.642,0,0,0,2.18-.648l5.708-10.186,1.107.557a1.494,1.494,0,0,0,2.118-1.7L79.071,6.02a1.494,1.494,0,0,0-2.012-1.012L73.04,6.65a1.493,1.493,0,0,0-.106,2.717L74,9.9l-4.859,8.673L63.362,15.56a1.655,1.655,0,0,0-1.936.321l-6.3,6.576-6.079-3.446a1.634,1.634,0,1,0-1.614,2.843M73.3,8.637a.676.676,0,0,1,.048-1.23l4.019-1.643a.675.675,0,0,1,.912.458l1.077,4.206a.676.676,0,0,1-.959.772h0ZM47.528,20.03a.819.819,0,0,1,1.115-.309L55,23.324a.409.409,0,0,0,.5-.073l6.519-6.8a.83.83,0,0,1,.971-.163l6.127,3.2a.409.409,0,0,0,.545-.163l5.071-9.051,1.463.736L70.5,21.16a.82.82,0,0,1-1.089.323l-6.368-3.321a.41.41,0,0,0-.483.08l-6.549,6.831a.831.831,0,0,1-.99.147l-7.185-4.077A.822.822,0,0,1,47.528,20.03Z" transform="translate(-42.875 -4.504)"/>
            <path id="Trazado_214793" data-name="Trazado 214793" d="M90.08,25.879A4.315,4.315,0,1,0,94.4,30.194a4.32,4.32,0,0,0-4.315-4.315m0,7.813a3.5,3.5,0,1,1,3.5-3.5,3.5,3.5,0,0,1-3.5,3.5" transform="translate(-78.895 -23.806)"/>
            <path id="Trazado_214794" data-name="Trazado 214794" d="M70.784,4.9a6,6,0,1,0,5.995,5.995A6,6,0,0,0,70.784,4.9m0,11.174a5.179,5.179,0,1,1,5.178-5.18,5.186,5.186,0,0,1-5.178,5.18" transform="translate(-59.597 -4.506)"/>
            <path id="Trazado_214795" data-name="Trazado 214795" d="M6.461,193.381H42.546a1.565,1.565,0,1,0,0-3.13H41.289V168.278a1.118,1.118,0,0,0-1.116-1.116H37.03a1.117,1.117,0,0,0-1.116,1.116v21.973H34.106v-12.77a1.118,1.118,0,0,0-1.116-1.116H29.848a1.118,1.118,0,0,0-1.116,1.116v12.77H26.924V174.4a1.118,1.118,0,0,0-1.116-1.116H22.665a1.117,1.117,0,0,0-1.116,1.116v15.849H19.741v-10.1a1.118,1.118,0,0,0-1.116-1.116H15.482a1.118,1.118,0,0,0-1.116,1.116v10.1H12.558V175.775a1.117,1.117,0,0,0-1.116-1.116H8.3a1.117,1.117,0,0,0-1.116,1.116v14.476H6.461a1.565,1.565,0,1,0,0,3.13Zm30.271-25.1a.3.3,0,0,1,.3-.3h3.142a.3.3,0,0,1,.3.3v21.973h-3.74V168.278Zm-7.183,9.2a.3.3,0,0,1,.3-.3H32.99a.3.3,0,0,1,.3.3v12.77H29.549v-12.77ZM22.366,174.4a.3.3,0,0,1,.3-.3h3.142a.3.3,0,0,1,.3.3v15.849h-3.74Zm-7.183,5.746a.3.3,0,0,1,.3-.3h3.142a.3.3,0,0,1,.3.3v10.1H15.183v-10.1ZM8,175.775a.3.3,0,0,1,.3-.3h3.142a.3.3,0,0,1,.3.3v14.476H8ZM6.461,191.067H42.546a.748.748,0,1,1,0,1.5H6.461a.748.748,0,0,1,0-1.5" transform="translate(-4.504 -153.773)"/>
            <path id="Trazado_214796" data-name="Trazado 214796" d="M313.387,302.076V288.635a.722.722,0,0,0-.721-.723h-3.205a.724.724,0,0,0-.723.723v13.441Z" transform="translate(-284.009 -264.851)" fill="#0e9c4a"/>
            <g id="Grupo_971829" data-name="Grupo 971829" transform="translate(25.499 23.061)" opacity="0.1" style="isolation: isolate">
              <g id="Grupo_971828" data-name="Grupo 971828">
                <g id="Grupo_971827" data-name="Grupo 971827" clip-path="url(#clip-path-9)">
                  <path id="Trazado_214797" data-name="Trazado 214797" d="M322.232,302.076V288.635a.722.722,0,0,0-.723-.723h-.635v10.5a3.922,3.922,0,0,1-2.521,3.664Z" transform="translate(-318.354 -287.912)"/>
                </g>
              </g>
            </g>
            <path id="Trazado_214798" data-name="Trazado 214798" d="M404.855,194.266V171.438a.722.722,0,0,0-.721-.723H400.93a.724.724,0,0,0-.723.723v22.828Z" transform="translate(-368.151 -157.041)" fill="#f14f4a"/>
            <g id="Grupo_971832" data-name="Grupo 971832" transform="translate(32.826 13.674)" opacity="0.1" style="isolation: isolate">
              <g id="Grupo_971831" data-name="Grupo 971831">
                <g id="Grupo_971830" data-name="Grupo 971830" clip-path="url(#clip-path-10)">
                  <path id="Trazado_214799" data-name="Trazado 214799" d="M413.7,194.266V171.438a.721.721,0,0,0-.719-.723h-.637V190.6a3.921,3.921,0,0,1-2.523,3.662Z" transform="translate(-409.822 -170.715)"/>
                </g>
              </g>
            </g>
            <path id="Trazado_214800" data-name="Trazado 214800" d="M221.918,266.01V249.43a.721.721,0,0,0-.721-.723h-3.205a.722.722,0,0,0-.723.723v16.58Z" transform="translate(-199.867 -228.786)" fill="#475da9"/>
            <g id="Grupo_971835" data-name="Grupo 971835" transform="translate(18.173 19.921)" opacity="0.1" style="isolation: isolate">
              <g id="Grupo_971834" data-name="Grupo 971834">
                <g id="Grupo_971833" data-name="Grupo 971833" clip-path="url(#clip-path-11)">
                  <path id="Trazado_214801" data-name="Trazado 214801" d="M230.766,266.01V249.43a.724.724,0,0,0-.723-.723h-.635v13.639a3.924,3.924,0,0,1-2.523,3.664Z" transform="translate(-226.885 -248.707)"/>
                </g>
              </g>
            </g>
            <path id="Trazado_214802" data-name="Trazado 214802" d="M130.449,333.314V322.592a.719.719,0,0,0-.722-.719h-3.205a.72.72,0,0,0-.723.719v10.723Z" transform="translate(-115.724 -296.092)" fill="#f14f4a"/>
            <g id="Grupo_971838" data-name="Grupo 971838" transform="translate(10.847 25.781)" opacity="0.1" style="isolation: isolate">
              <g id="Grupo_971837" data-name="Grupo 971837">
                <g id="Grupo_971836" data-name="Grupo 971836" clip-path="url(#clip-path-12)">
                  <path id="Trazado_214803" data-name="Trazado 214803" d="M139.3,333.314V322.592a.721.721,0,0,0-.722-.719h-.636v7.777a3.927,3.927,0,0,1-2.522,3.664Z" transform="translate(-135.418 -321.873)"/>
                </g>
              </g>
            </g>
            <path id="Trazado_214804" data-name="Trazado 214804" d="M38.98,282.088V266.906a.723.723,0,0,0-.722-.723H35.053a.723.723,0,0,0-.722.723v15.182Z" transform="translate(-31.581 -244.863)" fill="#f78721"/>
            <g id="Grupo_971841" data-name="Grupo 971841" transform="translate(3.52 21.321)" opacity="0.1" style="isolation: isolate">
              <g id="Grupo_971840" data-name="Grupo 971840">
                <g id="Grupo_971839" data-name="Grupo 971839" clip-path="url(#clip-path-13)">
                  <path id="Trazado_214805" data-name="Trazado 214805" d="M47.828,282.088V266.906a.722.722,0,0,0-.722-.723h-.635v12.242a3.925,3.925,0,0,1-2.522,3.662Z" transform="translate(-43.949 -266.184)"/>
                </g>
              </g>
            </g>
            <path id="Trazado_214806" data-name="Trazado 214806" d="M56.315,42.481a1.249,1.249,0,0,1-.616-.163L48.372,38.16a1.25,1.25,0,0,1,1.234-2.174l6.48,3.677,6.654-6.944a1.251,1.251,0,0,1,1.481-.244l6.25,3.262L77.2,23.714a1.25,1.25,0,1,1,2.181,1.221L72.059,38.018a1.25,1.25,0,0,1-1.669.5L63.9,35.126,57.219,42.1A1.248,1.248,0,0,1,56.315,42.481Z" transform="translate(-43.915 -21.227)" fill="#474747"/>
            <path id="Trazado_214807" data-name="Trazado 214807" d="M77.688,10.9a5.7,5.7,0,1,1-5.7-5.7,5.7,5.7,0,0,1,5.7,5.7" transform="translate(-60.982 -4.788)" fill="#f78721"/>
            <path id="Trazado_214808" data-name="Trazado 214808" d="M95.66,30.587A3.985,3.985,0,1,1,91.675,26.6a3.984,3.984,0,0,1,3.984,3.984" transform="translate(-80.666 -24.472)" fill="#fdcf17"/>
            <g id="Grupo_971844" data-name="Grupo 971844" transform="translate(7.474 2.582)" opacity="0.1" style="isolation: isolate">
              <g id="Grupo_971843" data-name="Grupo 971843">
                <g id="Grupo_971842" data-name="Grupo 971842" clip-path="url(#clip-path-14)">
                  <path id="Trazado_214809" data-name="Trazado 214809" d="M100.833,35.765a3.984,3.984,0,0,1-7.519,1.841,3.944,3.944,0,0,0,1.838.451,3.986,3.986,0,0,0,3.986-3.986,3.939,3.939,0,0,0-.451-1.838A3.973,3.973,0,0,1,100.833,35.765Z" transform="translate(-93.314 -32.233)"/>
                </g>
              </g>
            </g>
            <path id="Trazado_214810" data-name="Trazado 214810" d="M44.367,465.91a1.179,1.179,0,0,1-1.18,1.18H6.38a1.178,1.178,0,1,1,0-2.355H43.187a1.178,1.178,0,0,1,1.18,1.176" transform="translate(-4.784 -427.51)" fill="#e8f1f8"/>
            <path id="Trazado_214811" data-name="Trazado 214811" d="M378.328,11.591l-5.2-2.615a1.107,1.107,0,0,1,.078-2.013l4.1-1.675a1.109,1.109,0,0,1,1.492.75l1.1,4.29a1.107,1.107,0,0,1-1.57,1.263" transform="translate(-342.683 -4.789)" fill="#474747"/>
            <path id="Trazado_214812" data-name="Trazado 214812" d="M120.926,46.046h1.248a.417.417,0,1,0,0-.833h-.583V45a.417.417,0,1,0-.833,0v.225a1.166,1.166,0,0,0,.168,2.319h.5a.335.335,0,1,1,0,.67h-1.249a.417.417,0,0,0,0,.833h.584v.208a.417.417,0,1,0,.833,0v-.225a1.166,1.166,0,0,0-.168-2.319h-.5a.335.335,0,0,1,0-.67Z" transform="translate(-110.166 -41.016)"/>
            <path id="Trazado_214813" data-name="Trazado 214813" d="M20.7,71.985h1.44a.417.417,0,1,0,0-.833H20.7a.417.417,0,0,0,0,.834" transform="translate(-18.656 -65.452)"/>
            <path id="Trazado_214814" data-name="Trazado 214814" d="M31.938,46.65a.417.417,0,0,0,.589-.589l-.518-.518a.417.417,0,0,0-.589.589Z" transform="translate(-28.791 -41.783)"/>
            <path id="Trazado_214815" data-name="Trazado 214815" d="M32.02,91.645l.518-.518a.417.417,0,1,0-.59-.588l-.518.518a.417.417,0,1,0,.59.588" transform="translate(-28.801 -83.174)"/>
            <path id="Trazado_214816" data-name="Trazado 214816" d="M228.5,71.568a.417.417,0,0,0-.416-.417h-1.441a.417.417,0,0,0,0,.833h1.441a.418.418,0,0,0,.416-.417" transform="translate(-208.106 -65.452)"/>
            <path id="Trazado_214817" data-name="Trazado 214817" d="M227.426,46.65l.518-.518a.417.417,0,0,0-.59-.589l-.516.518a.416.416,0,0,0,.588.589" transform="translate(-208.556 -41.783)"/>
            <path id="Trazado_214818" data-name="Trazado 214818" d="M226.832,90.538a.414.414,0,0,0,0,.589l.516.518a.417.417,0,0,0,.592-.588l-.518-.518A.417.417,0,0,0,226.832,90.538Z" transform="translate(-208.55 -83.174)"/>
            <path id="Trazado_214819" data-name="Trazado 214819" d="M43.388,17.3l7.33,4.158a1.661,1.661,0,0,0,2.022-.3L59.2,14.415l6.218,3.243A1.675,1.675,0,0,0,67.646,17l5.821-10.39,1.13.568a1.524,1.524,0,0,0,2.16-1.739l-1.1-4.29A1.524,1.524,0,0,0,73.606.114l-4.1,1.675A1.523,1.523,0,0,0,69.4,4.561l1.086.546-4.956,8.846-5.893-3.076a1.688,1.688,0,0,0-1.975.328l-6.426,6.708-6.2-3.515a1.667,1.667,0,1,0-1.646,2.9ZM69.773,3.816a.689.689,0,0,1,.049-1.255l4.1-1.675a.689.689,0,0,1,.93.468l1.1,4.29a.689.689,0,0,1-.979.788h0ZM43.486,15.437a.835.835,0,0,1,1.137-.315L51.105,18.8a.417.417,0,0,0,.506-.074l6.648-6.94a.847.847,0,0,1,.991-.166l6.25,3.263a.418.418,0,0,0,.556-.166L71.23,5.482l1.492.751-5.8,10.357a.837.837,0,0,1-1.111.33l-6.5-3.387a.418.418,0,0,0-.493.081l-6.68,6.968a.848.848,0,0,1-1.009.15L43.8,16.573A.838.838,0,0,1,43.486,15.437Z" transform="translate(-39.138 0)"/>
            <path id="Trazado_214820" data-name="Trazado 214820" d="M86.888,21.4a4.4,4.4,0,1,0,4.4,4.4,4.407,4.407,0,0,0-4.4-4.4m0,7.97A3.568,3.568,0,1,1,90.456,25.8a3.572,3.572,0,0,1-3.568,3.569" transform="translate(-75.879 -19.688)"/>
            <path id="Trazado_214821" data-name="Trazado 214821" d="M67.2,0a6.116,6.116,0,1,0,6.115,6.115A6.122,6.122,0,0,0,67.2,0m0,11.4a5.282,5.282,0,1,1,5.282-5.283A5.289,5.289,0,0,1,67.2,11.4Z" transform="translate(-56.195 -0.002)"/>
            <path id="Trazado_214822" data-name="Trazado 214822" d="M1.6,192.254H38.4a1.6,1.6,0,0,0,0-3.193H37.121V166.65a1.14,1.14,0,0,0-1.139-1.14H32.777a1.141,1.141,0,0,0-1.138,1.14v22.41H29.795V176.037a1.14,1.14,0,0,0-1.139-1.139H25.451a1.14,1.14,0,0,0-1.139,1.139v13.023H22.468V172.9a1.139,1.139,0,0,0-1.139-1.138H18.124a1.139,1.139,0,0,0-1.138,1.138v16.164H15.142v-10.3A1.139,1.139,0,0,0,14,177.619H10.8a1.139,1.139,0,0,0-1.139,1.138v10.3H7.815V174.3a1.14,1.14,0,0,0-1.138-1.139H3.472A1.14,1.14,0,0,0,2.333,174.3v14.764H1.6a1.6,1.6,0,0,0,0,3.193Zm30.876-25.6a.305.305,0,0,1,.3-.306h3.205a.305.305,0,0,1,.305.306v22.41H32.472Zm-7.327,9.387a.305.305,0,0,1,.305-.3h3.205a.305.305,0,0,1,.305.3v13.023H25.146ZM17.819,172.9a.3.3,0,0,1,.3-.3h3.205a.305.305,0,0,1,.305.3v16.164H17.819Zm-7.327,5.86a.305.305,0,0,1,.305-.306H14a.305.305,0,0,1,.305.306v10.3H10.493ZM3.166,174.3a.305.305,0,0,1,.305-.306H6.677a.305.305,0,0,1,.3.306v14.764H3.166Zm-1.57,15.6H38.4a.764.764,0,0,1,0,1.527H1.6a.764.764,0,0,1,0-1.527Z" transform="translate(0 -152.254)"/>
          </g>
        </g>
      </g>
    </g>
  </g>
</svg>
