<svg xmlns="http://www.w3.org/2000/svg" xmlns:xlink="http://www.w3.org/1999/xlink" width="137" height="136" viewBox="0 0 137 136">
  <defs>
    <clipPath id="clip-path">
      <rect id="Rectángulo_340798" data-name="Rectángulo 340798" width="58.386" height="71.181" fill="none"/>
    </clipPath>
  </defs>
  <g id="Grupo_970871" data-name="Grupo 970871" transform="translate(-382 -1607)">
    <ellipse id="Elipse_5246" data-name="Elipse 5246" cx="68.5" cy="68" rx="68.5" ry="68" transform="translate(382 1607)" fill="#f6f6f6"/>
    <g id="Grupo_970867" data-name="Grupo 970867" transform="translate(422 1639.47)">
      <g id="Grupo_970866" data-name="Grupo 970866" clip-path="url(#clip-path)">
        <path id="Trazado_190690" data-name="Trazado 190690" d="M10.373,8H60.2a2.373,2.373,0,0,1,2.373,2.373V74.435A2.373,2.373,0,0,1,60.2,76.808H10.373A2.373,2.373,0,0,1,8,74.435V10.373A2.373,2.373,0,0,1,10.373,8" transform="translate(-6.814 -6.814)" fill="#00b378"/>
        <path id="Trazado_190691" data-name="Trazado 190691" d="M21.324,158.537a2.376,2.376,0,0,0,.4.036H71.547A2.373,2.373,0,0,0,73.92,156.2V104a54.573,54.573,0,0,1-52.6,54.536" transform="translate(-18.162 -88.578)" fill="#009866"/>
        <rect id="Rectángulo_340789" data-name="Rectángulo 340789" width="45" height="60" transform="translate(6 5.531)" fill="#aae5cf"/>
        <path id="Trazado_190692" data-name="Trazado 190692" d="M185.831,281.838V254.3a54.776,54.776,0,0,1-27.539,27.538Z" transform="translate(-134.818 -216.589)" fill="#91c3b0"/>
        <path id="Trazado_190693" data-name="Trazado 190693" d="M349.491,90.415a2.373,2.373,0,0,1,4.611,1.119v0l-.847,3.483-4.58-1.249Z" transform="translate(-296.969 -75.463)"/>
        <path id="Trazado_190694" data-name="Trazado 190694" d="M69.555,241.6l-3.212-3.211,1.678-1.678,1.534,1.534,3.906-3.907,1.678,1.678Z" transform="translate(-56.505 -199.592)" fill="#31c292"/>
        <rect id="Rectángulo_340790" data-name="Rectángulo 340790" width="8" height="2" transform="translate(20 39.531)" fill="#70d6b1"/>
        <path id="Trazado_190695" data-name="Trazado 190695" d="M69.555,305.6l-3.212-3.211,1.678-1.678,1.534,1.534,3.906-3.907,1.678,1.678Z" transform="translate(-56.505 -254.101)" fill="#31c292"/>
        <rect id="Rectángulo_340791" data-name="Rectángulo 340791" width="8" height="2" transform="translate(20 48.531)" fill="#70d6b1"/>
        <path id="Trazado_190696" data-name="Trazado 190696" d="M69.555,369.6l-3.212-3.211,1.678-1.678,1.534,1.534,3.906-3.907,1.678,1.678Z" transform="translate(-56.505 -308.61)" fill="#31c292"/>
        <rect id="Rectángulo_340792" data-name="Rectángulo 340792" width="8" height="2" transform="translate(20 58.531)" fill="#70d6b1"/>
        <path id="Trazado_190697" data-name="Trazado 190697" d="M130.677,72A10.677,10.677,0,1,1,120,82.677,10.677,10.677,0,0,1,130.677,72" transform="translate(-102.205 -61.323)" fill="#ff8662"/>
        <path id="Trazado_190698" data-name="Trazado 190698" d="M205.555,241.6l-3.212-3.211,1.678-1.678,1.534,1.534,3.906-3.907,1.678,1.678Z" transform="translate(-172.337 -199.592)" fill="#31c292"/>
        <rect id="Rectángulo_340793" data-name="Rectángulo 340793" width="6" height="2" transform="translate(40 39.531)" fill="#70d6b1"/>
        <path id="Trazado_190699" data-name="Trazado 190699" d="M205.555,305.6l-3.212-3.211,1.678-1.678,1.534,1.534,3.906-3.907,1.678,1.678Z" transform="translate(-172.337 -254.101)" fill="#31c292"/>
        <path id="Trazado_190700" data-name="Trazado 190700" d="M180.745,108.04v-1.667a2.373,2.373,0,1,0-4.745,0v1.667a2.373,2.373,0,0,0,.385,1.3l1.987,3.047,1.987-3.047a2.373,2.373,0,0,0,.385-1.3" transform="translate(-149.9 -88.578)" fill="#ffbfac"/>
        <path id="Trazado_190701" data-name="Trazado 190701" d="M156.906,163.362l-5.787-2.829-5.788,2.829a2.373,2.373,0,0,0-1.33,2.132v.544a10.671,10.671,0,0,0,14.236,0v-.544a2.373,2.373,0,0,0-1.331-2.132" transform="translate(-122.646 -136.727)" fill="#ffbfac"/>
        <path id="Trazado_190702" data-name="Trazado 190702" d="M205.555,369.6l-3.212-3.211,1.678-1.678,1.534,1.534,3.906-3.907,1.678,1.678Z" transform="translate(-172.337 -308.61)" fill="#31c292"/>
        <path id="Trazado_190703" data-name="Trazado 190703" d="M219.338,377.892l5.584-5.584-.235-.235a54.84,54.84,0,0,1-6.161,5.007Z" transform="translate(-186.12 -316.897)" fill="#2aa57c"/>
        <rect id="Rectángulo_340794" data-name="Rectángulo 340794" width="4" height="2" transform="translate(40 48.531)" fill="#70d6b1"/>
        <path id="Trazado_190704" data-name="Trazado 190704" d="M288.284,333.1q-.655.823-1.343,1.617h1.343Z" transform="translate(-244.39 -283.699)" fill="#5fb697"/>
        <path id="Trazado_190705" data-name="Trazado 190705" d="M297.814,90.421a2.373,2.373,0,1,1,4.611,1.122l-9.814,40.346-3.147,2.9L288,130.767Z" transform="translate(-245.292 -75.469)" fill="#ff8662"/>
        <path id="Trazado_190706" data-name="Trazado 190706" d="M349.491,90.415a2.373,2.373,0,0,1,4.611,1.119v0l-.847,3.483-4.58-1.249Z" transform="translate(-296.969 -75.463)" fill="#ef7154"/>
        <path id="Trazado_190707" data-name="Trazado 190707" d="M289.547,226.88,288,233.24l1.464,4.019,3.147-2.9,6.188-25.438a54.407,54.407,0,0,1-9.252,17.957" transform="translate(-245.292 -177.941)" fill="#d97253"/>
        <path id="Trazado_190708" data-name="Trazado 190708" d="M56.945,12.653V3.559A3.563,3.563,0,0,0,53.385,0H3.559A3.563,3.563,0,0,0,0,3.559V67.622a3.563,3.563,0,0,0,3.559,3.559H53.385a3.563,3.563,0,0,0,3.559-3.559V21.869l1.341-5.514a3.564,3.564,0,0,0-1.341-3.7M54.572,67.622a1.188,1.188,0,0,1-1.186,1.186H3.559a1.188,1.188,0,0,1-1.186-1.186V3.559A1.188,1.188,0,0,1,3.559,2.373H53.385a1.188,1.188,0,0,1,1.186,1.186v8.4A3.576,3.576,0,0,0,52.2,13.115V4.745H4.745v61.69H52.2V41.378l2.373-9.754Zm-9.734-26.1L43.107,48.64H40.336v2.373H42.53l-1.059,4.354,2.2,6.029,4.72-4.346,1.439-5.917V64.063H7.118V7.118H49.826v13.9L45.415,39.149h-5.08v2.373Zm4.993-.449h0v.02l-3.575,14.7-1.573,1.449-.732-2.009,8.24-33.875H52.2V21.3l.354-1.456,2.306.561ZM55.98,15.794,55.419,18.1l-2.305-.561.561-2.306h0a1.186,1.186,0,1,1,2.305.561Z"/>
        <path id="Trazado_190709" data-name="Trazado 190709" d="M69.555,238.25l-1.534-1.534-1.678,1.678,3.212,3.211,5.584-5.584-1.678-1.678Z" transform="translate(-56.505 -199.592)"/>
        <rect id="Rectángulo_340795" data-name="Rectángulo 340795" width="8" height="2" transform="translate(20 39.531)"/>
        <path id="Trazado_190710" data-name="Trazado 190710" d="M69.555,302.25l-1.534-1.534-1.678,1.678,3.212,3.211,5.584-5.584-1.678-1.678Z" transform="translate(-56.505 -254.101)"/>
        <rect id="Rectángulo_340796" data-name="Rectángulo 340796" width="8" height="2" transform="translate(20 48.531)"/>
        <path id="Trazado_190711" data-name="Trazado 190711" d="M69.555,366.25l-1.534-1.534-1.678,1.678,3.212,3.211,5.584-5.584-1.678-1.678Z" transform="translate(-56.505 -308.61)"/>
        <rect id="Rectángulo_340797" data-name="Rectángulo 340797" width="8" height="2" transform="translate(20 58.531)"/>
        <path id="Trazado_190712" data-name="Trazado 190712" d="M123.863,64a11.863,11.863,0,1,0,11.863,11.863A11.863,11.863,0,0,0,123.863,64m0,21.354a9.442,9.442,0,0,1-5.931-2.089,1.193,1.193,0,0,1,.664-1.054l5.266-2.575,5.266,2.575a1.194,1.194,0,0,1,.664,1.055,9.443,9.443,0,0,1-5.931,2.089m-1.186-11.382V72.3a1.186,1.186,0,0,1,2.373,0v1.667a1.183,1.183,0,0,1-.193.648l-.994,1.524-.994-1.524a1.183,1.183,0,0,1-.193-.648m8.921,7.382a3.556,3.556,0,0,0-1.426-1.275l-4.582-2.24,1.254-1.923a3.552,3.552,0,0,0,.578-1.944V72.3a3.559,3.559,0,1,0-7.118,0v1.667a3.55,3.55,0,0,0,.578,1.944l1.254,1.923-4.582,2.24a3.557,3.557,0,0,0-1.426,1.275,9.491,9.491,0,1,1,15.468,0Z" transform="translate(-95.391 -54.509)"/>
        <path id="Trazado_190713" data-name="Trazado 190713" d="M205.555,238.25l-1.534-1.534-1.678,1.678,3.212,3.211,5.584-5.584-1.678-1.678Z" transform="translate(-172.337 -199.592)"/>
        <path id="Trazado_190714" data-name="Trazado 190714" d="M205.555,302.25l-1.534-1.534-1.678,1.678,3.212,3.211,5.584-5.584-1.678-1.678Z" transform="translate(-172.337 -254.101)"/>
        <path id="Trazado_190715" data-name="Trazado 190715" d="M205.555,366.25l-1.534-1.534-1.678,1.678,3.212,3.211,5.584-5.584-1.678-1.678Z" transform="translate(-172.337 -308.61)"/>
      </g>
    </g>
  </g>
</svg>
