<svg xmlns="http://www.w3.org/2000/svg" xmlns:xlink="http://www.w3.org/1999/xlink" width="137" height="136" viewBox="0 0 137 136">
  <defs>
    <clipPath id="clip-path">
      <rect id="Rectángulo_340783" data-name="Rectángulo 340783" width="89.515" height="71.18" fill="none"/>
    </clipPath>
  </defs>
  <g id="Grupo_970872" data-name="Grupo 970872" transform="translate(-732 -1607)">
    <ellipse id="Elipse_5247" data-name="Elipse 5247" cx="68.5" cy="68" rx="68.5" ry="68" transform="translate(732 1607)" fill="#f6f6f6"/>
    <g id="Grupo_970863" data-name="Grupo 970863" transform="translate(756.228 1639.47)">
      <path id="Trazado_190625" data-name="Trazado 190625" d="M27.246,74.634,5.334,62.2V5.325l21.913,12.43Z" transform="translate(-4.401 -4.394)" fill="#f1f2f2"/>
      <g id="Grupo_970862" data-name="Grupo 970862">
        <g id="Grupo_970861" data-name="Grupo 970861" clip-path="url(#clip-path)">
          <path id="Trazado_190626" data-name="Trazado 190626" d="M22.845,71.173c-.382,0,1.082.755-22.379-12.551A.933.933,0,0,1,0,57.811V.932A.933.933,0,0,1,1.389.121L23.311,12.55a.933.933,0,0,1,.476.811v56.88a.932.932,0,0,1-.932.932h-.009M1.865,57.27,21.913,68.646V13.912L1.865,2.536Z" transform="translate(0 -0.001)"/>
          <path id="Trazado_190627" data-name="Trazado 190627" d="M44.849,52.278v48.3L26.667,90.266v-48.3Z" transform="translate(-22.004 -34.628)" fill="#2faa90"/>
          <path id="Trazado_190628" data-name="Trazado 190628" d="M48,118.327V78.605l10.723,6.08v39.722Z" transform="translate(-39.608 -64.862)" fill="#2f7877"/>
          <path id="Trazado_190629" data-name="Trazado 190629" d="M41.12,82.937V94.126L30.4,88.093V83.431a1.865,1.865,0,0,0-3.73,0v6.816L44.85,100.579V85.063ZM26.667,41.965v15.1l3.73,2.117V48.371L41.12,54.45V68.195l2.331,1.287,1.436-2.574V52.278Z" transform="translate(-22.005 -34.628)" fill="#43c8b8"/>
          <path id="Trazado_190630" data-name="Trazado 190630" d="M40.448,97.118c-.364,0,.876.634-18.649-10.434a.932.932,0,0,1-.466-.811v-48.3a.933.933,0,0,1,1.389-.811L40.914,47.073a.932.932,0,0,1,.476.811v48.3a.933.933,0,0,1-.932.933ZM23.2,85.332l16.318,9.241V48.426L23.2,39.176Z" transform="translate(-17.603 -30.235)"/>
          <path id="Trazado_190631" data-name="Trazado 190631" d="M48,98.308v-19.7l10.723,6.08V104.4Z" transform="translate(-39.608 -64.862)" fill="#4396a4"/>
          <path id="Trazado_190632" data-name="Trazado 190632" d="M54.322,100.936c-.354,0,.55.448-11.189-6.21a.933.933,0,0,1-.466-.811v-19.7a.933.933,0,0,1,1.389-.811l10.733,6.08a.933.933,0,0,1,.476.811V100a.933.933,0,0,1-.932.933h-.009m-9.791-7.562L53.389,98.4V80.832l-8.858-5.026Z" transform="translate(-35.206 -60.469)"/>
          <path id="Trazado_190633" data-name="Trazado 190633" d="M152.58,62.2,130.667,74.634V17.755L152.58,5.325Z" transform="translate(-107.822 -4.394)" fill="#f1f2f2"/>
          <path id="Trazado_190634" data-name="Trazado 190634" d="M126.266,71.172a.932.932,0,0,1-.933-.932V13.36a.933.933,0,0,1,.476-.811L147.721.12a.932.932,0,0,1,1.389.811V57.81a.932.932,0,0,1-.476.811C125.212,71.909,126.629,71.172,126.266,71.172Zm.932-57.262V68.646L147.246,57.27V2.535Z" transform="translate(-103.421 0)"/>
          <path id="Trazado_190635" data-name="Trazado 190635" d="M152.846,29.858v48.3L130.934,90.589v-48.3Z" transform="translate(-108.042 -24.638)" fill="#43d277"/>
          <path id="Trazado_190636" data-name="Trazado 190636" d="M126.533,87.1a.933.933,0,0,1-.933-.933v-48.3a.932.932,0,0,1,.466-.811c19.087-10.816-7.655,4.354,21.913-12.43a.932.932,0,0,1,1.4.811v48.3a.932.932,0,0,1-.476.811C125.479,87.839,126.9,87.1,126.533,87.1m.932-48.693V84.557L147.513,73.19V27.043C119.7,42.83,140.743,30.876,127.465,38.41Z" transform="translate(-103.641 -20.219)"/>
          <path id="Trazado_190637" data-name="Trazado 190637" d="M152,233.316l8.15-14.658,6.3,2.872v10.248L152,239.974Z" transform="translate(-125.425 -180.429)" fill="#fed9b7"/>
          <path id="Trazado_190638" data-name="Trazado 190638" d="M147.571,236.5a.933.933,0,0,1-.933-.933c0-7.189-.047-6.807.121-7.105l8.15-14.667a.932.932,0,0,1,1.2-.392l6.294,2.872a.933.933,0,0,1,.55.848V227.38a.933.933,0,0,1-.476.811C146.75,237.105,147.934,236.5,147.571,236.5Zm.932-7.348v4.821l12.588-7.143v-9.11l-4.97-2.266Z" transform="translate(-120.996 -176.022)"/>
          <path id="Trazado_190639" data-name="Trazado 190639" d="M277.913,74.634,256,62.2V5.325l21.913,12.43Z" transform="translate(-211.243 -4.394)" fill="#f1f2f2"/>
          <path id="Trazado_190640" data-name="Trazado 190640" d="M273.511,71.173c-.382,0,1.082.755-22.379-12.551a.932.932,0,0,1-.466-.811V.932a.933.933,0,0,1,1.389-.811L273.977,12.55a.933.933,0,0,1,.476.811v56.88a.932.932,0,0,1-.932.932h-.009m-20.98-13.9,20.048,11.376V13.912L252.531,2.536Z" transform="translate(-206.841 -0.001)"/>
          <path id="Trazado_190641" data-name="Trazado 190641" d="M256,78.159v-48.3l21.912,12.43v48.3Z" transform="translate(-211.242 -24.638)" fill="#2faa90"/>
          <path id="Trazado_190642" data-name="Trazado 190642" d="M277.333,106.221V66.5l14.453,8.2v39.732Z" transform="translate(-228.846 -54.872)" fill="#2f7877"/>
          <path id="Trazado_190643" data-name="Trazado 190643" d="M276.794,205.858l-2.611.559V229.43l-14.453-8.215v-4.494a1.865,1.865,0,0,0-3.73,0v6.667l21.9,12.429c.084.093,0,.084,0-28.906Z" transform="translate(-211.242 -169.867)" fill="#20506d"/>
          <path id="Trazado_190644" data-name="Trazado 190644" d="M264.495,34.68,256,29.859V44.508a1.865,1.865,0,1,0,3.73,0V36.265l2.928,1.66a1.871,1.871,0,1,0,1.865-3.245Z" transform="translate(-211.242 -24.639)" fill="#43c8b8"/>
          <path id="Trazado_190645" data-name="Trazado 190645" d="M273.511,87.128c-.382,0,1.082.755-22.379-12.551a.932.932,0,0,1-.466-.811v-48.3a.932.932,0,0,1,1.389-.811l21.922,12.429a.933.933,0,0,1,.476.811V86.2a.932.932,0,0,1-.932.932h-.009m-20.98-13.9,20.048,11.357V38.445L252.531,27.069Z" transform="translate(-206.841 -20.245)"/>
          <path id="Trazado_190646" data-name="Trazado 190646" d="M403.246,62.2,381.334,74.634V17.755L403.246,5.325Z" transform="translate(-314.664 -4.394)" fill="#f1f2f2"/>
          <path id="Trazado_190647" data-name="Trazado 190647" d="M376.933,71.172A.932.932,0,0,1,376,70.24V13.36a.933.933,0,0,1,.476-.811L398.388.12a.932.932,0,0,1,1.389.811V57.81a.932.932,0,0,1-.476.811C375.879,71.909,377.3,71.172,376.933,71.172m.932-57.262V68.646L397.913,57.27V2.535Z" transform="translate(-310.262 0)"/>
          <path id="Trazado_190648" data-name="Trazado 190648" d="M376.933,97.117a.933.933,0,0,1-.933-.933v-48.3a.933.933,0,0,1,.476-.811L394.658,36.76a.932.932,0,0,1,1.389.811v48.3a.932.932,0,0,1-.476.811C376.093,97.733,377.3,97.117,376.933,97.117Zm.932-48.693V94.572l16.318-9.241V39.175Z" transform="translate(-310.262 -30.234)" fill="#302d3d"/>
          <path id="Trazado_190649" data-name="Trazado 190649" d="M399.516,41.965v48.3l-18.183,10.313v-48.3Z" transform="translate(-314.663 -34.628)" fill="#43d277"/>
          <path id="Trazado_190650" data-name="Trazado 190650" d="M376.933,97.117a.933.933,0,0,1-.933-.933v-48.3a.933.933,0,0,1,.476-.811L394.658,36.76a.932.932,0,0,1,1.389.811v48.3a.932.932,0,0,1-.476.811C376.093,97.733,377.3,97.117,376.933,97.117Zm.932-48.693V94.572l16.318-9.241V39.175Z" transform="translate(-310.262 -30.234)" fill="#302d3d"/>
          <path id="Trazado_190651" data-name="Trazado 190651" d="M442.381,41.965V56.232l-9.1-9.11Z" transform="translate(-357.528 -34.628)" fill="#2a93ff"/>
          <path id="Trazado_190652" data-name="Trazado 190652" d="M437.307,52.5l-9.1-9.11a.932.932,0,0,1,.205-1.473l9.1-5.157a.932.932,0,0,1,1.389.811V51.838a.932.932,0,0,1-1.594.662M430.4,42.933l6.639,6.648V39.175Z" transform="translate(-353.116 -30.234)"/>
          <path id="Trazado_190653" data-name="Trazado 190653" d="M399.516,80.568V114.6l-18.183,10.313v-48.3l9.082-5.157Z" transform="translate(-314.663 -58.965)" fill="#43d277"/>
          <path id="Trazado_190654" data-name="Trazado 190654" d="M376.933,121.443a.933.933,0,0,1-.933-.933v-48.3a.933.933,0,0,1,.476-.811l9.082-5.157a.932.932,0,0,1,1.119.149l9.1,9.11a.932.932,0,0,1,.27.662V110.2a.932.932,0,0,1-.476.811c-19.479,11.05-18.276,10.434-18.64,10.434m.932-48.693V118.9l16.318-9.241V76.545l-8.327-8.327Z" transform="translate(-310.262 -54.56)"/>
          <path id="Trazado_190655" data-name="Trazado 190655" d="M402.667,253.436V246.5l6.471,6.061,4.252-2.536v5.949Z" transform="translate(-332.267 -203.402)" fill="#fed9b7"/>
          <path id="Trazado_190656" data-name="Trazado 190656" d="M408.987,252.518c-.159,0,.541.159-10.938-2.564a.933.933,0,0,1-.718-.933v-6.909a.932.932,0,0,1,1.567-.681l5.968,5.595,3.646-2.173a.932.932,0,0,1,1.408.783v5.949A.932.932,0,0,1,408.987,252.518Zm-9.791-4.205,8.858,2.1v-3.133l-2.8,1.7a.932.932,0,0,1-1.119-.121l-4.942-4.6Z" transform="translate(-327.864 -199.015)"/>
          <path id="Trazado_190657" data-name="Trazado 190657" d="M251.458,88.829A1,1,0,0,1,251,86.964a.981.981,0,1,1,.457,1.865Z" transform="translate(-206.7 -71.553)"/>
          <path id="Trazado_190658" data-name="Trazado 190658" d="M88.114,89.016,75.153,91.795l14.527,16.476,15.124,3.581-4.765,2.7-12.374-2.937L71,92.69l-4.457.933-11.4-5.166-9.576,17.222-18.9-10.723V90.667l17.465,9.912C45.548,98.042,57.782,76.046,59.3,73.351l-7.618-4.513,3.73-2.126,8.9,5.278-7.357,13.2,9.8,4.457c.28.121-1.567.513,22.472-4.662l10.649,9.931,6.975-4.168v4.392L99.4,99.6Z" transform="translate(-22.004 -55.048)" fill="#fcbf49"/>
          <path id="Trazado_190659" data-name="Trazado 190659" d="M45.157,211.791c-.392.718-.149.28-1.026,1.865l-17.465-9.931v4.289l18.49,10.49Z" transform="translate(-22.005 -168.107)" fill="#fc6a35"/>
          <path id="Trazado_190660" data-name="Trazado 190660" d="M278.267,193.827,264.392,178.1l12.933-2.8.933.848V171.3l-22.043,4.746-.215-.093v3.954l4.243-.932L276.905,197.9l1.361.326Z" transform="translate(-211.242 -141.35)" fill="#fc6a35"/>
          <path id="Trazado_190661" data-name="Trazado 190661" d="M95.641,111.07c-.168,0,.662.187-12.588-2.965-.429-.1.6.933-16.784-18.807-4.215.932-4.121.932-4.5.783L51.172,85.241l-9.194,16.476a.933.933,0,0,1-1.269.359l-.009,0c-1.11-.643.988.55-18.891-10.723a.932.932,0,0,1-.476-.811V86.248a.932.932,0,0,1,1.389-.811l16.654,9.446L53.625,69.277,46.79,65.221a.932.932,0,0,1,0-1.613l3.73-2.126a.932.932,0,0,1,.932,0l8.905,5.278a.933.933,0,0,1,.336,1.259L53.867,80.346l8.812,4,21.959-4.728a.932.932,0,0,1,.83.233L95.6,89.344l6.378-3.814a.933.933,0,0,1,1.408.8v4.392a.933.933,0,0,1-.457.8l-7.46,4.457a.933.933,0,0,1-1.11-.121L83.435,85.614l-10.9,2.313,13.25,15.087,14.807,3.562a.932.932,0,0,1,.242,1.716C95.641,111.238,95.986,111.07,95.641,111.07Zm-11.833-4.709,11.73,2.8,2.378-1.352c-13.931-3.3-13.054-3.012-13.3-3.329L70.082,87.992a.932.932,0,0,1,.5-1.529l12.933-2.8a.932.932,0,0,1,.83.233L95.109,93.987l6.415-3.832V87.973L95.93,91.3a.932.932,0,0,1-1.109-.121L84.563,81.548,62.781,86.211c-.448.093.243.317-10.593-4.616a.932.932,0,0,1-.465-1.234c.011-.024.023-.048.036-.072l6.872-12.383-7.646-4.532-1.865,1.063,6.238,3.73a.932.932,0,0,1,.336,1.259L40.542,96.617a.932.932,0,0,1-1.268.354L23.2,87.852V90l17.614,9.987,9.119-16.4a.932.932,0,0,1,1.24-.392L62.3,88.253l4.159-.933a.932.932,0,0,1,.932.3Z" transform="translate(-17.604 -50.63)"/>
          <path id="Trazado_190662" data-name="Trazado 190662" d="M326.66,111.081c0,4.466-8.1,14.742-8.1,14.742s-8.1-10.257-8.1-14.742a8.1,8.1,0,1,1,16.206,0" transform="translate(-256.176 -84.974)" fill="#fc3349"/>
          <path id="Trazado_190663" data-name="Trazado 190663" d="M313.406,120.62c-.858-1.082-8.308-10.649-8.308-15.311a9.035,9.035,0,1,1,18.062-.58q.009.29,0,.58c0,4.662-7.46,14.239-8.29,15.32a.932.932,0,0,1-1.464-.009Zm.727-22.491a7.18,7.18,0,0,0-7.171,7.18c0,3.068,4.662,9.865,7.171,13.213,2.518-3.348,7.161-10.145,7.161-13.213A7.171,7.171,0,0,0,314.133,98.13Z" transform="translate(-251.752 -79.203)"/>
          <path id="Trazado_190664" data-name="Trazado 190664" d="M339.5,128.312a3.665,3.665,0,1,1-3.665,3.665,3.665,3.665,0,0,1,3.665-3.665" transform="translate(-277.124 -105.879)" fill="#fff"/>
          <path id="Trazado_190665" data-name="Trazado 190665" d="M335.1,132.119a4.6,4.6,0,1,1,4.6-4.6c0,.006,0,.012,0,.019a4.6,4.6,0,0,1-4.6,4.578m0-7.32a2.728,2.728,0,1,0,.009,0H335.1" transform="translate(-272.723 -101.434)"/>
          <path id="Trazado_190666" data-name="Trazado 190666" d="M420.552,80.568v7.254L406.826,74.088l4.625-2.63Z" transform="translate(-335.699 -58.965)" fill="#fcbf49"/>
          <path id="Trazado_190667" data-name="Trazado 190667" d="M415.478,84.08,401.752,70.345a.932.932,0,0,1,.205-1.473l4.662-2.63a.932.932,0,0,1,1.119.149l9.1,9.11a.933.933,0,0,1,.27.662v7.3a.932.932,0,0,1-1.632.615M403.943,69.888l11.264,11.273V76.5l-8.327-8.327Z" transform="translate(-331.287 -54.56)"/>
          <path id="Trazado_190668" data-name="Trazado 190668" d="M54.306,170.117c-.354,0,.55.448-11.189-6.21a.936.936,0,0,1,.932-1.622l10.723,6.089a.932.932,0,0,1-.466,1.744Z" transform="translate(-35.191 -133.808)"/>
          <path id="Trazado_190669" data-name="Trazado 190669" d="M54.306,141.637c-.354,0,.55.448-11.189-6.21a.936.936,0,0,1,.932-1.622l10.723,6.089a.932.932,0,0,1-.466,1.744Z" transform="translate(-35.191 -110.308)"/>
          <path id="Trazado_190670" data-name="Trazado 190670" d="M54.306,113.157c-.354,0,.55.448-11.189-6.21a.936.936,0,0,1,.932-1.622l10.723,6.089a.932.932,0,0,1-.466,1.744" transform="translate(-35.191 -86.807)"/>
        </g>
      </g>
    </g>
  </g>
</svg>
