<svg xmlns="http://www.w3.org/2000/svg" xmlns:xlink="http://www.w3.org/1999/xlink" width="137" height="136" viewBox="0 0 137 136">
  <defs>
    <clipPath id="clip-path">
      <rect id="Rectángulo_340788" data-name="Rectángulo 340788" width="74" height="74" transform="translate(0 -0.435)" fill="none"/>
    </clipPath>
  </defs>
  <g id="Grupo_970873" data-name="Grupo 970873" transform="translate(-1081 -1607)">
    <ellipse id="Elipse_5248" data-name="Elipse 5248" cx="68.5" cy="68" rx="68.5" ry="68" transform="translate(1081 1607)" fill="#f6f6f6"/>
    <g id="Grupo_970865" data-name="Grupo 970865" transform="translate(1113.368 1638.418)">
      <g id="Grupo_970864" data-name="Grupo 970864" transform="translate(-0.368 0.017)" clip-path="url(#clip-path)">
        <path id="Trazado_190671" data-name="Trazado 190671" d="M96.066,424v4.578a6.867,6.867,0,0,1-6.867,6.867H52.578A4.572,4.572,0,0,1,48,430.878v-.011H89.2A6.877,6.877,0,0,0,96.066,424" transform="translate(-40.808 -363.349)" fill="#d18546"/>
        <path id="Trazado_190672" data-name="Trazado 190672" d="M19.444,322.289a2.289,2.289,0,0,1-2.289,2.289H10.289a2.289,2.289,0,1,1,0-4.578h6.867a2.289,2.289,0,0,1,2.289,2.289" transform="translate(-6.53 -274.227)" fill="#b3b3b3"/>
        <path id="Trazado_190673" data-name="Trazado 190673" d="M94.052,356.852A6.8,6.8,0,0,0,96.066,352v4.578a6.877,6.877,0,0,1-6.867,6.867H48v-4.578H89.2A6.8,6.8,0,0,0,94.052,356.852Z" transform="translate(-40.808 -301.649)" fill="#d18546"/>
        <path id="Trazado_190674" data-name="Trazado 190674" d="M342.867,388.578v1.144A6.877,6.877,0,0,1,336,396.589v-5.722A6.877,6.877,0,0,0,342.867,384Z" transform="translate(-287.608 -329.071)" fill="#c6b2a5"/>
        <rect id="Rectángulo_340784" data-name="Rectángulo 340784" width="42" height="6" transform="translate(7 61.565)" fill="#f7e6d5"/>
        <path id="Trazado_190675" data-name="Trazado 190675" d="M449.551,411.44l-2.9,6.374-2.9-6.374Z" transform="translate(-379.953 -352.586)" fill="#4d4d4d"/>
        <path id="Trazado_190676" data-name="Trazado 190676" d="M435.444,368l-2.827,6.214h-5.791L424,368h11.444Z" transform="translate(-363.02 -315.36)" fill="#e0cdbd"/>
        <rect id="Rectángulo_340785" data-name="Rectángulo 340785" width="7" height="37" transform="translate(66 15.565)" fill="#0986cc"/>
        <rect id="Rectángulo_340786" data-name="Rectángulo 340786" width="5" height="37" transform="translate(61 15.565)" fill="#e54c38"/>
        <path id="Trazado_190677" data-name="Trazado 190677" d="M435.444,59.433v4.578H424V59.445A3.448,3.448,0,0,1,427.445,56h4.566a3.433,3.433,0,0,1,3.433,3.433" transform="translate(-363.02 -47.993)" fill="#e6e6e6"/>
        <rect id="Rectángulo_340787" data-name="Rectángulo 340787" width="30" height="14" transform="translate(19 8.565)" fill="#fcd088"/>
        <path id="Trazado_190678" data-name="Trazado 190678" d="M152.033,64v3.39a5.767,5.767,0,0,1-5.766,5.766H128v4.578h29.755V64Z" transform="translate(-109.363 -54.848)" fill="#f9bb3d"/>
        <path id="Trazado_190679" data-name="Trazado 190679" d="M19.444,58.289a2.289,2.289,0,0,1-2.289,2.289H10.289a2.289,2.289,0,0,1,0-4.578h6.867a2.289,2.289,0,0,1,2.289,2.289" transform="translate(-6.53 -47.993)" fill="#b3b3b3"/>
        <path id="Trazado_190680" data-name="Trazado 190680" d="M19.444,146.289a2.289,2.289,0,0,1-2.289,2.289H10.289a2.289,2.289,0,1,1,0-4.578h6.867a2.289,2.289,0,0,1,2.289,2.289" transform="translate(-6.53 -123.404)" fill="#b3b3b3"/>
        <path id="Trazado_190681" data-name="Trazado 190681" d="M96.066,14.867V57.21A6.877,6.877,0,0,1,89.2,64.077H48V57.21h3.433a2.289,2.289,0,1,0,0-4.578H48V44.622h3.433a2.289,2.289,0,1,0,0-4.578H48V32.033h3.433a2.289,2.289,0,0,0,0-4.578H48V19.444h3.433a2.289,2.289,0,0,0,0-4.578H48V12.578A4.578,4.578,0,0,1,52.578,8H89.2a6.867,6.867,0,0,1,6.867,6.867M89.2,16.011H59.444V29.744H89.2Z" transform="translate(-40.808 -6.859)" fill="#dd975e"/>
        <path id="Trazado_190682" data-name="Trazado 190682" d="M89.2,8H52.578A4.578,4.578,0,0,0,48,12.578v2.289h.161a4.567,4.567,0,0,1,4.416-3.433H89.2A6.867,6.867,0,0,1,96.066,18.3V14.867A6.867,6.867,0,0,0,89.2,8" transform="translate(-40.808 -6.859)" fill="#eaad75"/>
        <path id="Trazado_190683" data-name="Trazado 190683" d="M19.444,234.289a2.289,2.289,0,0,1-2.289,2.289H10.289a2.289,2.289,0,1,1,0-4.578h6.867a2.289,2.289,0,0,1,2.289,2.289" transform="translate(-6.53 -198.815)" fill="#b3b3b3"/>
        <path id="Trazado_190684" data-name="Trazado 190684" d="M48.066,0H11.444A5.729,5.729,0,0,0,5.722,5.722V6.867H3.433a3.433,3.433,0,1,0,0,6.867H5.722v5.722H3.433a3.433,3.433,0,0,0,0,6.867H5.722v5.722H3.433a3.433,3.433,0,1,0,0,6.867H5.722v5.722H3.433a3.433,3.433,0,1,0,0,6.867H5.722V67.521a5.716,5.716,0,0,0,5.711,5.722H48.066a8.021,8.021,0,0,0,8.011-8.011V8.011A8.021,8.021,0,0,0,48.066,0M2.289,10.3A1.144,1.144,0,0,1,3.433,9.155H10.3a1.144,1.144,0,0,1,0,2.289H3.433A1.144,1.144,0,0,1,2.289,10.3m0,12.589a1.144,1.144,0,0,1,1.144-1.144H10.3a1.144,1.144,0,0,1,0,2.289H3.433a1.144,1.144,0,0,1-1.144-1.144m0,12.589a1.144,1.144,0,0,1,1.144-1.144H10.3a1.144,1.144,0,1,1,0,2.289H3.433a1.144,1.144,0,0,1-1.144-1.144m0,12.589a1.144,1.144,0,0,1,1.144-1.144H10.3a1.144,1.144,0,1,1,0,2.289H3.433a1.144,1.144,0,0,1-1.144-1.144M52.106,64.7a5.622,5.622,0,0,1-2.9,1.561V62.854a8.38,8.38,0,0,0,4.578-2.327v.127A5.648,5.648,0,0,1,52.106,64.7ZM8.011,62.943H46.921v3.433H8.011Zm44.095-3.964a5.642,5.642,0,0,1-4.04,1.675H8.011V58.366H48.066a7.909,7.909,0,0,0,5.608-2.3A5.625,5.625,0,0,1,52.106,58.979Zm-4.04,11.975H11.444a3.445,3.445,0,0,1-2.424-1,3.487,3.487,0,0,1-.8-1.291H48.066a7.911,7.911,0,0,0,5.608-2.3,5.73,5.73,0,0,1-5.608,4.588m5.722-20.6a5.732,5.732,0,0,1-5.722,5.722H8.011V51.5H10.3a3.433,3.433,0,1,0,0-6.867H8.011V38.91H10.3a3.433,3.433,0,1,0,0-6.867H8.011V26.322H10.3a3.433,3.433,0,0,0,0-6.867H8.011V13.733H10.3a3.433,3.433,0,0,0,0-6.867H8.011V5.722a3.433,3.433,0,0,1,3.433-3.433H48.066a5.729,5.729,0,0,1,5.722,5.722Z" transform="translate(0.326 -0.004)"/>
        <path id="Trazado_190685" data-name="Trazado 190685" d="M425.155,48h-4.566A4.6,4.6,0,0,0,416,52.589V93.777a1.144,1.144,0,0,0,.1.463v.01l5.722,12.589a1.144,1.144,0,0,0,2.083,0l5.722-12.589v-.009a1.124,1.124,0,0,0,.1-.465v-41.2A4.578,4.578,0,0,0,425.155,48m-.128,50.847h-4.321l-1.784-3.925h7.89Zm2.417-6.214h-3.433V58.3h3.433Zm-5.722,0h-3.433V58.3h3.433Zm-1.133-42.344h4.566a2.289,2.289,0,0,1,2.289,2.289v3.433h-9.155V52.589a2.3,2.3,0,0,1,2.3-2.3m2.277,53.31-1.12-2.463h2.241Z" transform="translate(-356.164 -41.137)"/>
        <path id="Trazado_190686" data-name="Trazado 190686" d="M150.9,56H121.144A1.144,1.144,0,0,0,120,57.144V70.878a1.144,1.144,0,0,0,1.144,1.144h18.311a1.144,1.144,0,0,0,0-2.289H122.289V58.289h27.466V69.733h-4.578a1.144,1.144,0,0,0,0,2.289H150.9a1.144,1.144,0,0,0,1.144-1.144V57.144A1.144,1.144,0,0,0,150.9,56" transform="translate(-102.508 -47.993)"/>
        <path id="Trazado_190687" data-name="Trazado 190687" d="M190.878,306.289a1.144,1.144,0,0,0,0-2.289H177.144a1.144,1.144,0,0,0,0,2.289Z" transform="translate(-150.497 -260.516)"/>
        <path id="Trazado_190688" data-name="Trazado 190688" d="M162.322,344H137.144a1.144,1.144,0,0,0,0,2.289h25.177a1.144,1.144,0,1,0,0-2.289" transform="translate(-116.219 -294.793)"/>
        <path id="Trazado_190689" data-name="Trazado 190689" d="M233,154.289h10.586V152H232Z" transform="translate(-198.486 -130.26)"/>
      </g>
    </g>
  </g>
</svg>
